<?xml version="1.0" encoding="UTF-8" standalone="no"?>
<svg
   xmlns:dc="http://purl.org/dc/elements/1.1/"
   xmlns:cc="http://creativecommons.org/ns#"
   xmlns:rdf="http://www.w3.org/1999/02/22-rdf-syntax-ns#"
   xmlns:svg="http://www.w3.org/2000/svg"
   xmlns="http://www.w3.org/2000/svg"
   xmlns:sodipodi="http://sodipodi.sourceforge.net/DTD/sodipodi-0.dtd"
   xmlns:inkscape="http://www.inkscape.org/namespaces/inkscape"
   viewBox="0 0 348 348"
   fill="none"
   version="1.1"
   id="svg72"
   sodipodi:docname="Co-Prime Checker.svg"
   inkscape:version="0.92.4 (5da689c313, 2019-01-14)">
  <metadata
     id="metadata78">
    <rdf:RDF>
      <cc:Work
         rdf:about="">
        <dc:format>image/svg+xml</dc:format>
        <dc:type
           rdf:resource="http://purl.org/dc/dcmitype/StillImage" />
        <dc:title></dc:title>
      </cc:Work>
    </rdf:RDF>
  </metadata>
  <defs
     id="defs76" />
  <sodipodi:namedview
     pagecolor="#ffffff"
     bordercolor="#666666"
     borderopacity="1"
     objecttolerance="10"
     gridtolerance="10"
     guidetolerance="10"
     inkscape:pageopacity="0"
     inkscape:pageshadow="2"
     inkscape:window-width="1920"
     inkscape:window-height="1057"
     id="namedview74"
     showgrid="false"
     inkscape:zoom="2.8373996"
     inkscape:cx="112.30948"
     inkscape:cy="166.95482"
     inkscape:window-x="1912"
     inkscape:window-y="-8"
     inkscape:window-maximized="1"
     inkscape:current-layer="svg72"
     inkscape:snap-object-midpoints="true"
     inkscape:snap-smooth-nodes="true"
     inkscape:snap-midpoints="true"
     inkscape:snap-intersection-paths="true"
     inkscape:snap-bbox="true"
     inkscape:snap-bbox-midpoints="true" />
  <path
     d="M5.079 5.776h336.913v337.67H5.08z"
     id="path2"
     stroke-width="2"
     stroke="#000" />
  <path
     d="M282.734 40.554c0-8.376 6.966-15.165 15.56-15.165 4.126 0 8.084 1.597 11.001 4.441 2.918 2.844 4.558 6.702 4.558 10.724 0 8.376-6.966 15.165-15.56 15.165-8.593 0-15.559-6.79-15.559-15.165z"
     stroke-width="2"
     stroke="#000"
     id="path4" />
  <path
     style="fill:none;fill-opacity:0.33333333;fill-rule:evenodd;stroke:#000000;stroke-width:2.22496486;stroke-linecap:square;stroke-linejoin:miter;stroke-miterlimit:4;stroke-dasharray:none;stroke-dashoffset:0;stroke-opacity:1"
     d="M 16.361317,85.263649 H 264.64797 V 333.5503 H 16.361317 Z"
     id="rect851" />
  <path
     style="fill:none;fill-opacity:0.33333333;fill-rule:evenodd;stroke:#000000;stroke-width:2;stroke-linecap:square;stroke-linejoin:miter;stroke-miterlimit:4;stroke-dasharray:none;stroke-dashoffset:0;stroke-opacity:1"
     d="M 16.361316,209.40698 H 264.64795"
     id="path861"
     inkscape:connector-curvature="0" />
  <g
     aria-label="20"
     style="font-style:normal;font-weight:normal;font-size:32px;line-height:1.25;font-family:sans-serif;text-align:center;letter-spacing:0px;word-spacing:0px;text-anchor:middle;fill:#000000;fill-opacity:1;stroke:none"
     id="text885"
     transform="translate(-27.870055,49.54136)">
    <g
       aria-label="256 185"
       style="font-style:normal;font-weight:normal;font-size:48px;line-height:1.25;font-family:sans-serif;text-align:center;letter-spacing:0px;word-spacing:0px;text-anchor:middle;fill:#000000;fill-opacity:1;stroke:none"
       id="text902">
      <path
         d="m 88.978798,84.093773 h -23.625 v -4.898438 q 2.460937,-2.109375 4.921875,-4.21875 2.484375,-2.109375 4.617187,-4.195312 4.5,-4.359375 6.164063,-6.914063 1.664062,-2.578125 1.664062,-5.554687 0,-2.71875 -1.804687,-4.242188 -1.78125,-1.546875 -4.992188,-1.546875 -2.132812,0 -4.617187,0.75 -2.484375,0.75 -4.851563,2.296875 H 66.220985 V 50.64846 q 1.664063,-0.820312 4.429688,-1.5 2.789062,-0.679687 5.390625,-0.679687 5.367187,0 8.414062,2.601562 3.046875,2.578125 3.046875,7.007813 0,1.992187 -0.515625,3.726562 -0.492187,1.710938 -1.476562,3.257813 -0.914063,1.453125 -2.15625,2.859375 -1.21875,1.40625 -2.976563,3.117187 -2.507812,2.460938 -5.179687,4.78125 -2.671875,2.296875 -4.992188,4.265625 h 18.773438 z"
         style=""
         id="path829" />
      <path
         d="m 119.26005,73.007835 q 0,2.4375 -0.89063,4.664063 -0.89062,2.226562 -2.4375,3.75 -1.6875,1.640625 -4.03125,2.53125 -2.32031,0.867187 -5.39062,0.867187 -2.85938,0 -5.50781,-0.609375 -2.648442,-0.585937 -4.476567,-1.429687 V 77.83596 h 0.328125 q 1.921875,1.21875 4.500002,2.085938 2.57812,0.84375 5.0625,0.84375 1.66406,0 3.21094,-0.46875 1.57031,-0.46875 2.78906,-1.640625 1.03125,-1.007813 1.54687,-2.414063 0.53907,-1.40625 0.53907,-3.257812 0,-1.804688 -0.63282,-3.046875 -0.60937,-1.242188 -1.71093,-1.992188 -1.21875,-0.890625 -2.97657,-1.242187 -1.73437,-0.375 -3.89062,-0.375 -2.0625,0 -3.98438,0.28125 -1.898435,0.28125 -3.281247,0.5625 V 49.195335 h 20.999997 v 4.101563 h -16.47656 v 9.28125 q 1.00781,-0.09375 2.0625,-0.140625 1.05469,-0.04687 1.82813,-0.04687 2.83593,0 4.96875,0.492187 2.13281,0.46875 3.91406,1.6875 1.875,1.289063 2.90625,3.328125 1.03125,2.039063 1.03125,5.109375 z"
         style=""
         id="path831" />
      <path
         d="m 150.61942,72.77346 q 0,5.320313 -3.51562,8.695313 -3.49219,3.351562 -8.57813,3.351562 -2.57812,0 -4.6875,-0.796875 -2.10937,-0.796875 -3.72656,-2.367187 -2.01562,-1.945313 -3.11719,-5.15625 -1.07812,-3.210938 -1.07812,-7.734375 0,-4.640625 0.98437,-8.226563 1.00782,-3.585937 3.1875,-6.375 2.0625,-2.648437 5.32032,-4.125 3.25781,-1.5 7.59375,-1.5 1.38281,0 2.32031,0.117188 0.9375,0.117187 1.89844,0.421875 v 4.476562 h -0.23438 q -0.65625,-0.351562 -1.99219,-0.65625 -1.3125,-0.328125 -2.69531,-0.328125 -5.03906,0 -8.03906,3.164063 -3,3.140625 -3.49219,8.507812 1.96875,-1.195312 3.86719,-1.804687 1.92187,-0.632813 4.42969,-0.632813 2.22656,0 3.91406,0.421875 1.71094,0.398438 3.49219,1.640625 2.0625,1.429688 3.09375,3.609375 1.05468,2.179688 1.05468,5.296875 z m -4.75781,0.1875 q 0,-2.179687 -0.65625,-3.609375 -0.63281,-1.429687 -2.10937,-2.484375 -1.07813,-0.75 -2.39063,-0.984375 -1.3125,-0.234375 -2.74219,-0.234375 -1.99218,0 -3.70312,0.46875 -1.71094,0.46875 -3.51563,1.453125 -0.0469,0.515625 -0.0703,1.007813 -0.0234,0.46875 -0.0234,1.195312 0,3.703125 0.75,5.859375 0.77344,2.132813 2.10938,3.375 1.07812,1.03125 2.32031,1.523438 1.26563,0.46875 2.74219,0.46875 3.39844,0 5.34375,-2.0625 1.94531,-2.085938 1.94531,-5.976563 z"
         style=""
         id="path833" />
      <path
         d="M 86.98661,144.09377 H 68.095985 v -3.5625 h 7.265625 v -23.39062 h -7.265625 v -3.1875 q 1.476563,0 3.164063,-0.23438 1.6875,-0.25781 2.554687,-0.72656 1.078125,-0.58594 1.6875,-1.47656 0.632813,-0.91406 0.726563,-2.4375 h 3.632812 v 31.45312 h 7.125 z"
         style=""
         id="path835" />
      <path
         d="m 119.79911,134.36721 q 0,4.52344 -3.53906,7.52344 -3.51563,3 -8.85938,3 -5.67187,0 -9.046872,-2.92969 -3.351563,-2.92969 -3.351563,-7.5 0,-2.90625 1.6875,-5.25 1.6875,-2.36719 4.757815,-3.75 v -0.14062 q -2.812502,-1.5 -4.171877,-3.28125 -1.335938,-1.78125 -1.335938,-4.45313 0,-3.9375 3.234375,-6.5625 3.23438,-2.625 8.22656,-2.625 5.22657,0 8.34375,2.50781 3.11719,2.50782 3.11719,6.375 0,2.36719 -1.47656,4.66407 -1.47656,2.27343 -4.33594,3.5625 v 0.14062 q 3.28125,1.40625 5.01563,3.46875 1.73437,2.0625 1.73437,5.25 z m -5.55469,-17.03906 q 0,-2.50781 -1.94531,-3.98438 -1.92187,-1.5 -4.92187,-1.5 -2.95313,0 -4.85157,1.40625 -1.875,1.40625 -1.875,3.79688 0,1.6875 0.9375,2.92969 0.96094,1.21875 2.88282,2.17968 0.86718,0.42188 2.48437,1.10157 1.64063,0.67968 3.1875,1.125 2.32031,-1.54688 3.21094,-3.21094 0.89062,-1.66406 0.89062,-3.84375 z m 0.72657,17.48437 q 0,-2.15625 -0.96094,-3.44531 -0.9375,-1.3125 -3.70313,-2.625 -1.10156,-0.51562 -2.41406,-0.96094 -1.3125,-0.44531 -3.49219,-1.24218 -2.10937,1.14843 -3.39843,3.11718 -1.26563,1.96875 -1.26563,4.45313 0,3.16406 2.17969,5.22656 2.17969,2.0625 5.53125,2.0625 3.42187,0 5.46094,-1.75781 2.0625,-1.75781 2.0625,-4.82813 z"
         style=""
         id="path837" />
      <path
         d="m 149.82255,133.00784 q 0,2.4375 -0.89063,4.66406 -0.89062,2.22656 -2.4375,3.75 -1.6875,1.64062 -4.03125,2.53125 -2.32031,0.86719 -5.39062,0.86719 -2.85938,0 -5.50781,-0.60938 -2.64844,-0.58594 -4.47657,-1.42969 v -4.94531 h 0.32813 q 1.92187,1.21875 4.5,2.08594 2.57812,0.84375 5.0625,0.84375 1.66406,0 3.21094,-0.46875 1.57031,-0.46875 2.78906,-1.64063 1.03125,-1.00781 1.54687,-2.41406 0.53907,-1.40625 0.53907,-3.25781 0,-1.80469 -0.63282,-3.04688 -0.60937,-1.24218 -1.71093,-1.99218 -1.21875,-0.89063 -2.97657,-1.24219 -1.73437,-0.375 -3.89062,-0.375 -2.0625,0 -3.98438,0.28125 -1.89843,0.28125 -3.28125,0.5625 v -17.97656 h 21 v 4.10156 h -16.47656 v 9.28125 q 1.00781,-0.0937 2.0625,-0.14063 1.05469,-0.0469 1.82813,-0.0469 2.83593,0 4.96875,0.49219 2.13281,0.46875 3.91406,1.6875 1.875,1.28906 2.90625,3.32812 1.03125,2.03906 1.03125,5.10938 z"
         style=""
         id="path839" />
    </g>
  </g>
  <path
     style="fill:none;fill-opacity:1;fill-rule:nonzero;stroke:#000000;stroke-width:2;stroke-linecap:butt;stroke-linejoin:round;stroke-miterlimit:4;stroke-dasharray:none;stroke-dashoffset:0;stroke-opacity:1"
     d="m 140.50463,209.40698 1e-5,124.14332"
     id="path884"
     inkscape:connector-curvature="0" />
  <g
     aria-label="Co- Prime"
     style="font-style:normal;font-weight:normal;font-size:29.33333397px;line-height:1.25;font-family:sans-serif;text-align:center;letter-spacing:0px;word-spacing:0px;text-anchor:middle;fill:#000000;fill-opacity:1;stroke:none"
     id="text888">
    <path
       d="m 72.004628,260.70496 q -0.78776,0.34375 -1.432291,0.64453 -0.630209,0.30078 -1.661459,0.63021 -0.873698,0.27213 -1.904948,0.45833 -1.016927,0.20052 -2.248698,0.20052 -2.320312,0 -4.22526,-0.64453 -1.890625,-0.65886 -3.294271,-2.04818 -1.375,-1.36068 -2.148438,-3.45182 -0.773437,-2.10547 -0.773437,-4.88412 0,-2.63541 0.744792,-4.71224 0.744791,-2.07682 2.148437,-3.50911 1.360677,-1.38932 3.279948,-2.11979 1.933594,-0.73047 4.282552,-0.73047 1.71875,0 3.423177,0.41536 1.71875,0.41537 3.809896,1.46094 v 3.36589 h -0.214843 q -1.761719,-1.47526 -3.494792,-2.14844 -1.733073,-0.67318 -3.709636,-0.67318 -1.618489,0 -2.921875,0.52995 -1.289062,0.51562 -2.305989,1.61849 -0.988282,1.07422 -1.546875,2.72135 -0.544271,1.63282 -0.544271,3.78125 0,2.2487 0.601562,3.86719 0.615886,1.61849 1.575521,2.63542 1.002604,1.05989 2.334636,1.57552 1.346354,0.5013 2.835937,0.5013 2.048177,0 3.838542,-0.70182 1.790365,-0.70182 3.351563,-2.10547 h 0.20052 z"
       style=""
       id="path842" />
    <path
       d="m 89.464265,254.25964 q 0,3.91016 -2.005208,6.17318 -2.005209,2.26302 -5.371094,2.26302 -3.394532,0 -5.39974,-2.26302 -1.990885,-2.26302 -1.990885,-6.17318 0,-3.91015 1.990885,-6.17317 2.005208,-2.27735 5.39974,-2.27735 3.365885,0 5.371094,2.27735 2.005208,2.26302 2.005208,6.17317 z m -2.778646,0 q 0,-3.10807 -1.217448,-4.61198 -1.217448,-1.51823 -3.380208,-1.51823 -2.191407,0 -3.408855,1.51823 -1.203125,1.50391 -1.203125,4.61198 0,3.00782 1.217448,4.56901 1.217448,1.54688 3.394532,1.54688 2.148437,0 3.365885,-1.53255 1.231771,-1.54688 1.231771,-4.58334 z"
       style=""
       id="path844" />
    <path
       d="m 102.12572,254.21667 h -8.937498 v -2.59244 h 8.937498 z"
       style=""
       id="path846" />
    <path
       d="m 53.15567,284.03699 q 0,1.41797 -0.501302,2.63541 -0.48698,1.20313 -1.375001,2.09115 -1.102864,1.10286 -2.60677,1.66146 -1.503907,0.54427 -3.795573,0.54427 h -2.835938 v 7.94922 h -2.835938 v -21.32682 h 5.786459 q 1.919271,0 3.251302,0.32942 1.332031,0.31511 2.363281,1.00261 1.217448,0.8164 1.876303,2.03385 0.673177,1.21745 0.673177,3.07943 z m -2.950521,0.0716 q 0,-1.10286 -0.386719,-1.91927 -0.386719,-0.8164 -1.174479,-1.33203 -0.6875,-0.44401 -1.575521,-0.63021 -0.873698,-0.20052 -2.220052,-0.20052 h -2.807292 v 8.52214 h 2.391927 q 1.71875,0 2.792969,-0.30078 1.074219,-0.31511 1.747396,-0.98829 0.673177,-0.6875 0.945312,-1.44661 0.286459,-0.75912 0.286459,-1.70443 z"
       style=""
       id="path848" />
    <path
       d="m 66.676503,285.856 h -0.143229 q -0.601563,-0.14323 -1.17448,-0.20052 -0.558593,-0.0716 -1.332031,-0.0716 -1.246094,0 -2.40625,0.5586 -1.160156,0.54427 -2.234375,1.41797 V 298.9185 H 56.69343 v -15.9987 h 2.692708 v 2.36328 q 1.604167,-1.28906 2.821615,-1.81901 1.231771,-0.54427 2.50651,-0.54427 0.701823,0 1.016927,0.043 0.315105,0.0286 0.945313,0.12891 z"
       style=""
       id="path850" />
    <path
       d="m 72.133534,280.24141 h -3.036458 v -2.79296 h 3.036458 z m -0.171875,18.67709 h -2.692708 v -15.9987 h 2.692708 z"
       style=""
       id="path852" />
    <path
       d="m 100.66478,298.9185 h -2.692704 v -9.10938 q 0,-1.03125 -0.10026,-1.99088 -0.08594,-0.95964 -0.386719,-1.53255 -0.329427,-0.61589 -0.945313,-0.93099 -0.615885,-0.31511 -1.776041,-0.31511 -1.131511,0 -2.263021,0.57292 -1.131511,0.55859 -2.263021,1.43229 0.04297,0.32943 0.07161,0.77344 0.02865,0.42969 0.02865,0.85937 v 10.24089 h -2.692708 v -9.10938 q 0,-1.05989 -0.100261,-2.00521 -0.08594,-0.95963 -0.386718,-1.53255 -0.329427,-0.61588 -0.945313,-0.91666 -0.615885,-0.31511 -1.776042,-0.31511 -1.102864,0 -2.220052,0.54427 -1.102864,0.54427 -2.205729,1.38933 V 298.9185 H 77.31843 v -15.9987 h 2.692708 v 1.77604 q 1.260417,-1.04557 2.506511,-1.63281 1.260416,-0.58724 2.678385,-0.58724 1.632813,0 2.764323,0.6875 1.145833,0.6875 1.704427,1.90495 1.632813,-1.375 2.979167,-1.97656 1.346354,-0.61589 2.878906,-0.61589 2.635417,0 3.881511,1.60417 1.260412,1.58984 1.260412,4.45442 z"
       style=""
       id="path854" />
    <path
       d="m 119.24161,291.19845 h -11.78776 q 0,1.47526 0.44401,2.57812 0.44401,1.08854 1.21744,1.79037 0.7448,0.6875 1.76172,1.03125 1.03125,0.34375 2.26302,0.34375 1.63282,0 3.27995,-0.64454 1.66146,-0.65885 2.36328,-1.28906 h 0.14323 v 2.9362 q -1.36067,0.57292 -2.77864,0.95964 -1.41797,0.38671 -2.97917,0.38671 -3.98177,0 -6.21615,-2.14843 -2.23437,-2.16276 -2.23437,-6.13021 0,-3.92448 2.13411,-6.23047 2.14844,-2.30599 5.64323,-2.30599 3.23698,0 4.98438,1.89062 1.76172,1.89063 1.76172,5.3711 z m -2.6211,-2.0625 q -0.0143,-2.1198 -1.07422,-3.27995 -1.04557,-1.16016 -3.19401,-1.16016 -2.16276,0 -3.45182,1.27474 -1.27474,1.27474 -1.44661,3.16537 z"
       style=""
       id="path856" />
  </g>
  <g
     aria-label="Not Co- Prime"
     style="font-style:normal;font-weight:normal;font-size:29.33333397px;line-height:1.25;font-family:sans-serif;text-align:center;letter-spacing:0px;word-spacing:0px;text-anchor:middle;fill:#000000;fill-opacity:1;stroke:none"
     id="text896">
    <path
       d="m 164.1388,261.72604 h -3.50912 L 150.5177,242.64792 v 19.07812 h -2.64974 v -21.32682 h 4.39714 l 9.22396,17.41667 v -17.41667 h 2.64974 z"
       style=""
       id="path859" />
    <path
       d="m 183.23125,253.73386 q 0,3.91015 -2.00521,6.17317 -2.00521,2.26302 -5.3711,2.26302 -3.39453,0 -5.39974,-2.26302 -1.99088,-2.26302 -1.99088,-6.17317 0,-3.91016 1.99088,-6.17318 2.00521,-2.27734 5.39974,-2.27734 3.36589,0 5.3711,2.27734 2.00521,2.26302 2.00521,6.17318 z m -2.77865,0 q 0,-3.10808 -1.21745,-4.61198 -1.21745,-1.51823 -3.38021,-1.51823 -2.1914,0 -3.40885,1.51823 -1.20312,1.5039 -1.20312,4.61198 0,3.00781 1.21744,4.56901 1.21745,1.54687 3.39453,1.54687 2.14844,0 3.36589,-1.53255 1.23177,-1.54688 1.23177,-4.58333 z"
       style=""
       id="path862" />
    <path
       d="m 195.72083,261.58281 q -0.75911,0.20053 -1.66146,0.32943 -0.88802,0.12891 -1.58984,0.12891 -2.44922,0 -3.72396,-1.31771 -1.27474,-1.31771 -1.27474,-4.22526 v -8.50781 h -1.81901 v -2.26302 h 1.81901 v -4.59766 h 2.69271 v 4.59766 h 5.55729 v 2.26302 h -5.55729 v 7.29036 q 0,1.26042 0.0573,1.97656 0.0573,0.70183 0.40104,1.31771 0.31511,0.57292 0.85938,0.84505 0.55859,0.25782 1.6901,0.25782 0.65886,0 1.375,-0.1862 0.71615,-0.20052 1.03125,-0.32943 h 0.14323 z"
       style=""
       id="path864" />
    <path
       d="m 225.98515,260.17917 q -0.78776,0.34375 -1.43229,0.64453 -0.63021,0.30078 -1.66146,0.63021 -0.87369,0.27213 -1.90494,0.45833 -1.01693,0.20052 -2.2487,0.20052 -2.32031,0 -4.22526,-0.64453 -1.89063,-0.65885 -3.29427,-2.04818 -1.375,-1.36067 -2.14844,-3.45182 -0.77344,-2.10547 -0.77344,-4.88411 0,-2.63542 0.74479,-4.71224 0.7448,-2.07683 2.14844,-3.50912 1.36068,-1.38932 3.27995,-2.11979 1.93359,-0.73047 4.28255,-0.73047 1.71875,0 3.42318,0.41537 1.71875,0.41536 3.80989,1.46093 v 3.36589 h -0.21484 q -1.76172,-1.47526 -3.49479,-2.14844 -1.73307,-0.67318 -3.70964,-0.67318 -1.61849,0 -2.92187,0.52995 -1.28906,0.51563 -2.30599,1.61849 -0.98828,1.07422 -1.54688,2.72136 -0.54427,1.63281 -0.54427,3.78125 0,2.24869 0.60157,3.86718 0.61588,1.61849 1.57552,2.63542 1.0026,1.0599 2.33463,1.57552 1.34636,0.5013 2.83594,0.5013 2.04818,0 3.83854,-0.70182 1.79037,-0.70182 3.35156,-2.10547 h 0.20052 z"
       style=""
       id="path866" />
    <path
       d="m 243.44479,253.73386 q 0,3.91015 -2.00521,6.17317 -2.00521,2.26302 -5.37109,2.26302 -3.39454,0 -5.39974,-2.26302 -1.99089,-2.26302 -1.99089,-6.17317 0,-3.91016 1.99089,-6.17318 2.0052,-2.27734 5.39974,-2.27734 3.36588,0 5.37109,2.27734 2.00521,2.26302 2.00521,6.17318 z m -2.77865,0 q 0,-3.10808 -1.21745,-4.61198 -1.21744,-1.51823 -3.3802,-1.51823 -2.19141,0 -3.40886,1.51823 -1.20312,1.5039 -1.20312,4.61198 0,3.00781 1.21744,4.56901 1.21745,1.54687 3.39454,1.54687 2.14843,0 3.36588,-1.53255 1.23177,-1.54688 1.23177,-4.58333 z"
       style=""
       id="path868" />
    <path
       d="m 256.10625,253.69089 h -8.9375 v -2.59245 h 8.9375 z"
       style=""
       id="path870" />
    <path
       d="m 176.31328,283.5112 q 0,1.41797 -0.5013,2.63542 -0.48698,1.20312 -1.375,2.09114 -1.10287,1.10287 -2.60678,1.66146 -1.5039,0.54427 -3.79557,0.54427 h -2.83594 v 7.94922 h -2.83593 v -21.32682 h 5.78645 q 1.91928,0 3.25131,0.32942 1.33203,0.31511 2.36328,1.00261 1.21745,0.81641 1.8763,2.03385 0.67318,1.21745 0.67318,3.07943 z m -2.95052,0.0716 q 0,-1.10287 -0.38672,-1.91928 -0.38672,-0.8164 -1.17448,-1.33203 -0.6875,-0.44401 -1.57552,-0.63021 -0.8737,-0.20052 -2.22005,-0.20052 h -2.8073 v 8.52214 h 2.39193 q 1.71875,0 2.79297,-0.30078 1.07422,-0.31511 1.7474,-0.98828 0.67317,-0.6875 0.94531,-1.44662 0.28646,-0.75911 0.28646,-1.70442 z"
       style=""
       id="path872" />
    <path
       d="m 189.83411,285.33021 h -0.14323 q -0.60156,-0.14323 -1.17448,-0.20052 -0.55859,-0.0716 -1.33203,-0.0716 -1.24609,0 -2.40625,0.55859 -1.16016,0.54427 -2.23437,1.41797 v 11.35807 h -2.69271 v -15.9987 h 2.69271 v 2.36328 q 1.60416,-1.28906 2.82161,-1.81901 1.23177,-0.54427 2.50651,-0.54427 0.70182,0 1.01693,0.043 0.3151,0.0286 0.94531,0.12891 z"
       style=""
       id="path874" />
    <path
       d="m 195.29114,279.71563 h -3.03646 v -2.79297 h 3.03646 z m -0.17187,18.67708 h -2.69271 v -15.9987 h 2.69271 z"
       style=""
       id="path876" />
    <path
       d="m 223.82239,298.39271 h -2.69271 v -9.10937 q 0,-1.03125 -0.10026,-1.99089 -0.0859,-0.95963 -0.38672,-1.53255 -0.32942,-0.61589 -0.94531,-0.93099 -0.61588,-0.31511 -1.77604,-0.31511 -1.13151,0 -2.26302,0.57292 -1.13151,0.5586 -2.26302,1.43229 0.043,0.32943 0.0716,0.77344 0.0286,0.42969 0.0286,0.85938 v 10.24088 h -2.69271 v -9.10937 q 0,-1.0599 -0.10026,-2.00521 -0.0859,-0.95964 -0.38672,-1.53255 -0.32943,-0.61589 -0.94531,-0.91667 -0.61589,-0.31511 -1.77604,-0.31511 -1.10287,0 -2.22005,0.54428 -1.10287,0.54427 -2.20573,1.38932 v 11.94531 h -2.69271 v -15.9987 h 2.69271 v 1.77604 q 1.26041,-1.04557 2.50651,-1.63281 1.26041,-0.58724 2.67838,-0.58724 1.63281,0 2.76433,0.6875 1.14583,0.6875 1.70442,1.90495 1.63281,-1.375 2.97917,-1.97656 1.34635,-0.61589 2.87891,-0.61589 2.63541,0 3.88151,1.60417 1.26041,1.58984 1.26041,4.45443 z"
       style=""
       id="path878" />
    <path
       d="m 242.39922,290.67266 h -11.78777 q 0,1.47526 0.44401,2.57812 0.44402,1.08855 1.21745,1.79037 0.74479,0.6875 1.76172,1.03125 1.03125,0.34375 2.26302,0.34375 1.63282,0 3.27995,-0.64453 1.66146,-0.65886 2.36328,-1.28907 h 0.14323 v 2.9362 q -1.36068,0.57292 -2.77864,0.95964 -1.41797,0.38672 -2.97917,0.38672 -3.98177,0 -6.21615,-2.14844 -2.23437,-2.16276 -2.23437,-6.13021 0,-3.92448 2.13411,-6.23047 2.14844,-2.30599 5.64323,-2.30599 3.23698,0 4.98438,1.89063 1.76172,1.89062 1.76172,5.37109 z m -2.6211,-2.0625 q -0.0143,-2.11979 -1.07422,-3.27995 -1.04557,-1.16016 -3.19401,-1.16016 -2.16276,0 -3.45182,1.27474 -1.27474,1.27474 -1.44662,3.16537 z"
       style=""
       id="path880" />
  </g>
  <path
     style="fill:none;fill-opacity:1;fill-rule:nonzero;stroke:#000000;stroke-width:2;stroke-linecap:butt;stroke-linejoin:round;stroke-miterlimit:4;stroke-dasharray:none;stroke-dashoffset:0;stroke-opacity:1"
     d="m 166.48678,168.87611 h 71.68604 v 11.46977 h -71.68604 z"
     id="rect906"
     inkscape:connector-curvature="0" />
  <path
     style="fill:none;fill-opacity:1;fill-rule:nonzero;stroke:#000000;stroke-width:2;stroke-linecap:butt;stroke-linejoin:round;stroke-miterlimit:4;stroke-dasharray:none;stroke-dashoffset:0;stroke-opacity:1"
     d="m 166.48678,141.83557 h 71.68604 v 11.46977 h -71.68604 z"
     id="rect908"
     inkscape:connector-curvature="0" />
  <path
     style="fill:none;fill-opacity:1;fill-rule:nonzero;stroke:#000000;stroke-width:2;stroke-linecap:butt;stroke-linejoin:round;stroke-miterlimit:4;stroke-dasharray:none;stroke-dashoffset:0;stroke-opacity:1"
     d="m 166.48678,114.79423 h 71.68604 V 126.264 h -71.68604 z"
     id="rect910"
     inkscape:connector-curvature="0" />
</svg>
