<?xml version="1.0" encoding="UTF-8" standalone="no"?>
<svg
   xmlns:dc="http://purl.org/dc/elements/1.1/"
   xmlns:cc="http://creativecommons.org/ns#"
   xmlns:rdf="http://www.w3.org/1999/02/22-rdf-syntax-ns#"
   xmlns:svg="http://www.w3.org/2000/svg"
   xmlns="http://www.w3.org/2000/svg"
   xmlns:xlink="http://www.w3.org/1999/xlink"
   xmlns:sodipodi="http://sodipodi.sourceforge.net/DTD/sodipodi-0.dtd"
   xmlns:inkscape="http://www.inkscape.org/namespaces/inkscape"
   id="Layer_1"
   viewBox="0 0 348 348"
   version="1.1"
   sodipodi:docname="Collapse.svg"
   inkscape:version="0.92.4 (5da689c313, 2019-01-14)">
  <metadata
     id="metadata79">
    <rdf:RDF>
      <cc:Work
         rdf:about="">
        <dc:format>image/svg+xml</dc:format>
        <dc:type
           rdf:resource="http://purl.org/dc/dcmitype/StillImage" />
        <dc:title></dc:title>
      </cc:Work>
    </rdf:RDF>
  </metadata>
  <sodipodi:namedview
     pagecolor="#ffffff"
     bordercolor="#666666"
     borderopacity="1"
     objecttolerance="10"
     gridtolerance="10"
     guidetolerance="10"
     inkscape:pageopacity="0"
     inkscape:pageshadow="2"
     inkscape:window-width="1920"
     inkscape:window-height="1057"
     id="namedview77"
     showgrid="false"
     inkscape:zoom="2.1328707"
     inkscape:cx="124.25749"
     inkscape:cy="125.34955"
     inkscape:window-x="1272"
     inkscape:window-y="-8"
     inkscape:window-maximized="1"
     inkscape:current-layer="Layer_1" />
  <style
     id="style2">
        .st0{clip-path:url(#SVGID_2_);fill:none;stroke:#000;stroke-width:2;stroke-linejoin:round;stroke-miterlimit:10}.st1,.st2,.st3{clip-path:url(#SVGID_2_)}.st2{fill:#fff}.st3{fill-opacity:0}.st4{fill:none;stroke:#000;stroke-linejoin:round;stroke-miterlimit:10}
    </style>
  <defs
     id="defs5">
    <path
       id="SVGID_1_"
       d="M0 0h348v348H0z" />
  </defs>
  <clipPath
     id="SVGID_2_">
    <use
       xlink:href="#SVGID_1_"
       overflow="visible"
       id="use7" />
  </clipPath>
  <path
     class="st0"
     d="M 5,5.8 H 342 V 343.5 H 5 Z"
     clip-path="url(#SVGID_2_)"
     id="path10"
     inkscape:connector-curvature="0"
     transform="rotate(-90,173.5,174.65)"
     style="fill:none;stroke:#000000;stroke-width:2;stroke-linejoin:round;stroke-miterlimit:10" />
  <path
     class="st1"
     d="M 133.8,15.7 H 208 v 57 h -74 v -57 z"
     clip-path="url(#SVGID_2_)"
     id="path12"
     inkscape:connector-curvature="0"
     transform="rotate(-90,173.5,174.65)" />
  <path
     class="st2"
     d="m 154.5,44 c 0,-2.6 0.3,-4.8 0.8,-6.4 0.6,-1.7 1.4,-3 2.5,-3.8 1,-1 2.5,-1.3 4.2,-1.3 1.2,0 2.3,0.3 3.2,0.8 1,0.5 1.7,1.2 2.3,2 0.6,1 1,2.2 1.4,3.5 0.2,1.3 0.4,3 0.4,5.4 0,2.7 -0.3,5 -0.8,6.5 -0.6,1.6 -1.4,3 -2.5,3.8 -1,1 -2.4,1.3 -4,1.3 -2.3,0 -4,-0.8 -5.3,-2.4 -1.4,-2 -2.2,-5 -2.2,-9.3 z m 3,0 c 0,4 0.3,6.4 1.2,7.6 1,1.2 2,2 3.3,2 1.3,0 2.4,-0.7 3.3,-2 1,-1.3 1.3,-3.8 1.3,-7.5 0,-3.7 -0.4,-6.2 -1.3,-7.4 -1,-1.2 -2,-2 -3.3,-2 -1.3,0 -2.3,0.6 -3,1.7 -1,1.5 -1.6,4 -1.6,7.8 z m 14.8,0 c 0,-2.6 0.3,-4.8 0.8,-6.4 0.7,-1.7 1.5,-3 2.6,-3.8 1,-1 2.5,-1.3 4.2,-1.3 1.2,0 2.3,0.3 3.2,0.8 1,0.5 1.7,1.2 2.3,2 0.6,1 1,2.2 1.4,3.5 0.3,1.3 0.5,3 0.5,5.4 0,2.7 -0.3,5 -0.8,6.5 -0.6,1.6 -1.4,3 -2.5,3.8 -1.2,1 -2.6,1.3 -4.3,1.3 -2.2,0 -4,-0.8 -5.2,-2.4 -1.4,-2 -2.2,-5 -2.2,-9.3 z m 3,0 c 0,4 0.3,6.4 1.2,7.6 1,1.2 2,2 3.3,2 1.3,0 2.4,-0.7 3.3,-2 1,-1.3 1.4,-3.8 1.4,-7.5 0,-3.7 -0.4,-6.2 -1.3,-7.4 -0.8,-1.2 -2,-2 -3.2,-2 -1.3,0 -2.3,0.6 -3,1.7 -1,1.5 -1.6,4 -1.6,7.8 z M 15.3,17.7 h 110 v 54.8 h -110 z"
     clip-path="url(#SVGID_2_)"
     id="path14"
     inkscape:connector-curvature="0"
     transform="rotate(-90,173.5,174.65)"
     style="fill:#ffffff" />
  <path
     class="st0"
     d="m 15.3,17.7 h 110 V 72.5 H 15.3 V 17.7 Z"
     clip-path="url(#SVGID_2_)"
     id="path16"
     inkscape:connector-curvature="0"
     transform="rotate(-90,173.5,174.65)"
     style="fill:none;stroke:#000000;stroke-width:2;stroke-linejoin:round;stroke-miterlimit:10" />
  <path
     class="st3"
     d="M 15.3,72.7 55,18.7"
     clip-path="url(#SVGID_2_)"
     id="path18"
     inkscape:connector-curvature="0"
     transform="rotate(-90,173.5,174.65)"
     style="fill-opacity:0" />
  <path
     class="st0"
     d="M 15.3,72.7 55,18.7"
     clip-path="url(#SVGID_2_)"
     id="path20"
     inkscape:connector-curvature="0"
     transform="rotate(-90,173.5,174.65)"
     style="fill:none;stroke:#000000;stroke-width:2;stroke-linejoin:round;stroke-miterlimit:10" />
  <path
     class="st3"
     d="m 37.6,72.7 39.7,-54"
     clip-path="url(#SVGID_2_)"
     id="path22"
     inkscape:connector-curvature="0"
     transform="rotate(-90,173.5,174.65)"
     style="fill-opacity:0" />
  <path
     class="st0"
     d="m 37.6,72.7 39.7,-54"
     clip-path="url(#SVGID_2_)"
     id="path24"
     inkscape:connector-curvature="0"
     transform="rotate(-90,173.5,174.65)"
     style="fill:none;stroke:#000000;stroke-width:2;stroke-linejoin:round;stroke-miterlimit:10" />
  <path
     class="st3"
     d="m 60,72.7 39.6,-54"
     clip-path="url(#SVGID_2_)"
     id="path26"
     inkscape:connector-curvature="0"
     transform="rotate(-90,173.5,174.65)"
     style="fill-opacity:0" />
  <path
     class="st0"
     d="m 60,72.7 39.6,-54"
     clip-path="url(#SVGID_2_)"
     id="path28"
     inkscape:connector-curvature="0"
     transform="rotate(-90,173.5,174.65)"
     style="fill:none;stroke:#000000;stroke-width:2;stroke-linejoin:round;stroke-miterlimit:10" />
  <path
     class="st3"
     d="m 82.2,72.7 39.7,-54"
     clip-path="url(#SVGID_2_)"
     id="path30"
     inkscape:connector-curvature="0"
     transform="rotate(-90,173.5,174.65)"
     style="fill-opacity:0" />
  <path
     class="st0"
     d="m 82.2,72.7 39.7,-54"
     clip-path="url(#SVGID_2_)"
     id="path32"
     inkscape:connector-curvature="0"
     transform="rotate(-90,173.5,174.65)"
     style="fill:none;stroke:#000000;stroke-width:2;stroke-linejoin:round;stroke-miterlimit:10" />
  <path
     class="st2"
     d="m 217,16.6 h 109.8 v 54.8 h -110 V 16.6 Z"
     clip-path="url(#SVGID_2_)"
     id="path34"
     inkscape:connector-curvature="0"
     transform="rotate(-90,173.5,174.65)"
     style="fill:#ffffff" />
  <path
     class="st0"
     d="m 217,16.6 h 109.8 v 54.8 h -110 V 16.6 Z"
     clip-path="url(#SVGID_2_)"
     id="path36"
     inkscape:connector-curvature="0"
     transform="rotate(-90,173.5,174.65)"
     style="fill:none;stroke:#000000;stroke-width:2;stroke-linejoin:round;stroke-miterlimit:10" />
  <path
     class="st3"
     d="m 217,71.6 39.6,-54"
     clip-path="url(#SVGID_2_)"
     id="path38"
     inkscape:connector-curvature="0"
     transform="rotate(-90,173.5,174.65)"
     style="fill-opacity:0" />
  <path
     class="st0"
     d="m 217,71.6 39.6,-54"
     clip-path="url(#SVGID_2_)"
     id="path40"
     inkscape:connector-curvature="0"
     transform="rotate(-90,173.5,174.65)"
     style="fill:none;stroke:#000000;stroke-width:2;stroke-linejoin:round;stroke-miterlimit:10" />
  <path
     class="st3"
     d="m 239.2,71.6 39.7,-54"
     clip-path="url(#SVGID_2_)"
     id="path42"
     inkscape:connector-curvature="0"
     transform="rotate(-90,173.5,174.65)"
     style="fill-opacity:0" />
  <path
     class="st0"
     d="m 239.2,71.6 39.7,-54"
     clip-path="url(#SVGID_2_)"
     id="path44"
     inkscape:connector-curvature="0"
     transform="rotate(-90,173.5,174.65)"
     style="fill:none;stroke:#000000;stroke-width:2;stroke-linejoin:round;stroke-miterlimit:10" />
  <path
     class="st3"
     d="m 261.5,71.6 39.7,-54"
     clip-path="url(#SVGID_2_)"
     id="path46"
     inkscape:connector-curvature="0"
     transform="rotate(-90,173.5,174.65)"
     style="fill-opacity:0" />
  <path
     class="st0"
     d="m 261.5,71.6 39.7,-54"
     clip-path="url(#SVGID_2_)"
     id="path48"
     inkscape:connector-curvature="0"
     transform="rotate(-90,173.5,174.65)"
     style="fill:none;stroke:#000000;stroke-width:2;stroke-linejoin:round;stroke-miterlimit:10" />
  <path
     class="st3"
     d="m 283.8,71.6 39.7,-54"
     clip-path="url(#SVGID_2_)"
     id="path50"
     inkscape:connector-curvature="0"
     transform="rotate(-90,173.5,174.65)"
     style="fill-opacity:0" />
  <path
     class="st0"
     d="m 283.8,71.6 39.7,-54"
     clip-path="url(#SVGID_2_)"
     id="path52"
     inkscape:connector-curvature="0"
     transform="rotate(-90,173.5,174.65)"
     style="fill:none;stroke:#000000;stroke-width:2;stroke-linejoin:round;stroke-miterlimit:10" />
  <path
     style="fill:none;fill-opacity:1;fill-rule:nonzero;stroke:#000000;stroke-width:1.77478337;stroke-linecap:round;stroke-linejoin:round;stroke-miterlimit:4;stroke-dasharray:none;stroke-dashoffset:0;stroke-opacity:1"
     d="m 104.54152,315.55045 h 21.39123 v 21.39123 h -21.39123 z"
     id="rect842" />
  <path
     style="fill:none;fill-opacity:1;fill-rule:nonzero;stroke:#000000;stroke-width:1.77478337;stroke-linecap:round;stroke-linejoin:round;stroke-miterlimit:4;stroke-dasharray:none;stroke-dashoffset:0;stroke-opacity:1"
     d="m 125.93275,315.55045 h 21.39123 v 21.39123 h -21.39123 z"
     id="rect844" />
  <path
     style="fill:none;fill-opacity:1;fill-rule:nonzero;stroke:#000000;stroke-width:1.77478337;stroke-linecap:round;stroke-linejoin:round;stroke-miterlimit:4;stroke-dasharray:none;stroke-dashoffset:0;stroke-opacity:1"
     d="m 147.32399,315.55045 h 21.39123 v 21.39123 h -21.39123 z"
     id="rect846" />
  <path
     style="fill:none;fill-opacity:1;fill-rule:nonzero;stroke:#000000;stroke-width:1.77478337;stroke-linecap:round;stroke-linejoin:round;stroke-miterlimit:4;stroke-dasharray:none;stroke-dashoffset:0;stroke-opacity:1"
     d="m 168.71523,315.55045 h 21.39123 v 21.39123 h -21.39123 z"
     id="rect848" />
  <path
     style="fill:none;fill-opacity:1;fill-rule:nonzero;stroke:#000000;stroke-width:1.77478337;stroke-linecap:round;stroke-linejoin:round;stroke-miterlimit:4;stroke-dasharray:none;stroke-dashoffset:0;stroke-opacity:1"
     d="m 190.10646,315.55045 h 21.39123 v 21.39123 h -21.39123 z"
     id="rect850" />
  <path
     style="fill:none;fill-opacity:1;fill-rule:nonzero;stroke:#000000;stroke-width:1.77478337;stroke-linecap:round;stroke-linejoin:round;stroke-miterlimit:4;stroke-dasharray:none;stroke-dashoffset:0;stroke-opacity:1"
     d="m 211.49771,315.55045 h 21.39123 v 21.39123 h -21.39123 z"
     id="rect852" />
  <path
     style="fill:none;fill-opacity:1;fill-rule:nonzero;stroke:#000000;stroke-width:1.77478337;stroke-linecap:round;stroke-linejoin:round;stroke-miterlimit:4;stroke-dasharray:none;stroke-dashoffset:0;stroke-opacity:1"
     d="m 232.88895,315.55045 h 21.39123 v 21.39123 h -21.39123 z"
     id="rect854" />
  <path
     style="fill:none;fill-opacity:1;fill-rule:nonzero;stroke:#000000;stroke-width:1.77478337;stroke-linecap:round;stroke-linejoin:round;stroke-miterlimit:4;stroke-dasharray:none;stroke-dashoffset:0;stroke-opacity:1"
     d="m 254.28018,315.55045 h 21.39123 v 21.39123 h -21.39123 z"
     id="rect856" />
  <path
     style="fill:none;fill-opacity:1;fill-rule:nonzero;stroke:#000000;stroke-width:1.77478337;stroke-linecap:round;stroke-linejoin:round;stroke-miterlimit:4;stroke-dasharray:none;stroke-dashoffset:0;stroke-opacity:1"
     d="m 275.67142,315.55045 h 21.39123 v 21.39123 h -21.39123 z"
     id="rect858" />
  <path
     style="fill:none;fill-opacity:1;fill-rule:nonzero;stroke:#000000;stroke-width:1.77478337;stroke-linecap:round;stroke-linejoin:round;stroke-miterlimit:4;stroke-dasharray:none;stroke-dashoffset:0;stroke-opacity:1"
     d="m 297.06265,315.55045 h 21.39123 v 21.39123 h -21.39123 z"
     id="rect860" />
  <path
     style="fill:none;fill-opacity:1;fill-rule:nonzero;stroke:#000000;stroke-width:2;stroke-linecap:round;stroke-linejoin:round;stroke-miterlimit:4;stroke-dasharray:none;stroke-dashoffset:0;stroke-opacity:1"
     d="M 104.54152,16.073112 H 318.45389 V 336.94167 H 104.54152 Z"
     id="rect890" />
  <path
     style="fill:none;fill-opacity:1;fill-rule:nonzero;stroke:#000000;stroke-width:1.77478337;stroke-linecap:round;stroke-linejoin:round;stroke-miterlimit:4;stroke-dasharray:none;stroke-dashoffset:0;stroke-opacity:1"
     d="m 104.54152,294.15921 h 21.39123 v 21.39123 h -21.39123 z"
     id="rect892" />
  <path
     style="fill:none;fill-opacity:1;fill-rule:nonzero;stroke:#000000;stroke-width:1.77478337;stroke-linecap:round;stroke-linejoin:round;stroke-miterlimit:4;stroke-dasharray:none;stroke-dashoffset:0;stroke-opacity:1"
     d="m 125.93275,294.15921 h 21.39123 v 21.39123 h -21.39123 z"
     id="rect894" />
  <path
     style="fill:none;fill-opacity:1;fill-rule:nonzero;stroke:#000000;stroke-width:1.77478337;stroke-linecap:round;stroke-linejoin:round;stroke-miterlimit:4;stroke-dasharray:none;stroke-dashoffset:0;stroke-opacity:1"
     d="m 147.32399,294.15921 h 21.39123 v 21.39123 h -21.39123 z"
     id="rect896" />
  <path
     style="fill:none;fill-opacity:1;fill-rule:nonzero;stroke:#000000;stroke-width:1.77478337;stroke-linecap:round;stroke-linejoin:round;stroke-miterlimit:4;stroke-dasharray:none;stroke-dashoffset:0;stroke-opacity:1"
     d="m 168.71523,294.15921 h 21.39123 v 21.39123 h -21.39123 z"
     id="rect898" />
  <path
     style="fill:none;fill-opacity:1;fill-rule:nonzero;stroke:#000000;stroke-width:1.77478337;stroke-linecap:round;stroke-linejoin:round;stroke-miterlimit:4;stroke-dasharray:none;stroke-dashoffset:0;stroke-opacity:1"
     d="m 190.10646,294.15921 h 21.39123 v 21.39123 h -21.39123 z"
     id="rect900" />
  <path
     style="fill:none;fill-opacity:1;fill-rule:nonzero;stroke:#000000;stroke-width:1.77478337;stroke-linecap:round;stroke-linejoin:round;stroke-miterlimit:4;stroke-dasharray:none;stroke-dashoffset:0;stroke-opacity:1"
     d="m 211.49771,294.15921 h 21.39123 v 21.39123 h -21.39123 z"
     id="rect902" />
  <path
     style="fill:none;fill-opacity:1;fill-rule:nonzero;stroke:#000000;stroke-width:1.77478337;stroke-linecap:round;stroke-linejoin:round;stroke-miterlimit:4;stroke-dasharray:none;stroke-dashoffset:0;stroke-opacity:1"
     d="m 232.88895,294.15921 h 21.39123 v 21.39123 h -21.39123 z"
     id="rect904" />
  <path
     style="fill:none;fill-opacity:1;fill-rule:nonzero;stroke:#000000;stroke-width:1.77478337;stroke-linecap:round;stroke-linejoin:round;stroke-miterlimit:4;stroke-dasharray:none;stroke-dashoffset:0;stroke-opacity:1"
     d="m 254.28018,294.15921 h 21.39123 v 21.39123 h -21.39123 z"
     id="rect906" />
  <path
     style="fill:none;fill-opacity:1;fill-rule:nonzero;stroke:#000000;stroke-width:1.77478337;stroke-linecap:round;stroke-linejoin:round;stroke-miterlimit:4;stroke-dasharray:none;stroke-dashoffset:0;stroke-opacity:1"
     d="m 275.67142,294.15921 h 21.39123 v 21.39123 h -21.39123 z"
     id="rect908" />
  <path
     style="fill:none;fill-opacity:1;fill-rule:nonzero;stroke:#000000;stroke-width:1.77478337;stroke-linecap:round;stroke-linejoin:round;stroke-miterlimit:4;stroke-dasharray:none;stroke-dashoffset:0;stroke-opacity:1"
     d="m 297.06265,294.15921 h 21.39123 v 21.39123 h -21.39123 z"
     id="rect910" />
  <path
     style="fill:none;fill-opacity:1;fill-rule:nonzero;stroke:#000000;stroke-width:1.77478337;stroke-linecap:round;stroke-linejoin:round;stroke-miterlimit:4;stroke-dasharray:none;stroke-dashoffset:0;stroke-opacity:1"
     d="m 104.54152,272.76797 h 21.39123 v 21.39124 h -21.39123 z"
     id="rect912" />
  <path
     style="fill:none;fill-opacity:1;fill-rule:nonzero;stroke:#000000;stroke-width:1.77478337;stroke-linecap:round;stroke-linejoin:round;stroke-miterlimit:4;stroke-dasharray:none;stroke-dashoffset:0;stroke-opacity:1"
     d="m 125.93275,272.76797 h 21.39123 v 21.39124 h -21.39123 z"
     id="rect914" />
  <path
     style="fill:none;fill-opacity:1;fill-rule:nonzero;stroke:#000000;stroke-width:1.77478337;stroke-linecap:round;stroke-linejoin:round;stroke-miterlimit:4;stroke-dasharray:none;stroke-dashoffset:0;stroke-opacity:1"
     d="m 147.32399,272.76797 h 21.39123 v 21.39124 h -21.39123 z"
     id="rect916" />
  <path
     style="fill:none;fill-opacity:1;fill-rule:nonzero;stroke:#000000;stroke-width:1.77478337;stroke-linecap:round;stroke-linejoin:round;stroke-miterlimit:4;stroke-dasharray:none;stroke-dashoffset:0;stroke-opacity:1"
     d="m 168.71523,272.76797 h 21.39123 v 21.39124 h -21.39123 z"
     id="rect918" />
  <path
     style="fill:none;fill-opacity:1;fill-rule:nonzero;stroke:#000000;stroke-width:1.77478337;stroke-linecap:round;stroke-linejoin:round;stroke-miterlimit:4;stroke-dasharray:none;stroke-dashoffset:0;stroke-opacity:1"
     d="m 190.10646,272.76797 h 21.39123 v 21.39124 h -21.39123 z"
     id="rect920" />
  <path
     style="fill:none;fill-opacity:1;fill-rule:nonzero;stroke:#000000;stroke-width:1.77478337;stroke-linecap:round;stroke-linejoin:round;stroke-miterlimit:4;stroke-dasharray:none;stroke-dashoffset:0;stroke-opacity:1"
     d="m 211.49771,272.76797 h 21.39123 v 21.39124 h -21.39123 z"
     id="rect922" />
  <path
     style="fill:none;fill-opacity:1;fill-rule:nonzero;stroke:#000000;stroke-width:1.77478337;stroke-linecap:round;stroke-linejoin:round;stroke-miterlimit:4;stroke-dasharray:none;stroke-dashoffset:0;stroke-opacity:1"
     d="m 232.88895,272.76797 h 21.39123 v 21.39124 h -21.39123 z"
     id="rect924" />
  <path
     style="fill:none;fill-opacity:1;fill-rule:nonzero;stroke:#000000;stroke-width:1.77478337;stroke-linecap:round;stroke-linejoin:round;stroke-miterlimit:4;stroke-dasharray:none;stroke-dashoffset:0;stroke-opacity:1"
     d="m 254.28018,272.76797 h 21.39123 v 21.39124 h -21.39123 z"
     id="rect926" />
  <path
     style="fill:none;fill-opacity:1;fill-rule:nonzero;stroke:#000000;stroke-width:1.77478337;stroke-linecap:round;stroke-linejoin:round;stroke-miterlimit:4;stroke-dasharray:none;stroke-dashoffset:0;stroke-opacity:1"
     d="m 275.67142,272.76797 h 21.39123 v 21.39124 h -21.39123 z"
     id="rect928" />
  <path
     style="fill:none;fill-opacity:1;fill-rule:nonzero;stroke:#000000;stroke-width:1.77478337;stroke-linecap:round;stroke-linejoin:round;stroke-miterlimit:4;stroke-dasharray:none;stroke-dashoffset:0;stroke-opacity:1"
     d="m 297.06265,272.76797 h 21.39123 v 21.39124 h -21.39123 z"
     id="rect930" />
</svg>
