<?xml version="1.0" encoding="UTF-8" standalone="no"?>
<svg
   xmlns:dc="http://purl.org/dc/elements/1.1/"
   xmlns:cc="http://creativecommons.org/ns#"
   xmlns:rdf="http://www.w3.org/1999/02/22-rdf-syntax-ns#"
   xmlns:svg="http://www.w3.org/2000/svg"
   xmlns="http://www.w3.org/2000/svg"
   xmlns:sodipodi="http://sodipodi.sourceforge.net/DTD/sodipodi-0.dtd"
   xmlns:inkscape="http://www.inkscape.org/namespaces/inkscape"
   viewBox="0 0 348 348"
   fill="none"
   version="1.1"
   id="svg72"
   sodipodi:docname="Co-Prime Checker.svg"
   inkscape:version="0.92.4 (5da689c313, 2019-01-14)">
  <metadata
     id="metadata78">
    <rdf:RDF>
      <cc:Work
         rdf:about="">
        <dc:format>image/svg+xml</dc:format>
        <dc:type
           rdf:resource="http://purl.org/dc/dcmitype/StillImage" />
        <dc:title></dc:title>
      </cc:Work>
    </rdf:RDF>
  </metadata>
  <defs
     id="defs76" />
  <sodipodi:namedview
     pagecolor="#ffffff"
     bordercolor="#666666"
     borderopacity="1"
     objecttolerance="10"
     gridtolerance="10"
     guidetolerance="10"
     inkscape:pageopacity="0"
     inkscape:pageshadow="2"
     inkscape:window-width="1920"
     inkscape:window-height="1057"
     id="namedview74"
     showgrid="false"
     inkscape:zoom="2.5159754"
     inkscape:cx="101.71084"
     inkscape:cy="143.93613"
     inkscape:window-x="-8"
     inkscape:window-y="-8"
     inkscape:window-maximized="1"
     inkscape:current-layer="svg72"
     inkscape:snap-object-midpoints="true"
     inkscape:snap-smooth-nodes="true"
     inkscape:snap-midpoints="true"
     inkscape:snap-intersection-paths="true"
     inkscape:snap-bbox="true"
     inkscape:snap-bbox-midpoints="true"
     showguides="true"
     inkscape:guide-bbox="true" />
  <path
     d="M5.079 5.776h336.913v337.67H5.08z"
     id="path2"
     stroke-width="2"
     stroke="#000" />
  <path
     d="M282.734 40.554c0-8.376 6.966-15.165 15.56-15.165 4.126 0 8.084 1.597 11.001 4.441 2.918 2.844 4.558 6.702 4.558 10.724 0 8.376-6.966 15.165-15.56 15.165-8.593 0-15.559-6.79-15.559-15.165z"
     stroke-width="2"
     stroke="#000"
     id="path4" />
  <path
     style="fill:none;fill-opacity:0.33333333;fill-rule:evenodd;stroke:#000000;stroke-width:2.22496486;stroke-linecap:square;stroke-linejoin:miter;stroke-miterlimit:4;stroke-dasharray:none;stroke-dashoffset:0;stroke-opacity:1"
     d="M 16.361317,85.263649 H 264.64797 V 333.5503 H 16.361317 Z"
     id="rect851" />
  <path
     style="fill:none;fill-opacity:0.33333333;fill-rule:evenodd;stroke:#000000;stroke-width:2;stroke-linecap:square;stroke-linejoin:miter;stroke-miterlimit:4;stroke-dasharray:none;stroke-dashoffset:0;stroke-opacity:1"
     d="M 16.361316,209.40698 H 264.64795"
     id="path861"
     inkscape:connector-curvature="0" />
  <g
     aria-label="20"
     style="font-style:normal;font-weight:normal;font-size:32px;line-height:1.25;font-family:sans-serif;text-align:center;letter-spacing:0px;word-spacing:0px;text-anchor:middle;fill:#000000;fill-opacity:1;stroke:none"
     id="text885"
     transform="translate(-27.870055,49.54136)">
    <g
       aria-label="256 185"
       style="font-style:normal;font-weight:normal;font-size:48px;line-height:1.25;font-family:sans-serif;text-align:center;letter-spacing:0px;word-spacing:0px;text-anchor:middle;fill:#000000;fill-opacity:1;stroke:none"
       id="text902">
      <path
         d="m 88.978798,84.093773 h -23.625 v -4.898438 q 2.460937,-2.109375 4.921875,-4.21875 2.484375,-2.109375 4.617187,-4.195312 4.5,-4.359375 6.164063,-6.914063 1.664062,-2.578125 1.664062,-5.554687 0,-2.71875 -1.804687,-4.242188 -1.78125,-1.546875 -4.992188,-1.546875 -2.132812,0 -4.617187,0.75 -2.484375,0.75 -4.851563,2.296875 H 66.220985 V 50.64846 q 1.664063,-0.820312 4.429688,-1.5 2.789062,-0.679687 5.390625,-0.679687 5.367187,0 8.414062,2.601562 3.046875,2.578125 3.046875,7.007813 0,1.992187 -0.515625,3.726562 -0.492187,1.710938 -1.476562,3.257813 -0.914063,1.453125 -2.15625,2.859375 -1.21875,1.40625 -2.976563,3.117187 -2.507812,2.460938 -5.179687,4.78125 -2.671875,2.296875 -4.992188,4.265625 h 18.773438 z"
         style=""
         id="path829" />
      <path
         d="m 119.26005,73.007835 q 0,2.4375 -0.89063,4.664063 -0.89062,2.226562 -2.4375,3.75 -1.6875,1.640625 -4.03125,2.53125 -2.32031,0.867187 -5.39062,0.867187 -2.85938,0 -5.50781,-0.609375 -2.648442,-0.585937 -4.476567,-1.429687 V 77.83596 h 0.328125 q 1.921875,1.21875 4.500002,2.085938 2.57812,0.84375 5.0625,0.84375 1.66406,0 3.21094,-0.46875 1.57031,-0.46875 2.78906,-1.640625 1.03125,-1.007813 1.54687,-2.414063 0.53907,-1.40625 0.53907,-3.257812 0,-1.804688 -0.63282,-3.046875 -0.60937,-1.242188 -1.71093,-1.992188 -1.21875,-0.890625 -2.97657,-1.242187 -1.73437,-0.375 -3.89062,-0.375 -2.0625,0 -3.98438,0.28125 -1.898435,0.28125 -3.281247,0.5625 V 49.195335 h 20.999997 v 4.101563 h -16.47656 v 9.28125 q 1.00781,-0.09375 2.0625,-0.140625 1.05469,-0.04687 1.82813,-0.04687 2.83593,0 4.96875,0.492187 2.13281,0.46875 3.91406,1.6875 1.875,1.289063 2.90625,3.328125 1.03125,2.039063 1.03125,5.109375 z"
         style=""
         id="path831" />
      <path
         d="m 150.61942,72.77346 q 0,5.320313 -3.51562,8.695313 -3.49219,3.351562 -8.57813,3.351562 -2.57812,0 -4.6875,-0.796875 -2.10937,-0.796875 -3.72656,-2.367187 -2.01562,-1.945313 -3.11719,-5.15625 -1.07812,-3.210938 -1.07812,-7.734375 0,-4.640625 0.98437,-8.226563 1.00782,-3.585937 3.1875,-6.375 2.0625,-2.648437 5.32032,-4.125 3.25781,-1.5 7.59375,-1.5 1.38281,0 2.32031,0.117188 0.9375,0.117187 1.89844,0.421875 v 4.476562 h -0.23438 q -0.65625,-0.351562 -1.99219,-0.65625 -1.3125,-0.328125 -2.69531,-0.328125 -5.03906,0 -8.03906,3.164063 -3,3.140625 -3.49219,8.507812 1.96875,-1.195312 3.86719,-1.804687 1.92187,-0.632813 4.42969,-0.632813 2.22656,0 3.91406,0.421875 1.71094,0.398438 3.49219,1.640625 2.0625,1.429688 3.09375,3.609375 1.05468,2.179688 1.05468,5.296875 z m -4.75781,0.1875 q 0,-2.179687 -0.65625,-3.609375 -0.63281,-1.429687 -2.10937,-2.484375 -1.07813,-0.75 -2.39063,-0.984375 -1.3125,-0.234375 -2.74219,-0.234375 -1.99218,0 -3.70312,0.46875 -1.71094,0.46875 -3.51563,1.453125 -0.0469,0.515625 -0.0703,1.007813 -0.0234,0.46875 -0.0234,1.195312 0,3.703125 0.75,5.859375 0.77344,2.132813 2.10938,3.375 1.07812,1.03125 2.32031,1.523438 1.26563,0.46875 2.74219,0.46875 3.39844,0 5.34375,-2.0625 1.94531,-2.085938 1.94531,-5.976563 z"
         style=""
         id="path833" />
      <path
         d="M 86.98661,144.09377 H 68.095985 v -3.5625 h 7.265625 v -23.39062 h -7.265625 v -3.1875 q 1.476563,0 3.164063,-0.23438 1.6875,-0.25781 2.554687,-0.72656 1.078125,-0.58594 1.6875,-1.47656 0.632813,-0.91406 0.726563,-2.4375 h 3.632812 v 31.45312 h 7.125 z"
         style=""
         id="path835" />
      <path
         d="m 119.79911,134.36721 q 0,4.52344 -3.53906,7.52344 -3.51563,3 -8.85938,3 -5.67187,0 -9.046872,-2.92969 -3.351563,-2.92969 -3.351563,-7.5 0,-2.90625 1.6875,-5.25 1.6875,-2.36719 4.757815,-3.75 v -0.14062 q -2.812502,-1.5 -4.171877,-3.28125 -1.335938,-1.78125 -1.335938,-4.45313 0,-3.9375 3.234375,-6.5625 3.23438,-2.625 8.22656,-2.625 5.22657,0 8.34375,2.50781 3.11719,2.50782 3.11719,6.375 0,2.36719 -1.47656,4.66407 -1.47656,2.27343 -4.33594,3.5625 v 0.14062 q 3.28125,1.40625 5.01563,3.46875 1.73437,2.0625 1.73437,5.25 z m -5.55469,-17.03906 q 0,-2.50781 -1.94531,-3.98438 -1.92187,-1.5 -4.92187,-1.5 -2.95313,0 -4.85157,1.40625 -1.875,1.40625 -1.875,3.79688 0,1.6875 0.9375,2.92969 0.96094,1.21875 2.88282,2.17968 0.86718,0.42188 2.48437,1.10157 1.64063,0.67968 3.1875,1.125 2.32031,-1.54688 3.21094,-3.21094 0.89062,-1.66406 0.89062,-3.84375 z m 0.72657,17.48437 q 0,-2.15625 -0.96094,-3.44531 -0.9375,-1.3125 -3.70313,-2.625 -1.10156,-0.51562 -2.41406,-0.96094 -1.3125,-0.44531 -3.49219,-1.24218 -2.10937,1.14843 -3.39843,3.11718 -1.26563,1.96875 -1.26563,4.45313 0,3.16406 2.17969,5.22656 2.17969,2.0625 5.53125,2.0625 3.42187,0 5.46094,-1.75781 2.0625,-1.75781 2.0625,-4.82813 z"
         style=""
         id="path837" />
      <path
         d="m 149.82255,133.00784 q 0,2.4375 -0.89063,4.66406 -0.89062,2.22656 -2.4375,3.75 -1.6875,1.64062 -4.03125,2.53125 -2.32031,0.86719 -5.39062,0.86719 -2.85938,0 -5.50781,-0.60938 -2.64844,-0.58594 -4.47657,-1.42969 v -4.94531 h 0.32813 q 1.92187,1.21875 4.5,2.08594 2.57812,0.84375 5.0625,0.84375 1.66406,0 3.21094,-0.46875 1.57031,-0.46875 2.78906,-1.64063 1.03125,-1.00781 1.54687,-2.41406 0.53907,-1.40625 0.53907,-3.25781 0,-1.80469 -0.63282,-3.04688 -0.60937,-1.24218 -1.71093,-1.99218 -1.21875,-0.89063 -2.97657,-1.24219 -1.73437,-0.375 -3.89062,-0.375 -2.0625,0 -3.98438,0.28125 -1.89843,0.28125 -3.28125,0.5625 v -17.97656 h 21 v 4.10156 h -16.47656 v 9.28125 q 1.00781,-0.0937 2.0625,-0.14063 1.05469,-0.0469 1.82813,-0.0469 2.83593,0 4.96875,0.49219 2.13281,0.46875 3.91406,1.6875 1.875,1.28906 2.90625,3.32812 1.03125,2.03906 1.03125,5.10938 z"
         style=""
         id="path839" />
    </g>
  </g>
  <path
     style="fill:none;fill-opacity:1;fill-rule:nonzero;stroke:#000000;stroke-width:2;stroke-linecap:butt;stroke-linejoin:round;stroke-miterlimit:4;stroke-dasharray:none;stroke-dashoffset:0;stroke-opacity:1"
     d="m 140.50463,209.40698 1e-5,124.14332"
     id="path884"
     inkscape:connector-curvature="0" />
  <path
     style="fill:none;fill-opacity:1;fill-rule:nonzero;stroke:#000000;stroke-width:2;stroke-linecap:butt;stroke-linejoin:round;stroke-miterlimit:4;stroke-dasharray:none;stroke-dashoffset:0;stroke-opacity:1"
     d="m 166.48678,168.87611 h 71.68604 v 11.46977 h -71.68604 z"
     id="rect906"
     inkscape:connector-curvature="0" />
  <path
     style="fill:none;fill-opacity:1;fill-rule:nonzero;stroke:#000000;stroke-width:2;stroke-linecap:butt;stroke-linejoin:round;stroke-miterlimit:4;stroke-dasharray:none;stroke-dashoffset:0;stroke-opacity:1"
     d="m 166.48678,141.83557 h 71.68604 v 11.46977 h -71.68604 z"
     id="rect908"
     inkscape:connector-curvature="0" />
  <path
     style="fill:none;fill-opacity:1;fill-rule:nonzero;stroke:#000000;stroke-width:2;stroke-linecap:butt;stroke-linejoin:round;stroke-miterlimit:4;stroke-dasharray:none;stroke-dashoffset:0;stroke-opacity:1"
     d="m 166.48678,114.79423 h 71.68604 V 126.264 h -71.68604 z"
     id="rect910"
     inkscape:connector-curvature="0" />
  <g
     aria-label="Coprime"
     style="font-style:normal;font-weight:normal;font-size:26.66666603px;line-height:1.25;font-family:sans-serif;text-align:center;letter-spacing:0px;word-spacing:0px;text-anchor:middle;fill:#000000;fill-opacity:1;stroke:none"
     id="text850">
    <path
       d="m 39.464692,277.25989 q -0.716146,0.3125 -1.302083,0.58594 -0.572917,0.27343 -1.510417,0.57291 -0.794271,0.2474 -1.731771,0.41667 -0.924479,0.18229 -2.04427,0.18229 -2.109375,0 -3.841146,-0.58594 -1.71875,-0.59896 -2.994792,-1.86198 -1.25,-1.23698 -1.953125,-3.13802 -0.703125,-1.91406 -0.703125,-4.4401 0,-2.39583 0.677084,-4.28386 0.677083,-1.88802 1.953125,-3.1901 1.236979,-1.26302 2.98177,-1.92708 1.757813,-0.66407 3.893229,-0.66407 1.5625,0 3.111979,0.37761 1.5625,0.3776 3.463542,1.32812 v 3.0599 H 39.26938 q -1.601563,-1.34115 -3.177084,-1.95313 -1.57552,-0.61197 -3.372395,-0.61197 -1.471355,0 -2.65625,0.48177 -1.171875,0.46875 -2.096354,1.47135 -0.898438,0.97656 -1.40625,2.47396 -0.494792,1.48437 -0.494792,3.4375 0,2.04427 0.546875,3.51562 0.559896,1.47136 1.432292,2.39584 0.911458,0.96354 2.122395,1.43229 1.223959,0.45573 2.578125,0.45573 1.861979,0 3.489583,-0.63802 1.627605,-0.63802 3.046875,-1.91407 h 0.182292 z"
       style=""
       id="path860" />
    <path
       d="m 55.337087,271.40051 q 0,3.55469 -1.822917,5.61198 -1.822917,2.05729 -4.882812,2.05729 -3.085938,0 -4.908854,-2.05729 -1.809896,-2.05729 -1.809896,-5.61198 0,-3.55468 1.809896,-5.61198 1.822916,-2.07031 4.908854,-2.07031 3.059895,0 4.882812,2.07031 1.822917,2.0573 1.822917,5.61198 z m -2.526042,0 q 0,-2.82552 -1.106771,-4.19271 -1.106771,-1.3802 -3.072916,-1.3802 -1.992188,0 -3.098959,1.3802 -1.09375,1.36719 -1.09375,4.19271 0,2.73438 1.106771,4.15365 1.106771,1.40625 3.085938,1.40625 1.953125,0 3.059895,-1.39323 1.119792,-1.40625 1.119792,-4.16667 z"
       style=""
       id="path862" />
    <path
       d="m 71.93865,271.21822 q 0,1.77083 -0.507812,3.24219 -0.507813,1.45833 -1.432292,2.47396 -0.859375,0.96354 -2.03125,1.49739 -1.158854,0.52084 -2.460937,0.52084 -1.132813,0 -2.057292,-0.2474 -0.911458,-0.2474 -1.861979,-0.76823 v 6.09375 h -2.447916 v -19.90885 h 2.447916 v 1.52343 q 0.976563,-0.82031 2.1875,-1.36718 1.223958,-0.5599 2.604167,-0.5599 2.630208,0 4.088541,1.99219 1.471354,1.97917 1.471354,5.50781 z m -2.526041,0.0651 q 0,-2.63021 -0.898438,-3.9323 -0.898437,-1.30208 -2.760416,-1.30208 -1.054688,0 -2.122396,0.45573 -1.067708,0.45573 -2.044271,1.19792 v 8.24218 q 1.041667,0.46875 1.783854,0.63802 0.755209,0.16928 1.705729,0.16928 2.044271,0 3.190105,-1.38021 1.145833,-1.38021 1.145833,-4.08854 z"
       style=""
       id="path864" />
    <path
       d="m 84.82927,266.79114 h -0.130208 q -0.546875,-0.13021 -1.067708,-0.18229 -0.507813,-0.0651 -1.210938,-0.0651 -1.132812,0 -2.1875,0.50781 -1.054687,0.4948 -2.03125,1.28907 v 10.32552 H 75.75375 v -14.54427 h 2.447916 v 2.14843 q 1.458334,-1.17187 2.565105,-1.65364 1.119791,-0.49479 2.278645,-0.49479 0.638021,0 0.924479,0.0391 0.286459,0.026 0.859375,0.11719 z"
       style=""
       id="path866" />
    <path
       d="m 89.790208,261.68697 h -2.760416 v -2.53906 h 2.760416 z m -0.15625,16.97917 h -2.447916 v -14.54427 h 2.447916 z"
       style=""
       id="path868" />
    <path
       d="m 115.72771,278.66614 h -2.44792 v -8.28125 q 0,-0.9375 -0.0911,-1.8099 -0.0781,-0.87239 -0.35157,-1.39323 -0.29948,-0.55989 -0.85937,-0.84635 -0.5599,-0.28646 -1.61459,-0.28646 -1.02864,0 -2.05729,0.52083 -1.02864,0.50782 -2.05729,1.30209 0.0391,0.29948 0.0651,0.70312 0.026,0.39063 0.026,0.78125 v 9.3099 h -2.44792 v -8.28125 q 0,-0.96354 -0.0911,-1.82292 -0.0781,-0.87239 -0.35156,-1.39323 -0.29948,-0.55989 -0.85937,-0.83333 -0.5599,-0.28646 -1.61459,-0.28646 -1.0026,0 -2.018225,0.49479 -1.002604,0.49479 -2.005209,1.26302 v 10.85938 H 94.50375 v -14.54427 h 2.447916 v 1.61458 q 1.145834,-0.95052 2.278646,-1.48437 1.145838,-0.53386 2.434898,-0.53386 1.48437,0 2.51302,0.625 1.04167,0.625 1.54948,1.73177 1.48437,-1.25 2.70833,-1.79687 1.22396,-0.5599 2.61719,-0.5599 2.39583,0 3.52864,1.45833 1.14584,1.44532 1.14584,4.04948 z"
       style=""
       id="path870" />
    <path
       d="m 132.61573,271.64791 h -10.71615 q 0,1.34114 0.40365,2.34375 0.40364,0.98958 1.10677,1.6276 0.67708,0.625 1.60156,0.9375 0.9375,0.3125 2.05729,0.3125 1.48438,0 2.98177,-0.58593 1.51042,-0.59896 2.14844,-1.17188 h 0.13021 v 2.66927 q -1.23698,0.52083 -2.52604,0.8724 -1.28906,0.35156 -2.70833,0.35156 -3.6198,0 -5.65105,-1.95313 -2.03125,-1.96614 -2.03125,-5.57291 0,-3.56771 1.94011,-5.66406 1.95312,-2.09636 5.13021,-2.09636 2.9427,0 4.53125,1.71875 1.60156,1.71875 1.60156,4.88281 z m -2.38281,-1.875 q -0.013,-1.92708 -0.97657,-2.98177 -0.95052,-1.05469 -2.90364,-1.05469 -1.96615,0 -3.13802,1.15885 -1.15886,1.15886 -1.31511,2.87761 z"
       style=""
       id="path872" />
  </g>
  <g
     aria-label="Not
Coprime"
     style="font-style:normal;font-weight:normal;font-size:26.66666603px;line-height:1.25;font-family:sans-serif;text-align:center;letter-spacing:0px;word-spacing:0px;text-anchor:middle;fill:#000000;fill-opacity:1;stroke:none"
     id="text856">
    <path
       d="m 196.76718,261.8237 h -3.1901 l -9.19271,-17.34375 v 17.34375 h -2.40885 v -19.38802 h 3.99739 l 8.38542,15.83333 v -15.83333 h 2.40885 z"
       style=""
       id="path875" />
    <path
       d="m 214.12395,254.55808 q 0,3.55468 -1.82291,5.61197 -1.82292,2.0573 -4.88282,2.0573 -3.08593,0 -4.90885,-2.0573 -1.8099,-2.05729 -1.8099,-5.61197 0,-3.55469 1.8099,-5.61198 1.82292,-2.07032 4.90885,-2.07032 3.0599,0 4.88282,2.07032 1.82291,2.05729 1.82291,5.61198 z m -2.52604,0 q 0,-2.82553 -1.10677,-4.19271 -1.10677,-1.38021 -3.07292,-1.38021 -1.99218,0 -3.09896,1.38021 -1.09375,1.36718 -1.09375,4.19271 0,2.73437 1.10678,4.15364 1.10677,1.40625 3.08593,1.40625 1.95313,0 3.0599,-1.39323 1.11979,-1.40625 1.11979,-4.16666 z"
       style=""
       id="path877" />
    <path
       d="m 225.47812,261.69349 q -0.69011,0.18229 -1.51042,0.29948 -0.80729,0.11719 -1.44531,0.11719 -2.22656,0 -3.38542,-1.19792 -1.15885,-1.19791 -1.15885,-3.84114 v -7.73438 h -1.65365 v -2.05729 h 1.65365 v -4.17969 h 2.44791 v 4.17969 h 5.05209 v 2.05729 h -5.05209 v 6.62761 q 0,1.14583 0.0521,1.79687 0.0521,0.63802 0.36458,1.19792 0.28646,0.52083 0.78125,0.76823 0.50781,0.23437 1.53646,0.23437 0.59896,0 1.25,-0.16927 0.65104,-0.18229 0.9375,-0.29948 h 0.13021 z"
       style=""
       id="path879" />
    <path
       d="m 164.26718,293.75078 q -0.71614,0.3125 -1.30208,0.58594 -0.57292,0.27344 -1.51042,0.57292 -0.79427,0.24739 -1.73177,0.41666 -0.92448,0.18229 -2.04427,0.18229 -2.10937,0 -3.84114,-0.58593 -1.71875,-0.59896 -2.9948,-1.86198 -1.25,-1.23698 -1.95312,-3.13802 -0.70313,-1.91406 -0.70313,-4.44011 0,-2.39583 0.67709,-4.28385 0.67708,-1.88802 1.95312,-3.1901 1.23698,-1.26303 2.98177,-1.92709 1.75782,-0.66406 3.89323,-0.66406 1.5625,0 3.11198,0.3776 1.5625,0.37761 3.46354,1.32813 v 3.05989 h -0.19531 q -1.60156,-1.34114 -3.17708,-1.95312 -1.57552,-0.61198 -3.3724,-0.61198 -1.47135,0 -2.65625,0.48177 -1.17187,0.46875 -2.09635,1.47136 -0.89844,0.97656 -1.40625,2.47395 -0.49479,1.48438 -0.49479,3.4375 0,2.04427 0.54687,3.51563 0.5599,1.47135 1.43229,2.39583 0.91146,0.96354 2.1224,1.43229 1.22396,0.45573 2.57812,0.45573 1.86198,0 3.48959,-0.63802 1.6276,-0.63802 3.04687,-1.91406 h 0.18229 z"
       style=""
       id="path881" />
    <path
       d="m 180.13958,287.89141 q 0,3.55469 -1.82292,5.61198 -1.82292,2.05729 -4.88281,2.05729 -3.08594,0 -4.90886,-2.05729 -1.80989,-2.05729 -1.80989,-5.61198 0,-3.55469 1.80989,-5.61198 1.82292,-2.07031 4.90886,-2.07031 3.05989,0 4.88281,2.07031 1.82292,2.05729 1.82292,5.61198 z m -2.52604,0 q 0,-2.82552 -1.10678,-4.19271 -1.10677,-1.38021 -3.07291,-1.38021 -1.99219,0 -3.09896,1.38021 -1.09375,1.36719 -1.09375,4.19271 0,2.73437 1.10677,4.15364 1.10677,1.40625 3.08594,1.40625 1.95312,0 3.05989,-1.39323 1.1198,-1.40625 1.1198,-4.16666 z"
       style=""
       id="path883" />
    <path
       d="m 196.74114,287.70912 q 0,1.77083 -0.50781,3.24218 -0.50781,1.45834 -1.43229,2.47396 -0.85938,0.96354 -2.03125,1.4974 -1.15886,0.52083 -2.46094,0.52083 -1.13281,0 -2.05729,-0.2474 -0.91146,-0.24739 -1.86198,-0.76822 v 6.09375 h -2.44792 v -19.90886 h 2.44792 v 1.52344 q 0.97656,-0.82031 2.1875,-1.36719 1.22396,-0.55989 2.60417,-0.55989 2.6302,0 4.08854,1.99218 1.47135,1.97917 1.47135,5.50782 z m -2.52604,0.0651 q 0,-2.63021 -0.89844,-3.93229 -0.89844,-1.30208 -2.76041,-1.30208 -1.05469,0 -2.1224,0.45572 -1.06771,0.45573 -2.04427,1.19792 v 8.24219 q 1.04167,0.46875 1.78385,0.63802 0.75521,0.16927 1.70573,0.16927 2.04427,0 3.19011,-1.38021 1.14583,-1.38021 1.14583,-4.08854 z"
       style=""
       id="path885" />
    <path
       d="m 209.63176,283.28203 h -0.13021 q -0.54687,-0.13021 -1.06771,-0.18229 -0.50781,-0.0651 -1.21093,-0.0651 -1.13282,0 -2.1875,0.50781 -1.05469,0.49479 -2.03125,1.28906 v 10.32552 h -2.44792 v -14.54427 h 2.44792 v 2.14844 q 1.45833,-1.17188 2.5651,-1.65365 1.11979,-0.49479 2.27865,-0.49479 0.63802,0 0.92448,0.0391 0.28645,0.026 0.85937,0.11719 z"
       style=""
       id="path887" />
    <path
       d="m 214.5927,278.17787 h -2.76042 v -2.53907 h 2.76042 z m -0.15625,16.97916 h -2.44792 v -14.54427 h 2.44792 z"
       style=""
       id="path889" />
    <path
       d="m 240.5302,295.15703 h -2.44792 v -8.28125 q 0,-0.9375 -0.0911,-1.80989 -0.0781,-0.8724 -0.35157,-1.39323 -0.29948,-0.5599 -0.85937,-0.84636 -0.5599,-0.28645 -1.61459,-0.28645 -1.02864,0 -2.05729,0.52083 -1.02864,0.50781 -2.05729,1.30208 0.0391,0.29948 0.0651,0.70313 0.026,0.39062 0.026,0.78125 v 9.30989 h -2.44792 v -8.28125 q 0,-0.96354 -0.0912,-1.82291 -0.0781,-0.8724 -0.35156,-1.39323 -0.29948,-0.5599 -0.85937,-0.83334 -0.5599,-0.28645 -1.61459,-0.28645 -1.0026,0 -2.01823,0.49479 -1.0026,0.49479 -2.0052,1.26302 v 10.85937 h -2.44792 v -14.54427 h 2.44792 v 1.61459 q 1.14583,-0.95053 2.27864,-1.48438 1.14584,-0.53385 2.4349,-0.53385 1.48437,0 2.51302,0.625 1.04167,0.625 1.54948,1.73177 1.48437,-1.25 2.70833,-1.79688 1.22396,-0.55989 2.61719,-0.55989 2.39583,0 3.52864,1.45833 1.14584,1.44531 1.14584,4.04948 z"
       style=""
       id="path891" />
    <path
       d="m 257.41822,288.1388 h -10.71615 q 0,1.34115 0.40365,2.34375 0.40365,0.98959 1.10677,1.62761 0.67708,0.625 1.60156,0.9375 0.9375,0.3125 2.05729,0.3125 1.48438,0 2.98177,-0.58594 1.51042,-0.59896 2.14844,-1.17187 h 0.13021 v 2.66927 q -1.23698,0.52083 -2.52604,0.87239 -1.28906,0.35156 -2.70833,0.35156 -3.6198,0 -5.65105,-1.95312 -2.03125,-1.96615 -2.03125,-5.57292 0,-3.56771 1.94011,-5.66406 1.95312,-2.09635 5.13021,-2.09635 2.9427,0 4.53125,1.71875 1.60156,1.71875 1.60156,4.88281 z m -2.38281,-1.875 q -0.013,-1.92708 -0.97657,-2.98177 -0.95052,-1.05468 -2.90364,-1.05468 -1.96615,0 -3.13802,1.15885 -1.15886,1.15885 -1.31511,2.8776 z"
       style=""
       id="path893" />
  </g>
</svg>
