<?xml version="1.0" encoding="UTF-8" standalone="no"?>
<svg
   xmlns:dc="http://purl.org/dc/elements/1.1/"
   xmlns:cc="http://creativecommons.org/ns#"
   xmlns:rdf="http://www.w3.org/1999/02/22-rdf-syntax-ns#"
   xmlns:svg="http://www.w3.org/2000/svg"
   xmlns="http://www.w3.org/2000/svg"
   xmlns:sodipodi="http://sodipodi.sourceforge.net/DTD/sodipodi-0.dtd"
   xmlns:inkscape="http://www.inkscape.org/namespaces/inkscape"
   viewBox="0.0 0.0 348.0 348.0"
   fill="none"
   version="1.1"
   id="svg6"
   sodipodi:docname="Cruel Modulo.svg"
   inkscape:version="0.92.4 (5da689c313, 2019-01-14)">
  <metadata
     id="metadata12">
    <rdf:RDF>
      <cc:Work
         rdf:about="">
        <dc:format>image/svg+xml</dc:format>
        <dc:type
           rdf:resource="http://purl.org/dc/dcmitype/StillImage" />
        <dc:title></dc:title>
      </cc:Work>
    </rdf:RDF>
  </metadata>
  <defs
     id="defs10" />
  <sodipodi:namedview
     pagecolor="#ffffff"
     bordercolor="#666666"
     borderopacity="1"
     objecttolerance="10"
     gridtolerance="10"
     guidetolerance="10"
     inkscape:pageopacity="0"
     inkscape:pageshadow="2"
     inkscape:window-width="1920"
     inkscape:window-height="1057"
     id="namedview8"
     showgrid="false"
     showguides="true"
     inkscape:guide-bbox="true"
     inkscape:zoom="1.5725402"
     inkscape:cx="123.33162"
     inkscape:cy="202.56571"
     inkscape:window-x="1912"
     inkscape:window-y="-8"
     inkscape:window-maximized="1"
     inkscape:current-layer="svg6"
     inkscape:snap-object-midpoints="true"
     inkscape:snap-global="true"
     inkscape:snap-bbox="true"
     inkscape:snap-bbox-midpoints="true"
     inkscape:snap-smooth-nodes="true">
    <sodipodi:guide
       position="173.536,173.389"
       orientation="1,0"
       id="guide852"
       inkscape:locked="false"
       inkscape:label=""
       inkscape:color="rgb(0,0,255)" />
    <sodipodi:guide
       position="173.536,173.389"
       orientation="0,1"
       id="guide854"
       inkscape:locked="false" />
  </sodipodi:namedview>
  <path
     d="m 341.992,343.446 -336.913003,0 0,-337.67 336.912003,0 z"
     id="path2"
     inkscape:connector-curvature="0"
     style="stroke:#000000;stroke-width:2" />
  <path
     d="m 61.723307,304.44051 c 0,8.87657 -7.3823,16.07129 -16.48989,16.07129 -4.37258,0 -8.56713,-1.69243 -11.65845,-4.70639 -3.09238,-3.01398 -4.8304,-7.10253 -4.8304,-11.3649 0,-8.87656 7.3823,-16.07128 16.48991,-16.07128 9.10653,0 16.48883,7.19578 16.48883,16.07128 z"
     id="path4"
     inkscape:connector-curvature="0"
     style="stroke:#000000;stroke-width:2;stroke-miterlimit:4;stroke-dasharray:none" />
  <g
     transform="scale(-1)"
     style="font-style:normal;font-weight:normal;font-size:40px;line-height:1.25;font-family:sans-serif;letter-spacing:0px;word-spacing:0px;fill:#000000;fill-opacity:1;stroke:none"
     id="text844" />
  <g
     transform="scale(-1)"
     style="font-style:normal;font-variant:normal;font-weight:normal;font-stretch:normal;font-size:18.66666603px;line-height:1.25;font-family:sans-serif;-inkscape-font-specification:sans-serif;text-align:center;letter-spacing:0px;word-spacing:0px;text-anchor:middle;fill:#000000;fill-opacity:1;stroke:none"
     id="text869" />
  <g
     transform="scale(-1)"
     style="font-style:normal;font-variant:normal;font-weight:normal;font-stretch:normal;font-size:18.66666603px;line-height:1.25;font-family:'Special Elite';-inkscape-font-specification:'Special Elite';text-align:center;letter-spacing:0px;word-spacing:0px;text-anchor:middle;fill:#000000;fill-opacity:1;stroke:none"
     id="text873" />
  <path
     style="fill:none;fill-opacity:1;fill-rule:nonzero;stroke:#000000;stroke-width:2;stroke-linecap:round;stroke-linejoin:round;stroke-miterlimit:4;stroke-dasharray:none;stroke-dashoffset:0;stroke-opacity:1"
     d="m 19.378748,119.37238 h 50 v 50 h -50 z"
     id="rect821" />
  <g
     aria-label="1"
     style="font-style:normal;font-variant:normal;font-weight:normal;font-stretch:normal;font-size:32px;line-height:1.25;font-family:sans-serif;-inkscape-font-specification:sans-serif;text-align:center;letter-spacing:0px;word-spacing:0px;text-anchor:middle;fill:#000000;fill-opacity:1;stroke:none"
     id="text825">
    <path
       d="m 51.074059,155.90363 h -12.59375 v -2.375 h 4.84375 v -15.59375 h -4.84375 v -2.125 q 0.984375,0 2.109375,-0.15625 1.125,-0.17188 1.703125,-0.48438 0.71875,-0.39062 1.125,-0.98437 0.421875,-0.60938 0.484375,-1.625 h 2.421875 v 20.96875 h 4.75 z"
       style=""
       id="path954" />
  </g>
  <path
     style="fill:none;fill-opacity:1;fill-rule:nonzero;stroke:#000000;stroke-width:2;stroke-linecap:round;stroke-linejoin:round;stroke-miterlimit:4;stroke-dasharray:none;stroke-dashoffset:0;stroke-opacity:1"
     d="m 84.877861,119.37238 h 49.999999 v 50 H 84.877861 Z"
     id="rect827" />
  <g
     aria-label="2"
     style="font-style:normal;font-variant:normal;font-weight:normal;font-stretch:normal;font-size:32px;line-height:1.25;font-family:sans-serif;-inkscape-font-specification:sans-serif;text-align:center;letter-spacing:0px;word-spacing:0px;text-anchor:middle;fill:#000000;fill-opacity:1;stroke:none"
     id="text831">
    <path
       d="m 117.9013,155.90363 h -15.75 V 152.638 q 1.64062,-1.40625 3.28125,-2.8125 1.65625,-1.40625 3.07812,-2.79687 3,-2.90625 4.10938,-4.60938 1.10937,-1.71875 1.10937,-3.70312 0,-1.8125 -1.20312,-2.82813 -1.1875,-1.03125 -3.32813,-1.03125 -1.42187,0 -3.07812,0.5 -1.65625,0.5 -3.23438,1.53125 h -0.15625 v -3.28125 q 1.10938,-0.54687 2.95313,-1 1.85937,-0.45312 3.59375,-0.45312 3.57812,0 5.60937,1.73437 2.03125,1.71875 2.03125,4.67188 0,1.32812 -0.34375,2.48437 -0.32812,1.14063 -0.98437,2.17188 -0.60938,0.96875 -1.4375,1.90625 -0.8125,0.9375 -1.98438,2.07812 -1.67187,1.64063 -3.45312,3.1875 -1.78125,1.53125 -3.32813,2.84375 h 12.51563 z"
       style=""
       id="path958" />
  </g>
  <path
     style="fill:none;fill-opacity:1;fill-rule:nonzero;stroke:#000000;stroke-width:2;stroke-linecap:round;stroke-linejoin:round;stroke-miterlimit:4;stroke-dasharray:none;stroke-dashoffset:0;stroke-opacity:1"
     d="m 150.37697,119.37238 h 50 v 50 h -50 z"
     id="rect839" />
  <g
     aria-label="3"
     style="font-style:normal;font-variant:normal;font-weight:normal;font-stretch:normal;font-size:32px;line-height:1.25;font-family:sans-serif;-inkscape-font-specification:sans-serif;text-align:center;letter-spacing:0px;word-spacing:0px;text-anchor:middle;fill:#000000;fill-opacity:1;stroke:none"
     id="text843">
    <path
       d="m 181.35353,144.7005 q 0.75,0.67188 1.23438,1.6875 0.48437,1.01563 0.48437,2.625 0,1.59375 -0.57812,2.92188 -0.57813,1.32812 -1.625,2.3125 -1.17188,1.09375 -2.76563,1.625 -1.57812,0.51562 -3.46875,0.51562 -1.9375,0 -3.8125,-0.46875 -1.875,-0.45312 -3.07812,-1 v -3.26562 h 0.23437 q 1.32813,0.875 3.125,1.45312 1.79688,0.57813 3.46875,0.57813 0.98438,0 2.09375,-0.32813 1.10938,-0.32812 1.79688,-0.96875 0.71875,-0.6875 1.0625,-1.51562 0.35937,-0.82813 0.35937,-2.09375 0,-1.25 -0.40625,-2.0625 -0.39062,-0.82813 -1.09375,-1.29688 -0.70312,-0.48437 -1.70312,-0.65625 -1,-0.1875 -2.15625,-0.1875 h -1.40625 v -2.59375 h 1.09375 q 2.375,0 3.78125,-0.98437 1.42187,-1 1.42187,-2.90625 0,-0.84375 -0.35937,-1.46875 -0.35938,-0.64063 -1,-1.04688 -0.67188,-0.40625 -1.4375,-0.5625 -0.76563,-0.15625 -1.73438,-0.15625 -1.48437,0 -3.15625,0.53125 -1.67187,0.53125 -3.15625,1.5 h -0.15625 v -3.26562 q 1.10938,-0.54688 2.95313,-1 1.85937,-0.46875 3.59375,-0.46875 1.70312,0 3,0.3125 1.29687,0.3125 2.34375,1 1.125,0.75 1.70312,1.8125 0.57813,1.0625 0.57813,2.48437 0,1.9375 -1.375,3.39063 -1.35938,1.4375 -3.21875,1.8125 v 0.21875 q 0.75,0.125 1.71875,0.53125 0.96875,0.39062 1.64062,0.98437 z"
       style=""
       id="path962" />
  </g>
  <path
     style="fill:none;fill-opacity:1;fill-rule:nonzero;stroke:#000000;stroke-width:2;stroke-linecap:round;stroke-linejoin:round;stroke-miterlimit:4;stroke-dasharray:none;stroke-dashoffset:0;stroke-opacity:1"
     d="m 215.87608,119.37238 h 50 v 50 h -50 z"
     id="rect851" />
  <g
     aria-label="4"
     style="font-style:normal;font-variant:normal;font-weight:normal;font-stretch:normal;font-size:32px;line-height:1.25;font-family:sans-serif;-inkscape-font-specification:sans-serif;text-align:center;letter-spacing:0px;word-spacing:0px;text-anchor:middle;fill:#000000;fill-opacity:1;stroke:none"
     id="text855">
    <path
       d="m 249.43077,149.35675 h -3.45312 v 6.54688 h -3 v -6.54688 H 231.83702 V 145.763 l 11.26563,-13.125 h 2.875 v 14.21875 h 3.45312 z m -6.45312,-2.5 v -10.5 l -9.01563,10.5 z"
       style=""
       id="path966" />
  </g>
  <path
     style="fill:none;fill-opacity:1;fill-rule:nonzero;stroke:#000000;stroke-width:2;stroke-linecap:round;stroke-linejoin:round;stroke-miterlimit:4;stroke-dasharray:none;stroke-dashoffset:0;stroke-opacity:1"
     d="m 281.37521,119.37238 h 50 v 50 h -50 z"
     id="rect857" />
  <g
     aria-label="5"
     style="font-style:normal;font-variant:normal;font-weight:normal;font-stretch:normal;font-size:32px;line-height:1.25;font-family:sans-serif;-inkscape-font-specification:sans-serif;text-align:center;letter-spacing:0px;word-spacing:0px;text-anchor:middle;fill:#000000;fill-opacity:1;stroke:none"
     id="text861">
    <path
       d="m 314.21115,148.513 q 0,1.625 -0.59375,3.10938 -0.59375,1.48437 -1.625,2.5 -1.125,1.09375 -2.6875,1.6875 -1.54687,0.57812 -3.59375,0.57812 -1.90625,0 -3.67187,-0.40625 -1.76563,-0.39062 -2.98438,-0.95312 v -3.29688 h 0.21875 q 1.28125,0.8125 3,1.39063 1.71875,0.5625 3.375,0.5625 1.10938,0 2.14063,-0.3125 1.04687,-0.3125 1.85937,-1.09375 0.6875,-0.67188 1.03125,-1.60938 0.35938,-0.9375 0.35938,-2.17187 0,-1.20313 -0.42188,-2.03125 -0.40625,-0.82813 -1.14062,-1.32813 -0.8125,-0.59375 -1.98438,-0.82812 -1.15625,-0.25 -2.59375,-0.25 -1.375,0 -2.65625,0.1875 -1.26562,0.1875 -2.1875,0.375 V 132.638 h 14 v 2.73438 h -10.98437 v 6.1875 q 0.67187,-0.0625 1.375,-0.0937 0.70312,-0.0312 1.21875,-0.0312 1.89062,0 3.3125,0.32812 1.42187,0.3125 2.60937,1.125 1.25,0.85938 1.9375,2.21875 0.6875,1.35938 0.6875,3.40625 z"
       style=""
       id="path970" />
  </g>
  <path
     style="fill:none;fill-opacity:1;fill-rule:nonzero;stroke:#000000;stroke-width:2;stroke-linecap:round;stroke-linejoin:round;stroke-miterlimit:4;stroke-dasharray:none;stroke-dashoffset:0;stroke-opacity:1"
     d="m 19.378748,189.32289 h 50 v 50 h -50 z"
     id="rect863" />
  <g
     aria-label="6"
     style="font-style:normal;font-variant:normal;font-weight:normal;font-stretch:normal;font-size:32px;line-height:1.25;font-family:sans-serif;-inkscape-font-specification:sans-serif;text-align:center;letter-spacing:0px;word-spacing:0px;text-anchor:middle;fill:#000000;fill-opacity:1;stroke:none"
     id="text867">
    <path
       d="m 52.745934,218.30727 q 0,3.54687 -2.34375,5.79687 -2.328125,2.23438 -5.71875,2.23438 -1.71875,0 -3.125,-0.53125 -1.40625,-0.53125 -2.484375,-1.57813 -1.34375,-1.29687 -2.078125,-3.4375 -0.71875,-2.14062 -0.71875,-5.15625 0,-3.09375 0.65625,-5.48437 0.671875,-2.39063 2.125,-4.25 1.375,-1.76563 3.546875,-2.75 2.171875,-1 5.0625,-1 0.921875,0 1.546875,0.0781 0.625,0.0781 1.265625,0.28125 v 2.98438 h -0.15625 q -0.4375,-0.23438 -1.328125,-0.4375 -0.875,-0.21875 -1.796875,-0.21875 -3.359375,0 -5.359375,2.10937 -2,2.09375 -2.328125,5.67188 1.3125,-0.79688 2.578125,-1.20313 1.28125,-0.42187 2.953125,-0.42187 1.484375,0 2.609375,0.28125 1.140625,0.26562 2.328125,1.09375 1.375,0.95312 2.0625,2.40625 0.703125,1.45312 0.703125,3.53125 z m -3.171875,0.125 q 0,-1.45313 -0.4375,-2.40625 -0.421875,-0.95313 -1.40625,-1.65625 -0.71875,-0.5 -1.59375,-0.65625 -0.875,-0.15625 -1.828125,-0.15625 -1.328125,0 -2.46875,0.3125 -1.140625,0.3125 -2.34375,0.96875 -0.03125,0.34375 -0.04687,0.67187 -0.01563,0.3125 -0.01563,0.79688 0,2.46875 0.5,3.90625 0.515625,1.42187 1.40625,2.25 0.71875,0.6875 1.546875,1.01562 0.84375,0.3125 1.828125,0.3125 2.265625,0 3.5625,-1.375 1.296875,-1.39062 1.296875,-3.98437 z"
       style=""
       id="path974" />
  </g>
  <path
     style="fill:none;fill-opacity:1;fill-rule:nonzero;stroke:#000000;stroke-width:2;stroke-linecap:round;stroke-linejoin:round;stroke-miterlimit:4;stroke-dasharray:none;stroke-dashoffset:0;stroke-opacity:1"
     d="m 84.877861,189.32289 h 49.999999 v 50 H 84.877861 Z"
     id="rect869" />
  <g
     aria-label="7"
     style="font-style:normal;font-variant:normal;font-weight:normal;font-stretch:normal;font-size:32px;line-height:1.25;font-family:sans-serif;-inkscape-font-specification:sans-serif;text-align:center;letter-spacing:0px;word-spacing:0px;text-anchor:middle;fill:#000000;fill-opacity:1;stroke:none"
     id="text874">
    <path
       d="m 117.9638,206.07289 -10.53125,19.78125 h -3.34375 l 11.20312,-20.53125 h -13.25 v -2.73437 h 15.92188 z"
       style=""
       id="path978" />
  </g>
  <path
     style="fill:none;fill-opacity:1;fill-rule:nonzero;stroke:#000000;stroke-width:2;stroke-linecap:round;stroke-linejoin:round;stroke-miterlimit:4;stroke-dasharray:none;stroke-dashoffset:0;stroke-opacity:1"
     d="m 150.37697,189.32289 h 50 v 50 h -50 z"
     id="rect876" />
  <g
     aria-label="8"
     style="font-style:normal;font-variant:normal;font-weight:normal;font-stretch:normal;font-size:32px;line-height:1.25;font-family:sans-serif;-inkscape-font-specification:sans-serif;text-align:center;letter-spacing:0px;word-spacing:0px;text-anchor:middle;fill:#000000;fill-opacity:1;stroke:none"
     id="text880">
    <path
       d="m 183.57228,219.36977 q 0,3.01562 -2.35937,5.01562 -2.34375,2 -5.90625,2 -3.78125,0 -6.03125,-1.95312 -2.23438,-1.95313 -2.23438,-5 0,-1.9375 1.125,-3.5 1.125,-1.57813 3.17188,-2.5 v -0.0937 q -1.875,-1 -2.78125,-2.1875 -0.89063,-1.1875 -0.89063,-2.96875 0,-2.625 2.15625,-4.375 2.15625,-1.75 5.48438,-1.75 3.48437,0 5.5625,1.67187 2.07812,1.67188 2.07812,4.25 0,1.57813 -0.98437,3.10938 -0.98438,1.51562 -2.89063,2.375 v 0.0937 q 2.1875,0.9375 3.34375,2.3125 1.15625,1.375 1.15625,3.5 z m -3.70312,-11.35938 q 0,-1.67187 -1.29688,-2.65625 -1.28125,-1 -3.28125,-1 -1.96875,0 -3.23437,0.9375 -1.25,0.9375 -1.25,2.53125 0,1.125 0.625,1.95313 0.64062,0.8125 1.92187,1.45312 0.57813,0.28125 1.65625,0.73438 1.09375,0.45312 2.125,0.75 1.54688,-1.03125 2.14063,-2.14063 0.59375,-1.10937 0.59375,-2.5625 z m 0.48437,11.65625 q 0,-1.4375 -0.64062,-2.29687 -0.625,-0.875 -2.46875,-1.75 -0.73438,-0.34375 -1.60938,-0.64063 -0.875,-0.29687 -2.32812,-0.82812 -1.40625,0.76562 -2.26563,2.07812 -0.84375,1.3125 -0.84375,2.96875 0,2.10938 1.45313,3.48438 1.45312,1.375 3.6875,1.375 2.28125,0 3.64062,-1.17188 1.375,-1.17187 1.375,-3.21875 z"
       style=""
       id="path982" />
  </g>
  <path
     style="fill:none;fill-opacity:1;fill-rule:nonzero;stroke:#000000;stroke-width:2;stroke-linecap:round;stroke-linejoin:round;stroke-miterlimit:4;stroke-dasharray:none;stroke-dashoffset:0;stroke-opacity:1"
     d="m 215.87608,189.32289 h 50 v 50 h -50 z"
     id="rect882" />
  <g
     aria-label="9"
     style="font-style:normal;font-variant:normal;font-weight:normal;font-stretch:normal;font-size:32px;line-height:1.25;font-family:sans-serif;-inkscape-font-specification:sans-serif;text-align:center;letter-spacing:0px;word-spacing:0px;text-anchor:middle;fill:#000000;fill-opacity:1;stroke:none"
     id="text886">
    <path
       d="m 248.86827,212.82289 q 0,3.04688 -0.70312,5.53125 -0.6875,2.48438 -2.09375,4.23438 -1.42188,1.78125 -3.5625,2.75 -2.14063,0.96875 -5.03125,0.96875 -0.8125,0 -1.53125,-0.0937 -0.71875,-0.0781 -1.28125,-0.26563 v -2.98437 h 0.15625 q 0.45312,0.23437 1.28125,0.45312 0.82812,0.20313 1.84375,0.20313 3.45312,0 5.40625,-2.0625 1.96875,-2.07813 2.28125,-5.71875 -1.45313,0.875 -2.73438,1.25 -1.28125,0.375 -2.79687,0.375 -1.4375,0 -2.60938,-0.28125 -1.15625,-0.28125 -2.32812,-1.09375 -1.375,-0.95313 -2.07813,-2.42188 -0.6875,-1.46875 -0.6875,-3.51562 0,-3.5625 2.34375,-5.79688 2.34375,-2.23437 5.71875,-2.23437 1.6875,0 3.125,0.53125 1.4375,0.51562 2.51563,1.5625 1.32812,1.29687 2.04687,3.34375 0.71875,2.03125 0.71875,5.26562 z m -3.15625,-0.67187 q 0,-2.42188 -0.5,-3.89063 -0.5,-1.46875 -1.375,-2.28125 -0.73437,-0.70312 -1.57812,-1 -0.84375,-0.3125 -1.82813,-0.3125 -2.25,0 -3.5625,1.40625 -1.29687,1.40625 -1.29687,3.95313 0,1.48437 0.42187,2.42187 0.42188,0.9375 1.42188,1.64063 0.70312,0.48437 1.54687,0.65625 0.84375,0.15625 1.875,0.15625 1.21875,0 2.46875,-0.32813 1.25,-0.32812 2.34375,-0.95312 0.0156,-0.32813 0.0312,-0.64063 0.0312,-0.32812 0.0312,-0.82812 z"
       style=""
       id="path986" />
  </g>
  <path
     style="fill:none;fill-opacity:1;fill-rule:nonzero;stroke:#000000;stroke-width:2;stroke-linecap:round;stroke-linejoin:round;stroke-miterlimit:4;stroke-dasharray:none;stroke-dashoffset:0;stroke-opacity:1"
     d="m 281.37521,189.32289 h 50 v 50 h -50 z"
     id="rect888" />
  <g
     aria-label="0"
     style="font-style:normal;font-variant:normal;font-weight:normal;font-stretch:normal;font-size:32px;line-height:1.25;font-family:sans-serif;-inkscape-font-specification:sans-serif;text-align:center;letter-spacing:0px;word-spacing:0px;text-anchor:middle;fill:#000000;fill-opacity:1;stroke:none"
     id="text892">
    <path
       d="m 314.3674,214.21352 q 0,6.26562 -1.96875,9.20312 -1.95312,2.92188 -6.07812,2.92188 -4.1875,0 -6.125,-2.96875 -1.92188,-2.96875 -1.92188,-9.125 0,-6.20313 1.95313,-9.15625 1.95312,-2.96875 6.09375,-2.96875 4.1875,0 6.10937,3.01562 1.9375,3 1.9375,9.07813 z m -4.10937,7.09375 q 0.54687,-1.26563 0.73437,-2.96875 0.20313,-1.71875 0.20313,-4.125 0,-2.375 -0.20313,-4.125 -0.1875,-1.75 -0.75,-2.96875 -0.54687,-1.20313 -1.5,-1.8125 -0.9375,-0.60938 -2.42187,-0.60938 -1.46875,0 -2.4375,0.60938 -0.95313,0.60937 -1.51563,1.84375 -0.53125,1.15625 -0.73437,3.01562 -0.1875,1.85938 -0.1875,4.07813 0,2.4375 0.17187,4.07812 0.17188,1.64063 0.73438,2.9375 0.51562,1.21875 1.45312,1.85938 0.95313,0.64062 2.51563,0.64062 1.46875,0 2.4375,-0.60937 0.96875,-0.60938 1.5,-1.84375 z"
       style=""
       id="path990" />
  </g>
  <path
     style="fill:none;fill-opacity:1;fill-rule:nonzero;stroke:#000000;stroke-width:2;stroke-linecap:round;stroke-linejoin:round;stroke-miterlimit:4;stroke-dasharray:none;stroke-dashoffset:0;stroke-opacity:1"
     d="m 24.466042,27.164881 h 50 v 50 h -50 z"
     id="rect894" />
  <g
     aria-label="##"
     style="font-style:normal;font-variant:normal;font-weight:normal;font-stretch:normal;font-size:32px;line-height:1.25;font-family:sans-serif;-inkscape-font-specification:sans-serif;text-align:center;letter-spacing:0px;word-spacing:0px;text-anchor:middle;fill:#000000;fill-opacity:1;stroke:none"
     id="text898">
    <path
       d="m 46.419167,49.235191 h -5.203125 l -1.4375,5.875 h 4.8125 v 2.109375 h -5.359375 l -1.625,6.578125 h -2.015625 l 1.625,-6.578125 h -4.21875 l -1.625,6.578125 h -2.015625 l 1.625,-6.578125 h -4.65625 v -2.109375 h 5.203125 l 1.4375,-5.875 h -4.8125 v -2.109375 h 5.359375 l 1.640625,-6.59375 h 2.015625 l -1.640625,6.59375 h 4.21875 l 1.640625,-6.59375 h 2.015625 l -1.640625,6.59375 h 4.65625 z m -7.171875,-0.03125 h -4.28125 l -1.46875,5.9375 h 4.28125 z"
       style=""
       id="path994" />
    <path
       d="m 72.606667,49.235191 h -5.203125 l -1.4375,5.875 h 4.8125 v 2.109375 h -5.359375 l -1.625,6.578125 h -2.015625 l 1.625,-6.578125 h -4.21875 l -1.625,6.578125 h -2.015625 l 1.625,-6.578125 h -4.65625 v -2.109375 h 5.203125 l 1.4375,-5.875 h -4.8125 v -2.109375 h 5.359375 l 1.640625,-6.59375 h 2.015625 l -1.640625,6.59375 h 4.21875 l 1.640625,-6.59375 h 2.015625 l -1.640625,6.59375 h 4.65625 z m -7.171875,-0.03125 h -4.28125 l -1.46875,5.9375 h 4.28125 z"
       style=""
       id="path996" />
  </g>
  <path
     style="fill:none;fill-opacity:1;fill-rule:nonzero;stroke:#000000;stroke-width:2;stroke-linecap:round;stroke-linejoin:round;stroke-miterlimit:4;stroke-dasharray:none;stroke-dashoffset:0;stroke-opacity:1"
     d="M 15.905663,18.604504 H 83.026421 V 85.725262 H 15.905663 Z"
     id="rect900" />
  <path
     style="fill:none;fill-opacity:1;fill-rule:nonzero;stroke:#000000;stroke-width:2;stroke-linecap:round;stroke-linejoin:round;stroke-miterlimit:4;stroke-dasharray:none;stroke-dashoffset:0;stroke-opacity:1"
     d="m 269.29285,27.164881 h 50 v 50 h -50 z"
     id="rect902" />
  <g
     aria-label="##"
     style="font-style:normal;font-variant:normal;font-weight:normal;font-stretch:normal;font-size:32px;line-height:1.25;font-family:sans-serif;-inkscape-font-specification:sans-serif;text-align:center;letter-spacing:0px;word-spacing:0px;text-anchor:middle;fill:#000000;fill-opacity:1;stroke:none"
     id="text906">
    <path
       d="m 291.24597,49.235191 h -5.20312 l -1.4375,5.875 h 4.8125 v 2.109375 h -5.35938 l -1.625,6.578125 h -2.01562 l 1.625,-6.578125 h -4.21875 l -1.625,6.578125 h -2.01563 l 1.625,-6.578125 h -4.65625 v -2.109375 h 5.20313 l 1.4375,-5.875 h -4.8125 v -2.109375 h 5.35937 l 1.64063,-6.59375 h 2.01562 l -1.64062,6.59375 h 4.21875 l 1.64062,-6.59375 h 2.01563 l -1.64063,6.59375 h 4.65625 z m -7.17187,-0.03125 h -4.28125 l -1.46875,5.9375 h 4.28125 z"
       style=""
       id="path1001" />
    <path
       d="m 317.43347,49.235191 h -5.20312 l -1.4375,5.875 h 4.8125 v 2.109375 h -5.35938 l -1.625,6.578125 h -2.01562 l 1.625,-6.578125 h -4.21875 l -1.625,6.578125 h -2.01563 l 1.625,-6.578125 h -4.65625 v -2.109375 h 5.20313 l 1.4375,-5.875 h -4.8125 v -2.109375 h 5.35937 l 1.64063,-6.59375 h 2.01562 l -1.64062,6.59375 h 4.21875 l 1.64062,-6.59375 h 2.01563 l -1.64063,6.59375 h 4.65625 z m -7.17187,-0.03125 h -4.28125 l -1.46875,5.9375 h 4.28125 z"
       style=""
       id="path1003" />
  </g>
  <path
     style="fill:none;fill-opacity:1;fill-rule:nonzero;stroke:#000000;stroke-width:2;stroke-linecap:round;stroke-linejoin:round;stroke-miterlimit:4;stroke-dasharray:none;stroke-dashoffset:0;stroke-opacity:1"
     d="m 260.73245,18.604504 h 67.12076 v 67.120758 h -67.12076 z"
     id="rect908" />
  <path
     style="fill:none;fill-opacity:1;fill-rule:nonzero;stroke:#000000;stroke-width:2;stroke-linecap:round;stroke-linejoin:round;stroke-miterlimit:4;stroke-dasharray:none;stroke-dashoffset:0;stroke-opacity:1"
     d="m 121.60871,27.164881 h 107.53654 v 50 H 121.60871 Z"
     id="rect910" />
  <path
     style="fill:none;fill-opacity:1;fill-rule:nonzero;stroke:#000000;stroke-width:2;stroke-linecap:round;stroke-linejoin:round;stroke-miterlimit:4;stroke-dasharray:none;stroke-dashoffset:0;stroke-opacity:1"
     d="M 113.15991,18.604504 H 237.59398 V 85.725262 H 113.15991 Z"
     id="rect916" />
  <g
     aria-label="###"
     style="font-style:normal;font-variant:normal;font-weight:normal;font-stretch:normal;font-size:32px;line-height:1.25;font-family:sans-serif;-inkscape-font-specification:sans-serif;text-align:center;letter-spacing:0px;word-spacing:0px;text-anchor:middle;fill:#000000;fill-opacity:1;stroke:none"
     id="text920">
    <path
       d="m 159.23634,49.235191 h -5.20312 l -1.4375,5.875 h 4.8125 v 2.109375 h -5.35938 l -1.625,6.578125 h -2.01562 l 1.625,-6.578125 h -4.21875 l -1.625,6.578125 h -2.01563 l 1.625,-6.578125 h -4.65625 v -2.109375 h 5.20313 l 1.4375,-5.875 h -4.8125 v -2.109375 h 5.35937 l 1.64063,-6.59375 h 2.01562 l -1.64062,6.59375 h 4.21875 l 1.64062,-6.59375 h 2.01563 l -1.64063,6.59375 h 4.65625 z m -7.17187,-0.03125 h -4.28125 l -1.46875,5.9375 h 4.28125 z"
       style=""
       id="path1009" />
    <path
       d="m 185.42384,49.235191 h -5.20312 l -1.4375,5.875 h 4.8125 v 2.109375 h -5.35938 l -1.625,6.578125 h -2.01562 l 1.625,-6.578125 h -4.21875 l -1.625,6.578125 h -2.01563 l 1.625,-6.578125 h -4.65625 v -2.109375 h 5.20313 l 1.4375,-5.875 h -4.8125 v -2.109375 h 5.35937 l 1.64063,-6.59375 h 2.01562 l -1.64062,6.59375 h 4.21875 l 1.64062,-6.59375 h 2.01563 l -1.64063,6.59375 h 4.65625 z m -7.17187,-0.03125 h -4.28125 l -1.46875,5.9375 h 4.28125 z"
       style=""
       id="path1011" />
    <path
       d="m 211.61134,49.235191 h -5.20312 l -1.4375,5.875 h 4.8125 v 2.109375 h -5.35938 l -1.625,6.578125 h -2.01562 l 1.625,-6.578125 h -4.21875 l -1.625,6.578125 h -2.01563 l 1.625,-6.578125 h -4.65625 v -2.109375 h 5.20313 l 1.4375,-5.875 h -4.8125 v -2.109375 h 5.35937 l 1.64063,-6.59375 h 2.01562 l -1.64062,6.59375 h 4.21875 l 1.64062,-6.59375 h 2.01563 l -1.64063,6.59375 h 4.65625 z m -7.17187,-0.03125 h -4.28125 l -1.46875,5.9375 h 4.28125 z"
       style=""
       id="path1013" />
  </g>
  <path
     style="fill:none;fill-opacity:1;fill-rule:nonzero;stroke:#000000;stroke-width:2;stroke-linecap:round;stroke-linejoin:round;stroke-miterlimit:4;stroke-dasharray:none;stroke-dashoffset:0;stroke-opacity:1"
     d="m 276.92383,274.53534 h 50 v 50 h -50 z"
     id="rect922" />
  <g
     aria-label="C"
     style="font-style:normal;font-variant:normal;font-weight:normal;font-stretch:normal;font-size:32px;line-height:1.25;font-family:sans-serif;-inkscape-font-specification:sans-serif;text-align:center;letter-spacing:0px;word-spacing:0px;text-anchor:middle;fill:#000000;fill-opacity:1;stroke:none"
     id="text926">
    <path
       d="m 311.77539,309.37909 q -0.85937,0.375 -1.5625,0.70312 -0.6875,0.32813 -1.8125,0.6875 -0.95312,0.29688 -2.07812,0.5 -1.10938,0.21875 -2.45313,0.21875 -2.53125,0 -4.60937,-0.70312 -2.0625,-0.71875 -3.59375,-2.23438 -1.5,-1.48437 -2.34375,-3.76562 -0.84375,-2.29688 -0.84375,-5.32813 0,-2.875 0.8125,-5.14062 0.8125,-2.26563 2.34375,-3.82813 1.48437,-1.51562 3.57812,-2.3125 2.10938,-0.79687 4.67188,-0.79687 1.875,0 3.73437,0.45312 1.875,0.45313 4.15625,1.59375 v 3.67188 h -0.23437 q -1.92188,-1.60938 -3.8125,-2.34375 -1.89063,-0.73438 -4.04688,-0.73438 -1.76562,0 -3.1875,0.57813 -1.40625,0.5625 -2.51562,1.76562 -1.07813,1.17188 -1.6875,2.96875 -0.59375,1.78125 -0.59375,4.125 0,2.45313 0.65625,4.21875 0.67187,1.76563 1.71875,2.875 1.09375,1.15625 2.54687,1.71875 1.46875,0.54688 3.09375,0.54688 2.23438,0 4.1875,-0.76563 1.95313,-0.76562 3.65625,-2.29687 h 0.21875 z"
       style=""
       id="path1017" />
  </g>
  <path
     style="fill:none;fill-opacity:1;fill-rule:nonzero;stroke:#000000;stroke-width:2;stroke-linecap:round;stroke-linejoin:round;stroke-miterlimit:4;stroke-dasharray:none;stroke-dashoffset:0;stroke-opacity:1"
     d="m 121.76087,274.53534 h 50 v 50 h -50 z"
     id="rect928" />
  <g
     aria-label="S"
     style="font-style:normal;font-variant:normal;font-weight:normal;font-stretch:normal;font-size:32px;line-height:1.25;font-family:sans-serif;-inkscape-font-specification:sans-serif;text-align:center;letter-spacing:0px;word-spacing:0px;text-anchor:middle;fill:#000000;fill-opacity:1;stroke:none"
     id="text932">
    <path
       d="m 155.79993,304.42596 q 0,1.35938 -0.64063,2.6875 -0.625,1.32813 -1.76562,2.25 -1.25,1 -2.92188,1.5625 -1.65625,0.5625 -4,0.5625 -2.51562,0 -4.53125,-0.46875 -2,-0.46875 -4.07812,-1.39062 v -3.875 h 0.21875 q 1.76562,1.46875 4.07812,2.26562 2.3125,0.79688 4.34375,0.79688 2.875,0 4.46875,-1.07813 1.60938,-1.07812 1.60938,-2.875 0,-1.54687 -0.76563,-2.28125 -0.75,-0.73437 -2.29687,-1.14062 -1.17188,-0.3125 -2.54688,-0.51563 -1.35937,-0.20312 -2.89062,-0.51562 -3.09375,-0.65625 -4.59375,-2.23438 -1.48438,-1.59375 -1.48438,-4.14062 0,-2.92188 2.46875,-4.78125 2.46875,-1.875 6.26563,-1.875 2.45312,0 4.5,0.46875 2.04687,0.46875 3.625,1.15625 v 3.65625 h -0.21875 q -1.32813,-1.125 -3.5,-1.85938 -2.15625,-0.75 -4.42188,-0.75 -2.48437,0 -4,1.03125 -1.5,1.03125 -1.5,2.65625 0,1.45313 0.75,2.28125 0.75,0.82813 2.64063,1.26563 1,0.21875 2.84375,0.53125 1.84375,0.3125 3.125,0.64062 2.59375,0.6875 3.90625,2.07813 1.3125,1.39062 1.3125,3.89062 z"
       style=""
       id="path1021" />
  </g>
  <path
     style="fill:none;fill-opacity:1;fill-rule:nonzero;stroke:#000000;stroke-width:2;stroke-linecap:round;stroke-linejoin:round;stroke-miterlimit:4;stroke-dasharray:none;stroke-dashoffset:0;stroke-opacity:1"
     d="m 24.466042,27.164881 h 50 v 50 h -50 z"
     id="rect934" />
  <g
     aria-label="##"
     style="font-style:normal;font-variant:normal;font-weight:normal;font-stretch:normal;font-size:32px;line-height:1.25;font-family:sans-serif;-inkscape-font-specification:sans-serif;text-align:center;letter-spacing:0px;word-spacing:0px;text-anchor:middle;fill:#000000;fill-opacity:1;stroke:none"
     id="text938">
    <path
       d="m 46.419167,49.235191 h -5.203125 l -1.4375,5.875 h 4.8125 v 2.109375 h -5.359375 l -1.625,6.578125 h -2.015625 l 1.625,-6.578125 h -4.21875 l -1.625,6.578125 h -2.015625 l 1.625,-6.578125 h -4.65625 v -2.109375 h 5.203125 l 1.4375,-5.875 h -4.8125 v -2.109375 h 5.359375 l 1.640625,-6.59375 h 2.015625 l -1.640625,6.59375 h 4.21875 l 1.640625,-6.59375 h 2.015625 l -1.640625,6.59375 h 4.65625 z m -7.171875,-0.03125 h -4.28125 l -1.46875,5.9375 h 4.28125 z"
       style=""
       id="path1025" />
    <path
       d="m 72.606667,49.235191 h -5.203125 l -1.4375,5.875 h 4.8125 v 2.109375 h -5.359375 l -1.625,6.578125 h -2.015625 l 1.625,-6.578125 h -4.21875 l -1.625,6.578125 h -2.015625 l 1.625,-6.578125 h -4.65625 v -2.109375 h 5.203125 l 1.4375,-5.875 h -4.8125 v -2.109375 h 5.359375 l 1.640625,-6.59375 h 2.015625 l -1.640625,6.59375 h 4.21875 l 1.640625,-6.59375 h 2.015625 l -1.640625,6.59375 h 4.65625 z m -7.171875,-0.03125 h -4.28125 l -1.46875,5.9375 h 4.28125 z"
       style=""
       id="path1027" />
  </g>
  <path
     style="fill:none;fill-opacity:1;fill-rule:nonzero;stroke:#000000;stroke-width:2;stroke-linecap:round;stroke-linejoin:round;stroke-miterlimit:4;stroke-dasharray:none;stroke-dashoffset:0;stroke-opacity:1"
     d="M 15.905663,18.604504 H 83.026421 V 85.725262 H 15.905663 Z"
     id="rect940" />
  <path
     style="fill:none;fill-opacity:1;fill-rule:nonzero;stroke:#000000;stroke-width:2;stroke-linecap:round;stroke-linejoin:round;stroke-miterlimit:4;stroke-dasharray:none;stroke-dashoffset:0;stroke-opacity:1"
     d="m 198.62128,282.38766 h 56.52941 v 36.83897 h -56.52941 z"
     id="rect942" />
  <path
     style="fill:none;fill-opacity:1;fill-rule:nonzero;stroke:#000000;stroke-width:2;stroke-linecap:round;stroke-linejoin:round;stroke-miterlimit:4;stroke-dasharray:none;stroke-dashoffset:0;stroke-opacity:1"
     d="m 190.7101,276.08057 h 72.35172 v 49.45319 H 190.7101 Z"
     id="rect944" />
  <g
     aria-label="##"
     style="font-style:normal;font-variant:normal;font-weight:normal;font-stretch:normal;font-size:32px;line-height:1.25;font-family:sans-serif;-inkscape-font-specification:sans-serif;text-align:center;letter-spacing:0px;word-spacing:0px;text-anchor:middle;fill:#000000;fill-opacity:1;stroke:none"
     id="text948">
    <path
       d="M 223.83913,297.87747 H 218.636 l -1.4375,5.875 h 4.8125 v 2.10938 h -5.35937 l -1.625,6.57812 H 213.011 l 1.625,-6.57812 h -4.21875 l -1.625,6.57812 h -2.01562 l 1.625,-6.57812 h -4.65625 v -2.10938 h 5.20312 l 1.4375,-5.875 h -4.8125 v -2.10937 h 5.35938 l 1.64062,-6.59375 h 2.01563 l -1.64063,6.59375 h 4.21875 l 1.64063,-6.59375 h 2.01562 l -1.64062,6.59375 h 4.65625 z m -7.17188,-0.0312 H 212.386 l -1.46875,5.9375 h 4.28125 z"
       style=""
       id="path1033" />
    <path
       d="m 250.02663,297.87747 h -5.20313 l -1.4375,5.875 h 4.8125 v 2.10938 h -5.35937 l -1.625,6.57812 h -2.01563 l 1.625,-6.57812 h -4.21875 l -1.625,6.57812 h -2.01562 l 1.625,-6.57812 h -4.65625 v -2.10938 h 5.20312 l 1.4375,-5.875 h -4.8125 v -2.10937 h 5.35938 l 1.64062,-6.59375 h 2.01563 l -1.64063,6.59375 h 4.21875 l 1.64063,-6.59375 h 2.01562 l -1.64062,6.59375 h 4.65625 z m -7.17188,-0.0312 h -4.28125 l -1.46875,5.9375 h 4.28125 z"
       style=""
       id="path1035" />
  </g>
</svg>
