<?xml version="1.0" encoding="UTF-8" standalone="no"?>
<svg
   xmlns:dc="http://purl.org/dc/elements/1.1/"
   xmlns:cc="http://creativecommons.org/ns#"
   xmlns:rdf="http://www.w3.org/1999/02/22-rdf-syntax-ns#"
   xmlns:svg="http://www.w3.org/2000/svg"
   xmlns="http://www.w3.org/2000/svg"
   xmlns:sodipodi="http://sodipodi.sourceforge.net/DTD/sodipodi-0.dtd"
   xmlns:inkscape="http://www.inkscape.org/namespaces/inkscape"
   viewBox="0.0 0.0 348.0 348.0"
   fill="none"
   version="1.1"
   id="svg6"
   sodipodi:docname="Even Or Odd.svg"
   inkscape:version="0.92.4 (5da689c313, 2019-01-14)">
  <metadata
     id="metadata12">
    <rdf:RDF>
      <cc:Work
         rdf:about="">
        <dc:format>image/svg+xml</dc:format>
        <dc:type
           rdf:resource="http://purl.org/dc/dcmitype/StillImage" />
        <dc:title></dc:title>
      </cc:Work>
    </rdf:RDF>
  </metadata>
  <defs
     id="defs10" />
  <sodipodi:namedview
     pagecolor="#ffffff"
     bordercolor="#666666"
     borderopacity="1"
     objecttolerance="10"
     gridtolerance="10"
     guidetolerance="10"
     inkscape:pageopacity="0"
     inkscape:pageshadow="2"
     inkscape:window-width="1920"
     inkscape:window-height="1057"
     id="namedview8"
     showgrid="false"
     showguides="true"
     inkscape:guide-bbox="true"
     inkscape:zoom="2.1124628"
     inkscape:cx="152.67969"
     inkscape:cy="191.14517"
     inkscape:window-x="1272"
     inkscape:window-y="-8"
     inkscape:window-maximized="1"
     inkscape:current-layer="svg6">
    <sodipodi:guide
       position="173.536,173.389"
       orientation="1,0"
       id="guide852"
       inkscape:locked="false"
       inkscape:label=""
       inkscape:color="rgb(0,0,255)" />
    <sodipodi:guide
       position="173.536,173.389"
       orientation="0,1"
       id="guide854"
       inkscape:locked="false" />
  </sodipodi:namedview>
  <path
     d="M5.079 5.776h336.913v337.67H5.08z"
     id="path2"
     stroke-width="2"
     stroke="#000" />
  <path
     d="m 287.25263,41.683658 c 0,-8.376 6.966,-15.165 15.56,-15.165 4.126,0 8.084,1.597 11.001,4.441 2.918,2.844 4.558,6.702 4.558,10.724 0,8.376 -6.966,15.165 -15.56,15.165 -8.593,0 -15.559,-6.79 -15.559,-15.165 z"
     id="path4"
     inkscape:connector-curvature="0"
     style="stroke:#000000;stroke-width:2" />
  <g
     style="font-style:normal;font-weight:normal;font-size:40px;line-height:1.25;font-family:sans-serif;letter-spacing:0px;word-spacing:0px;fill:#000000;fill-opacity:1;stroke:none"
     id="text844" />
  <path
     style="fill:none;fill-opacity:0.33333333;fill-rule:evenodd;stroke:#000000;stroke-width:2;stroke-linecap:square;stroke-linejoin:miter;stroke-miterlimit:4;stroke-dasharray:none;stroke-dashoffset:0;stroke-opacity:1"
     d="M 13.254671,16.633217 H 83.788462 V 61.131042 H 13.254671 Z"
     id="rect4520" />
  <path
     style="fill:none;fill-opacity:0.33333333;fill-rule:evenodd;stroke:#000000;stroke-width:2;stroke-linecap:square;stroke-linejoin:miter;stroke-miterlimit:4;stroke-dasharray:none;stroke-dashoffset:0;stroke-opacity:1"
     d="M 107.93089,86.220238 H 231.95676 V 287.88059 H 107.93089 Z"
     id="rect4522" />
  <path
     style="fill:none;fill-opacity:0.33333333;fill-rule:evenodd;stroke:#000000;stroke-width:2;stroke-linecap:square;stroke-linejoin:miter;stroke-miterlimit:4;stroke-dasharray:none;stroke-dashoffset:0;stroke-opacity:1"
     d="M 94.202843,181.84323 A 36.450348,36.450348 0 0 1 57.752495,218.29358 36.450348,36.450348 0 0 1 21.302147,181.84323 36.450348,36.450348 0 0 1 57.752495,145.39288 36.450348,36.450348 0 0 1 94.202843,181.84323 Z"
     id="path4524" />
  <path
     style="fill:none;fill-opacity:0.33333333;fill-rule:evenodd;stroke:#000000;stroke-width:2;stroke-linecap:square;stroke-linejoin:miter;stroke-miterlimit:4;stroke-dasharray:none;stroke-dashoffset:0;stroke-opacity:1"
     d="m 326.633,181.84323 a 36.450348,36.450348 0 0 1 -36.45035,36.45035 36.450348,36.450348 0 0 1 -36.45035,-36.45035 36.450348,36.450348 0 0 1 36.45035,-36.45035 36.450348,36.450348 0 0 1 36.45035,36.45035 z"
     id="circle4526" />
  <g
     aria-label="Even"
     style="font-style:normal;font-weight:normal;font-size:24px;line-height:1.25;font-family:sans-serif;text-align:center;letter-spacing:0px;word-spacing:0px;text-anchor:middle;fill:#000000;fill-opacity:1;stroke:none"
     id="text4530">
    <path
       d="M 41.775211,191.31085 H 30.279118 v -17.44922 h 11.496093 v 2.0625 H 32.59943 v 4.78125 h 9.175781 v 2.0625 H 32.59943 v 6.48047 h 9.175781 z"
       style=""
       id="path4549" />
    <path
       d="m 56.611149,178.22101 -5.296875,13.08984 H 49.09943 l -5.261719,-13.08984 h 2.390625 l 4.054688,10.41797 4.019531,-10.41797 z"
       style=""
       id="path4551" />
    <path
       d="m 70.263493,184.99445 h -9.644532 q 0,1.20703 0.363282,2.10937 0.363281,0.89063 0.996093,1.46484 0.609375,0.5625 1.441407,0.84375 0.84375,0.28125 1.851562,0.28125 1.335938,0 2.683594,-0.52734 1.359375,-0.53906 1.933594,-1.05469 h 0.117187 v 2.40235 q -1.113281,0.46875 -2.273437,0.78515 -1.160157,0.31641 -2.4375,0.31641 -3.257813,0 -5.085938,-1.75781 -1.828125,-1.76953 -1.828125,-5.01563 0,-3.21094 1.746094,-5.09765 1.757812,-1.88672 4.617187,-1.88672 2.648438,0 4.078125,1.54687 1.441407,1.54688 1.441407,4.39453 z m -2.144532,-1.6875 q -0.01172,-1.73438 -0.878906,-2.6836 -0.855469,-0.94922 -2.613281,-0.94922 -1.769531,0 -2.824219,1.04297 -1.042969,1.04297 -1.183594,2.58985 z"
       style=""
       id="path4553" />
    <path
       d="m 84.548649,191.31085 h -2.203125 v -7.45312 q 0,-0.90235 -0.105469,-1.6875 -0.105469,-0.79688 -0.386719,-1.24219 -0.292968,-0.49219 -0.84375,-0.72656 -0.550781,-0.2461 -1.429687,-0.2461 -0.902344,0 -1.886719,0.44532 -0.984375,0.44531 -1.886719,1.13671 v 9.77344 h -2.203125 v -13.08984 h 2.203125 v 1.45312 q 1.03125,-0.85547 2.132813,-1.33593 1.101562,-0.48047 2.261719,-0.48047 2.121093,0 3.234375,1.27734 1.113281,1.27734 1.113281,3.67969 z"
       style=""
       id="path4555" />
  </g>
  <g
     aria-label="Odd"
     style="font-style:normal;font-weight:normal;font-size:24px;line-height:1.25;font-family:sans-serif;text-align:center;letter-spacing:0px;word-spacing:0px;text-anchor:middle;fill:#000000;fill-opacity:1;stroke:none"
     id="text4534">
    <path
       d="m 280.66238,173.97202 q 1.06641,1.17187 1.62891,2.87109 0.57422,1.69922 0.57422,3.85547 0,2.15625 -0.58594,3.86719 -0.57422,1.69921 -1.61719,2.83593 -1.07812,1.1836 -2.55468,1.78125 -1.46485,0.59766 -3.35157,0.59766 -1.83984,0 -3.35156,-0.60938 -1.5,-0.60937 -2.55469,-1.76953 -1.05468,-1.16015 -1.6289,-2.84765 -0.5625,-1.6875 -0.5625,-3.85547 0,-2.13281 0.5625,-3.82031 0.5625,-1.69922 1.64062,-2.90625 1.03125,-1.14844 2.55469,-1.75782 1.53516,-0.60937 3.33984,-0.60937 1.875,0 3.36329,0.62109 1.5,0.60938 2.54296,1.7461 z m -0.21093,6.72656 q 0,-3.39844 -1.52344,-5.23828 -1.52344,-1.85157 -4.16016,-1.85157 -2.66015,0 -4.18359,1.85157 -1.51172,1.83984 -1.51172,5.23828 0,3.43359 1.54688,5.26172 1.54687,1.8164 4.14843,1.8164 2.60157,0 4.13672,-1.8164 1.54688,-1.82813 1.54688,-5.26172 z"
       style=""
       id="path4558" />
    <path
       d="m 296.9866,189.41733 h -2.20312 v -1.3711 q -0.94922,0.82032 -1.98047,1.27735 -1.03125,0.45703 -2.23828,0.45703 -2.34375,0 -3.72656,-1.80469 -1.3711,-1.80469 -1.3711,-5.0039 0,-1.66407 0.46875,-2.96485 0.48047,-1.30078 1.28906,-2.21484 0.79688,-0.89063 1.85157,-1.35938 1.0664,-0.46875 2.20312,-0.46875 1.03125,0 1.82813,0.22266 0.79687,0.21094 1.67578,0.66797 v -5.67188 h 2.20312 z m -2.20312,-3.22266 v -7.51172 q -0.89063,-0.39843 -1.59375,-0.55078 -0.70313,-0.15234 -1.53516,-0.15234 -1.85156,0 -2.88281,1.28906 -1.03125,1.28906 -1.03125,3.65625 0,2.33203 0.79687,3.55078 0.79688,1.20703 2.55469,1.20703 0.9375,0 1.89844,-0.41015 0.96094,-0.42188 1.79297,-1.07813 z"
       style=""
       id="path4560" />
    <path
       d="m 311.93973,189.41733 h -2.20313 v -1.3711 q -0.94922,0.82032 -1.98047,1.27735 -1.03125,0.45703 -2.23828,0.45703 -2.34375,0 -3.72656,-1.80469 -1.37109,-1.80469 -1.37109,-5.0039 0,-1.66407 0.46875,-2.96485 0.48047,-1.30078 1.28906,-2.21484 0.79687,-0.89063 1.85156,-1.35938 1.06641,-0.46875 2.20313,-0.46875 1.03125,0 1.82812,0.22266 0.79688,0.21094 1.67578,0.66797 v -5.67188 h 2.20313 z m -2.20313,-3.22266 v -7.51172 q -0.89062,-0.39843 -1.59375,-0.55078 -0.70312,-0.15234 -1.53515,-0.15234 -1.85157,0 -2.88282,1.28906 -1.03125,1.28906 -1.03125,3.65625 0,2.33203 0.79688,3.55078 0.79687,1.20703 2.55469,1.20703 0.9375,0 1.89843,-0.41015 0.96094,-0.42188 1.79297,-1.07813 z"
       style=""
       id="path4562" />
  </g>
  <g
     aria-label="9"
     style="font-style:normal;font-weight:normal;font-size:192px;line-height:1.25;font-family:sans-serif;text-align:center;letter-spacing:0px;word-spacing:0px;text-anchor:middle;fill:#000000;fill-opacity:1;stroke:none"
     id="text4538">
    <path
       d="m 218.22507,175.13628 q 0,18.28125 -4.21875,33.1875 -4.125,14.90625 -12.5625,25.40625 -8.53125,10.6875 -21.375,16.5 -12.84375,5.8125 -30.1875,5.8125 -4.875,0 -9.1875,-0.5625 -4.3125,-0.46875 -7.6875,-1.59375 v -17.90625 h 0.9375 q 2.71875,1.40625 7.6875,2.71875 4.96875,1.21875 11.0625,1.21875 20.71875,0 32.4375,-12.375 11.8125,-12.46875 13.6875,-34.3125 -8.71875,5.25 -16.40625,7.5 -7.6875,2.25 -16.78125,2.25 -8.625,0 -15.65625,-1.6875 -6.9375,-1.6875 -13.96875,-6.5625 -8.25,-5.71875 -12.46875,-14.53125 -4.125,-8.8125 -4.125,-21.09375 0,-21.375 14.0625,-34.78125 14.0625,-13.40625 34.3125,-13.40625 10.125,0 18.75,3.1875 8.625,3.09375 15.09375,9.375 7.96875,7.78125 12.28125,20.0625 4.3125,12.1875 4.3125,31.59375 z m -18.9375,-4.03125 q 0,-14.53125 -3,-23.34375 -3,-8.8125 -8.25,-13.6875 -4.40625,-4.21875 -9.46875,-6 -5.0625,-1.875 -10.96875,-1.875 -13.5,0 -21.375,8.4375 -7.78125,8.4375 -7.78125,23.71875 0,8.90625 2.53125,14.53125 2.53125,5.625 8.53125,9.84375 4.21875,2.90625 9.28125,3.9375 5.0625,0.9375 11.25,0.9375 7.3125,0 14.8125,-1.96875 7.5,-1.96875 14.0625,-5.71875 0.0937,-1.96875 0.1875,-3.84375 0.1875,-1.96875 0.1875,-4.96875 z"
       style=""
       id="path4565" />
  </g>
  <g
     aria-label="30"
     style="font-style:normal;font-weight:normal;font-size:48px;line-height:1.25;font-family:sans-serif;text-align:center;letter-spacing:0px;word-spacing:0px;text-anchor:middle;fill:#000000;fill-opacity:1;stroke:none"
     id="text4542">
    <path
       d="m 42.050499,38.645782 q 1.125,1.007813 1.851562,2.53125 0.726563,1.523438 0.726563,3.9375 0,2.390625 -0.867188,4.382813 -0.867187,1.992187 -2.4375,3.46875 -1.757812,1.640625 -4.148437,2.4375 -2.367188,0.773437 -5.203125,0.773437 -2.90625,0 -5.71875,-0.703125 -2.8125,-0.679687 -4.617188,-1.5 V 49.07547 h 0.351563 q 1.992187,1.3125 4.6875,2.179687 2.695312,0.867188 5.203125,0.867188 1.476562,0 3.140625,-0.492188 1.664062,-0.492187 2.695312,-1.453125 1.078125,-1.03125 1.59375,-2.273437 0.539063,-1.242188 0.539063,-3.140625 0,-1.875 -0.609375,-3.09375 -0.585938,-1.242188 -1.640625,-1.945313 -1.054688,-0.726562 -2.554688,-0.984375 -1.5,-0.28125 -3.234375,-0.28125 h -2.109375 v -3.890625 h 1.640625 q 3.5625,0 5.671875,-1.476562 2.132813,-1.5 2.132813,-4.359375 0,-1.265625 -0.539063,-2.203125 -0.539062,-0.960938 -1.5,-1.570313 -1.007812,-0.609375 -2.15625,-0.84375 -1.148437,-0.234375 -2.601562,-0.234375 -2.226563,0 -4.734375,0.796875 -2.507813,0.796875 -4.734375,2.25 h -0.234375 v -4.898437 q 1.664062,-0.820313 4.429687,-1.5 2.789063,-0.703125 5.390625,-0.703125 2.554688,0 4.5,0.46875 1.945313,0.46875 3.515625,1.5 1.6875,1.125 2.554688,2.71875 0.867187,1.59375 0.867187,3.726562 0,2.90625 -2.0625,5.085938 -2.039062,2.15625 -4.828125,2.71875 v 0.328125 q 1.125,0.1875 2.578125,0.796875 1.453125,0.585937 2.460938,1.476562 z"
       style=""
       id="path4568" />
    <path
       d="m 75.636436,37.989532 q 0,9.398438 -2.953125,13.804688 -2.929687,4.382812 -9.117187,4.382812 -6.28125,0 -9.1875,-4.453125 -2.882813,-4.453125 -2.882813,-13.6875 0,-9.304687 2.929688,-13.734375 2.929687,-4.453125 9.140625,-4.453125 6.28125,0 9.164062,4.523438 2.90625,4.5 2.90625,13.617187 z m -6.164062,10.640625 q 0.820312,-1.898437 1.101562,-4.453125 0.304688,-2.578125 0.304688,-6.1875 0,-3.5625 -0.304688,-6.1875 -0.28125,-2.625 -1.125,-4.453125 -0.820312,-1.804687 -2.25,-2.71875 -1.40625,-0.914062 -3.632812,-0.914062 -2.203125,0 -3.65625,0.914062 -1.429688,0.914063 -2.273438,2.765625 -0.796875,1.734375 -1.101562,4.523438 -0.28125,2.789062 -0.28125,6.117187 0,3.65625 0.257812,6.117188 0.257813,2.460937 1.101563,4.40625 0.773437,1.828125 2.179687,2.789062 1.429688,0.960938 3.773438,0.960938 2.203125,0 3.65625,-0.914063 1.453125,-0.914062 2.25,-2.765625 z"
       style=""
       id="path4570" />
  </g>
</svg>
