<?xml version="1.0" encoding="UTF-8" standalone="no"?>
<svg
   xmlns:dc="http://purl.org/dc/elements/1.1/"
   xmlns:cc="http://creativecommons.org/ns#"
   xmlns:rdf="http://www.w3.org/1999/02/22-rdf-syntax-ns#"
   xmlns:svg="http://www.w3.org/2000/svg"
   xmlns="http://www.w3.org/2000/svg"
   xmlns:xlink="http://www.w3.org/1999/xlink"
   xmlns:sodipodi="http://sodipodi.sourceforge.net/DTD/sodipodi-0.dtd"
   xmlns:inkscape="http://www.inkscape.org/namespaces/inkscape"
   id="Layer_1"
   viewBox="0 0 348 348"
   version="1.1"
   sodipodi:docname="Faulty 7 Segment Displays.svg"
   inkscape:version="0.92.4 (5da689c313, 2019-01-14)">
  <metadata
     id="metadata79">
    <rdf:RDF>
      <cc:Work
         rdf:about="">
        <dc:format>image/svg+xml</dc:format>
        <dc:type
           rdf:resource="http://purl.org/dc/dcmitype/StillImage" />
        <dc:title></dc:title>
      </cc:Work>
    </rdf:RDF>
  </metadata>
  <sodipodi:namedview
     pagecolor="#ffffff"
     bordercolor="#666666"
     borderopacity="1"
     objecttolerance="10"
     gridtolerance="10"
     guidetolerance="10"
     inkscape:pageopacity="0"
     inkscape:pageshadow="2"
     inkscape:window-width="1920"
     inkscape:window-height="1057"
     id="namedview77"
     showgrid="false"
     inkscape:zoom="2.405352"
     inkscape:cx="147.7011"
     inkscape:cy="158.67468"
     inkscape:window-x="1272"
     inkscape:window-y="-8"
     inkscape:window-maximized="1"
     inkscape:current-layer="Layer_1" />
  <style
     id="style2">
        .st0{clip-path:url(#SVGID_2_);fill:none;stroke:#000;stroke-width:2;stroke-linejoin:round;stroke-miterlimit:10}.st1,.st2,.st3{clip-path:url(#SVGID_2_)}.st2{fill:#fff}.st3{fill-opacity:0}.st4{fill:none;stroke:#000;stroke-linejoin:round;stroke-miterlimit:10}
    </style>
  <defs
     id="defs5">
    <path
       id="SVGID_1_"
       d="M0 0h348v348H0z" />
  </defs>
  <clipPath
     id="SVGID_2_">
    <use
       xlink:href="#SVGID_1_"
       overflow="visible"
       id="use7" />
  </clipPath>
  <path
     class="st0"
     d="M5 5.8h337v337.7H5V5.8z"
     clip-path="url(#SVGID_2_)"
     id="path10" />
  <path
     class="st1"
     d="M133.8 15.7H208v57h-74v-57z"
     clip-path="url(#SVGID_2_)"
     id="path12" />
  <path
     class="st2"
     d="M154.5 44c0-2.6.3-4.8.8-6.4.6-1.7 1.4-3 2.5-3.8 1-1 2.5-1.3 4.2-1.3 1.2 0 2.3.3 3.2.8 1 .5 1.7 1.2 2.3 2 .6 1 1 2.2 1.4 3.5.2 1.3.4 3 .4 5.4 0 2.7-.3 5-.8 6.5-.6 1.6-1.4 3-2.5 3.8-1 1-2.4 1.3-4 1.3-2.3 0-4-.8-5.3-2.4-1.4-2-2.2-5-2.2-9.3zm3 0c0 4 .3 6.4 1.2 7.6 1 1.2 2 2 3.3 2s2.4-.7 3.3-2c1-1.3 1.3-3.8 1.3-7.5s-.4-6.2-1.3-7.4c-1-1.2-2-2-3.3-2-1.3 0-2.3.6-3 1.7-1 1.5-1.6 4-1.6 7.8zm14.8 0c0-2.6.3-4.8.8-6.4.7-1.7 1.5-3 2.6-3.8 1-1 2.5-1.3 4.2-1.3 1.2 0 2.3.3 3.2.8 1 .5 1.7 1.2 2.3 2 .6 1 1 2.2 1.4 3.5.3 1.3.5 3 .5 5.4 0 2.7-.3 5-.8 6.5-.6 1.6-1.4 3-2.5 3.8-1.2 1-2.6 1.3-4.3 1.3-2.2 0-4-.8-5.2-2.4-1.4-2-2.2-5-2.2-9.3zm3 0c0 4 .3 6.4 1.2 7.6 1 1.2 2 2 3.3 2s2.4-.7 3.3-2c1-1.3 1.4-3.8 1.4-7.5s-.4-6.2-1.3-7.4c-.8-1.2-2-2-3.2-2-1.3 0-2.3.6-3 1.7-1 1.5-1.6 4-1.6 7.8zm-160-26.3h110v54.8h-110V17.7z"
     clip-path="url(#SVGID_2_)"
     id="path14"
     style="stroke:none" />
  <path
     class="st0"
     d="M15.3 17.7h110v54.8h-110V17.7z"
     clip-path="url(#SVGID_2_)"
     id="path16" />
  <path
     class="st3"
     d="M15.3 72.7l39.7-54"
     clip-path="url(#SVGID_2_)"
     id="path18" />
  <path
     class="st0"
     d="M15.3 72.7l39.7-54"
     clip-path="url(#SVGID_2_)"
     id="path20" />
  <path
     class="st3"
     d="M37.6 72.7l39.7-54"
     clip-path="url(#SVGID_2_)"
     id="path22" />
  <path
     class="st0"
     d="M37.6 72.7l39.7-54"
     clip-path="url(#SVGID_2_)"
     id="path24" />
  <path
     class="st3"
     d="M60 72.7l39.6-54"
     clip-path="url(#SVGID_2_)"
     id="path26" />
  <path
     class="st0"
     d="M60 72.7l39.6-54"
     clip-path="url(#SVGID_2_)"
     id="path28" />
  <path
     class="st3"
     d="M82.2 72.7l39.7-54"
     clip-path="url(#SVGID_2_)"
     id="path30" />
  <path
     class="st0"
     d="M82.2 72.7l39.7-54"
     clip-path="url(#SVGID_2_)"
     id="path32" />
  <path
     class="st2"
     d="M217 16.6h109.8v54.8h-110V16.6z"
     clip-path="url(#SVGID_2_)"
     id="path34"
     style="stroke:none" />
  <path
     class="st0"
     d="M217 16.6h109.8v54.8h-110V16.6z"
     clip-path="url(#SVGID_2_)"
     id="path36" />
  <path
     class="st3"
     d="M217 71.6l39.6-54"
     clip-path="url(#SVGID_2_)"
     id="path38" />
  <path
     class="st0"
     d="M217 71.6l39.6-54"
     clip-path="url(#SVGID_2_)"
     id="path40" />
  <path
     class="st3"
     d="M239.2 71.6l39.7-54"
     clip-path="url(#SVGID_2_)"
     id="path42" />
  <path
     class="st0"
     d="M239.2 71.6l39.7-54"
     clip-path="url(#SVGID_2_)"
     id="path44" />
  <path
     class="st3"
     d="M261.5 71.6l39.7-54"
     clip-path="url(#SVGID_2_)"
     id="path46" />
  <path
     class="st0"
     d="M261.5 71.6l39.7-54"
     clip-path="url(#SVGID_2_)"
     id="path48" />
  <path
     class="st3"
     d="M283.8 71.6l39.7-54"
     clip-path="url(#SVGID_2_)"
     id="path50" />
  <path
     class="st0"
     d="M283.8 71.6l39.7-54"
     clip-path="url(#SVGID_2_)"
     id="path52" />
  <path
     style="fill:none;stroke:#000000;stroke-width:2.11115694;stroke-linecap:butt;stroke-linejoin:round;stroke-miterlimit:4;stroke-dasharray:none;stroke-opacity:1"
     d="m 83.099535,131.78873 h 58.929105 l 14.73228,-14.73227 -14.73228,-14.73229 H 83.099535 l -14.732277,14.73229 z"
     id="path5091"
     inkscape:connector-curvature="0"
     sodipodi:nodetypes="ccccccc" />
  <rect
     style="fill:none;fill-opacity:1;fill-rule:nonzero;stroke:#000000;stroke-width:2;stroke-linejoin:miter;stroke-miterlimit:4;stroke-dasharray:none;stroke-opacity:1"
     id="rect5110"
     width="252.76965"
     height="252.76965"
     x="44.899872"
     y="77.769279" />
  <path
     sodipodi:nodetypes="ccccccc"
     inkscape:connector-curvature="0"
     id="path5114"
     d="m 171.49319,190.71783 v -58.9291 l -14.73227,-14.73227 -14.73228,14.73227 v 58.9291 l 14.73228,14.73228 z"
     style="fill:none;stroke:#000000;stroke-width:2.11115694;stroke-linecap:butt;stroke-linejoin:round;stroke-miterlimit:4;stroke-dasharray:none;stroke-opacity:1" />
  <path
     style="fill:none;stroke:#000000;stroke-width:2.11115694;stroke-linecap:butt;stroke-linejoin:round;stroke-miterlimit:4;stroke-dasharray:none;stroke-opacity:1"
     d="m 83.099535,190.71783 v -58.9291 L 68.36726,117.05646 53.634983,131.78873 v 58.9291 l 14.732277,14.73228 z"
     id="path5116"
     inkscape:connector-curvature="0"
     sodipodi:nodetypes="ccccccc" />
  <path
     sodipodi:nodetypes="ccccccc"
     inkscape:connector-curvature="0"
     id="path5118"
     d="m 83.099535,220.18238 h 58.929105 l 14.73228,-14.73227 -14.73228,-14.73228 H 83.099535 l -14.732277,14.73228 z"
     style="fill:none;stroke:#000000;stroke-width:2.11115694;stroke-linecap:butt;stroke-linejoin:round;stroke-miterlimit:4;stroke-dasharray:none;stroke-opacity:1" />
  <path
     style="fill:none;stroke:#000000;stroke-width:2.11115694;stroke-linecap:butt;stroke-linejoin:round;stroke-miterlimit:4;stroke-dasharray:none;stroke-opacity:1"
     d="m 171.49319,279.11149 v -58.92911 l -14.73227,-14.73227 -14.73228,14.73227 v 58.92911 l 14.73228,14.73228 z"
     id="path5120"
     inkscape:connector-curvature="0"
     sodipodi:nodetypes="ccccccc" />
  <path
     sodipodi:nodetypes="ccccccc"
     inkscape:connector-curvature="0"
     id="path5122"
     d="M 83.099535,279.11149 V 220.18238 L 68.36726,205.45011 53.634983,220.18238 v 58.92911 l 14.732277,14.73228 z"
     style="fill:none;stroke:#000000;stroke-width:2.11115694;stroke-linecap:butt;stroke-linejoin:round;stroke-miterlimit:4;stroke-dasharray:none;stroke-opacity:1" />
  <path
     style="fill:none;stroke:#000000;stroke-width:2.11115694;stroke-linecap:butt;stroke-linejoin:round;stroke-miterlimit:4;stroke-dasharray:none;stroke-opacity:1"
     d="m 83.099535,308.57603 h 58.929105 l 14.73228,-14.73226 -14.73228,-14.73228 H 83.099535 l -14.732277,14.73228 z"
     id="path5124"
     inkscape:connector-curvature="0"
     sodipodi:nodetypes="ccccccc" />
  <path
     sodipodi:nodetypes="ccccccc"
     inkscape:connector-curvature="0"
     id="path5126"
     d="m 200.95774,131.78873 h 58.9291 l 14.73228,-14.73227 -14.73228,-14.73229 h -58.9291 l -14.73227,14.73229 z"
     style="fill:none;stroke:#000000;stroke-width:2.11115694;stroke-linecap:butt;stroke-linejoin:round;stroke-miterlimit:4;stroke-dasharray:none;stroke-opacity:1" />
  <path
     style="fill:none;stroke:#000000;stroke-width:2.11115694;stroke-linecap:butt;stroke-linejoin:round;stroke-miterlimit:4;stroke-dasharray:none;stroke-opacity:1"
     d="m 289.3514,190.71783 v -58.9291 l -14.73228,-14.73227 -14.73228,14.73227 v 58.9291 l 14.73228,14.73228 z"
     id="path5128"
     inkscape:connector-curvature="0"
     sodipodi:nodetypes="ccccccc" />
  <path
     sodipodi:nodetypes="ccccccc"
     inkscape:connector-curvature="0"
     id="path5130"
     d="m 200.95774,190.71783 v -58.9291 l -14.73227,-14.73227 -14.73228,14.73227 v 58.9291 l 14.73228,14.73228 z"
     style="fill:none;stroke:#000000;stroke-width:2.11115694;stroke-linecap:butt;stroke-linejoin:round;stroke-miterlimit:4;stroke-dasharray:none;stroke-opacity:1" />
  <path
     style="fill:none;stroke:#000000;stroke-width:2.11115694;stroke-linecap:butt;stroke-linejoin:round;stroke-miterlimit:4;stroke-dasharray:none;stroke-opacity:1"
     d="m 200.95774,220.18238 h 58.9291 l 14.73228,-14.73227 -14.73228,-14.73228 h -58.9291 l -14.73227,14.73228 z"
     id="path5132"
     inkscape:connector-curvature="0"
     sodipodi:nodetypes="ccccccc" />
  <path
     sodipodi:nodetypes="ccccccc"
     inkscape:connector-curvature="0"
     id="path5134"
     d="m 289.3514,279.11149 v -58.92911 l -14.73228,-14.73227 -14.73228,14.73227 v 58.92911 l 14.73228,14.73228 z"
     style="fill:none;stroke:#000000;stroke-width:2.11115694;stroke-linecap:butt;stroke-linejoin:round;stroke-miterlimit:4;stroke-dasharray:none;stroke-opacity:1" />
  <path
     style="fill:none;stroke:#000000;stroke-width:2.11115694;stroke-linecap:butt;stroke-linejoin:round;stroke-miterlimit:4;stroke-dasharray:none;stroke-opacity:1"
     d="m 200.95774,279.11149 v -58.92911 l -14.73227,-14.73227 -14.73228,14.73227 v 58.92911 l 14.73228,14.73228 z"
     id="path5136"
     inkscape:connector-curvature="0"
     sodipodi:nodetypes="ccccccc" />
  <path
     sodipodi:nodetypes="ccccccc"
     inkscape:connector-curvature="0"
     id="path5138"
     d="m 200.95774,308.57603 h 58.9291 l 14.73228,-14.73226 -14.73228,-14.73228 h -58.9291 l -14.73227,14.73228 z"
     style="fill:none;stroke:#000000;stroke-width:2.11115694;stroke-linecap:butt;stroke-linejoin:round;stroke-miterlimit:4;stroke-dasharray:none;stroke-opacity:1" />
</svg>
