<?xml version="1.0" encoding="UTF-8" standalone="no"?>
<svg
   xmlns:dc="http://purl.org/dc/elements/1.1/"
   xmlns:cc="http://creativecommons.org/ns#"
   xmlns:rdf="http://www.w3.org/1999/02/22-rdf-syntax-ns#"
   xmlns:svg="http://www.w3.org/2000/svg"
   xmlns="http://www.w3.org/2000/svg"
   xmlns:sodipodi="http://sodipodi.sourceforge.net/DTD/sodipodi-0.dtd"
   xmlns:inkscape="http://www.inkscape.org/namespaces/inkscape"
   viewBox="0.0 0.0 348.0 348.0"
   fill="none"
   version="1.1"
   id="svg6"
   sodipodi:docname="Forget Infinity (Revised).svg"
   inkscape:version="0.92.4 (5da689c313, 2019-01-14)">
  <metadata
     id="metadata12">
    <rdf:RDF>
      <cc:Work
         rdf:about="">
        <dc:format>image/svg+xml</dc:format>
        <dc:type
           rdf:resource="http://purl.org/dc/dcmitype/StillImage" />
        <dc:title></dc:title>
      </cc:Work>
    </rdf:RDF>
  </metadata>
  <defs
     id="defs10" />
  <sodipodi:namedview
     pagecolor="#ffffff"
     bordercolor="#666666"
     borderopacity="1"
     objecttolerance="10"
     gridtolerance="10"
     guidetolerance="10"
     inkscape:pageopacity="0"
     inkscape:pageshadow="2"
     inkscape:window-width="1920"
     inkscape:window-height="1057"
     id="namedview8"
     showgrid="false"
     showguides="true"
     inkscape:guide-bbox="true"
     inkscape:zoom="2.0246434"
     inkscape:cx="160.41069"
     inkscape:cy="193.83427"
     inkscape:window-x="1272"
     inkscape:window-y="-8"
     inkscape:window-maximized="1"
     inkscape:current-layer="svg6">
    <sodipodi:guide
       position="173.536,173.389"
       orientation="1,0"
       id="guide852"
       inkscape:locked="false"
       inkscape:label=""
       inkscape:color="rgb(0,0,255)" />
    <sodipodi:guide
       position="173.536,173.389"
       orientation="0,1"
       id="guide854"
       inkscape:locked="false" />
  </sodipodi:namedview>
  <path
     d="M5.079 5.776h336.913v337.67H5.08z"
     stroke-width="2"
     stroke="#000"
     id="path2" />
  <path
     d="m 287.25263,41.683658 c 0,-8.376 6.966,-15.165 15.56,-15.165 4.126,0 8.084,1.597 11.001,4.441 2.918,2.844 4.558,6.702 4.558,10.724 0,8.376 -6.966,15.165 -15.56,15.165 -8.593,0 -15.559,-6.79 -15.559,-15.165 z"
     id="path4"
     inkscape:connector-curvature="0"
     style="stroke:#000000;stroke-width:2" />
  <rect
     style="fill:none;fill-opacity:0;stroke:#000000;stroke-width:2;stroke-linejoin:miter;stroke-miterlimit:4;stroke-dasharray:none;stroke-opacity:1"
     id="rect822"
     width="250"
     height="80"
     x="19.204178"
     y="22.658638" />
  <rect
     y="109.07744"
     x="19.204178"
     height="80"
     width="250"
     id="rect824"
     style="fill:none;fill-opacity:0;stroke:#000000;stroke-width:2;stroke-linejoin:miter;stroke-miterlimit:4;stroke-dasharray:none;stroke-opacity:1" />
  <rect
     style="fill:none;fill-opacity:0;stroke:#000000;stroke-width:2;stroke-linejoin:miter;stroke-miterlimit:4;stroke-dasharray:none;stroke-opacity:1"
     id="rect826"
     width="40"
     height="40"
     x="288.6275"
     y="140.70784" />
  <text
     xml:space="preserve"
     style="font-style:normal;font-weight:normal;font-size:40px;line-height:1.25;font-family:sans-serif;letter-spacing:0px;word-spacing:0px;fill:#000000;fill-opacity:1;stroke:none"
     x="92.631912"
     y="244.0715"
     id="text844"><tspan
       sodipodi:role="line"
       id="tspan842"
       x="92.631912"
       y="280.56473"></tspan></text>
  <path
     style="fill:none;fill-opacity:0;stroke:#000000;stroke-width:2;stroke-linejoin:miter;stroke-miterlimit:4;stroke-dasharray:none;stroke-opacity:1"
     d="m 153.63342,216.95973 h 40 v 40 h -40 z"
     id="rect850" />
  <g
     aria-label="&lt;STATUS&gt;"
     style="font-style:normal;font-weight:normal;font-size:40px;line-height:1.25;font-family:sans-serif;letter-spacing:0px;word-spacing:0px;fill:#000000;fill-opacity:1;stroke:none"
     id="text884"
     transform="translate(-1.05903,2.259315)">
    <path
       d="M 62.641907,73.118973 40.102844,63.099442 V 60.677567 L 62.641907,50.658035 v 3.515625 l -17.773438,7.714844 17.773438,7.714844 z"
       style="text-align:center;text-anchor:middle"
       id="path890"
       inkscape:connector-curvature="0" />
    <path
       d="m 92.915344,66.322098 q 0,1.699219 -0.800781,3.359375 -0.78125,1.660156 -2.207031,2.8125 -1.5625,1.25 -3.652344,1.953125 -2.070313,0.703125 -5,0.703125 -3.144531,0 -5.664063,-0.585938 -2.5,-0.585937 -5.097656,-1.738281 v -4.84375 h 0.273438 q 2.207031,1.835938 5.097656,2.832031 2.890625,0.996094 5.429687,0.996094 3.59375,0 5.585938,-1.347656 2.011719,-1.347656 2.011719,-3.59375 0,-1.933594 -0.957032,-2.851563 -0.9375,-0.917968 -2.871093,-1.425781 -1.464844,-0.390625 -3.183594,-0.644531 -1.699219,-0.253906 -3.613281,-0.644531 -3.867188,-0.820313 -5.742188,-2.792969 -1.855469,-1.992188 -1.855469,-5.175781 0,-3.652344 3.085938,-5.976563 3.085937,-2.34375 7.832031,-2.34375 3.066406,0 5.625,0.585938 2.558594,0.585937 4.53125,1.445312 v 4.570313 h -0.273437 q -1.660157,-1.40625 -4.375,-2.324219 -2.695313,-0.9375 -5.527344,-0.9375 -3.105469,0 -5,1.289062 -1.875,1.289063 -1.875,3.320313 0,1.816406 0.9375,2.851562 0.9375,1.035157 3.300781,1.582032 1.25,0.273437 3.554688,0.664062 2.304687,0.390625 3.90625,0.800781 3.242187,0.859375 4.882812,2.597657 1.640625,1.738281 1.640625,4.863281 z"
       style="text-align:center;text-anchor:middle"
       id="path892"
       inkscape:connector-curvature="0" />
    <path
       d="m 119.86847,48.978348 h -10.39063 v 25.644531 h -3.86718 V 48.978348 H 95.220032 v -3.4375 h 24.648438 z"
       style="text-align:center;text-anchor:middle"
       id="path894"
       inkscape:connector-curvature="0" />
    <path
       d="m 144.39972,74.622879 h -4.12109 l -2.85157,-8.105469 h -12.57812 l -2.85156,8.105469 h -3.92579 l 10.58594,-29.082031 h 5.15625 z M 136.23566,63.197098 131.138,48.919754 126.02081,63.197098 Z"
       style="text-align:center;text-anchor:middle"
       id="path896"
       inkscape:connector-curvature="0" />
    <path
       d="m 167.21222,48.978348 h -10.39063 v 25.644531 h -3.86718 V 48.978348 h -10.39063 v -3.4375 h 24.64844 z"
       style="text-align:center;text-anchor:middle"
       id="path898"
       inkscape:connector-curvature="0" />
    <path
       d="m 193.05206,62.943192 q 0,3.164062 -0.70312,5.527343 -0.6836,2.34375 -2.26563,3.90625 -1.5039,1.484375 -3.51562,2.167969 -2.01172,0.683594 -4.6875,0.683594 -2.73438,0 -4.76563,-0.722656 -2.03125,-0.722657 -3.41797,-2.128907 -1.58203,-1.601562 -2.28515,-3.867187 -0.6836,-2.265625 -0.6836,-5.566406 V 45.540848 h 3.86719 v 17.597656 q 0,2.363281 0.3125,3.730469 0.33203,1.367187 1.09375,2.480469 0.85938,1.269531 2.32422,1.914062 1.48438,0.644531 3.55469,0.644531 2.08984,0 3.55469,-0.625 1.46484,-0.644531 2.34375,-1.933593 0.76171,-1.113282 1.07421,-2.539063 0.33204,-1.445312 0.33204,-3.574219 V 45.540848 h 3.86718 z"
       style="text-align:center;text-anchor:middle"
       id="path900"
       inkscape:connector-curvature="0" />
    <path
       d="m 221.58722,66.322098 q 0,1.699219 -0.80078,3.359375 -0.78125,1.660156 -2.20703,2.8125 -1.5625,1.25 -3.65235,1.953125 -2.07031,0.703125 -5,0.703125 -3.14453,0 -5.66406,-0.585938 -2.5,-0.585937 -5.09766,-1.738281 v -4.84375 h 0.27344 q 2.20703,1.835938 5.09766,2.832031 2.89062,0.996094 5.42969,0.996094 3.59375,0 5.58593,-1.347656 2.01172,-1.347656 2.01172,-3.59375 0,-1.933594 -0.95703,-2.851563 -0.9375,-0.917968 -2.87109,-1.425781 -1.46485,-0.390625 -3.1836,-0.644531 -1.69922,-0.253906 -3.61328,-0.644531 -3.86719,-0.820313 -5.74219,-2.792969 -1.85546,-1.992188 -1.85546,-5.175781 0,-3.652344 3.08593,-5.976563 3.08594,-2.34375 7.83203,-2.34375 3.06641,0 5.625,0.585938 2.5586,0.585937 4.53125,1.445312 v 4.570313 h -0.27343 q -1.66016,-1.40625 -4.375,-2.324219 -2.69532,-0.9375 -5.52735,-0.9375 -3.10547,0 -5,1.289062 -1.875,1.289063 -1.875,3.320313 0,1.816406 0.9375,2.851562 0.9375,1.035157 3.30078,1.582032 1.25,0.273437 3.55469,0.664062 2.30469,0.390625 3.90625,0.800781 3.24219,0.859375 4.88281,2.597657 1.64063,1.738281 1.64063,4.863281 z"
       style="text-align:center;text-anchor:middle"
       id="path902"
       inkscape:connector-curvature="0" />
    <path
       d="m 251.66534,63.099442 -22.53906,10.019531 v -3.515625 l 17.77344,-7.714844 -17.77344,-7.714844 v -3.515625 l 22.53906,10.019532 z"
       style="text-align:center;text-anchor:middle"
       id="path904"
       inkscape:connector-curvature="0" />
  </g>
  <g
     aria-label="&lt;STAGE&gt;"
     style="font-style:normal;font-weight:normal;font-size:40px;line-height:1.25;font-family:sans-serif;letter-spacing:0px;word-spacing:0px;fill:#000000;fill-opacity:1;stroke:none"
     id="text888"
     transform="translate(1.9186,1.1296575)">
    <path
       d="M 72.808807,160.10263 50.269745,150.0831 v -2.42188 l 22.539062,-10.01953 v 3.51563 l -17.773437,7.71484 17.773437,7.71485 z"
       style="text-align:center;text-anchor:middle"
       id="path907"
       inkscape:connector-curvature="0" />
    <path
       d="m 103.08224,153.30576 q 0,1.69921 -0.80078,3.35937 -0.78125,1.66016 -2.20703,2.8125 -1.562498,1.25 -3.652341,1.95313 -2.070313,0.70312 -5,0.70312 -3.144532,0 -5.664063,-0.58594 -2.5,-0.58593 -5.097656,-1.73828 v -4.84375 h 0.273437 q 2.207032,1.83594 5.097657,2.83203 2.890625,0.9961 5.429687,0.9961 3.59375,0 5.585938,-1.34766 2.011718,-1.34766 2.011718,-3.59375 0,-1.93359 -0.957031,-2.85156 -0.9375,-0.91797 -2.871094,-1.42578 -1.464843,-0.39063 -3.183593,-0.64453 -1.699219,-0.25391 -3.613282,-0.64454 -3.867187,-0.82031 -5.742187,-2.79296 -1.855469,-1.99219 -1.855469,-5.17579 0,-3.65234 3.085938,-5.97656 3.085937,-2.34375 7.832031,-2.34375 3.066406,0 5.625,0.58594 2.558594,0.58594 4.53125,1.44531 v 4.57031 h -0.27344 q -1.660154,-1.40625 -4.374998,-2.32421 -2.695312,-0.9375 -5.527343,-0.9375 -3.105469,0 -5,1.28906 -1.875,1.28906 -1.875,3.32031 0,1.81641 0.9375,2.85156 0.9375,1.03516 3.300781,1.58203 1.25,0.27344 3.554687,0.66407 2.304688,0.39062 3.90625,0.80078 3.242188,0.85937 4.882813,2.59765 1.64062,1.73829 1.64062,4.86329 z"
       style="text-align:center;text-anchor:middle"
       id="path909"
       inkscape:connector-curvature="0" />
    <path
       d="m 130.03537,135.96201 h -10.39063 v 25.64453 h -3.86718 v -25.64453 h -10.39063 v -3.4375 h 24.64844 z"
       style="text-align:center;text-anchor:middle"
       id="path911"
       inkscape:connector-curvature="0" />
    <path
       d="m 154.56662,161.60654 h -4.12109 l -2.85157,-8.10547 h -12.57812 l -2.85156,8.10547 h -3.92579 l 10.58594,-29.08203 h 5.15625 z m -8.16406,-11.42578 -5.09766,-14.27735 -5.11719,14.27735 z"
       style="text-align:center;text-anchor:middle"
       id="path913"
       inkscape:connector-curvature="0" />
    <path
       d="m 183.23849,159.4581 q -2.38281,1.09375 -5.21484,1.91406 -2.8125,0.80078 -5.44922,0.80078 -3.39844,0 -6.23047,-0.9375 -2.83203,-0.9375 -4.82422,-2.8125 -2.01171,-1.89453 -3.10546,-4.72656 -1.09375,-2.85156 -1.09375,-6.66016 0,-6.97265 4.0625,-10.99609 4.08203,-4.04297 11.1914,-4.04297 2.48047,0 5.0586,0.60547 2.59765,0.58594 5.58593,2.01172 v 4.58984 h -0.35156 q -0.60547,-0.46875 -1.75781,-1.23047 -1.15235,-0.76171 -2.26563,-1.26953 -1.34765,-0.60547 -3.0664,-0.99609 -1.69922,-0.41016 -3.86719,-0.41016 -4.88281,0 -7.73438,3.14453 -2.83203,3.125 -2.83203,8.47657 0,5.64453 2.96875,8.78906 2.96875,3.125 8.08594,3.125 1.875,0 3.73047,-0.37109 1.875,-0.3711 3.28125,-0.95704 v -7.1289 h -7.79297 v -3.39844 h 11.62109 z"
       style="text-align:center;text-anchor:middle"
       id="path915"
       inkscape:connector-curvature="0" />
    <path
       d="m 209.15646,161.60654 h -19.16015 v -29.08203 h 19.16015 v 3.4375 h -15.29297 v 7.96875 h 15.29297 v 3.4375 h -15.29297 v 10.80078 h 15.29297 z"
       style="text-align:center;text-anchor:middle"
       id="path917"
       inkscape:connector-curvature="0" />
    <path
       d="m 239.17599,150.0831 -22.53906,10.01953 v -3.51562 l 17.77344,-7.71485 -17.77344,-7.71484 v -3.51563 l 22.53906,10.01953 z"
       style="text-align:center;text-anchor:middle"
       id="path919"
       inkscape:connector-curvature="0" />
  </g>
  <g
     aria-label="3"
     style="font-style:normal;font-weight:normal;font-size:40px;line-height:1.25;font-family:sans-serif;text-align:center;letter-spacing:0px;word-spacing:0px;text-anchor:middle;fill:#000000;fill-opacity:1;stroke:none"
     id="text932">
    <path
       d="m 180.91946,237.9752 q 0.9375,0.83985 1.54297,2.10938 0.60547,1.26953 0.60547,3.28125 0,1.99219 -0.72265,3.65234 -0.72266,1.66016 -2.03125,2.89063 -1.46485,1.36719 -3.45704,2.03125 -1.97265,0.64453 -4.33593,0.64453 -2.42188,0 -4.76563,-0.58594 -2.34375,-0.5664 -3.84765,-1.25 v -4.08203 h 0.29296 q 1.66016,1.09375 3.90625,1.81641 2.2461,0.72265 4.33594,0.72265 1.23047,0 2.61719,-0.41015 1.38672,-0.41016 2.24609,-1.21094 0.89844,-0.85938 1.32813,-1.89453 0.44922,-1.03516 0.44922,-2.61719 0,-1.5625 -0.50782,-2.57812 -0.48828,-1.03516 -1.36718,-1.6211 -0.87891,-0.60547 -2.12891,-0.82031 -1.25,-0.23438 -2.69531,-0.23438 h -1.75781 v -3.24218 h 1.36718 q 2.96875,0 4.72657,-1.23047 1.77734,-1.25 1.77734,-3.63281 0,-1.05469 -0.44922,-1.83594 -0.44922,-0.80078 -1.25,-1.3086 -0.83984,-0.50781 -1.79687,-0.70312 -0.95704,-0.19531 -2.16797,-0.19531 -1.85547,0 -3.94532,0.66406 -2.08984,0.66406 -3.94531,1.875 h -0.19531 v -4.08203 q 1.38672,-0.6836 3.69141,-1.25 2.32421,-0.58594 4.49218,-0.58594 2.12891,0 3.75,0.39063 1.6211,0.39062 2.92969,1.25 1.40625,0.9375 2.12891,2.26562 0.72265,1.32813 0.72265,3.10547 0,2.42187 -1.71875,4.23828 -1.69922,1.79688 -4.02343,2.26563 v 0.27343 q 0.9375,0.15625 2.14843,0.66407 1.21094,0.48828 2.05078,1.23046 z"
       style=""
       id="path1024" />
  </g>
  <path
     style="fill:none;fill-opacity:0;stroke:#000000;stroke-width:2;stroke-linejoin:miter;stroke-miterlimit:4;stroke-dasharray:none;stroke-opacity:1"
     d="m 216.89424,216.95973 h 40 v 40 h -40 z"
     id="rect934" />
  <g
     aria-label="4"
     style="font-style:normal;font-weight:normal;font-size:40px;line-height:1.25;font-family:sans-serif;text-align:center;letter-spacing:0px;word-spacing:0px;text-anchor:middle;fill:#000000;fill-opacity:1;stroke:none"
     id="text938">
    <path
       d="m 248.81895,243.79552 h -4.3164 v 8.18359 h -3.75 v -8.18359 h -13.92578 v -4.49219 l 14.08203,-16.40625 h 3.59375 v 17.77344 h 4.3164 z m -8.0664,-3.125 v -13.125 l -11.26953,13.125 z"
       style=""
       id="path1020" />
  </g>
  <path
     style="fill:none;fill-opacity:0;stroke:#000000;stroke-width:2;stroke-linejoin:miter;stroke-miterlimit:4;stroke-dasharray:none;stroke-opacity:1"
     d="m 280.15506,216.95973 h 40 v 40 h -40 z"
     id="rect940" />
  <g
     aria-label="5"
     style="font-style:normal;font-weight:normal;font-size:40px;line-height:1.25;font-family:sans-serif;text-align:center;letter-spacing:0px;word-spacing:0px;text-anchor:middle;fill:#000000;fill-opacity:1;stroke:none"
     id="text944">
    <path
       d="m 309.65793,242.74083 q 0,2.03125 -0.74219,3.88672 -0.74219,1.85547 -2.03125,3.125 -1.40625,1.36719 -3.35937,2.10937 -1.9336,0.72266 -4.49219,0.72266 -2.38281,0 -4.58985,-0.50781 -2.20703,-0.48828 -3.73046,-1.19141 v -4.12109 h 0.27343 q 1.60157,1.01562 3.75,1.73828 2.14844,0.70312 4.21875,0.70312 1.38672,0 2.67578,-0.39062 1.3086,-0.39063 2.32422,-1.36719 0.85938,-0.83984 1.28907,-2.01172 0.44921,-1.17187 0.44921,-2.71484 0,-1.50391 -0.52734,-2.53906 -0.50781,-1.03516 -1.42578,-1.66016 -1.01563,-0.74219 -2.48047,-1.03516 -1.44531,-0.3125 -3.24219,-0.3125 -1.71875,0 -3.32031,0.23438 -1.58203,0.23437 -2.73437,0.46875 v -14.98047 h 17.5 v 3.41797 h -13.73047 v 7.73437 q 0.83984,-0.0781 1.71875,-0.11718 0.8789,-0.0391 1.52343,-0.0391 2.36329,0 4.14063,0.41016 1.77734,0.39062 3.26172,1.40625 1.5625,1.07422 2.42187,2.77344 0.85938,1.69922 0.85938,4.25781 z"
       style=""
       id="path1016" />
  </g>
  <path
     style="fill:none;fill-opacity:0;stroke:#000000;stroke-width:2;stroke-linejoin:miter;stroke-miterlimit:4;stroke-dasharray:none;stroke-opacity:1"
     d="m 25.982122,216.95973 h 40 v 40 h -40 z"
     id="rect946" />
  <g
     aria-label="1"
     style="font-style:normal;font-weight:normal;font-size:40px;line-height:1.25;font-family:sans-serif;text-align:center;letter-spacing:0px;word-spacing:0px;text-anchor:middle;fill:#000000;fill-opacity:1;stroke:none"
     id="text950">
    <path
       d="M 54.71693,251.97911 H 38.974743 v -2.96875 h 6.054687 v -19.49219 h -6.054687 v -2.65625 q 1.230469,0 2.636719,-0.19531 1.40625,-0.21484 2.128906,-0.60547 0.898437,-0.48828 1.40625,-1.23047 0.527344,-0.76172 0.605469,-2.03125 h 3.027343 v 26.21094 h 5.9375 z"
       style=""
       id="path1012" />
  </g>
  <path
     style="fill:none;fill-opacity:0;stroke:#000000;stroke-width:2;stroke-linejoin:miter;stroke-miterlimit:4;stroke-dasharray:none;stroke-opacity:1"
     d="m 89.242943,216.95973 h 39.999997 v 40 H 89.242943 Z"
     id="rect952" />
  <g
     aria-label="2"
     style="font-style:normal;font-weight:normal;font-size:40px;line-height:1.25;font-family:sans-serif;text-align:center;letter-spacing:0px;word-spacing:0px;text-anchor:middle;fill:#000000;fill-opacity:1;stroke:none"
     id="text956">
    <path
       d="m 119.9161,251.97911 h -19.6875 v -4.08203 q 2.05078,-1.75781 4.10156,-3.51563 2.07031,-1.75781 3.84766,-3.49609 3.75,-3.63281 5.13672,-5.76172 1.38672,-2.14844 1.38672,-4.6289 0,-2.26563 -1.50391,-3.53516 -1.48438,-1.28906 -4.16016,-1.28906 -1.77734,0 -3.84765,0.625 -2.07032,0.625 -4.04297,1.91406 h -0.19531 v -4.10156 q 1.38671,-0.6836 3.6914,-1.25 2.32422,-0.56641 4.49219,-0.56641 4.47266,0 7.01172,2.16797 2.53906,2.14844 2.53906,5.83984 0,1.66016 -0.42969,3.10547 -0.41015,1.42578 -1.23047,2.71485 -0.76171,1.21093 -1.79687,2.38281 -1.01563,1.17187 -2.48047,2.59765 -2.08984,2.05079 -4.31641,3.98438 -2.22656,1.91406 -4.16015,3.55469 h 15.64453 z"
       style=""
       id="path1008" />
  </g>
  <path
     style="fill:none;fill-opacity:0;stroke:#000000;stroke-width:2;stroke-linejoin:miter;stroke-miterlimit:4;stroke-dasharray:none;stroke-opacity:1"
     d="m 153.63342,274.57224 h 40 v 40 h -40 z"
     id="rect958" />
  <g
     aria-label="8"
     style="font-style:normal;font-weight:normal;font-size:40px;line-height:1.25;font-family:sans-serif;text-align:center;letter-spacing:0px;word-spacing:0px;text-anchor:middle;fill:#000000;fill-opacity:1;stroke:none"
     id="text962">
    <path
       d="m 183.6929,301.48615 q 0,3.76953 -2.94922,6.26953 -2.92968,2.5 -7.38281,2.5 -4.72656,0 -7.53906,-2.44141 -2.79297,-2.44141 -2.79297,-6.25 0,-2.42187 1.40625,-4.375 1.40625,-1.97266 3.96484,-3.125 v -0.11719 q -2.34375,-1.25 -3.47656,-2.73437 -1.11328,-1.48438 -1.11328,-3.71094 0,-3.28125 2.69531,-5.46875 2.69531,-2.1875 6.85547,-2.1875 4.35547,0 6.95313,2.08984 2.59765,2.08985 2.59765,5.3125 0,1.97266 -1.23047,3.88672 -1.23047,1.89453 -3.61328,2.96875 v 0.11719 q 2.73438,1.17188 4.17969,2.89063 1.44531,1.71875 1.44531,4.375 z m -4.6289,-14.19922 q 0,-2.08985 -1.6211,-3.32032 -1.60156,-1.25 -4.10156,-1.25 -2.46094,0 -4.04297,1.17188 -1.5625,1.17187 -1.5625,3.16406 0,1.40625 0.78125,2.44141 0.80078,1.01562 2.40234,1.8164 0.72266,0.35157 2.07032,0.91797 1.36718,0.56641 2.65625,0.9375 1.93359,-1.28906 2.67578,-2.67578 0.74219,-1.38672 0.74219,-3.20312 z m 0.60546,14.57031 q 0,-1.79688 -0.80078,-2.87109 -0.78125,-1.09375 -3.08593,-2.1875 -0.91797,-0.42969 -2.01172,-0.80079 -1.09375,-0.37109 -2.91016,-1.03515 -1.75781,0.95703 -2.83203,2.59765 -1.05469,1.64063 -1.05469,3.71094 0,2.63672 1.81641,4.35547 1.8164,1.71875 4.60937,1.71875 2.85157,0 4.55078,-1.46484 1.71875,-1.46485 1.71875,-4.02344 z"
       style=""
       id="path1004" />
  </g>
  <path
     style="fill:none;fill-opacity:0;stroke:#000000;stroke-width:2;stroke-linejoin:miter;stroke-miterlimit:4;stroke-dasharray:none;stroke-opacity:1"
     d="m 216.89424,274.57224 h 40 v 40 h -40 z"
     id="rect964" />
  <g
     aria-label="9"
     style="font-style:normal;font-weight:normal;font-size:40px;line-height:1.25;font-family:sans-serif;text-align:center;letter-spacing:0px;word-spacing:0px;text-anchor:middle;fill:#000000;fill-opacity:1;stroke:none"
     id="text968">
    <path
       d="m 248.11583,293.30255 q 0,3.8086 -0.87891,6.91406 -0.85937,3.10547 -2.61718,5.29297 -1.77735,2.22657 -4.45313,3.4375 -2.67578,1.21094 -6.28906,1.21094 -1.01563,0 -1.91406,-0.11719 -0.89844,-0.0977 -1.60157,-0.33203 v -3.73047 h 0.19532 q 0.5664,0.29297 1.60156,0.56641 1.03515,0.25391 2.30469,0.25391 4.3164,0 6.75781,-2.57813 2.46094,-2.59766 2.85156,-7.14844 -1.81641,1.09375 -3.41797,1.5625 -1.60156,0.46875 -3.49609,0.46875 -1.79688,0 -3.26172,-0.35156 -1.44531,-0.35156 -2.91016,-1.36719 -1.71875,-1.1914 -2.59765,-3.02734 -0.85938,-1.83594 -0.85938,-4.39453 0,-4.45313 2.92969,-7.2461 2.92969,-2.79296 7.14844,-2.79296 2.10937,0 3.90625,0.66406 1.79687,0.64453 3.14453,1.95312 1.66015,1.6211 2.55859,4.17969 0.89844,2.53906 0.89844,6.58203 z m -3.94531,-0.83984 q 0,-3.02735 -0.625,-4.86328 -0.625,-1.83594 -1.71875,-2.85157 -0.91797,-0.8789 -1.97266,-1.25 -1.05469,-0.39062 -2.28516,-0.39062 -2.8125,0 -4.45312,1.75781 -1.62109,1.75781 -1.62109,4.94141 0,1.85547 0.52734,3.02734 0.52734,1.17188 1.77734,2.05078 0.87891,0.60547 1.9336,0.82032 1.05468,0.19531 2.34375,0.19531 1.52343,0 3.08593,-0.41016 1.5625,-0.41015 2.92969,-1.1914 0.0195,-0.41016 0.0391,-0.80079 0.0391,-0.41015 0.0391,-1.03515 z"
       style=""
       id="path1000" />
  </g>
  <path
     style="fill:none;fill-opacity:0;stroke:#000000;stroke-width:2;stroke-linejoin:miter;stroke-miterlimit:4;stroke-dasharray:none;stroke-opacity:1"
     d="m 280.15506,274.57224 h 40 v 40 h -40 z"
     id="rect970" />
  <g
     aria-label="0"
     style="font-style:normal;font-weight:normal;font-size:40px;line-height:1.25;font-family:sans-serif;text-align:center;letter-spacing:0px;word-spacing:0px;text-anchor:middle;fill:#000000;fill-opacity:1;stroke:none"
     id="text974">
    <path
       d="m 309.85324,295.04083 q 0,7.83203 -2.46094,11.50391 -2.4414,3.65234 -7.59765,3.65234 -5.23438,0 -7.65625,-3.71093 -2.40235,-3.71094 -2.40235,-11.40625 0,-7.75391 2.44141,-11.44532 2.44141,-3.71093 7.61719,-3.71093 5.23437,0 7.63672,3.76953 2.42187,3.75 2.42187,11.34765 z m -5.13672,8.86719 q 0.6836,-1.58203 0.91797,-3.71094 0.25391,-2.14843 0.25391,-5.15625 0,-2.96875 -0.25391,-5.15625 -0.23437,-2.1875 -0.9375,-3.71093 -0.68359,-1.50391 -1.875,-2.26563 -1.17187,-0.76172 -3.02734,-0.76172 -1.83594,0 -3.04688,0.76172 -1.1914,0.76172 -1.89453,2.30469 -0.66406,1.44531 -0.91797,3.76953 -0.23437,2.32422 -0.23437,5.09766 0,3.04687 0.21484,5.09765 0.21484,2.05078 0.91797,3.67188 0.64453,1.52343 1.81641,2.32422 1.1914,0.80078 3.14453,0.80078 1.83593,0 3.04687,-0.76172 1.21094,-0.76172 1.875,-2.30469 z"
       style=""
       id="path996" />
  </g>
  <path
     style="fill:none;fill-opacity:0;stroke:#000000;stroke-width:2;stroke-linejoin:miter;stroke-miterlimit:4;stroke-dasharray:none;stroke-opacity:1"
     d="m 25.982122,274.57224 h 40 v 40 h -40 z"
     id="rect976" />
  <g
     aria-label="6"
     style="font-style:normal;font-weight:normal;font-size:40px;line-height:1.25;font-family:sans-serif;text-align:center;letter-spacing:0px;word-spacing:0px;text-anchor:middle;fill:#000000;fill-opacity:1;stroke:none"
     id="text980">
    <path
       d="m 56.806774,300.15802 q 0,4.43359 -2.929687,7.24609 -2.910157,2.79297 -7.148438,2.79297 -2.148437,0 -3.90625,-0.66406 -1.757812,-0.66406 -3.105469,-1.97266 -1.679687,-1.62109 -2.597656,-4.29687 -0.898437,-2.67578 -0.898437,-6.44531 0,-3.86719 0.820312,-6.85547 0.839844,-2.98828 2.65625,-5.3125 1.71875,-2.20703 4.433594,-3.4375 2.714844,-1.25 6.328125,-1.25 1.152344,0 1.933594,0.0976 0.78125,0.0977 1.582031,0.35157 v 3.73047 H 53.77943 q -0.546875,-0.29297 -1.660156,-0.54688 -1.09375,-0.27344 -2.246094,-0.27344 -4.199218,0 -6.699218,2.63672 -2.5,2.61719 -2.910157,7.08985 1.640625,-0.9961 3.222657,-1.50391 1.601562,-0.52734 3.691406,-0.52734 1.855469,0 3.261719,0.35156 1.425781,0.33203 2.910156,1.36719 1.71875,1.1914 2.578125,3.00781 0.878906,1.8164 0.878906,4.41406 z m -3.964844,0.15625 q 0,-1.81641 -0.546875,-3.00781 -0.527343,-1.19141 -1.757812,-2.07031 -0.898438,-0.625 -1.992188,-0.82032 -1.09375,-0.19531 -2.285156,-0.19531 -1.660156,0 -3.085937,0.39063 -1.425782,0.39062 -2.929688,1.21093 -0.03906,0.42969 -0.05859,0.83985 -0.01953,0.39062 -0.01953,0.99609 0,3.08594 0.625,4.88281 0.644531,1.77735 1.757813,2.8125 0.898437,0.85938 1.933593,1.26953 1.054688,0.39063 2.285157,0.39063 2.832031,0 4.453125,-1.71875 1.621093,-1.73828 1.621093,-4.98047 z"
       style=""
       id="path992" />
  </g>
  <path
     style="fill:none;fill-opacity:0;stroke:#000000;stroke-width:2;stroke-linejoin:miter;stroke-miterlimit:4;stroke-dasharray:none;stroke-opacity:1"
     d="m 89.242943,274.57224 h 39.999997 v 40 H 89.242943 Z"
     id="rect982" />
  <g
     aria-label="7"
     style="font-style:normal;font-weight:normal;font-size:40px;line-height:1.25;font-family:sans-serif;text-align:center;letter-spacing:0px;word-spacing:0px;text-anchor:middle;fill:#000000;fill-opacity:1;stroke:none"
     id="text986">
    <path
       d="m 119.99422,284.86505 -13.16406,24.72656 h -4.17969 l 14.00391,-25.66406 h -16.5625 v -3.41797 h 19.90234 z"
       style=""
       id="path988" />
  </g>
  <g
     aria-label="â†"
     style="font-style:normal;font-weight:normal;font-size:40px;line-height:1.25;font-family:sans-serif;text-align:center;letter-spacing:0px;word-spacing:0px;text-anchor:middle;fill:#000000;fill-opacity:1;stroke:none"
     id="text1032"
     transform="translate(-0.17462502,0.52387505)">
    <path
       d="m 298.45804,152.77312 h 1.48437 q -1.15234,2.30468 -1.73828,3.24218 -0.5664,0.91797 -2.07031,2.79297 h 31.15234 v 1.97266 h -31.15234 q 2.03125,2.10937 3.86719,6.03516 h -1.52344 q -2.51953,-2.8125 -4.33594,-4.25782 -1.8164,-1.46484 -3.75,-2.40234 v -0.87891 q 1.69922,-0.72265 3.59375,-2.20703 1.89453,-1.48437 4.47266,-4.29687 z"
       id="path1034"
       inkscape:connector-curvature="0" />
  </g>
</svg>
