<?xml version="1.0" encoding="UTF-8" standalone="no"?>
<svg
   xmlns:dc="http://purl.org/dc/elements/1.1/"
   xmlns:cc="http://creativecommons.org/ns#"
   xmlns:rdf="http://www.w3.org/1999/02/22-rdf-syntax-ns#"
   xmlns:svg="http://www.w3.org/2000/svg"
   xmlns="http://www.w3.org/2000/svg"
   xmlns:sodipodi="http://sodipodi.sourceforge.net/DTD/sodipodi-0.dtd"
   xmlns:inkscape="http://www.inkscape.org/namespaces/inkscape"
   viewBox="0.0 0.0 348.0 348.0"
   fill="none"
   version="1.1"
   id="svg6"
   sodipodi:docname="Hexiom.svg"
   inkscape:version="0.92.4 (5da689c313, 2019-01-14)">
  <metadata
     id="metadata12">
    <rdf:RDF>
      <cc:Work
         rdf:about="">
        <dc:format>image/svg+xml</dc:format>
        <dc:type
           rdf:resource="http://purl.org/dc/dcmitype/StillImage" />
        <dc:title></dc:title>
      </cc:Work>
    </rdf:RDF>
  </metadata>
  <defs
     id="defs10" />
  <sodipodi:namedview
     pagecolor="#ffffff"
     bordercolor="#666666"
     borderopacity="1"
     objecttolerance="10"
     gridtolerance="10"
     guidetolerance="10"
     inkscape:pageopacity="0"
     inkscape:pageshadow="2"
     inkscape:window-width="1920"
     inkscape:window-height="1057"
     id="namedview8"
     showgrid="false"
     showguides="true"
     inkscape:guide-bbox="true"
     inkscape:zoom="1.9686566"
     inkscape:cx="146.46722"
     inkscape:cy="168.36983"
     inkscape:window-x="1272"
     inkscape:window-y="-8"
     inkscape:window-maximized="1"
     inkscape:current-layer="svg6"
     inkscape:object-paths="false"
     inkscape:snap-smooth-nodes="true">
    <sodipodi:guide
       position="174,174"
       orientation="1,0"
       id="guide852"
       inkscape:locked="false"
       inkscape:label=""
       inkscape:color="rgb(0,0,255)" />
    <sodipodi:guide
       position="174,174"
       orientation="0,1"
       id="guide854"
       inkscape:locked="false" />
  </sodipodi:namedview>
  <path
     d="M5.079 5.776h336.913v337.67H5.08z"
     stroke-width="2"
     stroke="#000"
     id="path2" />
  <path
     d="m 287.25263,41.683658 c 0,-8.376 6.966,-15.165 15.56,-15.165 4.126,0 8.084,1.597 11.001,4.441 2.918,2.844 4.558,6.702 4.558,10.724 0,8.376 -6.966,15.165 -15.56,15.165 -8.593,0 -15.559,-6.79 -15.559,-15.165 z"
     id="path4"
     inkscape:connector-curvature="0"
     style="stroke:#000000;stroke-width:2" />
  <path
     style="fill:none;fill-opacity:1;fill-rule:nonzero;stroke:#000000;stroke-width:4;stroke-linecap:round;stroke-linejoin:round;stroke-miterlimit:4;stroke-dasharray:none;stroke-dashoffset:0;stroke-opacity:1"
     d="m 174,332.25322 c -3.7021,0 -135.200258,-75.9205 -137.051308,-79.12661 -1.851051,-3.20611 -1.851051,-155.047107 0,-158.25322 C 38.799742,91.667277 170.2979,15.74678 174,15.74678 c 3.7021,0 135.20026,75.920497 137.05131,79.12661 1.85105,3.206113 1.85105,155.04711 0,158.25322 C 309.20026,256.33272 177.7021,332.25322 174,332.25322 Z"
     id="path817" />
  <path
     style="fill:none;fill-opacity:1;fill-rule:nonzero;stroke:#000000;stroke-width:4;stroke-linecap:round;stroke-linejoin:round;stroke-miterlimit:4;stroke-dasharray:none;stroke-dashoffset:0;stroke-opacity:1"
     d="m 125.12965,117.56937 c -0.66006,0 -24.10515,-13.53603 -24.43518,-14.10765 -0.33003,-0.57162 -0.33003,-27.643685 0,-28.215309 0.33003,-0.571624 23.77512,-14.107655 24.43518,-14.107655 0.66005,0 24.10514,13.536029 24.43517,14.107654 0.33003,0.571624 0.33003,27.64368 0,28.21531 -0.33003,0.57162 -23.77512,14.10765 -24.43517,14.10765 z"
     id="path819" />
  <path
     style="fill:none;fill-opacity:1;fill-rule:nonzero;stroke:#000000;stroke-width:4;stroke-linecap:round;stroke-linejoin:round;stroke-miterlimit:4;stroke-dasharray:none;stroke-dashoffset:0;stroke-opacity:1"
     d="m 76.259293,202.21531 c -0.660054,0 -24.105147,-13.53603 -24.435175,-14.10765 -0.330027,-0.57163 -0.330028,-27.64369 0,-28.21531 0.330027,-0.57163 23.775119,-14.10766 24.435174,-14.10766 0.660055,0 24.105148,13.53603 24.435178,14.10766 0.33002,0.57162 0.33002,27.64368 0,28.21531 -0.33003,0.57162 -23.775122,14.10765 -24.435177,14.10765 z"
     id="path821" />
  <path
     style="fill:none;fill-opacity:1;fill-rule:nonzero;stroke:#000000;stroke-width:4;stroke-linecap:round;stroke-linejoin:round;stroke-miterlimit:4;stroke-dasharray:none;stroke-dashoffset:0;stroke-opacity:1"
     d="m 174,117.56937 c -0.66005,0 -24.10515,-13.53603 -24.43517,-14.10765 -0.33003,-0.57162 -0.33003,-27.643685 0,-28.215309 0.33002,-0.571624 23.77511,-14.107655 24.43517,-14.107655 0.66005,0 24.10515,13.536029 24.43517,14.107654 0.33003,0.571624 0.33003,27.64368 0,28.21531 -0.33002,0.57162 -23.77511,14.10765 -24.43517,14.10765 z"
     id="path823" />
  <path
     style="fill:none;fill-opacity:1;fill-rule:nonzero;stroke:#000000;stroke-width:4;stroke-linecap:round;stroke-linejoin:round;stroke-miterlimit:4;stroke-dasharray:none;stroke-dashoffset:0;stroke-opacity:1"
     d="m 222.87035,117.56937 c -0.66006,0 -24.10515,-13.53603 -24.43518,-14.10765 -0.33003,-0.57162 -0.33003,-27.643685 0,-28.215309 0.33003,-0.571624 23.77512,-14.107655 24.43518,-14.107655 0.66005,0 24.10514,13.536029 24.43517,14.107654 0.33003,0.571624 0.33003,27.64368 0,28.21531 -0.33003,0.57162 -23.77512,14.10765 -24.43517,14.10765 z"
     id="path825" />
  <path
     style="fill:none;fill-opacity:1;fill-rule:nonzero;stroke:#000000;stroke-width:4;stroke-linecap:round;stroke-linejoin:round;stroke-miterlimit:4;stroke-dasharray:none;stroke-dashoffset:0;stroke-opacity:1"
     d="m 271.74069,202.21531 c -0.66005,0 -24.10514,-13.53603 -24.43517,-14.10766 -0.33003,-0.57162 -0.33003,-27.64368 0,-28.21531 0.33002,-0.57162 23.77512,-14.10765 24.43517,-14.10765 0.66006,0 24.10515,13.53603 24.43518,14.10765 0.33002,0.57163 0.33002,27.64369 0,28.21531 -0.33003,0.57163 -23.77512,14.10766 -24.43518,14.10766 z"
     id="path827" />
  <path
     style="fill:none;fill-opacity:1;fill-rule:nonzero;stroke:#000000;stroke-width:4;stroke-linecap:round;stroke-linejoin:round;stroke-miterlimit:4;stroke-dasharray:none;stroke-dashoffset:0;stroke-opacity:1"
     d="m 247.30553,244.53828 c -0.66006,0 -24.10515,-13.53603 -24.43518,-14.10766 -0.33002,-0.57162 -0.33003,-27.64368 0,-28.21531 0.33003,-0.57162 23.77512,-14.10765 24.43518,-14.10765 0.66005,0 24.10514,13.53603 24.43517,14.10765 0.33003,0.57163 0.33003,27.64369 0,28.21531 -0.33003,0.57163 -23.77512,14.10766 -24.43517,14.10766 z"
     id="path829" />
  <path
     style="fill:none;fill-opacity:1;fill-rule:nonzero;stroke:#000000;stroke-width:4;stroke-linecap:round;stroke-linejoin:round;stroke-miterlimit:4;stroke-dasharray:none;stroke-dashoffset:0;stroke-opacity:1"
     d="m 247.30553,159.89234 c -0.66006,0 -24.10515,-13.53603 -24.43518,-14.10765 -0.33002,-0.57163 -0.33003,-27.64369 0,-28.21531 0.33003,-0.57163 23.77512,-14.10766 24.43518,-14.10766 0.66005,0 24.10514,13.53603 24.43517,14.10766 0.33003,0.57162 0.33003,27.64368 0,28.21531 -0.33003,0.57162 -23.77512,14.10765 -24.43517,14.10765 z"
     id="path831" />
  <path
     style="fill:none;fill-opacity:1;fill-rule:nonzero;stroke:#000000;stroke-width:4;stroke-linecap:round;stroke-linejoin:round;stroke-miterlimit:4;stroke-dasharray:none;stroke-dashoffset:0;stroke-opacity:1"
     d="m 100.69448,244.53828 c -0.66005,0 -24.105146,-13.53603 -24.435173,-14.10766 -0.330028,-0.57162 -0.330028,-27.64368 -1e-6,-28.21531 0.330027,-0.57162 23.775124,-14.10765 24.435174,-14.10765 0.66005,0 24.10515,13.53603 24.43518,14.10765 0.33002,0.57163 0.33002,27.64369 0,28.21531 -0.33003,0.57163 -23.77512,14.10766 -24.43518,14.10766 z"
     id="path833" />
  <path
     style="fill:none;fill-opacity:1;fill-rule:nonzero;stroke:#000000;stroke-width:4;stroke-linecap:round;stroke-linejoin:round;stroke-miterlimit:4;stroke-dasharray:none;stroke-dashoffset:0;stroke-opacity:1"
     d="m 100.69447,159.89234 c -0.66005,0 -24.105143,-13.53603 -24.435171,-14.10765 -0.330027,-0.57163 -0.330028,-27.64369 -10e-7,-28.21531 0.330028,-0.57163 23.775122,-14.10766 24.435172,-14.10766 0.66006,0 24.10515,13.53603 24.43518,14.10766 0.33002,0.57162 0.33003,27.64368 0,28.21531 -0.33003,0.57162 -23.77512,14.10765 -24.43518,14.10765 z"
     id="path835" />
  <path
     style="fill:none;fill-opacity:1;fill-rule:nonzero;stroke:#000000;stroke-width:4;stroke-linecap:round;stroke-linejoin:round;stroke-miterlimit:4;stroke-dasharray:none;stroke-dashoffset:0;stroke-opacity:1"
     d="m 174.00002,286.86124 c -0.66006,0 -24.10515,-13.53603 -24.43518,-14.10765 -0.33003,-0.57163 -0.33003,-27.64369 0,-28.21531 0.33003,-0.57162 23.77512,-14.10766 24.43517,-14.10766 0.66006,0 24.10515,13.53603 24.43518,14.10766 0.33003,0.57162 0.33003,27.64368 0,28.21531 -0.33003,0.57162 -23.77512,14.10765 -24.43517,14.10765 z"
     id="path837" />
  <path
     style="fill:none;fill-opacity:1;fill-rule:nonzero;stroke:#000000;stroke-width:4;stroke-linecap:round;stroke-linejoin:round;stroke-miterlimit:4;stroke-dasharray:none;stroke-dashoffset:0;stroke-opacity:1"
     d="m 125.12966,286.86124 c -0.66005,0 -24.10515,-13.53603 -24.43517,-14.10765 -0.33003,-0.57162 -0.33003,-27.64368 0,-28.21531 0.33002,-0.57162 23.77512,-14.10765 24.43517,-14.10765 0.66006,0 24.10515,13.53603 24.43518,14.10765 0.33002,0.57162 0.33002,27.64368 0,28.21531 -0.33003,0.57162 -23.77512,14.10765 -24.43518,14.10765 z"
     id="path839" />
  <path
     style="fill:none;fill-opacity:1;fill-rule:nonzero;stroke:#000000;stroke-width:4;stroke-linecap:round;stroke-linejoin:round;stroke-miterlimit:4;stroke-dasharray:none;stroke-dashoffset:0;stroke-opacity:1"
     d="m 222.87035,286.86124 c -0.66006,0 -24.10515,-13.53603 -24.43518,-14.10765 -0.33003,-0.57163 -0.33003,-27.64369 0,-28.21531 0.33003,-0.57163 23.77512,-14.10766 24.43518,-14.10766 0.66005,0 24.10514,13.53603 24.43517,14.10766 0.33003,0.57162 0.33003,27.64368 0,28.21531 -0.33003,0.57162 -23.77512,14.10765 -24.43517,14.10765 z"
     id="path841" />
  <path
     style="fill:none;fill-opacity:1;fill-rule:nonzero;stroke:#000000;stroke-width:4;stroke-linecap:round;stroke-linejoin:round;stroke-miterlimit:4;stroke-dasharray:none;stroke-dashoffset:0;stroke-opacity:1"
     d="m 125.12965,202.21531 c -0.66006,0 -24.10515,-13.53603 -24.43518,-14.10765 -0.33003,-0.57163 -0.33003,-27.64369 0,-28.21531 0.33003,-0.57163 23.77512,-14.10766 24.43518,-14.10766 0.66005,0 24.10514,13.53603 24.43517,14.10765 0.33003,0.57163 0.33003,27.64369 0,28.21531 -0.33003,0.57163 -23.77512,14.10766 -24.43517,14.10766 z"
     id="path843" />
  <path
     style="fill:none;fill-opacity:1;fill-rule:nonzero;stroke:#000000;stroke-width:4;stroke-linecap:round;stroke-linejoin:round;stroke-miterlimit:4;stroke-dasharray:none;stroke-dashoffset:0;stroke-opacity:1"
     d="m 198.43518,159.89234 c -0.66005,0 -24.10515,-13.53603 -24.43517,-14.10765 -0.33003,-0.57163 -0.33003,-27.64369 0,-28.21531 0.33002,-0.57163 23.77512,-14.10766 24.43517,-14.10766 0.66005,0 24.10515,13.53603 24.43517,14.10766 0.33003,0.57162 0.33003,27.64368 1e-5,28.21531 -0.33003,0.57162 -23.77512,14.10765 -24.43518,14.10765 z"
     id="path845" />
  <path
     style="fill:none;fill-opacity:1;fill-rule:nonzero;stroke:#000000;stroke-width:4;stroke-linecap:round;stroke-linejoin:round;stroke-miterlimit:4;stroke-dasharray:none;stroke-dashoffset:0;stroke-opacity:1"
     d="m 174,202.21531 c -0.66005,0 -24.10515,-13.53603 -24.43517,-14.10765 -0.33003,-0.57163 -0.33003,-27.64369 0,-28.21531 0.33002,-0.57163 23.77511,-14.10766 24.43517,-14.10766 0.66005,0 24.10515,13.53603 24.43517,14.10765 0.33003,0.57163 0.33003,27.64369 0,28.21531 -0.33002,0.57163 -23.77511,14.10766 -24.43517,14.10766 z"
     id="path847" />
  <path
     style="fill:none;fill-opacity:1;fill-rule:nonzero;stroke:#000000;stroke-width:4;stroke-linecap:round;stroke-linejoin:round;stroke-miterlimit:4;stroke-dasharray:none;stroke-dashoffset:0;stroke-opacity:1"
     d="m 198.43517,244.53828 c -0.66006,0 -24.10515,-13.53603 -24.43518,-14.10766 -0.33003,-0.57162 -0.33003,-27.64368 0,-28.21531 0.33003,-0.57162 23.77512,-14.10765 24.43517,-14.10765 0.66006,0 24.10515,13.53603 24.43518,14.10765 0.33003,0.57163 0.33003,27.64369 0,28.21531 -0.33003,0.57163 -23.77512,14.10766 -24.43517,14.10766 z"
     id="path849" />
</svg>
