<?xml version="1.0" encoding="UTF-8" standalone="no"?>
<svg
   xmlns:dc="http://purl.org/dc/elements/1.1/"
   xmlns:cc="http://creativecommons.org/ns#"
   xmlns:rdf="http://www.w3.org/1999/02/22-rdf-syntax-ns#"
   xmlns:svg="http://www.w3.org/2000/svg"
   xmlns="http://www.w3.org/2000/svg"
   xmlns:sodipodi="http://sodipodi.sourceforge.net/DTD/sodipodi-0.dtd"
   xmlns:inkscape="http://www.inkscape.org/namespaces/inkscape"
   viewBox="0.0 0.0 348.0 348.0"
   fill="none"
   version="1.1"
   id="svg6"
   sodipodi:docname="Hexiom.svg"
   inkscape:version="0.92.4 (5da689c313, 2019-01-14)">
  <metadata
     id="metadata12">
    <rdf:RDF>
      <cc:Work
         rdf:about="">
        <dc:format>image/svg+xml</dc:format>
        <dc:type
           rdf:resource="http://purl.org/dc/dcmitype/StillImage" />
        <dc:title></dc:title>
      </cc:Work>
    </rdf:RDF>
  </metadata>
  <defs
     id="defs10" />
  <sodipodi:namedview
     pagecolor="#ffffff"
     bordercolor="#666666"
     borderopacity="1"
     objecttolerance="10"
     gridtolerance="10"
     guidetolerance="10"
     inkscape:pageopacity="0"
     inkscape:pageshadow="2"
     inkscape:window-width="1920"
     inkscape:window-height="1057"
     id="namedview8"
     showgrid="false"
     showguides="true"
     inkscape:guide-bbox="true"
     inkscape:zoom="2.4687144"
     inkscape:cx="130.49713"
     inkscape:cy="180.90464"
     inkscape:window-x="1912"
     inkscape:window-y="-8"
     inkscape:window-maximized="1"
     inkscape:current-layer="svg6"
     inkscape:object-paths="false"
     inkscape:snap-smooth-nodes="true">
    <sodipodi:guide
       position="174,174"
       orientation="1,0"
       id="guide852"
       inkscape:locked="false"
       inkscape:label=""
       inkscape:color="rgb(0,0,255)" />
    <sodipodi:guide
       position="174,174"
       orientation="0,1"
       id="guide854"
       inkscape:locked="false" />
  </sodipodi:namedview>
  <path
     d="M5.079 5.776h336.913v337.67H5.08z"
     stroke-width="2"
     stroke="#000"
     id="path2" />
  <path
     d="m 287.25263,41.683658 c 0,-8.376 6.966,-15.165 15.56,-15.165 4.126,0 8.084,1.597 11.001,4.441 2.918,2.844 4.558,6.702 4.558,10.724 0,8.376 -6.966,15.165 -15.56,15.165 -8.593,0 -15.559,-6.79 -15.559,-15.165 z"
     id="path4"
     inkscape:connector-curvature="0"
     style="stroke:#000000;stroke-width:2" />
  <path
     style="fill:none;fill-opacity:1;fill-rule:nonzero;stroke:#000000;stroke-width:4;stroke-linecap:round;stroke-linejoin:round;stroke-miterlimit:4;stroke-dasharray:none;stroke-dashoffset:0;stroke-opacity:1"
     d="m 174,332.25322 c -3.7021,0 -135.200258,-75.9205 -137.051308,-79.12661 -1.851051,-3.20611 -1.851051,-155.047107 0,-158.25322 C 38.799742,91.667277 170.2979,15.74678 174,15.74678 c 3.7021,0 135.20026,75.920497 137.05131,79.12661 1.85105,3.206113 1.85105,155.04711 0,158.25322 C 309.20026,256.33272 177.7021,332.25322 174,332.25322 Z"
     id="path817" />
  <path
     style="fill:none;fill-opacity:1;fill-rule:nonzero;stroke:#000000;stroke-width:4;stroke-linecap:round;stroke-linejoin:round;stroke-miterlimit:4;stroke-dasharray:none;stroke-dashoffset:0;stroke-opacity:1"
     d="m 103.46172,149.56481 c -0.57163,0.33003 -27.643687,0.33003 -28.215311,1e-5 -0.571625,-0.33002 -14.107657,-23.77512 -14.107655,-24.43518 2e-6,-0.66005 13.53603,-24.10514 14.107659,-24.43517 0.57162,-0.33003 27.643677,-0.33003 28.215307,0 0.57162,0.33002 14.10765,23.77511 14.10765,24.43517 0,0.66006 -13.53603,24.10515 -14.10765,24.43517 z"
     id="path819"
     inkscape:connector-curvature="0" />
  <path
     style="fill:none;fill-opacity:1;fill-rule:nonzero;stroke:#000000;stroke-width:4;stroke-linecap:round;stroke-linejoin:round;stroke-miterlimit:4;stroke-dasharray:none;stroke-dashoffset:0;stroke-opacity:1"
     d="m 103.46172,247.30552 c -0.57162,0.33003 -27.643685,0.33003 -28.215308,1e-5 -0.571626,-0.33003 -14.107657,-23.77513 -14.107655,-24.43518 -3e-6,-0.66006 13.536027,-24.10515 14.107652,-24.43518 0.571624,-0.33002 27.643681,-0.33002 28.215311,1e-5 0.57162,0.33002 14.10765,23.77512 14.10766,24.43517 -10e-6,0.66005 -13.53604,24.10515 -14.10766,24.43517 z"
     id="path821"
     inkscape:connector-curvature="0" />
  <path
     style="fill:none;fill-opacity:1;fill-rule:nonzero;stroke:#000000;stroke-width:4;stroke-linecap:round;stroke-linejoin:round;stroke-miterlimit:4;stroke-dasharray:none;stroke-dashoffset:0;stroke-opacity:1"
     d="m 145.78468,125.12964 c -0.57162,0.33002 -27.64368,0.33003 -28.2153,0 -0.57162,-0.33002 -14.10766,-23.77512 -14.10765,-24.43518 -1e-5,-0.66005 13.53602,-24.105139 14.10765,-24.435169 0.57162,-0.330025 27.64368,-0.33003 28.2153,2e-6 0.57163,0.330026 14.10766,23.775117 14.10766,24.435177 0,0.66005 -13.53603,24.10514 -14.10766,24.43517 z"
     id="path823"
     inkscape:connector-curvature="0" />
  <path
     style="fill:none;fill-opacity:1;fill-rule:nonzero;stroke:#000000;stroke-width:4;stroke-linecap:round;stroke-linejoin:round;stroke-miterlimit:4;stroke-dasharray:none;stroke-dashoffset:0;stroke-opacity:1"
     d="m 188.10765,100.69446 c -0.57163,0.33003 -27.64369,0.33003 -28.21531,10e-6 -0.57163,-0.33002 -14.10766,-23.775121 -14.10766,-24.435176 1e-5,-0.660056 13.53603,-24.105148 14.10766,-24.435178 0.57162,-0.330025 27.64368,-0.330025 28.21531,2e-6 0.57162,0.330026 14.10765,23.775114 14.10765,24.435175 0,0.660052 -13.53603,24.105147 -14.10765,24.435167 z"
     id="path825"
     inkscape:connector-curvature="0" />
  <path
     style="fill:none;fill-opacity:1;fill-rule:nonzero;stroke:#000000;stroke-width:4;stroke-linecap:round;stroke-linejoin:round;stroke-miterlimit:4;stroke-dasharray:none;stroke-dashoffset:0;stroke-opacity:1"
     d="m 272.75358,149.56483 c -0.57162,0.33002 -27.64368,0.33002 -28.21531,-1e-5 -0.57163,-0.33002 -14.10766,-23.77512 -14.10766,-24.43518 0,-0.66004 13.53604,-24.10514 14.10766,-24.43516 0.57162,-0.33003 27.64368,-0.33003 28.21531,-1e-5 0.57162,0.33003 14.10765,23.77513 14.10765,24.43517 0,0.66006 -13.53603,24.10516 -14.10765,24.43519 z"
     id="path827"
     inkscape:connector-curvature="0" />
  <path
     style="fill:none;fill-opacity:1;fill-rule:nonzero;stroke:#000000;stroke-width:4;stroke-linecap:round;stroke-linejoin:round;stroke-miterlimit:4;stroke-dasharray:none;stroke-dashoffset:0;stroke-opacity:1"
     d="m 272.75359,198.43517 c -0.57163,0.33003 -27.64369,0.33003 -28.21532,0 -0.57161,-0.33003 -14.10765,-23.77511 -14.10765,-24.43517 0,-0.66006 13.53603,-24.10515 14.10766,-24.43518 0.57162,-0.33002 27.64368,-0.33002 28.2153,0 0.57163,0.33003 14.10766,23.77512 14.10766,24.43518 0,0.66006 -13.53603,24.10515 -14.10765,24.43517 z"
     id="path829"
     inkscape:connector-curvature="0" />
  <path
     style="fill:none;fill-opacity:1;fill-rule:nonzero;stroke:#000000;stroke-width:4;stroke-linecap:round;stroke-linejoin:round;stroke-miterlimit:4;stroke-dasharray:none;stroke-dashoffset:0;stroke-opacity:1"
     d="m 230.43062,125.12964 c -0.57163,0.33003 -27.64369,0.33003 -28.21531,1e-5 -0.57162,-0.33004 -14.10766,-23.77513 -14.10766,-24.43518 0,-0.66006 13.53603,-24.105152 14.10766,-24.435182 0.57162,-0.330025 27.64368,-0.330024 28.21531,7e-6 0.57162,0.330022 14.10765,23.775115 14.10765,24.435175 0,0.66005 -13.53603,24.10514 -14.10765,24.43517 z"
     id="path831"
     inkscape:connector-curvature="0" />
  <path
     style="fill:none;fill-opacity:1;fill-rule:nonzero;stroke:#000000;stroke-width:4;stroke-linecap:round;stroke-linejoin:round;stroke-miterlimit:4;stroke-dasharray:none;stroke-dashoffset:0;stroke-opacity:1"
     d="m 145.7847,271.7407 c -0.57162,0.33002 -27.64369,0.33002 -28.21531,-1e-5 -0.57163,-0.33002 -14.10766,-23.77511 -14.10766,-24.43517 0,-0.66005 13.53604,-24.10515 14.10766,-24.43517 0.57162,-0.33003 27.64368,-0.33003 28.21531,-1e-5 0.57162,0.33004 14.10765,23.77513 14.10765,24.43518 0,0.66006 -13.53602,24.10515 -14.10765,24.43518 z"
     id="path833"
     inkscape:connector-curvature="0" />
  <path
     style="fill:none;fill-opacity:1;fill-rule:nonzero;stroke:#000000;stroke-width:4;stroke-linecap:round;stroke-linejoin:round;stroke-miterlimit:4;stroke-dasharray:none;stroke-dashoffset:0;stroke-opacity:1"
     d="m 103.46172,198.43517 c -0.57162,0.33002 -27.643683,0.33002 -28.215305,0 C 74.674788,198.10514 61.138757,174.66005 61.138759,174 c -2e-6,-0.66006 13.53603,-24.10516 14.10765,-24.43518 0.571628,-0.33003 27.643691,-0.33003 28.215321,0 0.57161,0.33003 14.10765,23.77511 14.10765,24.43518 0,0.66005 -13.53603,24.10514 -14.10766,24.43517 z"
     id="path835"
     inkscape:connector-curvature="0" />
  <path
     style="fill:none;fill-opacity:1;fill-rule:nonzero;stroke:#000000;stroke-width:4;stroke-linecap:round;stroke-linejoin:round;stroke-miterlimit:4;stroke-dasharray:none;stroke-dashoffset:0;stroke-opacity:1"
     d="m 230.43064,271.74069 c -0.57163,0.33003 -27.64369,0.33003 -28.21531,0 -0.57163,-0.33003 -14.10766,-23.77512 -14.10766,-24.43517 0,-0.66005 13.53603,-24.10515 14.10765,-24.43518 0.57163,-0.33003 27.64369,-0.33003 28.21532,0 0.57162,0.33003 14.10765,23.77512 14.10765,24.43518 0,0.66005 -13.53603,24.10514 -14.10765,24.43517 z"
     id="path837"
     inkscape:connector-curvature="0" />
  <path
     style="fill:none;fill-opacity:1;fill-rule:nonzero;stroke:#000000;stroke-width:4;stroke-linecap:round;stroke-linejoin:round;stroke-miterlimit:4;stroke-dasharray:none;stroke-dashoffset:0;stroke-opacity:1"
     d="m 188.10766,296.17587 c -0.57162,0.33002 -27.64368,0.33003 -28.2153,0 -0.57162,-0.33002 -14.10765,-23.77512 -14.10765,-24.43518 -1e-5,-0.66004 13.53603,-24.10514 14.10765,-24.43517 0.57163,-0.33003 27.64369,-0.33002 28.21531,0 0.57162,0.33003 14.10765,23.77512 14.10766,24.43517 -1e-5,0.66006 -13.53604,24.10515 -14.10767,24.43518 z"
     id="path839"
     inkscape:connector-curvature="0" />
  <path
     style="fill:none;fill-opacity:1;fill-rule:nonzero;stroke:#000000;stroke-width:4;stroke-linecap:round;stroke-linejoin:round;stroke-miterlimit:4;stroke-dasharray:none;stroke-dashoffset:0;stroke-opacity:1"
     d="m 272.75358,247.30552 c -0.57162,0.33003 -27.64368,0.33003 -28.21531,1e-5 -0.57163,-0.33003 -14.10766,-23.77512 -14.10765,-24.43518 0,-0.66006 13.53603,-24.10515 14.10765,-24.43518 0.57162,-0.33002 27.64368,-0.33002 28.21531,1e-5 0.57163,0.33002 14.10766,23.77511 14.10766,24.43517 -1e-5,0.66006 -13.53604,24.10515 -14.10766,24.43517 z"
     id="path841"
     inkscape:connector-curvature="0" />
  <path
     style="fill:none;fill-opacity:1;fill-rule:nonzero;stroke:#000000;stroke-width:4;stroke-linecap:round;stroke-linejoin:round;stroke-miterlimit:4;stroke-dasharray:none;stroke-dashoffset:0;stroke-opacity:1"
     d="m 145.78469,222.87035 c -0.57163,0.33003 -27.64369,0.33002 -28.21531,0 -0.57163,-0.33003 -14.10766,-23.77512 -14.10766,-24.43517 0,-0.66006 13.53603,-24.10515 14.10766,-24.43518 0.57162,-0.33003 27.64368,-0.33003 28.2153,-1e-5 0.57163,0.33003 14.10766,23.77513 14.10766,24.43518 0,0.66006 -13.53603,24.10515 -14.10765,24.43518 z"
     id="path843"
     inkscape:connector-curvature="0" />
  <path
     style="fill:none;fill-opacity:1;fill-rule:nonzero;stroke:#000000;stroke-width:4;stroke-linecap:round;stroke-linejoin:round;stroke-miterlimit:4;stroke-dasharray:none;stroke-dashoffset:0;stroke-opacity:1"
     d="m 188.10766,149.56481 c -0.57162,0.33003 -27.64369,0.33003 -28.21531,1e-5 -0.57163,-0.33004 -14.10766,-23.77513 -14.10765,-24.43518 -10e-6,-0.66006 13.53603,-24.10515 14.10765,-24.43518 0.57162,-0.33002 27.64368,-0.33003 28.2153,10e-6 0.57163,0.33002 14.10766,23.77511 14.10767,24.43517 -1e-5,0.66005 -13.53603,24.10514 -14.10766,24.43517 z"
     id="path845"
     inkscape:connector-curvature="0" />
  <path
     style="fill:none;fill-opacity:1;fill-rule:nonzero;stroke:#000000;stroke-width:4;stroke-linecap:round;stroke-linejoin:round;stroke-miterlimit:4;stroke-dasharray:none;stroke-dashoffset:0;stroke-opacity:1"
     d="m 188.10765,198.43517 c -0.57162,0.33003 -27.64368,0.33003 -28.2153,0 C 159.32072,198.10514 145.78469,174.66005 145.7847,174 c -10e-6,-0.66006 13.53602,-24.10515 14.10764,-24.43518 0.57162,-0.33002 27.64369,-0.33003 28.21531,0 0.57163,0.33003 14.10766,23.77512 14.10765,24.43517 10e-6,0.66006 -13.53602,24.10515 -14.10765,24.43518 z"
     id="path847"
     inkscape:connector-curvature="0" />
  <path
     style="fill:none;fill-opacity:1;fill-rule:nonzero;stroke:#000000;stroke-width:4;stroke-linecap:round;stroke-linejoin:round;stroke-miterlimit:4;stroke-dasharray:none;stroke-dashoffset:0;stroke-opacity:1"
     d="m 230.43062,222.87035 c -0.57163,0.33003 -27.64369,0.33003 -28.21532,0 -0.57162,-0.33002 -14.10765,-23.77511 -14.10765,-24.43517 0,-0.66006 13.53603,-24.10515 14.10765,-24.43517 0.57163,-0.33003 27.64369,-0.33003 28.21531,-1e-5 0.57163,0.33003 14.10766,23.77512 14.10766,24.43518 0,0.66006 -13.53603,24.10515 -14.10765,24.43517 z"
     id="path849"
     inkscape:connector-curvature="0" />
</svg>
