<?xml version="1.0" encoding="UTF-8" standalone="no"?>
<svg
   xmlns:dc="http://purl.org/dc/elements/1.1/"
   xmlns:cc="http://creativecommons.org/ns#"
   xmlns:rdf="http://www.w3.org/1999/02/22-rdf-syntax-ns#"
   xmlns:svg="http://www.w3.org/2000/svg"
   xmlns="http://www.w3.org/2000/svg"
   xmlns:sodipodi="http://sodipodi.sourceforge.net/DTD/sodipodi-0.dtd"
   xmlns:inkscape="http://www.inkscape.org/namespaces/inkscape"
   viewBox="0.0 0.0 348.0 348.0"
   fill="none"
   version="1.1"
   id="svg6"
   sodipodi:docname="Logical Operators.svg"
   inkscape:version="0.92.4 (5da689c313, 2019-01-14)">
  <metadata
     id="metadata12">
    <rdf:RDF>
      <cc:Work
         rdf:about="">
        <dc:format>image/svg+xml</dc:format>
        <dc:type
           rdf:resource="http://purl.org/dc/dcmitype/StillImage" />
        <dc:title></dc:title>
      </cc:Work>
    </rdf:RDF>
  </metadata>
  <defs
     id="defs10" />
  <sodipodi:namedview
     pagecolor="#ffffff"
     bordercolor="#666666"
     borderopacity="1"
     objecttolerance="10"
     gridtolerance="10"
     guidetolerance="10"
     inkscape:pageopacity="0"
     inkscape:pageshadow="2"
     inkscape:window-width="1920"
     inkscape:window-height="1057"
     id="namedview8"
     showgrid="false"
     showguides="true"
     inkscape:guide-bbox="true"
     inkscape:zoom="1.9686566"
     inkscape:cx="202.5904"
     inkscape:cy="172.80058"
     inkscape:window-x="1272"
     inkscape:window-y="-8"
     inkscape:window-maximized="1"
     inkscape:current-layer="svg6"
     inkscape:snap-object-midpoints="true"
     inkscape:snap-center="false">
    <sodipodi:guide
       position="174,174"
       orientation="1,0"
       id="guide852"
       inkscape:locked="false"
       inkscape:label=""
       inkscape:color="rgb(0,0,255)" />
    <sodipodi:guide
       position="173.536,173.389"
       orientation="0,1"
       id="guide854"
       inkscape:locked="false" />
    <sodipodi:guide
       position="174,174"
       orientation="0,1"
       id="guide817"
       inkscape:locked="false"
       inkscape:label=""
       inkscape:color="rgb(0,0,255)" />
    <sodipodi:guide
       position="39.620927,174"
       orientation="1,0"
       id="guide827"
       inkscape:locked="false" />
    <sodipodi:guide
       position="99.052316,174"
       orientation="1,0"
       id="guide891"
       inkscape:locked="false" />
  </sodipodi:namedview>
  <path
     d="M5.079 5.776h336.913v337.67H5.08z"
     stroke-width="2"
     stroke="#000"
     id="path2" />
  <path
     d="m 300.96756,174 c 0,-8.376 6.966,-15.165 15.56,-15.165 4.126,0 8.084,1.597 11.001,4.441 2.918,2.844 4.558,6.702 4.558,10.724 0,8.376 -6.966,15.165 -15.56,15.165 -8.593,0 -15.559,-6.79 -15.559,-15.165 z"
     id="path4"
     inkscape:connector-curvature="0"
     style="fill:none;stroke:#000000;stroke-width:2" />
  <text
     xml:space="preserve"
     style="font-style:normal;font-weight:normal;font-size:40px;line-height:1.25;font-family:sans-serif;letter-spacing:0px;word-spacing:0px;fill:#000000;fill-opacity:1;stroke:none"
     x="92.631912"
     y="244.0715"
     id="text844"><tspan
       sodipodi:role="line"
       id="tspan842"
       x="92.631912"
       y="280.56473" /></text>
  <g
     id="g831"
     transform="translate(0,-32.509479)">
    <path
       style="fill:none;stroke:#000000;stroke-width:2;stroke-miterlimit:4;stroke-dasharray:none"
       inkscape:connector-curvature="0"
       id="path823"
       d="m 24.061427,72.407881 c 0,-8.376 6.966,-15.165 15.56,-15.165 4.126,0 8.084,1.597 11.001,4.441 2.918,2.844 4.558,6.702 4.558,10.724 0,8.376 -6.966,15.165 -15.56,15.165 -8.593,0 -15.559,-6.79 -15.559,-15.165 z" />
    <path
       d="m 28.834284,72.407881 c 0,-5.806672 4.829188,-10.513155 10.78699,-10.513155 2.860354,0 5.604243,1.107122 7.626457,3.078729 2.022907,1.971606 3.159839,4.646169 3.159839,7.434426 0,5.806672 -4.829188,10.513155 -10.78699,10.513155 -5.957108,0 -10.786296,-4.707176 -10.786296,-10.513155 z"
       id="path825"
       inkscape:connector-curvature="0"
       style="fill:none;stroke:#000000;stroke-width:2;stroke-miterlimit:4;stroke-dasharray:none" />
  </g>
  <g
     transform="translate(0,5.0796062)"
     id="g837">
    <path
       d="m 24.061427,72.407881 c 0,-8.376 6.966,-15.165 15.56,-15.165 4.126,0 8.084,1.597 11.001,4.441 2.918,2.844 4.558,6.702 4.558,10.724 0,8.376 -6.966,15.165 -15.56,15.165 -8.593,0 -15.559,-6.79 -15.559,-15.165 z"
       id="path833"
       inkscape:connector-curvature="0"
       style="fill:none;stroke:#000000;stroke-width:2;stroke-miterlimit:4;stroke-dasharray:none" />
    <path
       style="fill:none;stroke:#000000;stroke-width:2;stroke-miterlimit:4;stroke-dasharray:none"
       inkscape:connector-curvature="0"
       id="path835"
       d="m 28.834284,72.407881 c 0,-5.806672 4.829188,-10.513155 10.78699,-10.513155 2.860354,0 5.604243,1.107122 7.626457,3.078729 2.022907,1.971606 3.159839,4.646169 3.159839,7.434426 0,5.806672 -4.829188,10.513155 -10.78699,10.513155 -5.957108,0 -10.786296,-4.707176 -10.786296,-10.513155 z" />
  </g>
  <g
     id="g843"
     transform="translate(0,43.17665)">
    <path
       style="fill:none;stroke:#000000;stroke-width:2;stroke-miterlimit:4;stroke-dasharray:none"
       inkscape:connector-curvature="0"
       id="path839"
       d="m 24.061427,72.407881 c 0,-8.376 6.966,-15.165 15.56,-15.165 4.126,0 8.084,1.597 11.001,4.441 2.918,2.844 4.558,6.702 4.558,10.724 0,8.376 -6.966,15.165 -15.56,15.165 -8.593,0 -15.559,-6.79 -15.559,-15.165 z" />
    <path
       d="m 28.834284,72.407881 c 0,-5.806672 4.829188,-10.513155 10.78699,-10.513155 2.860354,0 5.604243,1.107122 7.626457,3.078729 2.022907,1.971606 3.159839,4.646169 3.159839,7.434426 0,5.806672 -4.829188,10.513155 -10.78699,10.513155 -5.957108,0 -10.786296,-4.707176 -10.786296,-10.513155 z"
       id="path841"
       inkscape:connector-curvature="0"
       style="fill:none;stroke:#000000;stroke-width:2;stroke-miterlimit:4;stroke-dasharray:none" />
  </g>
  <g
     transform="translate(0,80.257774)"
     id="g849">
    <path
       d="m 24.061427,72.407881 c 0,-8.376 6.966,-15.165 15.56,-15.165 4.126,0 8.084,1.597 11.001,4.441 2.918,2.844 4.558,6.702 4.558,10.724 0,8.376 -6.966,15.165 -15.56,15.165 -8.593,0 -15.559,-6.79 -15.559,-15.165 z"
       id="path845"
       inkscape:connector-curvature="0"
       style="fill:none;stroke:#000000;stroke-width:2;stroke-miterlimit:4;stroke-dasharray:none" />
    <path
       style="fill:none;stroke:#000000;stroke-width:2;stroke-miterlimit:4;stroke-dasharray:none"
       inkscape:connector-curvature="0"
       id="path847"
       d="m 28.834284,72.407881 c 0,-5.806672 4.829188,-10.513155 10.78699,-10.513155 2.860354,0 5.604243,1.107122 7.626457,3.078729 2.022907,1.971606 3.159839,4.646169 3.159839,7.434426 0,5.806672 -4.829188,10.513155 -10.78699,10.513155 -5.957108,0 -10.786296,-4.707176 -10.786296,-10.513155 z" />
  </g>
  <g
     transform="translate(0,121.40258)"
     id="g855">
    <path
       d="m 24.061427,72.407881 c 0,-8.376 6.966,-15.165 15.56,-15.165 4.126,0 8.084,1.597 11.001,4.441 2.918,2.844 4.558,6.702 4.558,10.724 0,8.376 -6.966,15.165 -15.56,15.165 -8.593,0 -15.559,-6.79 -15.559,-15.165 z"
       id="path851"
       inkscape:connector-curvature="0"
       style="fill:none;stroke:#000000;stroke-width:2;stroke-miterlimit:4;stroke-dasharray:none" />
    <path
       style="fill:none;stroke:#000000;stroke-width:2;stroke-miterlimit:4;stroke-dasharray:none"
       inkscape:connector-curvature="0"
       id="path853"
       d="m 28.834284,72.407881 c 0,-5.806672 4.829188,-10.513155 10.78699,-10.513155 2.860354,0 5.604243,1.107122 7.626457,3.078729 2.022907,1.971606 3.159839,4.646169 3.159839,7.434426 0,5.806672 -4.829188,10.513155 -10.78699,10.513155 -5.957108,0 -10.786296,-4.707176 -10.786296,-10.513155 z" />
  </g>
  <g
     id="g861"
     transform="translate(0,158.99167)">
    <path
       style="fill:none;stroke:#000000;stroke-width:2;stroke-miterlimit:4;stroke-dasharray:none"
       inkscape:connector-curvature="0"
       id="path857"
       d="m 24.061427,72.407881 c 0,-8.376 6.966,-15.165 15.56,-15.165 4.126,0 8.084,1.597 11.001,4.441 2.918,2.844 4.558,6.702 4.558,10.724 0,8.376 -6.966,15.165 -15.56,15.165 -8.593,0 -15.559,-6.79 -15.559,-15.165 z" />
    <path
       d="m 28.834284,72.407881 c 0,-5.806672 4.829188,-10.513155 10.78699,-10.513155 2.860354,0 5.604243,1.107122 7.626457,3.078729 2.022907,1.971606 3.159839,4.646169 3.159839,7.434426 0,5.806672 -4.829188,10.513155 -10.78699,10.513155 -5.957108,0 -10.786296,-4.707176 -10.786296,-10.513155 z"
       id="path859"
       inkscape:connector-curvature="0"
       style="fill:none;stroke:#000000;stroke-width:2;stroke-miterlimit:4;stroke-dasharray:none" />
  </g>
  <g
     transform="translate(0,196.07279)"
     id="g867">
    <path
       d="m 24.061427,72.407881 c 0,-8.376 6.966,-15.165 15.56,-15.165 4.126,0 8.084,1.597 11.001,4.441 2.918,2.844 4.558,6.702 4.558,10.724 0,8.376 -6.966,15.165 -15.56,15.165 -8.593,0 -15.559,-6.79 -15.559,-15.165 z"
       id="path863"
       inkscape:connector-curvature="0"
       style="fill:none;stroke:#000000;stroke-width:2;stroke-miterlimit:4;stroke-dasharray:none" />
    <path
       style="fill:none;stroke:#000000;stroke-width:2;stroke-miterlimit:4;stroke-dasharray:none"
       inkscape:connector-curvature="0"
       id="path865"
       d="m 28.834284,72.407881 c 0,-5.806672 4.829188,-10.513155 10.78699,-10.513155 2.860354,0 5.604243,1.107122 7.626457,3.078729 2.022907,1.971606 3.159839,4.646169 3.159839,7.434426 0,5.806672 -4.829188,10.513155 -10.78699,10.513155 -5.957108,0 -10.786296,-4.707176 -10.786296,-10.513155 z" />
  </g>
  <g
     id="g873"
     transform="translate(0,236.20168)">
    <path
       style="fill:none;stroke:#000000;stroke-width:2;stroke-miterlimit:4;stroke-dasharray:none"
       inkscape:connector-curvature="0"
       id="path869"
       d="m 24.061427,72.407881 c 0,-8.376 6.966,-15.165 15.56,-15.165 4.126,0 8.084,1.597 11.001,4.441 2.918,2.844 4.558,6.702 4.558,10.724 0,8.376 -6.966,15.165 -15.56,15.165 -8.593,0 -15.559,-6.79 -15.559,-15.165 z" />
    <path
       d="m 28.834284,72.407881 c 0,-5.806672 4.829188,-10.513155 10.78699,-10.513155 2.860354,0 5.604243,1.107122 7.626457,3.078729 2.022907,1.971606 3.159839,4.646169 3.159839,7.434426 0,5.806672 -4.829188,10.513155 -10.78699,10.513155 -5.957108,0 -10.786296,-4.707176 -10.786296,-10.513155 z"
       id="path871"
       inkscape:connector-curvature="0"
       style="fill:none;stroke:#000000;stroke-width:2;stroke-miterlimit:4;stroke-dasharray:none" />
  </g>
  <rect
     style="fill:none;fill-opacity:0.33333333;fill-rule:evenodd;stroke:#000000;stroke-width:2;stroke-linecap:square;stroke-linejoin:miter;stroke-miterlimit:4;stroke-dasharray:none;stroke-dashoffset:0;stroke-opacity:1"
     id="rect877"
     width="39.620926"
     height="39.620926"
     x="79.241852"
     y="39.667915" />
  <rect
     y="112.81424"
     x="79.241852"
     height="39.620926"
     width="39.620926"
     id="rect879"
     style="fill:none;fill-opacity:0.33333333;fill-rule:evenodd;stroke:#000000;stroke-width:2;stroke-linecap:square;stroke-linejoin:miter;stroke-miterlimit:4;stroke-dasharray:none;stroke-dashoffset:0;stroke-opacity:1" />
  <rect
     style="fill:none;fill-opacity:0.33333333;fill-rule:evenodd;stroke:#000000;stroke-width:2;stroke-linecap:square;stroke-linejoin:miter;stroke-miterlimit:4;stroke-dasharray:none;stroke-dashoffset:0;stroke-opacity:1"
     id="rect881"
     width="39.620926"
     height="39.620926"
     x="79.241852"
     y="194.08794" />
  <rect
     y="269.77405"
     x="79.241852"
     height="39.620926"
     width="39.620926"
     id="rect883"
     style="fill:none;fill-opacity:0.33333333;fill-rule:evenodd;stroke:#000000;stroke-width:2;stroke-linecap:square;stroke-linejoin:miter;stroke-miterlimit:4;stroke-dasharray:none;stroke-dashoffset:0;stroke-opacity:1" />
  <rect
     style="fill:none;fill-opacity:0.33333333;fill-rule:evenodd;stroke:#000000;stroke-width:2;stroke-linecap:square;stroke-linejoin:miter;stroke-miterlimit:4;stroke-dasharray:none;stroke-dashoffset:0;stroke-opacity:1"
     id="rect885"
     width="59.930096"
     height="59.930096"
     x="144.03494"
     y="68.626274" />
  <rect
     y="223.0463"
     x="144.03494"
     height="59.930096"
     width="59.930096"
     id="rect887"
     style="fill:none;fill-opacity:0.33333333;fill-rule:evenodd;stroke:#000000;stroke-width:2;stroke-linecap:square;stroke-linejoin:miter;stroke-miterlimit:4;stroke-dasharray:none;stroke-dashoffset:0;stroke-opacity:1" />
  <rect
     style="fill:none;fill-opacity:0.33333333;fill-rule:evenodd;stroke:#000000;stroke-width:2;stroke-linecap:square;stroke-linejoin:miter;stroke-miterlimit:4;stroke-dasharray:none;stroke-dashoffset:0;stroke-opacity:1"
     id="rect889"
     width="80.575462"
     height="80.575462"
     x="211.43024"
     y="133.71228" />
  <path
     style="fill:none;fill-opacity:0.33333333;fill-rule:evenodd;stroke:#000000;stroke-width:2;stroke-linecap:square;stroke-linejoin:miter;stroke-miterlimit:4;stroke-dasharray:none;stroke-dashoffset:0;stroke-opacity:1"
     d="M 52.827902,48.303248 H 79.241853"
     id="path893"
     inkscape:connector-curvature="0" />
  <path
     inkscape:connector-curvature="0"
     id="path895"
     d="M 50.79606,67.09779 H 77.210011"
     style="fill:none;fill-opacity:0.33333333;fill-rule:evenodd;stroke:#000000;stroke-width:2;stroke-linecap:square;stroke-linejoin:miter;stroke-miterlimit:4;stroke-dasharray:none;stroke-dashoffset:0;stroke-opacity:1" />
  <path
     inkscape:connector-curvature="0"
     id="path897"
     d="M 50.79606,126.52918 H 77.210011"
     style="fill:none;fill-opacity:0.33333333;fill-rule:evenodd;stroke:#000000;stroke-width:2;stroke-linecap:square;stroke-linejoin:miter;stroke-miterlimit:4;stroke-dasharray:none;stroke-dashoffset:0;stroke-opacity:1" />
  <path
     style="fill:none;fill-opacity:0.33333333;fill-rule:evenodd;stroke:#000000;stroke-width:2;stroke-linecap:square;stroke-linejoin:miter;stroke-miterlimit:4;stroke-dasharray:none;stroke-dashoffset:0;stroke-opacity:1"
     d="M 50.79606,140.75208 H 77.210011"
     id="path899"
     inkscape:connector-curvature="0" />
  <path
     style="fill:none;fill-opacity:0.33333333;fill-rule:evenodd;stroke:#000000;stroke-width:2;stroke-linecap:square;stroke-linejoin:miter;stroke-miterlimit:4;stroke-dasharray:none;stroke-dashoffset:0;stroke-opacity:1"
     d="M 51.811981,204.24715 H 78.225932"
     id="path901"
     inkscape:connector-curvature="0" />
  <path
     inkscape:connector-curvature="0"
     id="path903"
     d="M 52.319942,221.51781 H 78.733893"
     style="fill:none;fill-opacity:0.33333333;fill-rule:evenodd;stroke:#000000;stroke-width:2;stroke-linecap:square;stroke-linejoin:miter;stroke-miterlimit:4;stroke-dasharray:none;stroke-dashoffset:0;stroke-opacity:1" />
  <path
     style="fill:none;fill-opacity:0.33333333;fill-rule:evenodd;stroke:#000000;stroke-width:2;stroke-linecap:square;stroke-linejoin:miter;stroke-miterlimit:4;stroke-dasharray:none;stroke-dashoffset:0;stroke-opacity:1"
     d="M 51.304021,278.91736 H 77.717972"
     id="path905"
     inkscape:connector-curvature="0" />
  <path
     inkscape:connector-curvature="0"
     id="path907"
     d="M 50.796061,296.69598 H 77.210012"
     style="fill:none;fill-opacity:0.33333333;fill-rule:evenodd;stroke:#000000;stroke-width:2;stroke-linecap:square;stroke-linejoin:miter;stroke-miterlimit:4;stroke-dasharray:none;stroke-dashoffset:0;stroke-opacity:1" />
  <path
     style="fill:none;fill-opacity:0.33333333;fill-rule:evenodd;stroke:#000000;stroke-width:2;stroke-linecap:square;stroke-linejoin:miter;stroke-miterlimit:4;stroke-dasharray:none;stroke-dashoffset:0;stroke-opacity:1"
     d="m 292.07734,174 h 8.89022"
     id="path909"
     inkscape:connector-curvature="0" />
  <path
     style="fill:none;fill-opacity:0.33333333;fill-rule:evenodd;stroke:#000000;stroke-width:2;stroke-linecap:square;stroke-linejoin:miter;stroke-miterlimit:4;stroke-dasharray:none;stroke-dashoffset:0;stroke-opacity:1"
     d="m 174,128.05306 v 30.47764 h 36.80365"
     id="path911"
     inkscape:connector-curvature="0" />
  <path
     inkscape:connector-curvature="0"
     id="path913"
     d="M 174,222.53374 V 192.0561 h 36.80365"
     style="fill:none;fill-opacity:0.33333333;fill-rule:evenodd;stroke:#000000;stroke-width:2;stroke-linecap:square;stroke-linejoin:miter;stroke-miterlimit:4;stroke-dasharray:none;stroke-dashoffset:0;stroke-opacity:1" />
  <path
     style="fill:none;fill-opacity:0.33333333;fill-rule:evenodd;stroke:#000000;stroke-width:2;stroke-linecap:square;stroke-linejoin:miter;stroke-miterlimit:4;stroke-dasharray:none;stroke-dashoffset:0;stroke-opacity:1"
     d="m 118.86278,59.478381 h 12.69901 v 23.366187 h 12.19106"
     id="path915"
     inkscape:connector-curvature="0" />
  <path
     inkscape:connector-curvature="0"
     id="path917"
     d="m 118.86278,213.8984 h 12.69901 v 23.36619 h 12.19106"
     style="fill:none;fill-opacity:0.33333333;fill-rule:evenodd;stroke:#000000;stroke-width:2;stroke-linecap:square;stroke-linejoin:miter;stroke-miterlimit:4;stroke-dasharray:none;stroke-dashoffset:0;stroke-opacity:1" />
  <path
     style="fill:none;fill-opacity:0.33333333;fill-rule:evenodd;stroke:#000000;stroke-width:2;stroke-linecap:square;stroke-linejoin:miter;stroke-miterlimit:4;stroke-dasharray:none;stroke-dashoffset:0;stroke-opacity:1"
     d="m 118.86278,288.56861 h 12.69901 v -23.36619 h 12.19106"
     id="path919"
     inkscape:connector-curvature="0" />
  <path
     inkscape:connector-curvature="0"
     id="path921"
     d="m 119.37074,133.64063 h 12.69901 v -23.36619 h 12.19106"
     style="fill:none;fill-opacity:0.33333333;fill-rule:evenodd;stroke:#000000;stroke-width:2;stroke-linecap:square;stroke-linejoin:miter;stroke-miterlimit:4;stroke-dasharray:none;stroke-dashoffset:0;stroke-opacity:1" />
</svg>
