<?xml version="1.0" encoding="UTF-8" standalone="no"?>
<svg
   xmlns:dc="http://purl.org/dc/elements/1.1/"
   xmlns:cc="http://creativecommons.org/ns#"
   xmlns:rdf="http://www.w3.org/1999/02/22-rdf-syntax-ns#"
   xmlns:svg="http://www.w3.org/2000/svg"
   xmlns="http://www.w3.org/2000/svg"
   xmlns:sodipodi="http://sodipodi.sourceforge.net/DTD/sodipodi-0.dtd"
   xmlns:inkscape="http://www.inkscape.org/namespaces/inkscape"
   viewBox="0.0 0.0 348.0 348.0"
   fill="none"
   version="1.1"
   id="svg6"
   sodipodi:docname="Mastermind Restricted Cruel.svg"
   inkscape:version="0.92.4 (5da689c313, 2019-01-14)">
  <metadata
     id="metadata12">
    <rdf:RDF>
      <cc:Work
         rdf:about="">
        <dc:format>image/svg+xml</dc:format>
        <dc:type
           rdf:resource="http://purl.org/dc/dcmitype/StillImage" />
        <dc:title></dc:title>
      </cc:Work>
    </rdf:RDF>
  </metadata>
  <defs
     id="defs10" />
  <sodipodi:namedview
     pagecolor="#ffffff"
     bordercolor="#666666"
     borderopacity="1"
     objecttolerance="10"
     gridtolerance="10"
     guidetolerance="10"
     inkscape:pageopacity="0"
     inkscape:pageshadow="2"
     inkscape:window-width="1920"
     inkscape:window-height="1057"
     id="namedview8"
     showgrid="false"
     showguides="true"
     inkscape:guide-bbox="true"
     inkscape:zoom="1.8159821"
     inkscape:cx="206.92184"
     inkscape:cy="179.77701"
     inkscape:window-x="1272"
     inkscape:window-y="-8"
     inkscape:window-maximized="1"
     inkscape:current-layer="svg6"
     inkscape:snap-bbox="false"
     inkscape:snap-object-midpoints="true"
     inkscape:snap-intersection-paths="true">
    <sodipodi:guide
       position="173.536,173.389"
       orientation="1,0"
       id="guide852"
       inkscape:locked="false"
       inkscape:label=""
       inkscape:color="rgb(0,0,255)" />
    <sodipodi:guide
       position="173.536,173.389"
       orientation="0,1"
       id="guide854"
       inkscape:locked="false" />
    <sodipodi:guide
       position="172.19864,258.04398"
       orientation="0,1"
       id="guide857"
       inkscape:locked="false" />
    <sodipodi:guide
       position="172.19864,258.04398"
       orientation="1,0"
       id="guide859"
       inkscape:locked="false" />
  </sodipodi:namedview>
  <path
     d="M5.079 5.776h336.913v337.67H5.08z"
     stroke-width="2"
     stroke="#000"
     id="path2" />
  <path
     d="m 27.176804,309.37889 c 0,-8.376 6.966,-15.165 15.56,-15.165 4.126,0 8.084,1.597 11.001,4.441 2.918,2.844 4.558,6.702 4.558,10.724 0,8.376 -6.966,15.165 -15.56,15.165 -8.593,0 -15.559,-6.79 -15.559,-15.165 z"
     id="path4"
     inkscape:connector-curvature="0"
     style="stroke:#000000;stroke-width:2" />
  <text
     xml:space="preserve"
     style="font-style:normal;font-weight:normal;font-size:40px;line-height:1.25;font-family:sans-serif;letter-spacing:0px;word-spacing:0px;fill:#000000;fill-opacity:1;stroke:none"
     x="92.631912"
     y="244.0715"
     id="text844"><tspan
       sodipodi:role="line"
       id="tspan842"
       x="92.631912"
       y="280.56473" /></text>
  <rect
     style="fill:none;fill-opacity:0.33333333;fill-rule:evenodd;stroke:#000000;stroke-width:2.2741034;stroke-linecap:square;stroke-linejoin:miter;stroke-miterlimit:4;stroke-dasharray:none;stroke-dashoffset:0;stroke-opacity:1"
     id="rect819"
     width="188.96135"
     height="68.710938"
     x="135.11752"
     y="255.41492"
     rx="1.36417" />
  <rect
     style="fill:none;fill-opacity:0.33333333;fill-rule:evenodd;stroke:#000000;stroke-width:2.71891046;stroke-linecap:square;stroke-linejoin:miter;stroke-miterlimit:4;stroke-dasharray:none;stroke-dashoffset:0;stroke-opacity:1"
     id="rect821"
     width="108.24365"
     height="50.755257"
     x="52.726894"
     y="154.84924"
     rx="25.377628"
     ry="25.377628" />
  <rect
     ry="25.377628"
     rx="25.377628"
     y="154.12546"
     x="184.95062"
     height="50.755257"
     width="108.24365"
     id="rect823"
     style="fill:none;fill-opacity:0.33333333;fill-rule:evenodd;stroke:#000000;stroke-width:2.71891046;stroke-linecap:square;stroke-linejoin:miter;stroke-miterlimit:4;stroke-dasharray:none;stroke-dashoffset:0;stroke-opacity:1" />
  <g
     aria-label="Reset"
     transform="rotate(180,2.7937833,0)"
     style="font-style:normal;font-weight:normal;font-size:24px;line-height:1.25;font-family:sans-serif;text-align:center;letter-spacing:0px;word-spacing:0px;text-anchor:middle;fill:#000000;fill-opacity:1;stroke:none"
     id="text827">
    <path
       d="m -118.98635,-172.38348 h -3.01172 l -5.83594,-6.9375 h -3.26953 v 6.9375 h -2.32031 v -17.44922 h 4.88672 q 1.58203,0 2.63672,0.21093 1.05468,0.19922 1.89843,0.72657 0.94922,0.59765 1.47657,1.51172 0.53906,0.90234 0.53906,2.29687 0,1.88672 -0.94922,3.16406 -0.94922,1.26563 -2.61328,1.91016 z m -5.42578,-12.53907 q 0,-0.75 -0.26953,-1.32422 -0.25782,-0.58593 -0.86719,-0.98437 -0.50391,-0.33984 -1.19531,-0.46875 -0.69141,-0.14063 -1.62891,-0.14063 h -2.73047 v 6.58594 h 2.34375 q 1.10156,0 1.92188,-0.1875 0.82031,-0.19922 1.39453,-0.72656 0.52734,-0.49219 0.77344,-1.125 0.25781,-0.64453 0.25781,-1.62891 z"
       id="path844"
       inkscape:connector-curvature="0" />
    <path
       d="m -106.5176,-178.69989 h -9.64453 q 0,1.20703 0.36328,2.10937 0.36328,0.89063 0.99609,1.46485 0.60938,0.5625 1.44141,0.84375 0.84375,0.28125 1.85156,0.28125 1.33594,0 2.6836,-0.52735 1.35937,-0.53906 1.93359,-1.05468 h 0.11719 v 2.40234 q -1.11328,0.46875 -2.27344,0.78516 -1.16016,0.3164 -2.4375,0.3164 -3.25781,0 -5.08594,-1.75781 -1.82812,-1.76953 -1.82812,-5.01562 0,-3.21094 1.74609,-5.09766 1.75781,-1.88672 4.61719,-1.88672 2.64844,0 4.07812,1.54688 1.44141,1.54687 1.44141,4.39453 z m -2.14453,-1.6875 q -0.0117,-1.73438 -0.87891,-2.68359 -0.85547,-0.94922 -2.61328,-0.94922 -1.76953,0 -2.82422,1.04297 -1.04297,1.04296 -1.18359,2.58984 z"
       id="path846"
       inkscape:connector-curvature="0" />
    <path
       d="m -93.826195,-176.15692 q 0,1.79297 -1.488281,2.9414 -1.476563,1.14844 -4.042969,1.14844 -1.453125,0 -2.671875,-0.33984 -1.20703,-0.35156 -2.02734,-0.76172 v -2.47266 h 0.11718 q 1.04297,0.78516 2.32032,1.25391 1.27734,0.45703 2.449215,0.45703 1.453125,0 2.273438,-0.46875 0.820312,-0.46875 0.820312,-1.47656 0,-0.77344 -0.445312,-1.17188 -0.445313,-0.39843 -1.710938,-0.67968 -0.46875,-0.10547 -1.230469,-0.2461 -0.749996,-0.14062 -1.371096,-0.30469 -1.72265,-0.45703 -2.44922,-1.33593 -0.71484,-0.89063 -0.71484,-2.17969 0,-0.80859 0.32813,-1.52344 0.33984,-0.71484 1.01953,-1.27734 0.65625,-0.55078 1.66406,-0.86719 1.01953,-0.32812 2.273436,-0.32812 1.171875,0 2.367188,0.29296 1.207031,0.28125 2.003906,0.69141 v 2.35547 h -0.117187 q -0.84375,-0.62109 -2.050782,-1.04297 -1.207031,-0.43359 -2.367187,-0.43359 -1.207034,0 -2.039064,0.46875 -0.83203,0.45703 -0.83203,1.37109 0,0.80859 0.50391,1.21875 0.49218,0.41016 1.593746,0.66797 0.609375,0.14062 1.359375,0.28125 0.761719,0.14062 1.265625,0.25781 1.535157,0.35156 2.367188,1.20703 0.832031,0.86719 0.832031,2.29688 z"
       id="path848"
       inkscape:connector-curvature="0" />
    <path
       d="m -79.705101,-178.69989 h -9.644531 q 0,1.20703 0.363281,2.10937 0.363281,0.89063 0.996094,1.46485 0.609375,0.5625 1.441406,0.84375 0.84375,0.28125 1.851562,0.28125 1.335938,0 2.683594,-0.52735 1.359375,-0.53906 1.933594,-1.05468 h 0.117187 v 2.40234 q -1.113281,0.46875 -2.273437,0.78516 -1.160156,0.3164 -2.4375,0.3164 -3.257813,0 -5.085938,-1.75781 -1.828125,-1.76953 -1.828125,-5.01562 0,-3.21094 1.746094,-5.09766 1.757813,-1.88672 4.617188,-1.88672 2.648437,0 4.078125,1.54688 1.441406,1.54687 1.441406,4.39453 z m -2.144531,-1.6875 q -0.01172,-1.73438 -0.878907,-2.68359 -0.855468,-0.94922 -2.613281,-0.94922 -1.769531,0 -2.824219,1.04297 -1.042968,1.04296 -1.183593,2.58984 z"
       id="path850"
       inkscape:connector-curvature="0" />
    <path
       d="m -69.568382,-172.50067 q -0.621094,0.16406 -1.359375,0.26953 -0.726563,0.10547 -1.300782,0.10547 -2.003906,0 -3.046875,-1.07813 -1.042968,-1.07812 -1.042968,-3.45703 v -6.96094 h -1.488282 v -1.85156 h 1.488282 v -3.76172 h 2.203125 v 3.76172 h 4.546875 v 1.85156 h -4.546875 v 5.96485 q 0,1.03125 0.04687,1.61719 0.04687,0.57421 0.328125,1.07812 0.257812,0.46875 0.703125,0.69141 0.457031,0.21093 1.382812,0.21093 0.539063,0 1.125,-0.15234 0.585938,-0.16406 0.84375,-0.26953 h 0.117188 z"
       id="path852"
       inkscape:connector-curvature="0" />
  </g>
  <g
     aria-label="Query"
     transform="rotate(180,-5.3335863,0.2539803)"
     style="font-style:normal;font-weight:normal;font-size:24px;line-height:1.25;font-family:sans-serif;text-align:center;letter-spacing:0px;word-spacing:0px;text-anchor:middle;fill:#000000;fill-opacity:1;stroke:none"
     id="text831">
    <path
       d="m -269.06505,-168.69887 q -0.70312,0.17578 -1.39453,0.2461 -0.67969,0.082 -1.39453,0.082 -2.03906,0 -3.28125,-1.125 -1.23047,-1.11328 -1.33594,-3.19922 -0.28125,0.0469 -0.55078,0.0586 -0.25781,0.0234 -0.50391,0.0234 -1.83984,0 -3.35156,-0.60938 -1.5,-0.60937 -2.55469,-1.76953 -1.05468,-1.16015 -1.6289,-2.84765 -0.5625,-1.6875 -0.5625,-3.85547 0,-2.13281 0.5625,-3.82031 0.5625,-1.69922 1.64062,-2.90625 1.03125,-1.14844 2.55469,-1.75782 1.53516,-0.60937 3.33984,-0.60937 1.875,0 3.36329,0.62109 1.5,0.60938 2.54296,1.7461 1.06641,1.17187 1.62891,2.87109 0.57422,1.69922 0.57422,3.85547 0,3.19922 -1.3125,5.39062 -1.30078,2.19141 -3.50391,3.07032 0.0469,1.33593 0.63282,2.07421 0.58593,0.73829 2.13281,0.73829 0.48047,0 1.13672,-0.15235 0.66797,-0.14062 0.94922,-0.25781 h 0.3164 z m -2.76562,-12.99609 q 0,-3.39844 -1.52344,-5.23828 -1.52344,-1.85157 -4.16016,-1.85157 -2.66015,0 -4.18359,1.85157 -1.51172,1.83984 -1.51172,5.23828 0,3.43359 1.54688,5.26172 1.54687,1.8164 4.14843,1.8164 2.60157,0 4.13672,-1.8164 1.54688,-1.82813 1.54688,-5.26172 z"
       id="path833"
       inkscape:connector-curvature="0" />
    <path
       d="m -255.06114,-172.97621 h -2.20313 v -1.45313 q -1.11328,0.87891 -2.13281,1.34766 -1.01953,0.46875 -2.25,0.46875 -2.0625,0 -3.21094,-1.25391 -1.14843,-1.26562 -1.14843,-3.70312 v -8.4961 h 2.20312 v 7.45313 q 0,0.99609 0.0937,1.71094 0.0937,0.70312 0.39844,1.20703 0.3164,0.51562 0.82031,0.75 0.50391,0.23437 1.46484,0.23437 0.85547,0 1.86329,-0.44531 1.01953,-0.44531 1.89843,-1.13672 v -9.77344 h 2.20313 z"
       id="path835"
       inkscape:connector-curvature="0" />
    <path
       d="m -239.76817,-179.29262 h -9.64453 q 0,1.20703 0.36328,2.10938 0.36328,0.89062 0.99609,1.46484 0.60938,0.5625 1.44141,0.84375 0.84375,0.28125 1.85156,0.28125 1.33594,0 2.68359,-0.52734 1.35938,-0.53907 1.9336,-1.05469 h 0.11718 v 2.40234 q -1.11328,0.46875 -2.27343,0.78516 -1.16016,0.31641 -2.4375,0.31641 -3.25782,0 -5.08594,-1.75782 -1.82813,-1.76953 -1.82813,-5.01562 0,-3.21094 1.7461,-5.09766 1.75781,-1.88672 4.61719,-1.88672 2.64843,0 4.07812,1.54688 1.44141,1.54687 1.44141,4.39453 z m -2.14453,-1.6875 q -0.0117,-1.73437 -0.87891,-2.68359 -0.85547,-0.94922 -2.61328,-0.94922 -1.76953,0 -2.82422,1.04297 -1.04297,1.04297 -1.18359,2.58984 z"
       id="path837"
       inkscape:connector-curvature="0" />
    <path
       d="m -228.26036,-183.66371 h -0.11719 q -0.49219,-0.11719 -0.96094,-0.16406 -0.45703,-0.0586 -1.08984,-0.0586 -1.01953,0 -1.96875,0.45703 -0.94922,0.44532 -1.82812,1.16016 v 9.29297 h -2.20313 v -13.08985 h 2.20313 v 1.9336 q 1.3125,-1.05469 2.30859,-1.48828 1.00781,-0.44532 2.05078,-0.44532 0.57422,0 0.83203,0.0352 0.25781,0.0234 0.77344,0.10547 z"
       id="path839"
       inkscape:connector-curvature="0" />
    <path
       d="m -214.84239,-186.06606 -7.64063,17.91797 h -2.35547 l 2.4375,-5.46093 -5.21484,-12.45704 h 2.39063 l 4.01953,9.70313 4.05468,-9.70313 z"
       id="path841"
       inkscape:connector-curvature="0" />
  </g>
  <circle
     style="fill:none;fill-opacity:0.33333333;fill-rule:evenodd;stroke:#000000;stroke-width:3.37586808;stroke-linecap:square;stroke-linejoin:miter;stroke-miterlimit:4;stroke-dasharray:none;stroke-dashoffset:0;stroke-opacity:1"
     id="circle863"
     cx="173.53549"
     cy="89.808395"
     r="21.220747" />
  <g
     aria-label="## ## ##"
     transform="scale(-1)"
     style="font-style:normal;font-weight:normal;font-size:32px;line-height:1.25;font-family:sans-serif;text-align:center;letter-spacing:0px;word-spacing:0px;text-anchor:middle;fill:#000000;fill-opacity:1;stroke:none"
     id="text869">
    <path
       d="m -297.79396,-292.05655 h -5.20313 l -1.4375,5.875 h 4.8125 v 2.10938 h -5.35937 l -1.625,6.57812 h -2.01563 l 1.625,-6.57812 h -4.21875 l -1.625,6.57812 h -2.01562 l 1.625,-6.57812 h -4.65625 v -2.10938 h 5.20312 l 1.4375,-5.875 h -4.8125 v -2.10937 h 5.35938 l 1.64062,-6.59375 h 2.01563 l -1.64063,6.59375 h 4.21875 l 1.64063,-6.59375 h 2.01562 l -1.64062,6.59375 h 4.65625 z m -7.17188,-0.0312 h -4.28125 l -1.46875,5.9375 h 4.28125 z"
       style=""
       id="path871" />
    <path
       d="m -271.60646,-292.05655 h -5.20313 l -1.4375,5.875 h 4.8125 v 2.10938 h -5.35937 l -1.625,6.57812 h -2.01563 l 1.625,-6.57812 h -4.21875 l -1.625,6.57812 h -2.01562 l 1.625,-6.57812 h -4.65625 v -2.10938 h 5.20312 l 1.4375,-5.875 h -4.8125 v -2.10937 h 5.35938 l 1.64062,-6.59375 h 2.01563 l -1.64063,6.59375 h 4.21875 l 1.64063,-6.59375 h 2.01562 l -1.64062,6.59375 h 4.65625 z m -7.17188,-0.0312 h -4.28125 l -1.46875,5.9375 h 4.28125 z"
       style=""
       id="path873" />
    <path
       d="m -234.16896,-292.05655 h -5.20313 l -1.4375,5.875 h 4.8125 v 2.10938 h -5.35937 l -1.625,6.57812 h -2.01563 l 1.625,-6.57812 h -4.21875 l -1.625,6.57812 h -2.01562 l 1.625,-6.57812 h -4.65625 v -2.10938 h 5.20312 l 1.4375,-5.875 h -4.8125 v -2.10937 h 5.35938 l 1.64062,-6.59375 h 2.01563 l -1.64063,6.59375 h 4.21875 l 1.64063,-6.59375 h 2.01562 l -1.64062,6.59375 h 4.65625 z m -7.17188,-0.0312 h -4.28125 l -1.46875,5.9375 h 4.28125 z"
       style=""
       id="path875" />
    <path
       d="m -207.98146,-292.05655 h -5.20313 l -1.4375,5.875 h 4.8125 v 2.10938 h -5.35937 l -1.625,6.57812 h -2.01563 l 1.625,-6.57812 h -4.21875 l -1.625,6.57812 h -2.01562 l 1.625,-6.57812 h -4.65625 v -2.10938 h 5.20312 l 1.4375,-5.875 h -4.8125 v -2.10937 h 5.35938 l 1.64062,-6.59375 h 2.01563 l -1.64063,6.59375 h 4.21875 l 1.64063,-6.59375 h 2.01562 l -1.64062,6.59375 h 4.65625 z m -7.17188,-0.0312 h -4.28125 l -1.46875,5.9375 h 4.28125 z"
       style=""
       id="path877" />
    <path
       d="m -170.54396,-292.05655 h -5.20313 l -1.4375,5.875 h 4.8125 v 2.10938 h -5.35937 l -1.625,6.57812 h -2.01563 l 1.625,-6.57812 h -4.21875 l -1.625,6.57812 h -2.01562 l 1.625,-6.57812 h -4.65625 v -2.10938 h 5.20312 l 1.4375,-5.875 h -4.8125 v -2.10937 h 5.35938 l 1.64062,-6.59375 h 2.01563 l -1.64063,6.59375 h 4.21875 l 1.64063,-6.59375 h 2.01562 l -1.64062,6.59375 h 4.65625 z m -7.17188,-0.0312 h -4.28125 l -1.46875,5.9375 h 4.28125 z"
       style=""
       id="path879" />
    <path
       d="m -144.35646,-292.05655 h -5.20313 l -1.4375,5.875 h 4.8125 v 2.10938 h -5.35937 l -1.625,6.57812 h -2.01563 l 1.625,-6.57812 h -4.21875 l -1.625,6.57812 h -2.01562 l 1.625,-6.57812 h -4.65625 v -2.10938 h 5.20312 l 1.4375,-5.875 h -4.8125 v -2.10937 h 5.35938 l 1.64062,-6.59375 h 2.01563 l -1.64063,6.59375 h 4.21875 l 1.64063,-6.59375 h 2.01562 l -1.64062,6.59375 h 4.65625 z m -7.17188,-0.0312 h -4.28125 l -1.46875,5.9375 h 4.28125 z"
       style=""
       id="path881" />
  </g>
  <circle
     r="21.220747"
     cy="89.808395"
     cx="233.53549"
     id="circle847"
     style="fill:none;fill-opacity:0.33333333;fill-rule:evenodd;stroke:#000000;stroke-width:3.37586808;stroke-linecap:square;stroke-linejoin:miter;stroke-miterlimit:4;stroke-dasharray:none;stroke-dashoffset:0;stroke-opacity:1" />
  <circle
     style="fill:none;fill-opacity:0.33333333;fill-rule:evenodd;stroke:#000000;stroke-width:3.37586808;stroke-linecap:square;stroke-linejoin:miter;stroke-miterlimit:4;stroke-dasharray:none;stroke-dashoffset:0;stroke-opacity:1"
     id="circle849"
     cx="293.53549"
     cy="89.808395"
     r="21.220747" />
  <circle
     style="fill:none;fill-opacity:0.33333333;fill-rule:evenodd;stroke:#000000;stroke-width:3.37586808;stroke-linecap:square;stroke-linejoin:miter;stroke-miterlimit:4;stroke-dasharray:none;stroke-dashoffset:0;stroke-opacity:1"
     id="circle851"
     cx="53.535492"
     cy="89.808395"
     r="21.220747" />
  <circle
     r="21.220747"
     cy="89.808395"
     cx="113.53549"
     id="circle853"
     style="fill:none;fill-opacity:0.33333333;fill-rule:evenodd;stroke:#000000;stroke-width:3.37586808;stroke-linecap:square;stroke-linejoin:miter;stroke-miterlimit:4;stroke-dasharray:none;stroke-dashoffset:0;stroke-opacity:1" />
</svg>
