<?xml version="1.0" encoding="UTF-8" standalone="no"?>
<svg
   xmlns:dc="http://purl.org/dc/elements/1.1/"
   xmlns:cc="http://creativecommons.org/ns#"
   xmlns:rdf="http://www.w3.org/1999/02/22-rdf-syntax-ns#"
   xmlns:svg="http://www.w3.org/2000/svg"
   xmlns="http://www.w3.org/2000/svg"
   xmlns:sodipodi="http://sodipodi.sourceforge.net/DTD/sodipodi-0.dtd"
   xmlns:inkscape="http://www.inkscape.org/namespaces/inkscape"
   viewBox="0 0 348 348"
   fill="none"
   version="1.1"
   id="svg72"
   sodipodi:docname="Numbered Buttons.svg"
   inkscape:version="0.92.4 (5da689c313, 2019-01-14)">
  <metadata
     id="metadata78">
    <rdf:RDF>
      <cc:Work
         rdf:about="">
        <dc:format>image/svg+xml</dc:format>
        <dc:type
           rdf:resource="http://purl.org/dc/dcmitype/StillImage" />
        <dc:title></dc:title>
      </cc:Work>
    </rdf:RDF>
  </metadata>
  <defs
     id="defs76" />
  <sodipodi:namedview
     pagecolor="#ffffff"
     bordercolor="#666666"
     borderopacity="1"
     objecttolerance="10"
     gridtolerance="10"
     guidetolerance="10"
     inkscape:pageopacity="0"
     inkscape:pageshadow="2"
     inkscape:window-width="1920"
     inkscape:window-height="1057"
     id="namedview74"
     showgrid="false"
     inkscape:zoom="2.0924576"
     inkscape:cx="69.16949"
     inkscape:cy="174.86819"
     inkscape:window-x="1272"
     inkscape:window-y="-8"
     inkscape:window-maximized="1"
     inkscape:current-layer="svg72"
     inkscape:snap-object-midpoints="true"
     inkscape:snap-smooth-nodes="true"
     inkscape:snap-midpoints="true"
     inkscape:snap-intersection-paths="true" />
  <path
     d="M5.079 5.776h336.913v337.67H5.08z"
     stroke-width="2"
     stroke="#000"
     id="path2" />
  <path
     d="M282.734 40.554c0-8.376 6.966-15.165 15.56-15.165 4.126 0 8.084 1.597 11.001 4.441 2.918 2.844 4.558 6.702 4.558 10.724 0 8.376-6.966 15.165-15.56 15.165-8.593 0-15.559-6.79-15.559-15.165z"
     stroke-width="2"
     stroke="#000"
     id="path4" />
  <g
     aria-label="88"
     style="font-style:normal;font-weight:normal;font-size:32px;line-height:1.25;font-family:sans-serif;text-align:center;letter-spacing:0px;word-spacing:0px;text-anchor:middle;fill:#000000;fill-opacity:1;stroke:none"
     id="text847">
    <path
       d="m 44.419472,133.14818 q 0,3.01562 -2.359375,5.01562 -2.34375,2 -5.90625,2 -3.78125,0 -6.03125,-1.95312 -2.234375,-1.95313 -2.234375,-5 0,-1.9375 1.125,-3.5 1.125,-1.57813 3.171875,-2.5 v -0.0937 q -1.875,-1 -2.78125,-2.1875 -0.890625,-1.1875 -0.890625,-2.96875 0,-2.625 2.15625,-4.375 2.15625,-1.75 5.484375,-1.75 3.484375,0 5.5625,1.67187 2.078125,1.67188 2.078125,4.25 0,1.57813 -0.984375,3.10938 -0.984375,1.51562 -2.890625,2.375 v 0.0937 q 2.1875,0.9375 3.34375,2.3125 1.15625,1.375 1.15625,3.5 z M 40.716347,121.7888 q 0,-1.67187 -1.296875,-2.65625 -1.28125,-1 -3.28125,-1 -1.96875,0 -3.234375,0.9375 -1.25,0.9375 -1.25,2.53125 0,1.125 0.625,1.95313 0.640625,0.8125 1.921875,1.45312 0.578125,0.28125 1.65625,0.73438 1.09375,0.45312 2.125,0.75 1.546875,-1.03125 2.140625,-2.14063 0.59375,-1.10937 0.59375,-2.5625 z m 0.484375,11.65625 q 0,-1.4375 -0.640625,-2.29687 -0.625,-0.875 -2.46875,-1.75 -0.734375,-0.34375 -1.609375,-0.64063 -0.875,-0.29687 -2.328125,-0.82812 -1.40625,0.76562 -2.265625,2.07812 -0.84375,1.3125 -0.84375,2.96875 0,2.10938 1.453125,3.48438 1.453125,1.375 3.6875,1.375 2.28125,0 3.640625,-1.17188 1.375,-1.17187 1.375,-3.21875 z"
       style=""
       id="path973" />
    <path
       d="m 64.794472,133.14818 q 0,3.01562 -2.359375,5.01562 -2.34375,2 -5.90625,2 -3.78125,0 -6.03125,-1.95312 -2.234375,-1.95313 -2.234375,-5 0,-1.9375 1.125,-3.5 1.125,-1.57813 3.171875,-2.5 v -0.0937 q -1.875,-1 -2.78125,-2.1875 -0.890625,-1.1875 -0.890625,-2.96875 0,-2.625 2.15625,-4.375 2.15625,-1.75 5.484375,-1.75 3.484375,0 5.5625,1.67187 2.078125,1.67188 2.078125,4.25 0,1.57813 -0.984375,3.10938 -0.984375,1.51562 -2.890625,2.375 v 0.0937 q 2.1875,0.9375 3.34375,2.3125 1.15625,1.375 1.15625,3.5 z M 61.091347,121.7888 q 0,-1.67187 -1.296875,-2.65625 -1.28125,-1 -3.28125,-1 -1.96875,0 -3.234375,0.9375 -1.25,0.9375 -1.25,2.53125 0,1.125 0.625,1.95313 0.640625,0.8125 1.921875,1.45312 0.578125,0.28125 1.65625,0.73438 1.09375,0.45312 2.125,0.75 1.546875,-1.03125 2.140625,-2.14063 0.59375,-1.10937 0.59375,-2.5625 z m 0.484375,11.65625 q 0,-1.4375 -0.640625,-2.29687 -0.625,-0.875 -2.46875,-1.75 -0.734375,-0.34375 -1.609375,-0.64063 -0.875,-0.29687 -2.328125,-0.82812 -1.40625,0.76562 -2.265625,2.07812 -0.84375,1.3125 -0.84375,2.96875 0,2.10938 1.453125,3.48438 1.453125,1.375 3.6875,1.375 2.28125,0 3.640625,-1.17188 1.375,-1.17187 1.375,-3.21875 z"
       style=""
       id="path975" />
  </g>
  <path
     style="fill:none;fill-opacity:0.33333333;fill-rule:evenodd;stroke:#000000;stroke-width:2.22496486;stroke-linecap:square;stroke-linejoin:miter;stroke-miterlimit:4;stroke-dasharray:none;stroke-dashoffset:0;stroke-opacity:1"
     d="M 16.361317,85.263649 H 264.64797 V 333.5503 H 16.361317 Z"
     id="rect851" />
  <path
     style="fill:none;fill-opacity:0.33333333;fill-rule:evenodd;stroke:#000000;stroke-width:2;stroke-linecap:square;stroke-linejoin:miter;stroke-miterlimit:4;stroke-dasharray:none;stroke-dashoffset:0;stroke-opacity:1"
     d="M 16.361316,209.40698 H 264.64795"
     id="path861"
     inkscape:connector-curvature="0" />
  <path
     inkscape:connector-curvature="0"
     id="path863"
     d="M 140.50463,85.263651 V 333.5503"
     style="fill:none;fill-opacity:0.33333333;fill-rule:evenodd;stroke:#000000;stroke-width:2;stroke-linecap:square;stroke-linejoin:miter;stroke-miterlimit:4;stroke-dasharray:none;stroke-dashoffset:0;stroke-opacity:1"
     sodipodi:nodetypes="cc" />
  <path
     style="fill:none;fill-opacity:0.33333333;fill-rule:evenodd;stroke:#000000;stroke-width:2;stroke-linecap:square;stroke-linejoin:miter;stroke-miterlimit:4;stroke-dasharray:none;stroke-dashoffset:0;stroke-opacity:1"
     d="M 16.361316,271.47833 H 264.64797"
     id="path873"
     inkscape:connector-curvature="0" />
  <path
     inkscape:connector-curvature="0"
     id="path875"
     d="M 16.361305,147.33532 H 264.64796"
     style="fill:none;fill-opacity:0.33333333;fill-rule:evenodd;stroke:#000000;stroke-width:2;stroke-linecap:square;stroke-linejoin:miter;stroke-miterlimit:4;stroke-dasharray:none;stroke-dashoffset:0;stroke-opacity:1" />
  <path
     style="fill:none;fill-opacity:0.33333333;fill-rule:evenodd;stroke:#000000;stroke-width:2;stroke-linecap:square;stroke-linejoin:miter;stroke-miterlimit:4;stroke-dasharray:none;stroke-dashoffset:0;stroke-opacity:1"
     d="M 78.432973,85.263648 V 333.55031"
     id="path877"
     inkscape:connector-curvature="0" />
  <path
     inkscape:connector-curvature="0"
     id="path879"
     d="M 202.61615,85.263647 V 333.55031"
     style="fill:none;fill-opacity:0.33333333;fill-rule:evenodd;stroke:#000000;stroke-width:2;stroke-linecap:square;stroke-linejoin:miter;stroke-miterlimit:4;stroke-dasharray:none;stroke-dashoffset:0;stroke-opacity:1" />
  <path
     style="fill:none;fill-opacity:0.33333333;fill-rule:evenodd;stroke:#000000;stroke-width:2;stroke-linecap:square;stroke-linejoin:miter;stroke-miterlimit:4;stroke-dasharray:none;stroke-dashoffset:0;stroke-opacity:1"
     d="M 28.674417,91.841873 H 64.517439 V 103.31164 H 28.674417 Z"
     id="rect881" />
  <g
     aria-label="20"
     style="font-style:normal;font-weight:normal;font-size:32px;line-height:1.25;font-family:sans-serif;text-align:center;letter-spacing:0px;word-spacing:0px;text-anchor:middle;fill:#000000;fill-opacity:1;stroke:none"
     id="text885">
    <path
       d="M 106.85342,139.63255 H 91.103416 v -3.26562 q 1.640625,-1.40625 3.28125,-2.8125 1.65625,-1.40625 3.078125,-2.79688 2.999999,-2.90625 4.109379,-4.60937 1.10937,-1.71875 1.10937,-3.70313 0,-1.8125 -1.20312,-2.82812 -1.1875,-1.03125 -3.328129,-1.03125 -1.421875,0 -3.078125,0.5 -1.65625,0.5 -3.234375,1.53125 h -0.15625 v -3.28125 q 1.109375,-0.54688 2.953125,-1 1.859375,-0.45313 3.59375,-0.45313 3.578124,0 5.609374,1.73438 2.03125,1.71875 2.03125,4.67187 0,1.32813 -0.34375,2.48438 -0.32812,1.14062 -0.98437,2.17187 -0.60938,0.96875 -1.4375,1.90625 -0.8125,0.9375 -1.98438,2.07813 -1.671874,1.64062 -3.453124,3.1875 -1.78125,1.53125 -3.328125,2.84375 h 12.515629 z"
       style=""
       id="path980" />
    <path
       d="m 127.19717,127.99193 q 0,6.26562 -1.96875,9.20312 -1.95313,2.92188 -6.07813,2.92188 -4.1875,0 -6.125,-2.96875 -1.92187,-2.96875 -1.92187,-9.125 0,-6.20313 1.95312,-9.15625 1.95313,-2.96875 6.09375,-2.96875 4.1875,0 6.10938,3.01562 1.9375,3 1.9375,9.07813 z m -4.10938,7.09375 q 0.54688,-1.26563 0.73438,-2.96875 0.20312,-1.71875 0.20312,-4.125 0,-2.375 -0.20312,-4.125 -0.1875,-1.75 -0.75,-2.96875 -0.54688,-1.20313 -1.5,-1.8125 -0.9375,-0.60938 -2.42188,-0.60938 -1.46875,0 -2.4375,0.60938 -0.95312,0.60937 -1.51562,1.84375 -0.53125,1.15625 -0.73438,3.01562 -0.1875,1.85938 -0.1875,4.07813 0,2.4375 0.17188,4.07812 0.17187,1.64063 0.73437,2.9375 0.51563,1.21875 1.45313,1.85938 0.95312,0.64062 2.51562,0.64062 1.46875,0 2.4375,-0.60937 0.96875,-0.60938 1.5,-1.84375 z"
       style=""
       id="path982" />
  </g>
  <path
     style="fill:none;fill-opacity:0.33333333;fill-rule:evenodd;stroke:#000000;stroke-width:2;stroke-linecap:square;stroke-linejoin:miter;stroke-miterlimit:4;stroke-dasharray:none;stroke-dashoffset:0;stroke-opacity:1"
     d="M 91.280235,91.841873 H 127.12326 V 103.31164 H 91.280235 Z"
     id="rect887" />
  <g
     aria-label="96"
     style="font-style:normal;font-weight:normal;font-size:32px;line-height:1.25;font-family:sans-serif;text-align:center;letter-spacing:0px;word-spacing:0px;text-anchor:middle;fill:#000000;fill-opacity:1;stroke:none"
     id="text891">
    <path
       d="m 168.95006,126.6013 q 0,3.04688 -0.70313,5.53125 -0.6875,2.48438 -2.09375,4.23438 -1.42187,1.78125 -3.5625,2.75 -2.14062,0.96875 -5.03125,0.96875 -0.8125,0 -1.53125,-0.0937 -0.71875,-0.0781 -1.28125,-0.26563 v -2.98437 h 0.15625 q 0.45313,0.23437 1.28125,0.45312 0.82813,0.20313 1.84375,0.20313 3.45313,0 5.40625,-2.0625 1.96875,-2.07813 2.28125,-5.71875 -1.45312,0.875 -2.73437,1.25 -1.28125,0.375 -2.79688,0.375 -1.4375,0 -2.60937,-0.28125 -1.15625,-0.28125 -2.32813,-1.09375 -1.375,-0.95313 -2.07812,-2.42188 -0.6875,-1.46875 -0.6875,-3.51562 0,-3.5625 2.34375,-5.79688 2.34375,-2.23437 5.71875,-2.23437 1.6875,0 3.125,0.53125 1.4375,0.51562 2.51562,1.5625 1.32813,1.29687 2.04688,3.34375 0.71875,2.03125 0.71875,5.26562 z m -3.15625,-0.67187 q 0,-2.42188 -0.5,-3.89063 -0.5,-1.46875 -1.375,-2.28125 -0.73438,-0.70312 -1.57813,-1 -0.84375,-0.3125 -1.82812,-0.3125 -2.25,0 -3.5625,1.40625 -1.29688,1.40625 -1.29688,3.95313 0,1.48437 0.42188,2.42187 0.42187,0.9375 1.42187,1.64063 0.70313,0.48437 1.54688,0.65625 0.84375,0.15625 1.875,0.15625 1.21875,0 2.46875,-0.32813 1.25,-0.32812 2.34375,-0.95312 0.0156,-0.32813 0.0312,-0.64063 0.0312,-0.32812 0.0312,-0.82812 z"
       style=""
       id="path986" />
    <path
       d="m 189.70006,132.08568 q 0,3.54687 -2.34375,5.79687 -2.32813,2.23438 -5.71875,2.23438 -1.71875,0 -3.125,-0.53125 -1.40625,-0.53125 -2.48438,-1.57813 -1.34375,-1.29687 -2.07812,-3.4375 -0.71875,-2.14062 -0.71875,-5.15625 0,-3.09375 0.65625,-5.48437 0.67187,-2.39063 2.125,-4.25 1.375,-1.76563 3.54687,-2.75 2.17188,-1 5.0625,-1 0.92188,0 1.54688,0.0781 0.625,0.0781 1.26562,0.28125 v 2.98438 h -0.15625 q -0.4375,-0.23438 -1.32812,-0.4375 -0.875,-0.21875 -1.79688,-0.21875 -3.35937,0 -5.35937,2.10937 -2,2.09375 -2.32813,5.67188 1.3125,-0.79688 2.57813,-1.20313 1.28125,-0.42187 2.95312,-0.42187 1.48438,0 2.60938,0.28125 1.14062,0.26562 2.32812,1.09375 1.375,0.95312 2.0625,2.40625 0.70313,1.45312 0.70313,3.53125 z m -3.17188,0.125 q 0,-1.45313 -0.4375,-2.40625 -0.42187,-0.95313 -1.40625,-1.65625 -0.71875,-0.5 -1.59375,-0.65625 -0.875,-0.15625 -1.82812,-0.15625 -1.32813,0 -2.46875,0.3125 -1.14063,0.3125 -2.34375,0.96875 -0.0312,0.34375 -0.0469,0.67187 -0.0156,0.3125 -0.0156,0.79688 0,2.46875 0.5,3.90625 0.51562,1.42187 1.40625,2.25 0.71875,0.6875 1.54687,1.01562 0.84375,0.3125 1.82813,0.3125 2.26562,0 3.5625,-1.375 1.29687,-1.39062 1.29687,-3.98437 z"
       style=""
       id="path988" />
  </g>
  <path
     style="fill:none;fill-opacity:0.33333333;fill-rule:evenodd;stroke:#000000;stroke-width:2;stroke-linecap:square;stroke-linejoin:miter;stroke-miterlimit:4;stroke-dasharray:none;stroke-dashoffset:0;stroke-opacity:1"
     d="m 153.40813,91.841873 h 35.84302 v 11.469767 h -35.84302 z"
     id="rect893" />
  <g
     aria-label="99"
     style="font-style:normal;font-weight:normal;font-size:32px;line-height:1.25;font-family:sans-serif;text-align:center;letter-spacing:0px;word-spacing:0px;text-anchor:middle;fill:#000000;fill-opacity:1;stroke:none"
     id="text897">
    <path
       d="m 231.55588,126.6013 q 0,3.04688 -0.70313,5.53125 -0.6875,2.48438 -2.09375,4.23438 -1.42187,1.78125 -3.5625,2.75 -2.14062,0.96875 -5.03125,0.96875 -0.8125,0 -1.53125,-0.0937 -0.71875,-0.0781 -1.28125,-0.26563 v -2.98437 h 0.15625 q 0.45313,0.23437 1.28125,0.45312 0.82813,0.20313 1.84375,0.20313 3.45313,0 5.40625,-2.0625 1.96875,-2.07813 2.28125,-5.71875 -1.45312,0.875 -2.73437,1.25 -1.28125,0.375 -2.79688,0.375 -1.4375,0 -2.60937,-0.28125 -1.15625,-0.28125 -2.32813,-1.09375 -1.375,-0.95313 -2.07812,-2.42188 -0.6875,-1.46875 -0.6875,-3.51562 0,-3.5625 2.34375,-5.79688 2.34375,-2.23437 5.71875,-2.23437 1.6875,0 3.125,0.53125 1.4375,0.51562 2.51562,1.5625 1.32813,1.29687 2.04688,3.34375 0.71875,2.03125 0.71875,5.26562 z m -3.15625,-0.67187 q 0,-2.42188 -0.5,-3.89063 -0.5,-1.46875 -1.375,-2.28125 -0.73438,-0.70312 -1.57813,-1 -0.84375,-0.3125 -1.82812,-0.3125 -2.25,0 -3.5625,1.40625 -1.29688,1.40625 -1.29688,3.95313 0,1.48437 0.42188,2.42187 0.42187,0.9375 1.42187,1.64063 0.70313,0.48437 1.54688,0.65625 0.84375,0.15625 1.875,0.15625 1.21875,0 2.46875,-0.32813 1.25,-0.32812 2.34375,-0.95312 0.0156,-0.32813 0.0312,-0.64063 0.0312,-0.32812 0.0312,-0.82812 z"
       style=""
       id="path992" />
    <path
       d="m 251.93088,126.6013 q 0,3.04688 -0.70313,5.53125 -0.6875,2.48438 -2.09375,4.23438 -1.42187,1.78125 -3.5625,2.75 -2.14062,0.96875 -5.03125,0.96875 -0.8125,0 -1.53125,-0.0937 -0.71875,-0.0781 -1.28125,-0.26563 v -2.98437 h 0.15625 q 0.45313,0.23437 1.28125,0.45312 0.82813,0.20313 1.84375,0.20313 3.45313,0 5.40625,-2.0625 1.96875,-2.07813 2.28125,-5.71875 -1.45312,0.875 -2.73437,1.25 -1.28125,0.375 -2.79688,0.375 -1.4375,0 -2.60937,-0.28125 -1.15625,-0.28125 -2.32813,-1.09375 -1.375,-0.95313 -2.07812,-2.42188 -0.6875,-1.46875 -0.6875,-3.51562 0,-3.5625 2.34375,-5.79688 2.34375,-2.23437 5.71875,-2.23437 1.6875,0 3.125,0.53125 1.4375,0.51562 2.51562,1.5625 1.32813,1.29687 2.04688,3.34375 0.71875,2.03125 0.71875,5.26562 z m -3.15625,-0.67187 q 0,-2.42188 -0.5,-3.89063 -0.5,-1.46875 -1.375,-2.28125 -0.73438,-0.70312 -1.57813,-1 -0.84375,-0.3125 -1.82812,-0.3125 -2.25,0 -3.5625,1.40625 -1.29688,1.40625 -1.29688,3.95313 0,1.48437 0.42188,2.42187 0.42187,0.9375 1.42187,1.64063 0.70313,0.48437 1.54688,0.65625 0.84375,0.15625 1.875,0.15625 1.21875,0 2.46875,-0.32813 1.25,-0.32812 2.34375,-0.95312 0.0156,-0.32813 0.0312,-0.64063 0.0312,-0.32812 0.0312,-0.82812 z"
       style=""
       id="path994" />
  </g>
  <path
     style="fill:none;fill-opacity:0.33333333;fill-rule:evenodd;stroke:#000000;stroke-width:2;stroke-linecap:square;stroke-linejoin:miter;stroke-miterlimit:4;stroke-dasharray:none;stroke-dashoffset:0;stroke-opacity:1"
     d="m 216.01395,91.841873 h 35.84302 v 11.469767 h -35.84302 z"
     id="rect899" />
  <g
     aria-label="76"
     style="font-style:normal;font-weight:normal;font-size:32px;line-height:1.25;font-family:sans-serif;text-align:center;letter-spacing:0px;word-spacing:0px;text-anchor:middle;fill:#000000;fill-opacity:1;stroke:none"
     id="text903">
    <path
       d="m 44.310097,181.9792 -10.53125,19.78125 h -3.34375 L 41.638222,181.2292 h -13.25 v -2.73437 h 15.921875 z"
       style=""
       id="path998" />
    <path
       d="m 64.966347,194.21358 q 0,3.54687 -2.34375,5.79687 -2.328125,2.23438 -5.71875,2.23438 -1.71875,0 -3.125,-0.53125 -1.40625,-0.53125 -2.484375,-1.57813 -1.34375,-1.29687 -2.078125,-3.4375 -0.71875,-2.14062 -0.71875,-5.15625 0,-3.09375 0.65625,-5.48437 0.671875,-2.39063 2.125,-4.25 1.375,-1.76563 3.546875,-2.75 2.171875,-1 5.0625,-1 0.921875,0 1.546875,0.0781 0.625,0.0781 1.265625,0.28125 v 2.98438 h -0.15625 q -0.4375,-0.23438 -1.328125,-0.4375 -0.875,-0.21875 -1.796875,-0.21875 -3.359375,0 -5.359375,2.10937 -2,2.09375 -2.328125,5.67188 1.3125,-0.79688 2.578125,-1.20313 1.28125,-0.42187 2.953125,-0.42187 1.484375,0 2.609375,0.28125 1.140625,0.26562 2.328125,1.09375 1.375,0.95312 2.0625,2.40625 0.703125,1.45312 0.703125,3.53125 z m -3.171875,0.125 q 0,-1.45313 -0.4375,-2.40625 -0.421875,-0.95313 -1.40625,-1.65625 -0.71875,-0.5 -1.59375,-0.65625 -0.875,-0.15625 -1.828125,-0.15625 -1.328125,0 -2.46875,0.3125 -1.140625,0.3125 -2.34375,0.96875 -0.03125,0.34375 -0.04687,0.67187 -0.01563,0.3125 -0.01563,0.79688 0,2.46875 0.5,3.90625 0.515625,1.42187 1.40625,2.25 0.71875,0.6875 1.546875,1.01562 0.84375,0.3125 1.828125,0.3125 2.265625,0 3.5625,-1.375 1.296875,-1.39062 1.296875,-3.98437 z"
       style=""
       id="path1000" />
  </g>
  <path
     style="fill:none;fill-opacity:0.33333333;fill-rule:evenodd;stroke:#000000;stroke-width:2;stroke-linecap:square;stroke-linejoin:miter;stroke-miterlimit:4;stroke-dasharray:none;stroke-dashoffset:0;stroke-opacity:1"
     d="m 28.674417,153.96977 h 35.843022 v 11.46977 H 28.674417 Z"
     id="rect905" />
  <g
     aria-label="61"
     style="font-style:normal;font-weight:normal;font-size:32px;line-height:1.25;font-family:sans-serif;text-align:center;letter-spacing:0px;word-spacing:0px;text-anchor:middle;fill:#000000;fill-opacity:1;stroke:none"
     id="text909">
    <path
       d="m 107.19717,194.21358 q 0,3.54687 -2.34375,5.79687 -2.32813,2.23438 -5.718754,2.23438 -1.71875,0 -3.125,-0.53125 -1.40625,-0.53125 -2.484375,-1.57813 -1.34375,-1.29687 -2.078125,-3.4375 -0.71875,-2.14062 -0.71875,-5.15625 0,-3.09375 0.65625,-5.48437 0.671875,-2.39063 2.125,-4.25 1.375,-1.76563 3.546875,-2.75 2.171875,-1 5.062499,-1 0.92188,0 1.54688,0.0781 0.625,0.0781 1.26562,0.28125 v 2.98438 h -0.15625 q -0.4375,-0.23438 -1.32812,-0.4375 -0.875,-0.21875 -1.79688,-0.21875 -3.359374,0 -5.359374,2.10937 -2,2.09375 -2.328125,5.67188 1.3125,-0.79688 2.578125,-1.20313 1.28125,-0.42187 2.953125,-0.42187 1.484379,0 2.609379,0.28125 1.14062,0.26562 2.32812,1.09375 1.375,0.95312 2.0625,2.40625 0.70313,1.45312 0.70313,3.53125 z m -3.17188,0.125 q 0,-1.45313 -0.4375,-2.40625 -0.42187,-0.95313 -1.40625,-1.65625 -0.71875,-0.5 -1.59375,-0.65625 -0.874999,-0.15625 -1.828124,-0.15625 -1.328125,0 -2.46875,0.3125 -1.140625,0.3125 -2.34375,0.96875 -0.03125,0.34375 -0.04687,0.67187 -0.01563,0.3125 -0.01563,0.79688 0,2.46875 0.5,3.90625 0.515625,1.42187 1.40625,2.25 0.71875,0.6875 1.546875,1.01562 0.84375,0.3125 1.828125,0.3125 2.265624,0 3.562504,-1.375 1.29687,-1.39062 1.29687,-3.98437 z"
       style=""
       id="path1004" />
    <path
       d="m 125.90029,201.76045 h -12.59375 v -2.375 h 4.84375 V 183.7917 h -4.84375 v -2.125 q 0.98438,0 2.10938,-0.15625 1.125,-0.17187 1.70312,-0.48437 0.71875,-0.39063 1.125,-0.98438 0.42188,-0.60937 0.48438,-1.625 h 2.42187 v 20.96875 h 4.75 z"
       style=""
       id="path1006" />
  </g>
  <path
     style="fill:none;fill-opacity:0.33333333;fill-rule:evenodd;stroke:#000000;stroke-width:2;stroke-linecap:square;stroke-linejoin:miter;stroke-miterlimit:4;stroke-dasharray:none;stroke-dashoffset:0;stroke-opacity:1"
     d="m 91.280235,153.96977 h 35.843025 v 11.46977 H 91.280235 Z"
     id="rect911" />
  <g
     aria-label="40"
     style="font-style:normal;font-weight:normal;font-size:32px;line-height:1.25;font-family:sans-serif;text-align:center;letter-spacing:0px;word-spacing:0px;text-anchor:middle;fill:#000000;fill-opacity:1;stroke:none"
     id="text915">
    <path
       d="m 169.51256,195.21358 h -3.45313 v 6.54687 h -3 v -6.54687 h -11.14062 v -3.59375 l 11.26562,-13.125 h 2.875 v 14.21875 h 3.45313 z m -6.45313,-2.5 v -10.5 l -9.01562,10.5 z"
       style=""
       id="path1010" />
    <path
       d="m 189.32506,190.11983 q 0,6.26562 -1.96875,9.20312 -1.95313,2.92188 -6.07813,2.92188 -4.1875,0 -6.125,-2.96875 -1.92187,-2.96875 -1.92187,-9.125 0,-6.20313 1.95312,-9.15625 1.95313,-2.96875 6.09375,-2.96875 4.1875,0 6.10938,3.01562 1.9375,3 1.9375,9.07813 z m -4.10938,7.09375 q 0.54688,-1.26563 0.73438,-2.96875 0.20312,-1.71875 0.20312,-4.125 0,-2.375 -0.20312,-4.125 -0.1875,-1.75 -0.75,-2.96875 -0.54688,-1.20313 -1.5,-1.8125 -0.9375,-0.60938 -2.42188,-0.60938 -1.46875,0 -2.4375,0.60938 -0.95312,0.60937 -1.51562,1.84375 -0.53125,1.15625 -0.73438,3.01562 -0.1875,1.85938 -0.1875,4.07813 0,2.4375 0.17188,4.07812 0.17187,1.64063 0.73437,2.9375 0.51563,1.21875 1.45313,1.85938 0.95312,0.64062 2.51562,0.64062 1.46875,0 2.4375,-0.60937 0.96875,-0.60938 1.5,-1.84375 z"
       style=""
       id="path1012" />
  </g>
  <path
     style="fill:none;fill-opacity:0.33333333;fill-rule:evenodd;stroke:#000000;stroke-width:2;stroke-linecap:square;stroke-linejoin:miter;stroke-miterlimit:4;stroke-dasharray:none;stroke-dashoffset:0;stroke-opacity:1"
     d="m 153.40813,153.96977 h 35.84302 v 11.46977 h -35.84302 z"
     id="rect917" />
  <g
     aria-label="91"
     style="font-style:normal;font-weight:normal;font-size:32px;line-height:1.25;font-family:sans-serif;text-align:center;letter-spacing:0px;word-spacing:0px;text-anchor:middle;fill:#000000;fill-opacity:1;stroke:none"
     id="text921">
    <path
       d="m 231.55588,188.7292 q 0,3.04688 -0.70313,5.53125 -0.6875,2.48438 -2.09375,4.23438 -1.42187,1.78125 -3.5625,2.75 -2.14062,0.96875 -5.03125,0.96875 -0.8125,0 -1.53125,-0.0937 -0.71875,-0.0781 -1.28125,-0.26563 v -2.98437 h 0.15625 q 0.45313,0.23437 1.28125,0.45312 0.82813,0.20313 1.84375,0.20313 3.45313,0 5.40625,-2.0625 1.96875,-2.07813 2.28125,-5.71875 -1.45312,0.875 -2.73437,1.25 -1.28125,0.375 -2.79688,0.375 -1.4375,0 -2.60937,-0.28125 -1.15625,-0.28125 -2.32813,-1.09375 -1.375,-0.95313 -2.07812,-2.42188 -0.6875,-1.46875 -0.6875,-3.51562 0,-3.5625 2.34375,-5.79688 2.34375,-2.23437 5.71875,-2.23437 1.6875,0 3.125,0.53125 1.4375,0.51562 2.51562,1.5625 1.32813,1.29687 2.04688,3.34375 0.71875,2.03125 0.71875,5.26562 z m -3.15625,-0.67187 q 0,-2.42188 -0.5,-3.89063 -0.5,-1.46875 -1.375,-2.28125 -0.73438,-0.70312 -1.57813,-1 -0.84375,-0.3125 -1.82812,-0.3125 -2.25,0 -3.5625,1.40625 -1.29688,1.40625 -1.29688,3.95313 0,1.48437 0.42188,2.42187 0.42187,0.9375 1.42187,1.64063 0.70313,0.48437 1.54688,0.65625 0.84375,0.15625 1.875,0.15625 1.21875,0 2.46875,-0.32813 1.25,-0.32812 2.34375,-0.95312 0.0156,-0.32813 0.0312,-0.64063 0.0312,-0.32812 0.0312,-0.82812 z"
       style=""
       id="path1016" />
    <path
       d="m 250.634,201.76045 h -12.59375 v -2.375 H 242.884 V 183.7917 h -4.84375 v -2.125 q 0.98438,0 2.10938,-0.15625 1.125,-0.17187 1.70312,-0.48437 0.71875,-0.39063 1.125,-0.98438 0.42188,-0.60937 0.48438,-1.625 h 2.42187 v 20.96875 h 4.75 z"
       style=""
       id="path1018" />
  </g>
  <path
     style="fill:none;fill-opacity:0.33333333;fill-rule:evenodd;stroke:#000000;stroke-width:2;stroke-linecap:square;stroke-linejoin:miter;stroke-miterlimit:4;stroke-dasharray:none;stroke-dashoffset:0;stroke-opacity:1"
     d="m 216.01395,153.96977 h 35.84302 v 11.46977 h -35.84302 z"
     id="rect923" />
  <g
     aria-label="10"
     style="font-style:normal;font-weight:normal;font-size:32px;line-height:1.25;font-family:sans-serif;text-align:center;letter-spacing:0px;word-spacing:0px;text-anchor:middle;fill:#000000;fill-opacity:1;stroke:none"
     id="text927">
    <path
       d="m 42.919472,263.41046 h -12.59375 v -2.375 h 4.84375 v -15.59375 h -4.84375 v -2.125 q 0.984375,0 2.109375,-0.15625 1.125,-0.17187 1.703125,-0.48437 0.71875,-0.39063 1.125,-0.98438 0.421875,-0.60937 0.484375,-1.625 h 2.421875 v 20.96875 h 4.75 z"
       style=""
       id="path1022" />
    <path
       d="m 64.591347,251.76984 q 0,6.26562 -1.96875,9.20312 -1.953125,2.92188 -6.078125,2.92188 -4.1875,0 -6.125,-2.96875 -1.921875,-2.96875 -1.921875,-9.125 0,-6.20313 1.953125,-9.15625 1.953125,-2.96875 6.09375,-2.96875 4.1875,0 6.109375,3.01562 1.9375,3 1.9375,9.07813 z m -4.109375,7.09375 q 0.546875,-1.26563 0.734375,-2.96875 0.203125,-1.71875 0.203125,-4.125 0,-2.375 -0.203125,-4.125 -0.1875,-1.75 -0.75,-2.96875 -0.546875,-1.20313 -1.5,-1.8125 -0.9375,-0.60938 -2.421875,-0.60938 -1.46875,0 -2.4375,0.60938 -0.953125,0.60937 -1.515625,1.84375 -0.53125,1.15625 -0.734375,3.01562 -0.1875,1.85938 -0.1875,4.07813 0,2.4375 0.171875,4.07812 0.171875,1.64063 0.734375,2.9375 0.515625,1.21875 1.453125,1.85938 0.953125,0.64062 2.515625,0.64062 1.46875,0 2.4375,-0.60937 0.96875,-0.60938 1.5,-1.84375 z"
       style=""
       id="path1024" />
  </g>
  <path
     style="fill:none;fill-opacity:0.33333333;fill-rule:evenodd;stroke:#000000;stroke-width:2;stroke-linecap:square;stroke-linejoin:miter;stroke-miterlimit:4;stroke-dasharray:none;stroke-dashoffset:0;stroke-opacity:1"
     d="m 28.674417,215.61977 h 35.843022 v 11.46976 H 28.674417 Z"
     id="rect929" />
  <g
     aria-label="75"
     style="font-style:normal;font-weight:normal;font-size:32px;line-height:1.25;font-family:sans-serif;text-align:center;letter-spacing:0px;word-spacing:0px;text-anchor:middle;fill:#000000;fill-opacity:1;stroke:none"
     id="text933">
    <path
       d="m 106.91592,243.62921 -10.531254,19.78125 h -3.34375 L 104.24404,242.87921 H 90.994041 v -2.73437 h 15.921879 z"
       style=""
       id="path1028" />
    <path
       d="m 127.04092,256.01984 q 0,1.625 -0.59375,3.10937 -0.59375,1.48438 -1.625,2.5 -1.125,1.09375 -2.6875,1.6875 -1.54688,0.57813 -3.59375,0.57813 -1.90625,0 -3.67188,-0.40625 -1.76562,-0.39063 -2.98437,-0.95313 v -3.29687 h 0.21875 q 1.28125,0.8125 3,1.39062 1.71875,0.5625 3.375,0.5625 1.10937,0 2.14062,-0.3125 1.04688,-0.3125 1.85938,-1.09375 0.6875,-0.67187 1.03125,-1.60937 0.35937,-0.9375 0.35937,-2.17188 0,-1.20312 -0.42187,-2.03125 -0.40625,-0.82812 -1.14063,-1.32812 -0.8125,-0.59375 -1.98437,-0.82813 -1.15625,-0.25 -2.59375,-0.25 -1.375,0 -2.65625,0.1875 -1.26563,0.1875 -2.1875,0.375 v -11.98437 h 14 v 2.73437 h -10.98438 v 6.1875 q 0.67188,-0.0625 1.375,-0.0937 0.70313,-0.0312 1.21875,-0.0312 1.89063,0 3.3125,0.32813 1.42188,0.3125 2.60938,1.125 1.25,0.85937 1.9375,2.21875 0.6875,1.35937 0.6875,3.40625 z"
       style=""
       id="path1030" />
  </g>
  <path
     style="fill:none;fill-opacity:0.33333333;fill-rule:evenodd;stroke:#000000;stroke-width:2;stroke-linecap:square;stroke-linejoin:miter;stroke-miterlimit:4;stroke-dasharray:none;stroke-dashoffset:0;stroke-opacity:1"
     d="m 91.280235,215.61977 h 35.843025 v 11.46976 H 91.280235 Z"
     id="rect935" />
  <g
     aria-label="20"
     style="font-style:normal;font-weight:normal;font-size:32px;line-height:1.25;font-family:sans-serif;text-align:center;letter-spacing:0px;word-spacing:0px;text-anchor:middle;fill:#000000;fill-opacity:1;stroke:none"
     id="text939">
    <path
       d="m 168.98131,263.41046 h -15.75 v -3.26562 q 1.64062,-1.40625 3.28125,-2.8125 1.65625,-1.40625 3.07812,-2.79688 3,-2.90625 4.10938,-4.60937 1.10937,-1.71875 1.10937,-3.70313 0,-1.8125 -1.20312,-2.82812 -1.1875,-1.03125 -3.32813,-1.03125 -1.42187,0 -3.07812,0.5 -1.65625,0.5 -3.23438,1.53125 h -0.15625 v -3.28125 q 1.10938,-0.54688 2.95313,-1 1.85937,-0.45313 3.59375,-0.45313 3.57812,0 5.60937,1.73438 2.03125,1.71875 2.03125,4.67187 0,1.32813 -0.34375,2.48438 -0.32812,1.14062 -0.98437,2.17187 -0.60938,0.96875 -1.4375,1.90625 -0.8125,0.9375 -1.98438,2.07813 -1.67187,1.64062 -3.45312,3.1875 -1.78125,1.53125 -3.32813,2.84375 h 12.51563 z"
       style=""
       id="path1034" />
    <path
       d="m 189.32506,251.76984 q 0,6.26562 -1.96875,9.20312 -1.95313,2.92188 -6.07813,2.92188 -4.1875,0 -6.125,-2.96875 -1.92187,-2.96875 -1.92187,-9.125 0,-6.20313 1.95312,-9.15625 1.95313,-2.96875 6.09375,-2.96875 4.1875,0 6.10938,3.01562 1.9375,3 1.9375,9.07813 z m -4.10938,7.09375 q 0.54688,-1.26563 0.73438,-2.96875 0.20312,-1.71875 0.20312,-4.125 0,-2.375 -0.20312,-4.125 -0.1875,-1.75 -0.75,-2.96875 -0.54688,-1.20313 -1.5,-1.8125 -0.9375,-0.60938 -2.42188,-0.60938 -1.46875,0 -2.4375,0.60938 -0.95312,0.60937 -1.51562,1.84375 -0.53125,1.15625 -0.73438,3.01562 -0.1875,1.85938 -0.1875,4.07813 0,2.4375 0.17188,4.07812 0.17187,1.64063 0.73437,2.9375 0.51563,1.21875 1.45313,1.85938 0.95312,0.64062 2.51562,0.64062 1.46875,0 2.4375,-0.60937 0.96875,-0.60938 1.5,-1.84375 z"
       style=""
       id="path1036" />
  </g>
  <path
     style="fill:none;fill-opacity:0.33333333;fill-rule:evenodd;stroke:#000000;stroke-width:2;stroke-linecap:square;stroke-linejoin:miter;stroke-miterlimit:4;stroke-dasharray:none;stroke-dashoffset:0;stroke-opacity:1"
     d="m 153.40813,215.61977 h 35.84302 v 11.46976 h -35.84302 z"
     id="rect941" />
  <g
     aria-label="32"
     style="font-style:normal;font-weight:normal;font-size:32px;line-height:1.25;font-family:sans-serif;text-align:center;letter-spacing:0px;word-spacing:0px;text-anchor:middle;fill:#000000;fill-opacity:1;stroke:none"
     id="text945">
    <path
       d="m 229.54025,252.20734 q 0.75,0.67187 1.23438,1.6875 0.48437,1.01562 0.48437,2.625 0,1.59375 -0.57812,2.92187 -0.57813,1.32813 -1.625,2.3125 -1.17188,1.09375 -2.76563,1.625 -1.57812,0.51563 -3.46875,0.51563 -1.9375,0 -3.8125,-0.46875 -1.875,-0.45313 -3.07812,-1 v -3.26563 h 0.23437 q 1.32813,0.875 3.125,1.45313 1.79688,0.57812 3.46875,0.57812 0.98438,0 2.09375,-0.32812 1.10938,-0.32813 1.79688,-0.96875 0.71875,-0.6875 1.0625,-1.51563 0.35937,-0.82812 0.35937,-2.09375 0,-1.25 -0.40625,-2.0625 -0.39062,-0.82812 -1.09375,-1.29687 -0.70312,-0.48438 -1.70312,-0.65625 -1,-0.1875 -2.15625,-0.1875 h -1.40625 v -2.59375 h 1.09375 q 2.375,0 3.78125,-0.98438 1.42187,-1 1.42187,-2.90625 0,-0.84375 -0.35937,-1.46875 -0.35938,-0.64062 -1,-1.04687 -0.67188,-0.40625 -1.4375,-0.5625 -0.76563,-0.15625 -1.73438,-0.15625 -1.48437,0 -3.15625,0.53125 -1.67187,0.53125 -3.15625,1.5 h -0.15625 v -3.26563 q 1.10938,-0.54687 2.95313,-1 1.85937,-0.46875 3.59375,-0.46875 1.70312,0 3,0.3125 1.29687,0.3125 2.34375,1 1.125,0.75 1.70312,1.8125 0.57813,1.0625 0.57813,2.48438 0,1.9375 -1.375,3.39062 -1.35938,1.4375 -3.21875,1.8125 v 0.21875 q 0.75,0.125 1.71875,0.53125 0.96875,0.39063 1.64062,0.98438 z"
       style=""
       id="path1040" />
    <path
       d="m 251.96213,263.41046 h -15.75 v -3.26562 q 1.64062,-1.40625 3.28125,-2.8125 1.65625,-1.40625 3.07812,-2.79688 3,-2.90625 4.10938,-4.60937 1.10937,-1.71875 1.10937,-3.70313 0,-1.8125 -1.20312,-2.82812 -1.1875,-1.03125 -3.32813,-1.03125 -1.42187,0 -3.07812,0.5 -1.65625,0.5 -3.23438,1.53125 h -0.15625 v -3.28125 q 1.10938,-0.54688 2.95313,-1 1.85937,-0.45313 3.59375,-0.45313 3.57812,0 5.60937,1.73438 2.03125,1.71875 2.03125,4.67187 0,1.32813 -0.34375,2.48438 -0.32812,1.14062 -0.98437,2.17187 -0.60938,0.96875 -1.4375,1.90625 -0.8125,0.9375 -1.98438,2.07813 -1.67187,1.64062 -3.45312,3.1875 -1.78125,1.53125 -3.32813,2.84375 h 12.51563 z"
       style=""
       id="path1042" />
  </g>
  <path
     style="fill:none;fill-opacity:0.33333333;fill-rule:evenodd;stroke:#000000;stroke-width:2;stroke-linecap:square;stroke-linejoin:miter;stroke-miterlimit:4;stroke-dasharray:none;stroke-dashoffset:0;stroke-opacity:1"
     d="m 216.01395,215.61977 h 35.84302 v 11.46976 h -35.84302 z"
     id="rect947" />
  <g
     aria-label="42"
     style="font-style:normal;font-weight:normal;font-size:32px;line-height:1.25;font-family:sans-serif;text-align:center;letter-spacing:0px;word-spacing:0px;text-anchor:middle;fill:#000000;fill-opacity:1;stroke:none"
     id="text951">
    <path
       d="m 44.778847,318.99149 h -3.453125 v 6.54687 h -3 v -6.54687 H 27.185097 v -3.59375 l 11.265625,-13.125 h 2.875 v 14.21875 h 3.453125 z m -6.453125,-2.5 v -10.5 l -9.015625,10.5 z"
       style=""
       id="path1046" />
    <path
       d="m 64.622597,325.53836 h -15.75 v -3.26562 q 1.640625,-1.40625 3.28125,-2.8125 1.65625,-1.40625 3.078125,-2.79688 3,-2.90625 4.109375,-4.60937 1.109375,-1.71875 1.109375,-3.70313 0,-1.8125 -1.203125,-2.82812 -1.1875,-1.03125 -3.328125,-1.03125 -1.421875,0 -3.078125,0.5 -1.65625,0.5 -3.234375,1.53125 h -0.15625 v -3.28125 q 1.109375,-0.54688 2.953125,-1 1.859375,-0.45313 3.59375,-0.45313 3.578125,0 5.609375,1.73438 2.03125,1.71875 2.03125,4.67187 0,1.32813 -0.34375,2.48438 -0.328125,1.14062 -0.984375,2.17187 -0.609375,0.96875 -1.4375,1.90625 -0.8125,0.9375 -1.984375,2.07813 -1.671875,1.64062 -3.453125,3.1875 -1.78125,1.53125 -3.328125,2.84375 h 12.515625 z"
       style=""
       id="path1048" />
  </g>
  <path
     style="fill:none;fill-opacity:0.33333333;fill-rule:evenodd;stroke:#000000;stroke-width:2;stroke-linecap:square;stroke-linejoin:miter;stroke-miterlimit:4;stroke-dasharray:none;stroke-dashoffset:0;stroke-opacity:1"
     d="m 28.674417,277.74768 h 35.843022 v 11.46977 H 28.674417 Z"
     id="rect953" />
  <g
     aria-label="81"
     style="font-style:normal;font-weight:normal;font-size:32px;line-height:1.25;font-family:sans-serif;text-align:center;letter-spacing:0px;word-spacing:0px;text-anchor:middle;fill:#000000;fill-opacity:1;stroke:none"
     id="text957">
    <path
       d="m 107.02529,319.05399 q 0,3.01562 -2.35937,5.01562 -2.34375,2 -5.906254,2 -3.78125,0 -6.03125,-1.95312 -2.234375,-1.95313 -2.234375,-5 0,-1.9375 1.125,-3.5 1.125,-1.57813 3.171875,-2.5 v -0.0937 q -1.875,-1 -2.78125,-2.1875 -0.890625,-1.1875 -0.890625,-2.96875 0,-2.625 2.15625,-4.375 2.15625,-1.75 5.484375,-1.75 3.484374,0 5.562504,1.67187 2.07812,1.67188 2.07812,4.25 0,1.57813 -0.98437,3.10938 -0.98438,1.51562 -2.89063,2.375 v 0.0937 q 2.1875,0.9375 3.34375,2.3125 1.15625,1.375 1.15625,3.5 z m -3.70312,-11.35938 q 0,-1.67187 -1.29688,-2.65625 -1.28125,-1 -3.281249,-1 -1.96875,0 -3.234375,0.9375 -1.25,0.9375 -1.25,2.53125 0,1.125 0.625,1.95313 0.640625,0.8125 1.921875,1.45312 0.578125,0.28125 1.65625,0.73438 1.09375,0.45312 2.124999,0.75 1.54688,-1.03125 2.14063,-2.14063 0.59375,-1.10937 0.59375,-2.5625 z m 0.48437,11.65625 q 0,-1.4375 -0.64062,-2.29687 -0.625,-0.875 -2.46875,-1.75 -0.734379,-0.34375 -1.609379,-0.64063 -0.875,-0.29687 -2.328125,-0.82812 -1.40625,0.76562 -2.265625,2.07812 -0.84375,1.3125 -0.84375,2.96875 0,2.10938 1.453125,3.48438 1.453125,1.375 3.6875,1.375 2.281254,0 3.640624,-1.17188 1.375,-1.17187 1.375,-3.21875 z"
       style=""
       id="path1052" />
    <path
       d="m 125.90029,325.53836 h -12.59375 v -2.375 h 4.84375 v -15.59375 h -4.84375 v -2.125 q 0.98438,0 2.10938,-0.15625 1.125,-0.17187 1.70312,-0.48437 0.71875,-0.39063 1.125,-0.98438 0.42188,-0.60937 0.48438,-1.625 h 2.42187 v 20.96875 h 4.75 z"
       style=""
       id="path1054" />
  </g>
  <path
     style="fill:none;fill-opacity:0.33333333;fill-rule:evenodd;stroke:#000000;stroke-width:2;stroke-linecap:square;stroke-linejoin:miter;stroke-miterlimit:4;stroke-dasharray:none;stroke-dashoffset:0;stroke-opacity:1"
     d="m 91.280235,277.74768 h 35.843025 v 11.46977 H 91.280235 Z"
     id="rect959" />
  <g
     aria-label="51"
     style="font-style:normal;font-weight:normal;font-size:32px;line-height:1.25;font-family:sans-serif;text-align:center;letter-spacing:0px;word-spacing:0px;text-anchor:middle;fill:#000000;fill-opacity:1;stroke:none"
     id="text963">
    <path
       d="m 168.79381,318.14774 q 0,1.625 -0.59375,3.10937 -0.59375,1.48438 -1.625,2.5 -1.125,1.09375 -2.6875,1.6875 -1.54688,0.57813 -3.59375,0.57813 -1.90625,0 -3.67188,-0.40625 -1.76562,-0.39063 -2.98437,-0.95313 v -3.29687 h 0.21875 q 1.28125,0.8125 3,1.39062 1.71875,0.5625 3.375,0.5625 1.10937,0 2.14062,-0.3125 1.04688,-0.3125 1.85938,-1.09375 0.6875,-0.67187 1.03125,-1.60937 0.35937,-0.9375 0.35937,-2.17188 0,-1.20312 -0.42187,-2.03125 -0.40625,-0.82812 -1.14063,-1.32812 -0.8125,-0.59375 -1.98437,-0.82813 -1.15625,-0.25 -2.59375,-0.25 -1.375,0 -2.65625,0.1875 -1.26563,0.1875 -2.1875,0.375 v -11.98437 h 14 v 2.73437 h -10.98438 v 6.1875 q 0.67188,-0.0625 1.375,-0.0937 0.70313,-0.0312 1.21875,-0.0312 1.89063,0 3.3125,0.32813 1.42188,0.3125 2.60938,1.125 1.25,0.85937 1.9375,2.21875 0.6875,1.35937 0.6875,3.40625 z"
       style=""
       id="path1058" />
    <path
       d="m 188.02818,325.53836 h -12.59375 v -2.375 h 4.84375 v -15.59375 h -4.84375 v -2.125 q 0.98438,0 2.10938,-0.15625 1.125,-0.17187 1.70312,-0.48437 0.71875,-0.39063 1.125,-0.98438 0.42188,-0.60937 0.48438,-1.625 h 2.42187 v 20.96875 h 4.75 z"
       style=""
       id="path1060" />
  </g>
  <path
     style="fill:none;fill-opacity:0.33333333;fill-rule:evenodd;stroke:#000000;stroke-width:2;stroke-linecap:square;stroke-linejoin:miter;stroke-miterlimit:4;stroke-dasharray:none;stroke-dashoffset:0;stroke-opacity:1"
     d="m 153.40813,277.74768 h 35.84302 v 11.46977 h -35.84302 z"
     id="rect965" />
  <g
     aria-label="16"
     style="font-style:normal;font-weight:normal;font-size:32px;line-height:1.25;font-family:sans-serif;text-align:center;letter-spacing:0px;word-spacing:0px;text-anchor:middle;fill:#000000;fill-opacity:1;stroke:none"
     id="text969">
    <path
       d="m 230.259,325.53836 h -12.59375 v -2.375 h 4.84375 v -15.59375 h -4.84375 v -2.125 q 0.98438,0 2.10938,-0.15625 1.125,-0.17187 1.70312,-0.48437 0.71875,-0.39063 1.125,-0.98438 0.42188,-0.60937 0.48438,-1.625 h 2.42187 v 20.96875 h 4.75 z"
       style=""
       id="path1064" />
    <path
       d="m 252.30588,317.99149 q 0,3.54687 -2.34375,5.79687 -2.32813,2.23438 -5.71875,2.23438 -1.71875,0 -3.125,-0.53125 -1.40625,-0.53125 -2.48438,-1.57813 -1.34375,-1.29687 -2.07812,-3.4375 -0.71875,-2.14062 -0.71875,-5.15625 0,-3.09375 0.65625,-5.48437 0.67187,-2.39063 2.125,-4.25 1.375,-1.76563 3.54687,-2.75 2.17188,-1 5.0625,-1 0.92188,0 1.54688,0.0781 0.625,0.0781 1.26562,0.28125 v 2.98438 H 249.884 q -0.4375,-0.23438 -1.32812,-0.4375 -0.875,-0.21875 -1.79688,-0.21875 -3.35937,0 -5.35937,2.10937 -2,2.09375 -2.32813,5.67188 1.3125,-0.79688 2.57813,-1.20313 1.28125,-0.42187 2.95312,-0.42187 1.48438,0 2.60938,0.28125 1.14062,0.26562 2.32812,1.09375 1.375,0.95312 2.0625,2.40625 0.70313,1.45312 0.70313,3.53125 z m -3.17188,0.125 q 0,-1.45313 -0.4375,-2.40625 -0.42187,-0.95313 -1.40625,-1.65625 -0.71875,-0.5 -1.59375,-0.65625 -0.875,-0.15625 -1.82812,-0.15625 -1.32813,0 -2.46875,0.3125 -1.14063,0.3125 -2.34375,0.96875 -0.0312,0.34375 -0.0469,0.67187 -0.0156,0.3125 -0.0156,0.79688 0,2.46875 0.5,3.90625 0.51562,1.42187 1.40625,2.25 0.71875,0.6875 1.54687,1.01562 0.84375,0.3125 1.82813,0.3125 2.26562,0 3.5625,-1.375 1.29687,-1.39062 1.29687,-3.98437 z"
       style=""
       id="path1066" />
  </g>
  <path
     style="fill:none;fill-opacity:0.33333333;fill-rule:evenodd;stroke:#000000;stroke-width:2;stroke-linecap:square;stroke-linejoin:miter;stroke-miterlimit:4;stroke-dasharray:none;stroke-dashoffset:0;stroke-opacity:1"
     d="m 216.01395,277.74768 h 35.84302 v 11.46977 h -35.84302 z"
     id="rect971" />
</svg>
