<?xml version="1.0" encoding="UTF-8" standalone="no"?>
<svg
   xmlns:dc="http://purl.org/dc/elements/1.1/"
   xmlns:cc="http://creativecommons.org/ns#"
   xmlns:rdf="http://www.w3.org/1999/02/22-rdf-syntax-ns#"
   xmlns:svg="http://www.w3.org/2000/svg"
   xmlns="http://www.w3.org/2000/svg"
   xmlns:xlink="http://www.w3.org/1999/xlink"
   xmlns:sodipodi="http://sodipodi.sourceforge.net/DTD/sodipodi-0.dtd"
   xmlns:inkscape="http://www.inkscape.org/namespaces/inkscape"
   id="Layer_1"
   viewBox="0 0 348 348"
   version="1.1"
   sodipodi:docname="RapidSubtraction.svg"
   inkscape:version="0.92.4 (5da689c313, 2019-01-14)">
  <metadata
     id="metadata79">
    <rdf:RDF>
      <cc:Work
         rdf:about="">
        <dc:format>image/svg+xml</dc:format>
        <dc:type
           rdf:resource="http://purl.org/dc/dcmitype/StillImage" />
        <dc:title></dc:title>
      </cc:Work>
    </rdf:RDF>
  </metadata>
  <sodipodi:namedview
     pagecolor="#ffffff"
     bordercolor="#666666"
     borderopacity="1"
     objecttolerance="10"
     gridtolerance="10"
     guidetolerance="10"
     inkscape:pageopacity="0"
     inkscape:pageshadow="2"
     inkscape:window-width="1920"
     inkscape:window-height="1057"
     id="namedview77"
     showgrid="false"
     inkscape:zoom="2.405352"
     inkscape:cx="152.00111"
     inkscape:cy="174.27779"
     inkscape:window-x="1272"
     inkscape:window-y="-8"
     inkscape:window-maximized="1"
     inkscape:current-layer="Layer_1" />
  <style
     id="style2">
        .st0{clip-path:url(#SVGID_2_);fill:none;stroke:#000;stroke-width:2;stroke-linejoin:round;stroke-miterlimit:10}.st1,.st2,.st3{clip-path:url(#SVGID_2_)}.st2{fill:#fff}.st3{fill-opacity:0}.st4{fill:none;stroke:#000;stroke-linejoin:round;stroke-miterlimit:10}
    </style>
  <defs
     id="defs5">
    <path
       id="SVGID_1_"
       d="M0 0h348v348H0z" />
  </defs>
  <clipPath
     id="SVGID_2_">
    <use
       xlink:href="#SVGID_1_"
       overflow="visible"
       id="use7" />
  </clipPath>
  <path
     class="st0"
     d="M5 5.8h337v337.7H5V5.8z"
     clip-path="url(#SVGID_2_)"
     id="path10" />
  <path
     class="st1"
     d="M133.8 15.7H208v57h-74v-57z"
     clip-path="url(#SVGID_2_)"
     id="path12" />
  <path
     class="st2"
     d="m 154.5,44 c 0,-2.6 0.3,-4.8 0.8,-6.4 0.6,-1.7 1.4,-3 2.5,-3.8 1,-1 2.5,-1.3 4.2,-1.3 1.2,0 2.3,0.3 3.2,0.8 1,0.5 1.7,1.2 2.3,2 0.6,1 1,2.2 1.4,3.5 0.2,1.3 0.4,3 0.4,5.4 0,2.7 -0.3,5 -0.8,6.5 -0.6,1.6 -1.4,3 -2.5,3.8 -1,1 -2.4,1.3 -4,1.3 -2.3,0 -4,-0.8 -5.3,-2.4 -1.4,-2 -2.2,-5 -2.2,-9.3 z m 3,0 c 0,4 0.3,6.4 1.2,7.6 1,1.2 2,2 3.3,2 1.3,0 2.4,-0.7 3.3,-2 1,-1.3 1.3,-3.8 1.3,-7.5 0,-3.7 -0.4,-6.2 -1.3,-7.4 -1,-1.2 -2,-2 -3.3,-2 -1.3,0 -2.3,0.6 -3,1.7 -1,1.5 -1.6,4 -1.6,7.8 z m 14.8,0 c 0,-2.6 0.3,-4.8 0.8,-6.4 0.7,-1.7 1.5,-3 2.6,-3.8 1,-1 2.5,-1.3 4.2,-1.3 1.2,0 2.3,0.3 3.2,0.8 1,0.5 1.7,1.2 2.3,2 0.6,1 1,2.2 1.4,3.5 0.3,1.3 0.5,3 0.5,5.4 0,2.7 -0.3,5 -0.8,6.5 -0.6,1.6 -1.4,3 -2.5,3.8 -1.2,1 -2.6,1.3 -4.3,1.3 -2.2,0 -4,-0.8 -5.2,-2.4 -1.4,-2 -2.2,-5 -2.2,-9.3 z m 3,0 c 0,4 0.3,6.4 1.2,7.6 1,1.2 2,2 3.3,2 1.3,0 2.4,-0.7 3.3,-2 1,-1.3 1.4,-3.8 1.4,-7.5 0,-3.7 -0.4,-6.2 -1.3,-7.4 -0.8,-1.2 -2,-2 -3.2,-2 -1.3,0 -2.3,0.6 -3,1.7 -1,1.5 -1.6,4 -1.6,7.8 z"
     clip-path="url(#SVGID_2_)"
     id="path14"
     inkscape:connector-curvature="0"
     style="fill:#ffffff"
     sodipodi:nodetypes="sccscccsccscssccscscscccsccscccsccscssccscscsccc" />
  <path
     class="st3"
     d="M15.3 72.7l39.7-54"
     clip-path="url(#SVGID_2_)"
     id="path18" />
  <path
     class="st3"
     d="M37.6 72.7l39.7-54"
     clip-path="url(#SVGID_2_)"
     id="path22" />
  <path
     class="st3"
     d="M60 72.7l39.6-54"
     clip-path="url(#SVGID_2_)"
     id="path26" />
  <path
     class="st3"
     d="M82.2 72.7l39.7-54"
     clip-path="url(#SVGID_2_)"
     id="path30" />
  <path
     class="st3"
     d="M217 71.6l39.6-54"
     clip-path="url(#SVGID_2_)"
     id="path38" />
  <path
     class="st3"
     d="M239.2 71.6l39.7-54"
     clip-path="url(#SVGID_2_)"
     id="path42" />
  <path
     class="st3"
     d="M261.5 71.6l39.7-54"
     clip-path="url(#SVGID_2_)"
     id="path46" />
  <path
     class="st3"
     d="M283.8 71.6l39.7-54"
     clip-path="url(#SVGID_2_)"
     id="path50" />
  <g
     id="g926">
    <rect
       ry="17.60001"
       y="113.43336"
       x="14.627839"
       height="54.846542"
       width="54.846542"
       id="rect844"
       style="fill:none;fill-opacity:1;fill-rule:nonzero;stroke:#000000;stroke-width:2;stroke-linecap:round;stroke-linejoin:round;stroke-miterlimit:4;stroke-dasharray:none;stroke-dashoffset:0;stroke-opacity:1" />
    <rect
       style="fill:none;fill-opacity:1;fill-rule:nonzero;stroke:#000000;stroke-width:2;stroke-linecap:round;stroke-linejoin:round;stroke-miterlimit:4;stroke-dasharray:none;stroke-dashoffset:0;stroke-opacity:1"
       id="rect848"
       width="54.846542"
       height="54.846542"
       x="69.47438"
       y="113.43336"
       ry="17.60001" />
    <rect
       ry="17.60001"
       y="113.43336"
       x="124.32092"
       height="54.846542"
       width="54.846542"
       id="rect850"
       style="fill:none;fill-opacity:1;fill-rule:nonzero;stroke:#000000;stroke-width:2;stroke-linecap:round;stroke-linejoin:round;stroke-miterlimit:4;stroke-dasharray:none;stroke-dashoffset:0;stroke-opacity:1" />
    <rect
       style="fill:none;fill-opacity:1;fill-rule:nonzero;stroke:#000000;stroke-width:2;stroke-linecap:round;stroke-linejoin:round;stroke-miterlimit:4;stroke-dasharray:none;stroke-dashoffset:0;stroke-opacity:1"
       id="rect852"
       width="54.846542"
       height="54.846542"
       x="14.627839"
       y="168.27989"
       ry="17.60001" />
    <rect
       ry="17.60001"
       y="168.27989"
       x="69.47438"
       height="54.846542"
       width="54.846542"
       id="rect854"
       style="fill:none;fill-opacity:1;fill-rule:nonzero;stroke:#000000;stroke-width:2;stroke-linecap:round;stroke-linejoin:round;stroke-miterlimit:4;stroke-dasharray:none;stroke-dashoffset:0;stroke-opacity:1" />
    <rect
       style="fill:none;fill-opacity:1;fill-rule:nonzero;stroke:#000000;stroke-width:2;stroke-linecap:round;stroke-linejoin:round;stroke-miterlimit:4;stroke-dasharray:none;stroke-dashoffset:0;stroke-opacity:1"
       id="rect856"
       width="54.846542"
       height="54.846542"
       x="124.32092"
       y="168.27989"
       ry="17.60001" />
    <rect
       style="fill:none;fill-opacity:1;fill-rule:nonzero;stroke:#000000;stroke-width:2;stroke-linecap:round;stroke-linejoin:round;stroke-miterlimit:4;stroke-dasharray:none;stroke-dashoffset:0;stroke-opacity:1"
       id="rect858"
       width="54.846542"
       height="54.846542"
       x="14.627839"
       y="223.12645"
       ry="17.60001" />
    <rect
       ry="17.60001"
       y="223.12645"
       x="69.47438"
       height="54.846542"
       width="54.846542"
       id="rect860"
       style="fill:none;fill-opacity:1;fill-rule:nonzero;stroke:#000000;stroke-width:2;stroke-linecap:round;stroke-linejoin:round;stroke-miterlimit:4;stroke-dasharray:none;stroke-dashoffset:0;stroke-opacity:1" />
    <rect
       style="fill:none;fill-opacity:1;fill-rule:nonzero;stroke:#000000;stroke-width:2;stroke-linecap:round;stroke-linejoin:round;stroke-miterlimit:4;stroke-dasharray:none;stroke-dashoffset:0;stroke-opacity:1"
       id="rect862"
       width="54.846542"
       height="54.846542"
       x="124.32092"
       y="223.12645"
       ry="17.60001" />
    <rect
       ry="17.60001"
       y="277.97299"
       x="14.627839"
       height="54.846542"
       width="54.846542"
       id="rect864"
       style="fill:none;fill-opacity:1;fill-rule:nonzero;stroke:#000000;stroke-width:2;stroke-linecap:round;stroke-linejoin:round;stroke-miterlimit:4;stroke-dasharray:none;stroke-dashoffset:0;stroke-opacity:1" />
    <rect
       style="fill:none;fill-opacity:1;fill-rule:nonzero;stroke:#000000;stroke-width:2;stroke-linecap:round;stroke-linejoin:round;stroke-miterlimit:4;stroke-dasharray:none;stroke-dashoffset:0;stroke-opacity:1"
       id="rect866"
       width="54.846542"
       height="54.846542"
       x="69.47438"
       y="277.97299"
       ry="17.60001" />
    <rect
       ry="17.60001"
       y="277.97299"
       x="124.32092"
       height="54.846542"
       width="54.846542"
       id="rect868"
       style="fill:none;fill-opacity:1;fill-rule:nonzero;stroke:#000000;stroke-width:2;stroke-linecap:round;stroke-linejoin:round;stroke-miterlimit:4;stroke-dasharray:none;stroke-dashoffset:0;stroke-opacity:1" />
  </g>
  <rect
     ry="0"
     y="285.02039"
     x="184.70229"
     height="42.778584"
     width="151.80124"
     id="rect872"
     style="fill:none;fill-opacity:1;fill-rule:nonzero;stroke:#000000;stroke-width:2.04331517;stroke-linecap:round;stroke-linejoin:round;stroke-miterlimit:4;stroke-dasharray:none;stroke-dashoffset:0;stroke-opacity:1" />
  <rect
     y="288.74902"
     x="287.19855"
     height="34.844509"
     width="44.915409"
     id="rect880"
     style="fill:none;fill-opacity:1;fill-rule:nonzero;stroke:#000000;stroke-width:2.16043067;stroke-linecap:round;stroke-linejoin:round;stroke-miterlimit:4;stroke-dasharray:none;stroke-dashoffset:0;stroke-opacity:1" />
  <rect
     style="fill:none;fill-opacity:1;fill-rule:nonzero;stroke:#000000;stroke-width:2.16043067;stroke-linecap:round;stroke-linejoin:round;stroke-miterlimit:4;stroke-dasharray:none;stroke-dashoffset:0;stroke-opacity:1"
     id="rect884"
     width="44.915409"
     height="34.844509"
     x="189.12758"
     y="288.74902" />
  <rect
     y="288.74902"
     x="238.21811"
     height="34.844509"
     width="44.915409"
     id="rect886"
     style="fill:none;fill-opacity:1;fill-rule:nonzero;stroke:#000000;stroke-width:2.16043067;stroke-linecap:round;stroke-linejoin:round;stroke-miterlimit:4;stroke-dasharray:none;stroke-dashoffset:0;stroke-opacity:1" />
  <g
     aria-label="##"
     style="font-style:normal;font-weight:normal;font-size:96px;line-height:1.25;font-family:sans-serif;letter-spacing:0px;word-spacing:0px;fill:#000000;fill-opacity:1;stroke:none"
     id="text890">
    <path
       d="m 255.25746,142.58981 h -15.60937 l -4.3125,17.625 h 14.4375 v 6.32813 h -16.07813 l -4.875,19.73437 h -6.04687 l 4.875,-19.73437 h -12.65625 l -4.875,19.73437 h -6.04688 l 4.875,-19.73437 h -13.96875 v -6.32813 h 15.60938 l 4.3125,-17.625 h -14.4375 v -6.32812 h 16.07812 l 4.92188,-19.78125 h 6.04687 l -4.92187,19.78125 h 12.65625 l 4.92187,-19.78125 h 6.04688 l -4.92188,19.78125 h 13.96875 z m -21.51562,-0.0937 h -12.84375 l -4.40625,17.8125 h 12.84375 z"
       style=""
       id="path909" />
    <path
       d="m 333.81996,142.58981 h -15.60937 l -4.3125,17.625 h 14.4375 v 6.32813 h -16.07813 l -4.875,19.73437 h -6.04687 l 4.875,-19.73437 h -12.65625 l -4.875,19.73437 h -6.04688 l 4.875,-19.73437 h -13.96875 v -6.32813 h 15.60938 l 4.3125,-17.625 h -14.4375 v -6.32812 h 16.07812 l 4.92188,-19.78125 h 6.04687 l -4.92187,19.78125 h 12.65625 l 4.92187,-19.78125 h 6.04688 l -4.92188,19.78125 h 13.96875 z m -21.51562,-0.0937 h -12.84375 l -4.40625,17.8125 h 12.84375 z"
       style=""
       id="path911" />
  </g>
  <g
     aria-label="######"
     style="font-style:normal;font-weight:normal;font-size:32px;line-height:1.25;font-family:sans-serif;letter-spacing:0px;word-spacing:0px;fill:#000000;fill-opacity:1;stroke:none"
     id="text894"
     transform="translate(-1.2472187,9.9777493)">
    <path
       d="m 206.89751,248.21088 h -5.20313 l -1.4375,5.875 h 4.8125 v 2.10937 h -5.35937 l -1.625,6.57813 h -2.01563 l 1.625,-6.57813 h -4.21875 l -1.625,6.57813 h -2.01562 l 1.625,-6.57813 h -4.65625 v -2.10937 h 5.20312 l 1.4375,-5.875 h -4.8125 v -2.10938 h 5.35938 l 1.64062,-6.59375 h 2.01563 l -1.64063,6.59375 h 4.21875 l 1.64063,-6.59375 h 2.01562 l -1.64062,6.59375 h 4.65625 z m -7.17188,-0.0312 h -4.28125 l -1.46875,5.9375 h 4.28125 z"
       id="path896"
       inkscape:connector-curvature="0" />
    <path
       d="m 233.08501,248.21088 h -5.20313 l -1.4375,5.875 h 4.8125 v 2.10937 h -5.35937 l -1.625,6.57813 h -2.01563 l 1.625,-6.57813 h -4.21875 l -1.625,6.57813 h -2.01562 l 1.625,-6.57813 h -4.65625 v -2.10937 h 5.20312 l 1.4375,-5.875 h -4.8125 v -2.10938 h 5.35938 l 1.64062,-6.59375 h 2.01563 l -1.64063,6.59375 h 4.21875 l 1.64063,-6.59375 h 2.01562 l -1.64062,6.59375 h 4.65625 z m -7.17188,-0.0312 h -4.28125 l -1.46875,5.9375 h 4.28125 z"
       id="path898"
       inkscape:connector-curvature="0" />
    <path
       d="m 259.27251,248.21088 h -5.20313 l -1.4375,5.875 h 4.8125 v 2.10937 h -5.35937 l -1.625,6.57813 h -2.01563 l 1.625,-6.57813 h -4.21875 l -1.625,6.57813 h -2.01562 l 1.625,-6.57813 h -4.65625 v -2.10937 h 5.20312 l 1.4375,-5.875 h -4.8125 v -2.10938 h 5.35938 l 1.64062,-6.59375 h 2.01563 l -1.64063,6.59375 h 4.21875 l 1.64063,-6.59375 h 2.01562 l -1.64062,6.59375 h 4.65625 z m -7.17188,-0.0312 h -4.28125 l -1.46875,5.9375 h 4.28125 z"
       id="path900"
       inkscape:connector-curvature="0" />
    <path
       d="m 285.46001,248.21088 h -5.20313 l -1.4375,5.875 h 4.8125 v 2.10937 h -5.35937 l -1.625,6.57813 h -2.01563 l 1.625,-6.57813 h -4.21875 l -1.625,6.57813 h -2.01562 l 1.625,-6.57813 h -4.65625 v -2.10937 h 5.20312 l 1.4375,-5.875 h -4.8125 v -2.10938 h 5.35938 l 1.64062,-6.59375 h 2.01563 l -1.64063,6.59375 h 4.21875 l 1.64063,-6.59375 h 2.01562 l -1.64062,6.59375 h 4.65625 z m -7.17188,-0.0312 h -4.28125 l -1.46875,5.9375 h 4.28125 z"
       id="path902"
       inkscape:connector-curvature="0" />
    <path
       d="m 311.64751,248.21088 h -5.20313 l -1.4375,5.875 h 4.8125 v 2.10937 h -5.35937 l -1.625,6.57813 h -2.01563 l 1.625,-6.57813 h -4.21875 l -1.625,6.57813 h -2.01562 l 1.625,-6.57813 h -4.65625 v -2.10937 h 5.20312 l 1.4375,-5.875 h -4.8125 v -2.10938 h 5.35938 l 1.64062,-6.59375 h 2.01563 l -1.64063,6.59375 h 4.21875 l 1.64063,-6.59375 h 2.01562 l -1.64062,6.59375 h 4.65625 z m -7.17188,-0.0312 h -4.28125 l -1.46875,5.9375 h 4.28125 z"
       id="path904"
       inkscape:connector-curvature="0" />
    <path
       d="m 337.83501,248.21088 h -5.20313 l -1.4375,5.875 h 4.8125 v 2.10937 h -5.35937 l -1.625,6.57813 h -2.01563 l 1.625,-6.57813 h -4.21875 l -1.625,6.57813 h -2.01562 l 1.625,-6.57813 h -4.65625 v -2.10937 h 5.20312 l 1.4375,-5.875 h -4.8125 v -2.10938 h 5.35938 l 1.64062,-6.59375 h 2.01563 l -1.64063,6.59375 h 4.21875 l 1.64063,-6.59375 h 2.01562 l -1.64062,6.59375 h 4.65625 z m -7.17188,-0.0312 h -4.28125 l -1.46875,5.9375 h 4.28125 z"
       id="path906"
       inkscape:connector-curvature="0" />
  </g>
  <rect
     style="fill:none;fill-opacity:1;fill-rule:nonzero;stroke:#000000;stroke-width:2;stroke-linecap:round;stroke-linejoin:round;stroke-miterlimit:4;stroke-dasharray:none;stroke-dashoffset:0;stroke-opacity:1"
     id="rect928"
     width="148.00328"
     height="81.069214"
     x="190.40872"
     y="111.02844" />
  <rect
     style="fill:none;fill-opacity:1;fill-rule:nonzero;stroke:#000000;stroke-width:2;stroke-linecap:round;stroke-linejoin:round;stroke-miterlimit:4;stroke-dasharray:none;stroke-dashoffset:0;stroke-opacity:1"
     id="rect930"
     width="155.07086"
     height="32.011948"
     x="183.34116"
     y="244.89659" />
</svg>
