<?xml version="1.0" encoding="UTF-8" standalone="no"?>
<svg
   xmlns:dc="http://purl.org/dc/elements/1.1/"
   xmlns:cc="http://creativecommons.org/ns#"
   xmlns:rdf="http://www.w3.org/1999/02/22-rdf-syntax-ns#"
   xmlns:svg="http://www.w3.org/2000/svg"
   xmlns="http://www.w3.org/2000/svg"
   xmlns:sodipodi="http://sodipodi.sourceforge.net/DTD/sodipodi-0.dtd"
   xmlns:inkscape="http://www.inkscape.org/namespaces/inkscape"
   viewBox="0.0 0.0 348.0 348.0"
   fill="none"
   version="1.1"
   id="svg6"
   sodipodi:docname="Robit Programming.svg"
   inkscape:version="0.92.4 (5da689c313, 2019-01-14)">
  <metadata
     id="metadata12">
    <rdf:RDF>
      <cc:Work
         rdf:about="">
        <dc:format>image/svg+xml</dc:format>
        <dc:type
           rdf:resource="http://purl.org/dc/dcmitype/StillImage" />
        <dc:title></dc:title>
      </cc:Work>
    </rdf:RDF>
  </metadata>
  <defs
     id="defs10">
    <marker
       inkscape:stockid="TriangleOutM"
       orient="auto"
       refY="0.0"
       refX="0.0"
       id="TriangleOutM"
       style="overflow:visible"
       inkscape:isstock="true">
      <path
         id="path1044"
         d="M 5.77,0.0 L -2.88,5.0 L -2.88,-5.0 L 5.77,0.0 z "
         style="fill-rule:evenodd;stroke:#000000;stroke-width:1pt;stroke-opacity:1;fill:#000000;fill-opacity:1"
         transform="scale(0.4)" />
    </marker>
  </defs>
  <sodipodi:namedview
     pagecolor="#ffffff"
     bordercolor="#666666"
     borderopacity="1"
     objecttolerance="10"
     gridtolerance="10"
     guidetolerance="10"
     inkscape:pageopacity="0"
     inkscape:pageshadow="2"
     inkscape:window-width="1920"
     inkscape:window-height="1057"
     id="namedview8"
     showgrid="false"
     showguides="true"
     inkscape:guide-bbox="true"
     inkscape:zoom="2.8284271"
     inkscape:cx="156.03588"
     inkscape:cy="172.40044"
     inkscape:window-x="-8"
     inkscape:window-y="-8"
     inkscape:window-maximized="1"
     inkscape:current-layer="svg6"
     inkscape:snap-object-midpoints="true"
     inkscape:snap-global="true"
     inkscape:snap-bbox="true"
     inkscape:snap-bbox-midpoints="true"
     inkscape:snap-smooth-nodes="true">
    <sodipodi:guide
       position="173.536,173.389"
       orientation="1,0"
       id="guide852"
       inkscape:locked="false"
       inkscape:label=""
       inkscape:color="rgb(0,0,255)" />
    <sodipodi:guide
       position="173.536,173.389"
       orientation="0,1"
       id="guide854"
       inkscape:locked="false" />
  </sodipodi:namedview>
  <path
     d="M5.079 5.776h336.913v337.67H5.08z"
     stroke-width="2"
     stroke="#000"
     id="path2" />
  <path
     d="m 83.202267,255.53507 c 0,-5.28746 4.397378,-9.5731 9.822453,-9.5731 2.604591,0 5.103135,1.00812 6.944529,2.80343 1.842021,1.79532 2.877301,4.23073 2.877301,6.76967 0,5.28746 -4.397382,9.5731 -9.822461,9.5731 -5.424444,0 -9.821822,-4.28627 -9.821822,-9.5731 z"
     id="path4"
     inkscape:connector-curvature="0"
     style="stroke:#000000;stroke-width:2;stroke-miterlimit:4;stroke-dasharray:none" />
  <g
     style="font-style:normal;font-weight:normal;font-size:40px;line-height:1.25;font-family:sans-serif;letter-spacing:0px;word-spacing:0px;fill:#000000;fill-opacity:1;stroke:none"
     id="text844" />
  <path
     style="fill:none;fill-opacity:1;fill-rule:nonzero;stroke:#000000;stroke-width:2;stroke-linecap:round;stroke-linejoin:round;stroke-miterlimit:4;stroke-dasharray:none;stroke-dashoffset:0;stroke-opacity:1"
     d="M 191.56009,18.392504 H 330.11548 V 329.6545 H 191.56009 Z"
     id="rect817" />
  <path
     style="fill:none;fill-opacity:1;fill-rule:nonzero;stroke:#000000;stroke-width:2;stroke-linecap:round;stroke-linejoin:round;stroke-miterlimit:4;stroke-dasharray:none;stroke-dashoffset:0;stroke-opacity:1"
     d="M 20.453659,182.96432 H 165.59515 v 145.1415 H 20.453659 Z"
     id="rect819" />
  <path
     style="fill:none;fill-opacity:1;fill-rule:nonzero;stroke:#000000;stroke-width:2;stroke-linecap:round;stroke-linejoin:round;stroke-miterlimit:4;stroke-dasharray:none;stroke-dashoffset:0;stroke-opacity:1"
     d="m 197.15379,25.24036 h 111.46183 v 267.7348 H 197.15379 Z"
     id="rect823" />
  <path
     style="fill:none;fill-opacity:1;fill-rule:nonzero;stroke:#000000;stroke-width:2;stroke-linecap:round;stroke-linejoin:round;stroke-miterlimit:4;stroke-dasharray:none;stroke-dashoffset:0;stroke-opacity:1"
     d="m 198.52132,299.98956 h 25.89011 v 25.89012 h -25.89011 z"
     id="rect825" />
  <path
     style="fill:none;fill-opacity:1;fill-rule:nonzero;stroke:#000000;stroke-width:2;stroke-linecap:round;stroke-linejoin:round;stroke-miterlimit:4;stroke-dasharray:none;stroke-dashoffset:0;stroke-opacity:1"
     d="m 231.4675,299.98956 h 25.89011 v 25.89012 H 231.4675 Z"
     id="rect827" />
  <path
     style="fill:none;fill-opacity:1;fill-rule:nonzero;stroke:#000000;stroke-width:2;stroke-linecap:round;stroke-linejoin:round;stroke-miterlimit:4;stroke-dasharray:none;stroke-dashoffset:0;stroke-opacity:1"
     d="m 264.46906,299.98956 h 25.89011 v 25.89012 h -25.89011 z"
     id="rect829" />
  <path
     style="fill:none;fill-opacity:1;fill-rule:nonzero;stroke:#000000;stroke-width:2;stroke-linecap:round;stroke-linejoin:round;stroke-miterlimit:4;stroke-dasharray:none;stroke-dashoffset:0;stroke-opacity:1"
     d="m 297.97858,299.98956 h 25.89011 v 25.89012 h -25.89011 z"
     id="rect831" />
  <g
     aria-label="0"
     style="font-style:normal;font-variant:normal;font-weight:normal;font-stretch:normal;font-size:18.66666603px;line-height:1.25;font-family:sans-serif;-inkscape-font-specification:sans-serif;text-align:center;letter-spacing:0px;word-spacing:0px;text-anchor:middle;fill:#000000;fill-opacity:1;stroke:none"
     id="text835">
    <path
       d="m 249.10656,312.92552 q 0,3.65494 -1.14844,5.36849 -1.13932,1.70442 -3.54557,1.70442 -2.44271,0 -3.57291,-1.73177 -1.1211,-1.73177 -1.1211,-5.32291 0,-3.61849 1.13932,-5.34115 1.13933,-1.73177 3.55469,-1.73177 2.44271,0 3.5638,1.75911 1.13021,1.75 1.13021,5.29558 z m -2.39713,4.13802 q 0.31901,-0.73828 0.42838,-1.73177 0.11849,-1.00261 0.11849,-2.40625 0,-1.38542 -0.11849,-2.40625 -0.10937,-1.02084 -0.4375,-1.73177 -0.31901,-0.70183 -0.875,-1.0573 -0.54687,-0.35546 -1.41276,-0.35546 -0.85677,0 -1.42187,0.35546 -0.55599,0.35547 -0.88412,1.07553 -0.30989,0.67447 -0.42838,1.75911 -0.10938,1.08464 -0.10938,2.37891 0,1.42187 0.10026,2.3789 0.10026,0.95703 0.42839,1.71354 0.30078,0.71094 0.84765,1.08464 0.55599,0.3737 1.46745,0.3737 0.85677,0 1.42188,-0.35547 0.5651,-0.35547 0.875,-1.07552 z"
       style=""
       id="path2239" />
  </g>
  <g
     aria-label="1"
     style="font-style:normal;font-variant:normal;font-weight:normal;font-stretch:normal;font-size:18.66666603px;line-height:1.25;font-family:sans-serif;-inkscape-font-specification:sans-serif;text-align:center;letter-spacing:0px;word-spacing:0px;text-anchor:middle;fill:#000000;fill-opacity:1;stroke:none"
     id="text839">
    <path
       d="m 281.35162,319.71588 h -7.34635 v -1.38542 h 2.82552 v -9.09635 h -2.82552 v -1.23958 q 0.57422,0 1.23047,-0.0911 0.65625,-0.10026 0.99349,-0.28255 0.41927,-0.22786 0.65625,-0.57422 0.24609,-0.35547 0.28255,-0.94792 h 1.41276 v 12.23177 h 2.77083 z"
       style=""
       id="path2242" />
  </g>
  <path
     style="fill:none;fill-opacity:1;fill-rule:nonzero;stroke:#000000;stroke-width:2;stroke-linecap:round;stroke-linejoin:round;stroke-miterlimit:4;stroke-dasharray:none;stroke-dashoffset:0;stroke-opacity:1"
     d="M 15.620351,25.270544 H 183.36669 V 141.65381 H 15.620351 Z"
     id="rect843" />
  <path
     style="fill:none;fill-opacity:1;fill-rule:nonzero;stroke:#000000;stroke-width:2;stroke-linecap:round;stroke-linejoin:round;stroke-miterlimit:4;stroke-dasharray:none;stroke-dashoffset:0;stroke-opacity:1"
     d="M 30.730806,193.24149 H 155.318 V 317.82868 H 30.730806 Z"
     id="rect845" />
  <path
     style="stroke:#000000;stroke-width:2;stroke-miterlimit:4;stroke-dasharray:none"
     inkscape:connector-curvature="0"
     id="path847"
     d="m 89.070323,249.81598 c 0,-2.12867 1.77033,-3.85401 3.954397,-3.85401 1.048576,0 2.054458,0.40586 2.79578,1.12863 0.741574,0.72277 1.158365,1.70323 1.158365,2.72538 0,2.12867 -1.77033,3.85401 -3.954399,3.85401 -2.183813,0 -3.954143,-1.7256 -3.954143,-3.85401 z" />
  <path
     style="fill:none;fill-opacity:1;fill-rule:nonzero;stroke:#000000;stroke-width:2;stroke-linecap:round;stroke-linejoin:round;stroke-miterlimit:4;stroke-dasharray:none;stroke-dashoffset:0;stroke-opacity:1"
     d="m 143.67296,198.9393 h 5.74692 v 5.74692 h -5.74692 z"
     id="rect849" />
  <path
     style="fill:none;fill-opacity:1;fill-rule:nonzero;stroke:#000000;stroke-width:2;stroke-linecap:round;stroke-linejoin:round;stroke-miterlimit:4;stroke-dasharray:none;stroke-dashoffset:0;stroke-opacity:1"
     d="m 143.67296,307.05319 h 5.74692 v 5.74692 h -5.74692 z"
     id="rect855" />
  <path
     style="fill:none;fill-opacity:1;fill-rule:nonzero;stroke:#000000;stroke-width:2;stroke-linecap:round;stroke-linejoin:round;stroke-miterlimit:4;stroke-dasharray:none;stroke-dashoffset:0;stroke-opacity:1"
     d="m 35.559063,198.9393 h 5.746918 v 5.74692 h -5.746918 z"
     id="rect857" />
  <path
     style="fill:none;fill-opacity:1;fill-rule:nonzero;stroke:#000000;stroke-width:2;stroke-linecap:round;stroke-linejoin:round;stroke-miterlimit:4;stroke-dasharray:none;stroke-dashoffset:0;stroke-opacity:1"
     d="m 35.559063,307.05319 h 5.746918 v 5.74692 h -5.746918 z"
     id="rect859" />
  <path
     style="fill:none;fill-opacity:1;fill-rule:nonzero;stroke:#000000;stroke-width:2;stroke-linecap:round;stroke-linejoin:round;stroke-miterlimit:4;stroke-dasharray:none;stroke-dashoffset:0;stroke-opacity:1"
     d="m 312.84784,279.39618 h 12.2122 v 12.2122 h -12.2122 z"
     id="rect861" />
  <path
     style="fill:none;fill-opacity:1;fill-rule:nonzero;stroke:#000000;stroke-width:2;stroke-linecap:round;stroke-linejoin:round;stroke-miterlimit:4;stroke-dasharray:none;stroke-dashoffset:0;stroke-opacity:1"
     d="m 313.20703,24.73587 h 12.2122 v 12.212201 h -12.2122 z"
     id="rect863" />
  <path
     style="fill:none;fill-opacity:1;fill-rule:nonzero;stroke:#000000;stroke-width:2;stroke-linecap:round;stroke-linejoin:round;stroke-miterlimit:4;stroke-dasharray:none;stroke-dashoffset:0;stroke-opacity:1"
     d="M 61.420189,106.27026 H 132.5383 c 3.58177,0 6.46528,2.88352 6.46528,6.46529 v 15.08566 c 0,3.58176 -2.88351,6.46528 -6.46528,6.46528 H 61.420189 c -3.581766,0 -6.465283,-2.88352 -6.465283,-6.46528 v -15.08566 c 0,-3.58177 2.883517,-6.46529 6.465283,-6.46529 z"
     id="rect865" />
  <g
     style="font-style:normal;font-variant:normal;font-weight:normal;font-stretch:normal;font-size:18.66666603px;line-height:1.25;font-family:sans-serif;-inkscape-font-specification:sans-serif;text-align:center;letter-spacing:0px;word-spacing:0px;text-anchor:middle;fill:#000000;fill-opacity:1;stroke:none"
     id="text869" />
  <g
     style="font-style:normal;font-variant:normal;font-weight:normal;font-stretch:normal;font-size:18.66666603px;line-height:1.25;font-family:'Special Elite';-inkscape-font-specification:'Special Elite';text-align:center;letter-spacing:0px;word-spacing:0px;text-anchor:middle;fill:#000000;fill-opacity:1;stroke:none"
     id="text873" />
  <g
     aria-label="0.10"
     style="font-style:normal;font-variant:normal;font-weight:900;font-stretch:normal;line-height:1.25;font-family:Arial;-inkscape-font-specification:'Arial Heavy';text-align:center;letter-spacing:0px;word-spacing:0px;baseline-shift:baseline;text-anchor:middle;fill:#000000;fill-opacity:1;stroke:none"
     id="text877">
    <path
       d="m 72.039062,64.289062 q 0,9.398438 -2.953125,13.804688 -2.929687,4.382812 -9.117187,4.382812 -6.28125,0 -9.1875,-4.453125 -2.882813,-4.453125 -2.882813,-13.6875 0,-9.304687 2.929688,-13.734375 2.929687,-4.453125 9.140625,-4.453125 6.28125,0 9.164062,4.523438 2.90625,4.5 2.90625,13.617187 z M 65.875,74.929687 q 0.820312,-1.898437 1.101562,-4.453125 0.304688,-2.578125 0.304688,-6.1875 0,-3.5625 -0.304688,-6.1875 -0.28125,-2.625 -1.125,-4.453125 -0.820312,-1.804687 -2.25,-2.71875 -1.40625,-0.914062 -3.632812,-0.914062 -2.203125,0 -3.65625,0.914062 -1.429688,0.914063 -2.273438,2.765625 -0.796875,1.734375 -1.101562,4.523438 -0.28125,2.789062 -0.28125,6.117187 0,3.65625 0.257812,6.117188 0.257813,2.460937 1.101563,4.40625 0.773437,1.828125 2.179687,2.789062 1.429688,0.960938 3.773438,0.960938 2.203125,0 3.65625,-0.914063 1.453125,-0.914062 2.25,-2.765625 z"
       style="font-style:normal;font-variant:normal;font-weight:normal;font-stretch:normal;font-size:48px;font-family:sans-serif;-inkscape-font-specification:sans-serif"
       id="path2256" />
    <path
       d="M 86.78125,81.75 H 81.179687 V 75.070312 H 86.78125 Z"
       style="font-style:normal;font-variant:normal;font-weight:normal;font-stretch:normal;font-size:48px;font-family:sans-serif;-inkscape-font-specification:sans-serif"
       id="path2258" />
    <path
       d="M 118.09375,81.75 H 99.203125 v -3.5625 h 7.265625 V 54.796875 h -7.265625 v -3.1875 q 1.476565,0 3.164065,-0.234375 1.6875,-0.257813 2.55469,-0.726563 1.07812,-0.585937 1.6875,-1.476562 0.63281,-0.914063 0.72656,-2.4375 h 3.63281 V 78.1875 h 7.125 z"
       style="font-style:normal;font-variant:normal;font-weight:normal;font-stretch:normal;font-size:48px;font-family:sans-serif;-inkscape-font-specification:sans-serif"
       id="path2260" />
    <path
       d="m 150.60156,64.289062 q 0,9.398438 -2.95312,13.804688 -2.92969,4.382812 -9.11719,4.382812 -6.28125,0 -9.1875,-4.453125 -2.88281,-4.453125 -2.88281,-13.6875 0,-9.304687 2.92968,-13.734375 2.92969,-4.453125 9.14063,-4.453125 6.28125,0 9.16406,4.523438 2.90625,4.5 2.90625,13.617187 z m -6.16406,10.640625 q 0.82031,-1.898437 1.10156,-4.453125 0.30469,-2.578125 0.30469,-6.1875 0,-3.5625 -0.30469,-6.1875 -0.28125,-2.625 -1.125,-4.453125 -0.82031,-1.804687 -2.25,-2.71875 -1.40625,-0.914062 -3.63281,-0.914062 -2.20313,0 -3.65625,0.914062 -1.42969,0.914063 -2.27344,2.765625 -0.79687,1.734375 -1.10156,4.523438 -0.28125,2.789062 -0.28125,6.117187 0,3.65625 0.25781,6.117188 0.25781,2.460937 1.10156,4.40625 0.77344,1.828125 2.17969,2.789062 1.42969,0.960938 3.77344,0.960938 2.20312,0 3.65625,-0.914063 1.45312,-0.914062 2.25,-2.765625 z"
       style="font-style:normal;font-variant:normal;font-weight:normal;font-stretch:normal;font-size:48px;font-family:sans-serif;-inkscape-font-specification:sans-serif"
       id="path2262" />
  </g>
  <path
     style="fill:none;fill-opacity:1;fill-rule:nonzero;stroke:#000000;stroke-width:2;stroke-linecap:round;stroke-linejoin:round;stroke-miterlimit:4;stroke-dasharray:none;stroke-dashoffset:0;stroke-opacity:1"
     inkscape:transform-center-y="2.1528457"
     d="m 115.87202,87.205085 c 0.18416,0.318965 -7.50371,13.634745 -7.87202,13.634745 -0.36831,0 -8.056177,-13.31578 -7.87202,-13.634745 0.18415,-0.318964 15.55989,-0.318964 15.74404,0 z"
     id="path879" />
  <path
     style="fill:none;fill-opacity:1;fill-rule:nonzero;stroke:#000000;stroke-width:2;stroke-linecap:round;stroke-linejoin:round;stroke-miterlimit:4;stroke-dasharray:none;stroke-dashoffset:0;stroke-opacity:1"
     inkscape:transform-center-y="2.1528457"
     d="m 146.37202,87.205085 c 0.18416,0.318965 -7.50371,13.634745 -7.87202,13.634745 -0.36831,0 -8.05618,-13.31578 -7.87202,-13.634745 0.18415,-0.318964 15.55989,-0.318964 15.74404,0 z"
     id="path881" />
  <path
     transform="scale(-1)"
     style="fill:none;fill-opacity:1;fill-rule:nonzero;stroke:#000000;stroke-width:2;stroke-linecap:round;stroke-linejoin:round;stroke-miterlimit:4;stroke-dasharray:none;stroke-dashoffset:0;stroke-opacity:1"
     inkscape:transform-center-y="-2.1528457"
     d="m -130.62798,-42.955086 c 0.18416,0.318964 -7.50371,13.634744 -7.87202,13.634744 -0.36831,0 -8.05618,-13.31578 -7.87202,-13.634744 0.18415,-0.318965 15.55989,-0.318965 15.74404,0 z"
     id="path883" />
  <path
     transform="scale(-1)"
     style="fill:none;fill-opacity:1;fill-rule:nonzero;stroke:#000000;stroke-width:2;stroke-linecap:round;stroke-linejoin:round;stroke-miterlimit:4;stroke-dasharray:none;stroke-dashoffset:0;stroke-opacity:1"
     inkscape:transform-center-y="-2.1528457"
     d="m -100.12798,-42.955086 c 0.184157,0.318964 -7.50371,13.634744 -7.87202,13.634744 -0.36831,0 -8.05618,-13.31578 -7.87202,-13.634744 0.18415,-0.318965 15.55989,-0.318965 15.74404,0 z"
     id="path885" />
  <g
     aria-label="GENERATE"
     style="font-style:normal;font-variant:normal;font-weight:normal;font-stretch:normal;font-size:13.33333302px;line-height:1.25;font-family:sans-serif;-inkscape-font-specification:sans-serif;text-align:center;letter-spacing:0px;word-spacing:0px;text-anchor:middle;fill:#000000;fill-opacity:1;stroke:none"
     id="text889">
    <path
       d="m 70.638095,124.40273 q -0.794271,0.36458 -1.738281,0.63802 -0.9375,0.26693 -1.816406,0.26693 -1.132813,0 -2.076823,-0.3125 -0.94401,-0.3125 -1.608073,-0.9375 -0.670573,-0.63151 -1.035156,-1.57553 -0.364583,-0.95052 -0.364583,-2.22005 0,-2.32422 1.354166,-3.66536 1.360677,-1.34766 3.730469,-1.34766 0.826823,0 1.686198,0.20183 0.865885,0.19531 1.861979,0.67057 v 1.52995 h -0.117188 q -0.201823,-0.15625 -0.585937,-0.41016 -0.384115,-0.25391 -0.755209,-0.42318 -0.449218,-0.20182 -1.022135,-0.33203 -0.566406,-0.13672 -1.289062,-0.13672 -1.627604,0 -2.578125,1.04818 -0.944011,1.04167 -0.944011,2.82552 0,1.88151 0.989584,2.92969 0.989583,1.04166 2.695312,1.04166 0.625,0 1.24349,-0.12369 0.625,-0.1237 1.09375,-0.31901 v -2.37631 h -2.597657 v -1.13281 h 3.873698 z"
       style=""
       id="path2269" />
    <path
       d="m 79.277418,125.11887 h -6.386719 v -9.69401 h 6.386719 v 1.14584 h -5.097657 v 2.65625 h 5.097657 v 1.14583 h -5.097657 v 3.60026 h 5.097657 z"
       style=""
       id="path2271" />
    <path
       d="M 88.724032,125.11887 H 87.12898 L 82.532626,116.447 v 8.67187 h -1.204427 v -9.69401 h 1.998698 l 4.192708,7.91667 v -7.91667 h 1.204427 z"
       style=""
       id="path2273" />
    <path
       d="m 97.688877,125.11887 h -6.386719 v -9.69401 h 6.386719 v 1.14584 H 92.59122 v 2.65625 h 5.097657 v 1.14583 H 92.59122 v 3.60026 h 5.097657 z"
       style=""
       id="path2275" />
    <path
       d="m 107.76049,125.11887 h -1.67318 l -3.24218,-3.85416 h -1.81641 v 3.85416 h -1.289062 v -9.69401 h 2.714842 q 0.87891,0 1.46485,0.11719 0.58593,0.11068 1.05468,0.40365 0.52735,0.33203 0.82032,0.83984 0.29947,0.5013 0.29947,1.27604 0,1.04818 -0.52734,1.75781 -0.52734,0.70313 -1.45182,1.0612 z m -3.01432,-6.96614 q 0,-0.41667 -0.14974,-0.73568 -0.14323,-0.32552 -0.48177,-0.54687 -0.27995,-0.18881 -0.66406,-0.26042 -0.38412,-0.0781 -0.90495,-0.0781 h -1.51693 v 3.65886 h 1.30208 q 0.61198,0 1.06771,-0.10417 0.45573,-0.11068 0.77474,-0.40364 0.29297,-0.27344 0.42969,-0.625 0.14323,-0.35808 0.14323,-0.90495 z"
       style=""
       id="path2277" />
    <path
       d="m 116.65372,125.11887 h -1.3737 l -0.95052,-2.70182 h -4.19271 l -0.95052,2.70182 h -1.30859 l 3.52864,-9.69401 h 1.71875 z m -2.72136,-3.80859 -1.69921,-4.75911 -1.70573,4.75911 z"
       style=""
       id="path2279" />
    <path
       d="m 124.25788,116.5707 h -3.46354 v 8.54817 h -1.28906 v -8.54817 h -3.46354 v -1.14584 h 8.21614 z"
       style=""
       id="path2281" />
    <path
       d="m 131.95971,125.11887 h -6.38672 v -9.69401 h 6.38672 v 1.14584 h -5.09766 v 2.65625 h 5.09766 v 1.14583 h -5.09766 v 3.60026 h 5.09766 z"
       style=""
       id="path2283" />
  </g>
  <path
     transform="scale(-1)"
     style="fill:#000000;fill-opacity:1;fill-rule:nonzero;stroke:none;stroke-width:2;stroke-linecap:round;stroke-linejoin:round;stroke-miterlimit:4;stroke-dasharray:none;stroke-dashoffset:0;stroke-opacity:1"
     inkscape:transform-center-y="-0.78196649"
     d="m -316.45383,-33.274762 c 0.0669,0.115855 -2.72553,4.952474 -2.85931,4.952474 -0.13378,0 -2.9262,-4.836619 -2.85931,-4.952474 0.0669,-0.115856 5.65173,-0.115856 5.71862,0 z"
     id="path891" />
  <path
     style="fill:#000000;fill-opacity:1;fill-rule:nonzero;stroke:none;stroke-width:2;stroke-linecap:round;stroke-linejoin:round;stroke-miterlimit:4;stroke-dasharray:none;stroke-dashoffset:0;stroke-opacity:1"
     inkscape:transform-center-y="0.78196651"
     d="m 321.81323,283.85143 c 0.0669,0.11586 -2.72553,4.95248 -2.85931,4.95248 -0.13378,0 -2.9262,-4.83662 -2.85931,-4.95248 0.0669,-0.11585 5.65173,-0.11585 5.71862,0 z"
     id="path893" />
  <path
     transform="rotate(-90,210.59652,313.80447)"
     style="fill:#000000;fill-opacity:1;fill-rule:nonzero;stroke:none;stroke-width:6.44955254;stroke-linecap:round;stroke-linejoin:round;stroke-miterlimit:4;stroke-dasharray:none;stroke-dashoffset:0;stroke-opacity:1"
     inkscape:transform-center-x="-2.5216664"
     inkscape:transform-center-y="1.4707396e-06"
     d="m 220.68701,306.82911 c 0.21571,0.37361 -8.78923,15.97062 -9.22064,15.97062 -0.43141,0 -9.43635,-15.59701 -9.22064,-15.97062 0.2157,-0.37361 18.22558,-0.37361 18.44128,0 z"
     id="path895" />
  <path
     style="fill:#000000;fill-opacity:1;fill-rule:nonzero;stroke:#000000;stroke-width:2;stroke-linecap:round;stroke-linejoin:round;stroke-miterlimit:4;stroke-dasharray:none;stroke-dashoffset:0;stroke-opacity:1;marker-end:url(#TriangleOutM)"
     d="M 320.11264,312.93462 H 306.40211"
     id="path897"
     inkscape:connector-curvature="0"
     sodipodi:nodetypes="cc" />
</svg>
