<?xml version="1.0" encoding="UTF-8" standalone="no"?>
<svg
   xmlns:dc="http://purl.org/dc/elements/1.1/"
   xmlns:cc="http://creativecommons.org/ns#"
   xmlns:rdf="http://www.w3.org/1999/02/22-rdf-syntax-ns#"
   xmlns:svg="http://www.w3.org/2000/svg"
   xmlns="http://www.w3.org/2000/svg"
   xmlns:sodipodi="http://sodipodi.sourceforge.net/DTD/sodipodi-0.dtd"
   xmlns:inkscape="http://www.inkscape.org/namespaces/inkscape"
   viewBox="0.0 0.0 348.0 348.0"
   fill="none"
   version="1.1"
   id="svg6"
   sodipodi:docname="SevenWithColorInd.svg"
   inkscape:version="0.92.4 (5da689c313, 2019-01-14)">
  <metadata
     id="metadata12">
    <rdf:RDF>
      <cc:Work
         rdf:about="">
        <dc:format>image/svg+xml</dc:format>
        <dc:type
           rdf:resource="http://purl.org/dc/dcmitype/StillImage" />
        <dc:title></dc:title>
      </cc:Work>
    </rdf:RDF>
  </metadata>
  <defs
     id="defs10" />
  <sodipodi:namedview
     pagecolor="#ffffff"
     bordercolor="#666666"
     borderopacity="1"
     objecttolerance="10"
     gridtolerance="10"
     guidetolerance="10"
     inkscape:pageopacity="0"
     inkscape:pageshadow="2"
     inkscape:window-width="1920"
     inkscape:window-height="1057"
     id="namedview8"
     showgrid="false"
     showguides="true"
     inkscape:guide-bbox="true"
     inkscape:zoom="1.7456447"
     inkscape:cx="13.932488"
     inkscape:cy="287.91401"
     inkscape:window-x="1272"
     inkscape:window-y="-8"
     inkscape:window-maximized="1"
     inkscape:current-layer="svg6"
     inkscape:snap-bbox="true"
     inkscape:bbox-paths="true"
     inkscape:bbox-nodes="true"
     inkscape:snap-bbox-edge-midpoints="true"
     inkscape:snap-bbox-midpoints="true"
     inkscape:snap-object-midpoints="true"
     inkscape:snap-nodes="false"
     inkscape:snap-text-baseline="true"
     inkscape:snap-global="false">
    <sodipodi:guide
       position="173.536,173.389"
       orientation="1,0"
       id="guide852"
       inkscape:locked="false"
       inkscape:label=""
       inkscape:color="rgb(0,0,255)" />
    <sodipodi:guide
       position="173.536,173.389"
       orientation="0,1"
       id="guide854"
       inkscape:locked="false" />
  </sodipodi:namedview>
  <path
     d="M5.079 5.776h336.913v337.67H5.08z"
     id="path2"
     stroke-width="2"
     stroke="#000" />
  <path
     d="m 24.129041,312.42666 c 0,-8.376 6.966,-15.165 15.56,-15.165 4.126,0 8.084,1.597 11.001,4.441 2.918,2.844 4.558,6.702 4.558,10.724 0,8.376 -6.966,15.165 -15.56,15.165 -8.593,0 -15.559,-6.79 -15.559,-15.165 z"
     id="path4"
     inkscape:connector-curvature="0"
     style="stroke:#000000;stroke-width:2" />
  <text
     xml:space="preserve"
     style="font-style:normal;font-weight:normal;font-size:40px;line-height:1.25;font-family:sans-serif;letter-spacing:0px;word-spacing:0px;fill:#000000;fill-opacity:1;stroke:none"
     x="92.631912"
     y="244.0715"
     id="text844"><tspan
       sodipodi:role="line"
       id="tspan842"
       x="92.631912"
       y="280.56473" /></text>
  <path
     sodipodi:nodetypes="ccccccc"
     inkscape:connector-curvature="0"
     id="path5126"
     d="m 190.99113,65.568771 h 87.37334 L 300.20781,43.725443 278.36447,21.882086 H 190.99113 L 169.1478,43.725443 Z"
     style="fill:none;stroke:#000000;stroke-width:3.1301825;stroke-linecap:butt;stroke-linejoin:round;stroke-miterlimit:4;stroke-dasharray:none;stroke-opacity:1" />
  <path
     style="fill:none;stroke:#000000;stroke-width:3.1301825;stroke-linecap:butt;stroke-linejoin:round;stroke-miterlimit:4;stroke-dasharray:none;stroke-opacity:1"
     d="M 322.05115,152.9421 V 65.568771 L 300.20781,43.725443 278.36447,65.568771 V 152.9421 l 21.84334,21.84334 z"
     id="path5128"
     inkscape:connector-curvature="0"
     sodipodi:nodetypes="ccccccc" />
  <path
     sodipodi:nodetypes="ccccccc"
     inkscape:connector-curvature="0"
     id="path5130"
     d="M 190.99113,152.9421 V 65.568771 L 169.1478,43.725443 147.30446,65.568771 V 152.9421 l 21.84334,21.84334 z"
     style="fill:none;stroke:#000000;stroke-width:3.1301825;stroke-linecap:butt;stroke-linejoin:round;stroke-miterlimit:4;stroke-dasharray:none;stroke-opacity:1" />
  <path
     style="fill:none;stroke:#000000;stroke-width:3.1301825;stroke-linecap:butt;stroke-linejoin:round;stroke-miterlimit:4;stroke-dasharray:none;stroke-opacity:1"
     d="m 190.99113,196.62877 h 87.37334 l 21.84334,-21.84333 -21.84334,-21.84334 h -87.37334 l -21.84333,21.84334 z"
     id="path5132"
     inkscape:connector-curvature="0"
     sodipodi:nodetypes="ccccccc" />
  <path
     sodipodi:nodetypes="ccccccc"
     inkscape:connector-curvature="0"
     id="path5134"
     d="m 322.05115,284.00213 v -87.37336 l -21.84334,-21.84333 -21.84334,21.84333 v 87.37336 l 21.84334,21.84334 z"
     style="fill:none;stroke:#000000;stroke-width:3.1301825;stroke-linecap:butt;stroke-linejoin:round;stroke-miterlimit:4;stroke-dasharray:none;stroke-opacity:1" />
  <path
     style="fill:none;stroke:#000000;stroke-width:3.1301825;stroke-linecap:butt;stroke-linejoin:round;stroke-miterlimit:4;stroke-dasharray:none;stroke-opacity:1"
     d="m 190.99113,284.00213 v -87.37336 l -21.84333,-21.84333 -21.84334,21.84333 v 87.37336 l 21.84334,21.84334 z"
     id="path5136"
     inkscape:connector-curvature="0"
     sodipodi:nodetypes="ccccccc" />
  <path
     sodipodi:nodetypes="ccccccc"
     inkscape:connector-curvature="0"
     id="path5138"
     d="m 190.99113,327.68878 h 87.37334 l 21.84334,-21.84331 -21.84334,-21.84334 h -87.37334 l -21.84333,21.84334 z"
     style="fill:none;stroke:#000000;stroke-width:3.1301825;stroke-linecap:butt;stroke-linejoin:round;stroke-miterlimit:4;stroke-dasharray:none;stroke-opacity:1" />
  <rect
     style="fill:none;fill-opacity:1;fill-rule:nonzero;stroke:#000000;stroke-width:2;stroke-linejoin:round;stroke-miterlimit:4;stroke-dasharray:none;stroke-opacity:1"
     id="rect853"
     width="199.62851"
     height="322.04703"
     x="134.60956"
     y="13.253966" />
  <circle
     style="fill:none;fill-opacity:1;fill-rule:nonzero;stroke:#000000;stroke-width:2;stroke-linejoin:round;stroke-miterlimit:4;stroke-dasharray:none;stroke-opacity:1"
     id="path855"
     cx="69.590607"
     cy="117.38589"
     r="24.687799" />
  <circle
     r="19.16218"
     cy="117.38589"
     cx="69.590607"
     id="circle859"
     style="fill:none;fill-opacity:1;fill-rule:nonzero;stroke:#000000;stroke-width:2;stroke-linejoin:round;stroke-miterlimit:4;stroke-dasharray:none;stroke-opacity:1" />
  <rect
     style="fill:none;fill-opacity:1;fill-rule:nonzero;stroke:#000000;stroke-width:2;stroke-linejoin:round;stroke-miterlimit:4;stroke-dasharray:none;stroke-opacity:1"
     id="rect863"
     width="115.88755"
     height="71.622444"
     x="12.699015"
     y="13.761927" />
  <g
     aria-label="5UB"
     style="font-style:normal;font-weight:normal;font-size:40px;line-height:1.25;font-family:sans-serif;letter-spacing:0px;word-spacing:0px;fill:#000000;fill-opacity:1;stroke:none"
     id="text867">
    <path
       d="m 51.537796,54.303783 q 0,2.03125 -0.742187,3.886719 -0.742188,1.855469 -2.03125,3.125 -1.40625,1.367188 -3.359375,2.109375 -1.933594,0.722656 -4.492188,0.722656 -2.382812,0 -4.589844,-0.507812 -2.207031,-0.488281 -3.730468,-1.191406 v -4.121094 h 0.273437 q 1.601563,1.015625 3.75,1.738281 2.148438,0.703125 4.21875,0.703125 1.386719,0 2.675781,-0.390625 1.308594,-0.390625 2.324219,-1.367187 0.859375,-0.839844 1.289063,-2.011719 0.449218,-1.171875 0.449218,-2.714844 0,-1.503906 -0.527343,-2.539062 -0.507813,-1.035157 -1.425782,-1.660157 -1.015625,-0.742187 -2.480468,-1.035156 -1.445313,-0.3125 -3.242188,-0.3125 -1.71875,0 -3.320312,0.234375 -1.582032,0.234375 -2.734375,0.46875 V 34.460033 h 17.5 v 3.417969 H 37.612015 v 7.734375 q 0.839844,-0.07813 1.71875,-0.117187 0.878906,-0.03906 1.523437,-0.03906 2.363282,0 4.140625,0.410156 1.777344,0.390625 3.261719,1.40625 1.5625,1.074219 2.421875,2.773438 0.859375,1.699219 0.859375,4.257812 z"
       style="line-height:2;text-align:center;baseline-shift:baseline;text-anchor:middle"
       id="path869" />
    <path
       d="m 80.209671,51.862377 q 0,3.164063 -0.703125,5.527344 -0.683594,2.34375 -2.265625,3.90625 -1.503906,1.484375 -3.515625,2.167969 -2.011719,0.683593 -4.6875,0.683593 -2.734375,0 -4.765625,-0.722656 -2.03125,-0.722656 -3.417969,-2.128906 -1.582031,-1.601563 -2.285156,-3.867188 -0.683594,-2.265625 -0.683594,-5.566406 V 34.460033 H 61.75264 V 52.05769 q 0,2.363281 0.3125,3.730468 0.332031,1.367188 1.09375,2.480469 0.859375,1.269531 2.324219,1.914063 1.484375,0.644531 3.554687,0.644531 2.089844,0 3.554688,-0.625 1.464843,-0.644531 2.34375,-1.933594 0.761718,-1.113281 1.074218,-2.539062 0.332032,-1.445313 0.332032,-3.574219 V 34.460033 h 3.867187 z"
       style="line-height:2;text-align:center;baseline-shift:baseline;text-anchor:middle"
       id="path871" />
    <path
       d="m 109.54561,54.596752 q 0,2.167969 -0.82031,3.828125 -0.82032,1.660156 -2.20704,2.734375 -1.64062,1.289063 -3.61328,1.835938 -1.95312,0.546875 -4.980465,0.546875 h -10.3125 V 34.460033 h 8.613281 q 3.183594,0 4.765624,0.234375 1.58203,0.234375 3.02734,0.976563 1.60157,0.839844 2.32422,2.167969 0.72266,1.308593 0.72266,3.144531 0,2.070312 -1.05469,3.535156 -1.05469,1.445313 -2.8125,2.324219 v 0.15625 q 2.94922,0.605469 4.64844,2.597656 1.69922,1.972656 1.69922,5 z M 103.0417,41.491283 q 0,-1.054687 -0.35156,-1.777343 -0.35156,-0.722657 -1.13281,-1.171875 -0.91797,-0.527344 -2.226565,-0.644532 -1.308594,-0.136718 -3.242188,-0.136718 h -4.609375 v 8.398437 h 5 q 1.816407,0 2.890625,-0.175781 1.074223,-0.195313 1.992183,-0.78125 0.91797,-0.585938 1.28907,-1.503906 0.39062,-0.9375 0.39062,-2.207032 z m 2.48047,13.261719 q 0,-1.757812 -0.52734,-2.792969 -0.52735,-1.035156 -1.91407,-1.757812 -0.9375,-0.488281 -2.28515,-0.625 -1.328126,-0.15625 -3.242189,-0.15625 h -6.074219 v 10.820312 h 5.117188 q 2.539062,0 4.16016,-0.253906 1.62109,-0.273437 2.65625,-0.976562 1.09375,-0.761719 1.60156,-1.738282 0.50781,-0.976562 0.50781,-2.519531 z"
       style="line-height:2;text-align:center;baseline-shift:baseline;text-anchor:middle"
       id="path873" />
  </g>
  <rect
     style="fill:none;fill-opacity:1;fill-rule:nonzero;stroke:#000000;stroke-width:2;stroke-linejoin:round;stroke-miterlimit:4;stroke-dasharray:none;stroke-opacity:1"
     id="rect876"
     width="117.86545"
     height="117.86545"
     x="10.657879"
     y="148.3622" />
  <path
     sodipodi:type="star"
     style="fill:none;fill-opacity:1;fill-rule:nonzero;stroke:#000000;stroke-width:2;stroke-linejoin:round;stroke-miterlimit:4;stroke-dasharray:none;stroke-opacity:1"
     id="path878"
     sodipodi:sides="3"
     sodipodi:cx="106.16377"
     sodipodi:cy="171.22971"
     sodipodi:r1="24.196205"
     sodipodi:r2="12.098103"
     sodipodi:arg1="-0.78539816"
     sodipodi:arg2="0.26179939"
     inkscape:flatsided="false"
     inkscape:rounded="0"
     inkscape:randomized="0"
     d="m 123.27307,154.12041 -5.42343,20.24052 -5.42343,20.24052 -14.817088,-14.81709 -14.817089,-14.81709 20.240517,-5.42343 z"
     inkscape:transform-center-x="3.1312195"
     inkscape:transform-center-y="3.1312195" />
  <path
     inkscape:transform-center-y="3.1312195"
     inkscape:transform-center-x="3.1312195"
     d="m 112.42621,194.60145 -5.42343,20.24052 -5.42343,20.24052 L 86.762259,220.2654 71.94517,205.44832 92.18569,200.02488 Z"
     inkscape:randomized="0"
     inkscape:rounded="0"
     inkscape:flatsided="false"
     sodipodi:arg2="0.26179939"
     sodipodi:arg1="-0.78539816"
     sodipodi:r2="12.098103"
     sodipodi:r1="24.196205"
     sodipodi:cy="211.71075"
     sodipodi:cx="95.31691"
     sodipodi:sides="3"
     id="path880"
     style="fill:none;fill-opacity:1;fill-rule:nonzero;stroke:#000000;stroke-width:2;stroke-linejoin:round;stroke-miterlimit:4;stroke-dasharray:none;stroke-opacity:1"
     sodipodi:type="star" />
  <path
     sodipodi:type="star"
     style="fill:none;fill-opacity:1;fill-rule:nonzero;stroke:#000000;stroke-width:2;stroke-linejoin:round;stroke-miterlimit:4;stroke-dasharray:none;stroke-opacity:1"
     id="path882"
     sodipodi:sides="3"
     sodipodi:cx="65.682732"
     sodipodi:cy="182.07658"
     sodipodi:r1="24.196205"
     sodipodi:r2="12.098103"
     sodipodi:arg1="-0.78539816"
     sodipodi:arg2="0.26179939"
     inkscape:flatsided="false"
     inkscape:rounded="0"
     inkscape:randomized="0"
     d="M 82.792032,164.96728 77.368601,185.2078 71.94517,205.44832 57.128081,190.63123 42.310992,175.81415 62.551512,170.39071 Z"
     inkscape:transform-center-x="3.1312195"
     inkscape:transform-center-y="3.1312195" />
  <path
     inkscape:transform-center-y="3.1312195"
     inkscape:transform-center-x="3.1312195"
     d="M 71.94517,205.44832 66.521739,225.68884 61.098307,245.92936 46.281218,231.11227 31.464129,216.29518 51.70465,210.87175 Z"
     inkscape:randomized="0"
     inkscape:rounded="0"
     inkscape:flatsided="false"
     sodipodi:arg2="0.26179939"
     sodipodi:arg1="-0.78539816"
     sodipodi:r2="12.098103"
     sodipodi:r1="24.196205"
     sodipodi:cy="222.55762"
     sodipodi:cx="54.835869"
     sodipodi:sides="3"
     id="path884"
     style="fill:none;fill-opacity:1;fill-rule:nonzero;stroke:#000000;stroke-width:2;stroke-linejoin:round;stroke-miterlimit:4;stroke-dasharray:none;stroke-opacity:1"
     sodipodi:type="star" />
  <path
     inkscape:transform-center-y="-3.1312148"
     inkscape:transform-center-x="-3.1312212"
     d="m -83.466886,156.66022 -5.423431,20.24052 -5.423432,20.24052 -14.817091,-14.81709 -14.81709,-14.81709 20.24052,-5.42343 z"
     inkscape:randomized="0"
     inkscape:rounded="0"
     inkscape:flatsided="false"
     sodipodi:arg2="0.26179939"
     sodipodi:arg1="-0.78539816"
     sodipodi:r2="12.098103"
     sodipodi:r1="24.196205"
     sodipodi:cy="173.76952"
     sodipodi:cx="-100.57619"
     sodipodi:sides="3"
     id="path894"
     style="fill:none;fill-opacity:1;fill-rule:nonzero;stroke:#000000;stroke-width:2;stroke-linejoin:round;stroke-miterlimit:4;stroke-dasharray:none;stroke-opacity:1"
     sodipodi:type="star"
     transform="rotate(60,-58.859454,356.12609)" />
  <path
     transform="rotate(60,-88.493632,326.49191)"
     sodipodi:type="star"
     style="fill:none;fill-opacity:1;fill-rule:nonzero;stroke:#000000;stroke-width:2;stroke-linejoin:round;stroke-miterlimit:4;stroke-dasharray:none;stroke-opacity:1"
     id="path896"
     sodipodi:sides="3"
     sodipodi:cx="-100.57619"
     sodipodi:cy="173.76952"
     sodipodi:r1="24.196205"
     sodipodi:r2="12.098103"
     sodipodi:arg1="-0.78539816"
     sodipodi:arg2="0.26179939"
     inkscape:flatsided="false"
     inkscape:rounded="0"
     inkscape:randomized="0"
     d="m -83.466886,156.66022 -5.423431,20.24052 -5.423432,20.24052 -14.817091,-14.81709 -14.81709,-14.81709 20.24052,-5.42343 z"
     inkscape:transform-center-x="-3.1312212"
     inkscape:transform-center-y="-3.1312148" />
  <path
     inkscape:transform-center-y="-3.1312148"
     inkscape:transform-center-x="-3.1312212"
     d="m -83.466886,156.66022 -5.423431,20.24052 -5.423432,20.24052 -14.817091,-14.81709 -14.81709,-14.81709 20.24052,-5.42343 z"
     inkscape:randomized="0"
     inkscape:rounded="0"
     inkscape:flatsided="false"
     sodipodi:arg2="0.26179939"
     sodipodi:arg1="-0.78539816"
     sodipodi:r2="12.098103"
     sodipodi:r1="24.196205"
     sodipodi:cy="173.76952"
     sodipodi:cx="-100.57619"
     sodipodi:sides="3"
     id="path898"
     style="fill:none;fill-opacity:1;fill-rule:nonzero;stroke:#000000;stroke-width:2;stroke-linejoin:round;stroke-miterlimit:4;stroke-dasharray:none;stroke-opacity:1"
     sodipodi:type="star"
     transform="rotate(60,-48.012599,315.64506)" />
  <path
     transform="rotate(60,-48.012599,315.64506)"
     sodipodi:type="star"
     style="fill:none;fill-opacity:1;fill-rule:nonzero;stroke:#000000;stroke-width:2;stroke-linejoin:round;stroke-miterlimit:4;stroke-dasharray:none;stroke-opacity:1"
     id="path900"
     sodipodi:sides="3"
     sodipodi:cx="-100.57619"
     sodipodi:cy="173.76952"
     sodipodi:r1="24.196205"
     sodipodi:r2="12.098103"
     sodipodi:arg1="-0.78539816"
     sodipodi:arg2="0.26179939"
     inkscape:flatsided="false"
     inkscape:rounded="0"
     inkscape:randomized="0"
     d="m -83.466886,156.66022 -5.423431,20.24052 -5.423432,20.24052 -14.817091,-14.81709 -14.81709,-14.81709 20.24052,-5.42343 z"
     inkscape:transform-center-x="-3.1312212"
     inkscape:transform-center-y="-3.1312148" />
  <text
     xml:space="preserve"
     style="font-style:normal;font-weight:normal;font-size:40px;line-height:1.25;font-family:sans-serif;letter-spacing:0px;word-spacing:0px;fill:#000000;fill-opacity:1;stroke:none"
     x="34.944111"
     y="244.88623"
     id="text843"><tspan
       sodipodi:role="line"
       id="tspan841"
       x="34.944111"
       y="281.37946"></tspan></text>
  <g
     aria-label="K"
     style="font-style:normal;font-weight:normal;font-size:24px;line-height:1.25;font-family:sans-serif;text-align:center;letter-spacing:0px;word-spacing:0px;text-anchor:middle;fill:#000000;fill-opacity:1;stroke:none"
     id="text847">
    <path
       d="m 114.79461,180.04494 h -3.01172 l -6.90234,-7.76953 -1.73438,1.85156 v 5.91797 h -2.32031 v -17.44922 h 2.32031 v 9.10547 l 8.47266,-9.10547 h 2.8125 l -7.79297,8.20312 z"
       style=""
       id="path902" />
  </g>
  <g
     aria-label="G"
     style="font-style:normal;font-weight:normal;font-size:24px;line-height:1.25;font-family:sans-serif;text-align:center;letter-spacing:0px;word-spacing:0px;text-anchor:middle;fill:#000000;fill-opacity:1;stroke:none"
     id="text851">
    <path
       d="m 95.433388,196.51436 q -1.429688,0.65625 -3.128906,1.14844 -1.6875,0.48046 -3.269532,0.48046 -2.039062,0 -3.738281,-0.5625 -1.699219,-0.5625 -2.894531,-1.6875 -1.207031,-1.13671 -1.863281,-2.83593 -0.65625,-1.71094 -0.65625,-3.9961 0,-4.18359 2.4375,-6.59765 2.449218,-2.42578 6.714843,-2.42578 1.488282,0 3.035157,0.36328 1.558593,0.35156 3.351562,1.20703 v 2.7539 h -0.210937 q -0.363282,-0.28125 -1.054688,-0.73828 -0.691406,-0.45703 -1.359375,-0.76172 -0.808594,-0.36328 -1.839844,-0.59765 -1.019531,-0.2461 -2.320312,-0.2461 -2.929688,0 -4.640625,1.88672 -1.699219,1.875 -1.699219,5.08594 0,3.38672 1.78125,5.27344 1.78125,1.875 4.851563,1.875 1.125,0 2.238281,-0.22266 1.125,-0.22265 1.96875,-0.57422 v -4.27734 h -4.675781 v -2.03906 h 6.972656 z"
       style=""
       id="path899" />
  </g>
  <g
     aria-label="R"
     style="font-style:normal;font-weight:normal;font-size:24px;line-height:1.25;font-family:sans-serif;text-align:center;letter-spacing:0px;word-spacing:0px;text-anchor:middle;fill:#000000;fill-opacity:1;stroke:none"
     id="text855">
    <path
       d="m 73.935822,190.92917 h -3.011719 l -5.835938,-6.9375 h -3.269531 v 6.9375 h -2.320312 v -17.44922 h 4.886718 q 1.582032,0 2.636719,0.21094 1.054688,0.19922 1.898438,0.72656 0.949218,0.59766 1.476562,1.51172 0.539063,0.90234 0.539063,2.29687 0,1.88672 -0.949219,3.16407 -0.949219,1.26562 -2.613281,1.91015 z M 68.51004,178.39011 q 0,-0.75 -0.269531,-1.32422 -0.257812,-0.58594 -0.867187,-0.98438 -0.503907,-0.33984 -1.195313,-0.46875 -0.691406,-0.14062 -1.628906,-0.14062 h -2.730469 v 6.58593 h 2.34375 q 1.101563,0 1.921875,-0.1875 0.820313,-0.19921 1.394531,-0.72656 0.527344,-0.49219 0.773438,-1.125 0.257812,-0.64453 0.257812,-1.6289 z"
       style=""
       id="path883" />
  </g>
  <g
     aria-label="B"
     style="font-style:normal;font-weight:normal;font-size:24px;line-height:1.25;font-family:sans-serif;text-align:center;letter-spacing:0px;word-spacing:0px;text-anchor:middle;fill:#000000;fill-opacity:1;stroke:none"
     id="text859">
    <path
       d="m 102.56409,215.3504 q 0,1.30078 -0.49219,2.29688 -0.49219,0.99609 -1.32422,1.64062 -0.984374,0.77344 -2.167968,1.10157 -1.171875,0.32812 -2.988281,0.32812 h -6.1875 v -17.44922 h 5.167968 q 1.910157,0 2.859375,0.14063 0.949219,0.14062 1.816407,0.58593 0.960939,0.50391 1.394529,1.30079 0.4336,0.78515 0.4336,1.88671 0,1.24219 -0.63282,2.1211 -0.632809,0.86719 -1.687497,1.39453 v 0.0937 q 1.769527,0.36328 2.789067,1.55859 1.01953,1.1836 1.01953,3 z m -3.902347,-7.86328 q 0,-0.63281 -0.210937,-1.0664 -0.210938,-0.4336 -0.679688,-0.70313 -0.550781,-0.31641 -1.335937,-0.38672 -0.785157,-0.082 -1.945313,-0.082 h -2.765625 v 5.03906 h 3 q 1.089844,0 1.734375,-0.10547 0.644531,-0.11718 1.195313,-0.46875 0.550781,-0.35156 0.773437,-0.90234 0.234375,-0.5625 0.234375,-1.32422 z m 1.488277,7.95703 q 0,-1.05468 -0.316402,-1.67578 -0.316406,-0.62109 -1.148437,-1.05469 -0.5625,-0.29296 -1.371094,-0.375 -0.796875,-0.0937 -1.945313,-0.0937 h -3.644531 v 6.49219 h 3.070313 q 1.523437,0 2.496093,-0.15234 0.972657,-0.16406 1.59375,-0.58594 0.65625,-0.45703 0.960938,-1.04297 0.304683,-0.58594 0.304683,-1.51172 z"
       style=""
       id="path895" />
  </g>
  <g
     aria-label="C"
     style="font-style:normal;font-weight:normal;font-size:24px;line-height:1.25;font-family:sans-serif;text-align:center;letter-spacing:0px;word-spacing:0px;text-anchor:middle;fill:#000000;fill-opacity:1;stroke:none"
     id="text863">
    <path
       d="m 54.023819,206.27632 q -0.644531,0.28125 -1.171875,0.52735 -0.515625,0.24609 -1.359375,0.51562 -0.714844,0.22266 -1.558594,0.375 -0.832031,0.16406 -1.839844,0.16406 -1.898437,0 -3.457031,-0.52734 -1.546875,-0.53906 -2.695312,-1.67578 -1.125,-1.11328 -1.757813,-2.82422 -0.632812,-1.72266 -0.632812,-3.99609 0,-2.15625 0.609375,-3.85547 0.609375,-1.69922 1.757812,-2.8711 1.113281,-1.13672 2.683594,-1.73437 1.582031,-0.59766 3.503906,-0.59766 1.40625,0 2.800781,0.33985 1.40625,0.33984 3.117188,1.19531 v 2.7539 h -0.175781 q -1.441407,-1.20703 -2.859375,-1.75781 -1.417969,-0.55078 -3.035157,-0.55078 -1.324218,0 -2.390625,0.43359 -1.054687,0.42188 -1.886718,1.32422 -0.808594,0.87891 -1.265625,2.22657 -0.445313,1.33593 -0.445313,3.09375 0,1.83984 0.492188,3.16406 0.503906,1.32422 1.289062,2.15625 0.820313,0.86719 1.910156,1.28906 1.101563,0.41016 2.320313,0.41016 1.675781,0 3.140625,-0.57422 1.464844,-0.57422 2.742187,-1.72266 h 0.164063 z"
       style=""
       id="path886" />
  </g>
  <g
     aria-label="M"
     style="font-style:normal;font-weight:normal;font-size:24px;line-height:1.25;font-family:sans-serif;text-align:center;letter-spacing:0px;word-spacing:0px;text-anchor:middle;fill:#000000;fill-opacity:1;stroke:none"
     id="text868">
    <path
       d="M 63.517612,231.02896 H 61.1973 V 215.9938 l -4.851563,10.23047 H 54.962925 L 50.146519,215.9938 v 15.03516 H 47.97855 v -17.44922 h 3.164062 l 4.652344,9.71485 4.5,-9.71485 h 3.222656 z"
       style=""
       id="path889" />
  </g>
  <g
     aria-label="Y"
     style="font-style:normal;font-weight:normal;font-size:24px;line-height:1.25;font-family:sans-serif;text-align:center;letter-spacing:0px;word-spacing:0px;text-anchor:middle;fill:#000000;fill-opacity:1;stroke:none"
     id="text872">
    <path
       d="m 84.840759,220.45399 -6.140625,9.79688 v 7.65234 h -2.320312 v -7.40625 l -6.164063,-10.04297 h 2.566407 l 4.769531,7.80469 4.816406,-7.80469 z"
       style=""
       id="path892" />
  </g>
  <g
     aria-label="W"
     style="font-style:normal;font-weight:normal;font-size:24px;line-height:1.25;font-family:sans-serif;text-align:center;letter-spacing:0px;word-spacing:0px;text-anchor:middle;fill:#000000;fill-opacity:1;stroke:none"
     id="text876">
    <path
       d="m 47.648579,233.62964 -4.535157,17.44922 h -2.613281 l -3.667969,-14.48438 -3.585937,14.48438 H 30.691547 L 26.07436,233.62964 h 2.378906 l 3.667969,14.50781 3.609375,-14.50781 h 2.355469 l 3.644531,14.64844 3.644531,-14.64844 z"
       style=""
       id="path879" />
  </g>
</svg>
