# Blender v2.80 (sub 75) OBJ File: 'RectangleButton.blend'
# www.blender.org
mtllib RectangleButton.mtl
o Cube
v 2.826689 0.000266 -1.000000
v 2.826689 0.000266 1.000000
v -2.826689 0.000266 1.000000
v -2.826688 0.000266 -1.000000
v 2.458616 0.793552 -0.712389
v 2.458613 0.793552 0.712391
v -2.458615 0.793552 0.712390
v -2.458614 0.793552 -0.712390
v 2.826690 0.647403 -1.000000
v 2.826688 0.647403 1.000000
v -2.826690 0.647403 1.000000
v -2.826689 0.647403 -1.000000
vn 0.0000 -1.0000 0.0000
vn 0.0000 1.0000 -0.0000
vn 0.3690 0.9294 0.0000
vn -0.0000 0.8915 0.4530
vn -0.3690 0.9294 -0.0000
vn 0.0000 0.0000 -1.0000
vn 0.0000 0.8915 -0.4530
vn -1.0000 -0.0000 -0.0000
vn -0.0000 -0.0000 1.0000
vn 1.0000 0.0000 0.0000
usemtl Material
s off
f 1//1 2//1 3//1 4//1
f 5//2 8//2 7//2 6//2
f 9//3 5//3 6//3 10//3
f 10//4 6//4 7//4 11//4
f 11//5 7//5 8//5 12//5
f 9//6 1//6 4//6 12//6
f 5//7 9//7 12//7 8//7
f 3//8 11//8 12//8 4//8
f 2//9 10//9 11//9 3//9
f 1//10 9//10 10//10 2//10
