# Blender v2.80 (sub 75) OBJ File: 'Dial.blend'
# www.blender.org
mtllib Dial.mtl
o Cube
v 0.000000 0.000000 -1.000000
v -0.156434 0.000000 -0.987688
v -0.309017 0.000000 -0.951057
v -0.453991 0.000000 -0.891007
v -0.587785 0.000000 -0.809017
v -0.707107 0.000000 -0.707107
v -0.809017 0.000000 -0.587785
v -0.891007 0.000000 -0.453991
v -0.951057 0.000000 -0.309017
v -0.987688 0.000000 -0.156434
v -1.000000 0.000000 0.000000
v -0.987688 0.000000 0.156435
v -0.951056 0.000000 0.309017
v -0.891006 0.000000 0.453991
v -0.809017 0.000000 0.587786
v -0.707106 0.000000 0.707107
v -0.587785 0.000000 0.809017
v -0.453990 0.000000 0.891007
v -0.309016 0.000000 0.951057
v -0.156434 0.000000 0.987688
v 0.000001 0.000000 1.000000
v 0.156435 0.000000 0.987688
v 0.309018 0.000000 0.951056
v 1.970000 0.000000 -0.000001
v 0.453989 0.000000 -0.891007
v 0.309015 0.000000 -0.951057
v 0.156432 0.000000 -0.987689
v -0.144823 0.030000 -0.914373
v -0.156434 0.000000 -0.987688
v 0.000000 0.000000 -1.000000
v 0.000000 0.030000 -0.925771
v -0.286079 0.030000 -0.880461
v -0.309017 0.000000 -0.951057
v -0.420291 0.030000 -0.824868
v -0.453991 0.000000 -0.891007
v -0.544155 0.030000 -0.748965
v -0.587785 0.000000 -0.809017
v -0.654619 0.030000 -0.654619
v -0.707107 0.000000 -0.707107
v -0.748965 0.030000 -0.544155
v -0.809017 0.000000 -0.587785
v -0.824868 0.030000 -0.420291
v -0.891007 0.000000 -0.453991
v -0.880461 0.030000 -0.286079
v -0.951057 0.000000 -0.309017
v -0.914373 0.030000 -0.144822
v -0.987688 0.000000 -0.156434
v -0.925771 0.030000 0.000000
v -1.000000 0.000000 0.000000
v -0.914373 0.030000 0.144823
v -0.987688 0.000000 0.156435
v -0.880461 0.030000 0.286079
v -0.951056 0.000000 0.309017
v -0.824868 0.030000 0.420292
v -0.891006 0.000000 0.453991
v -0.748964 0.030000 0.544155
v -0.809017 0.000000 0.587786
v -0.654619 0.030000 0.654619
v -0.707106 0.000000 0.707107
v -0.544154 0.030000 0.748965
v -0.587785 0.000000 0.809017
v -0.420291 0.030000 0.824868
v -0.453990 0.000000 0.891007
v -0.286079 0.030000 0.880461
v -0.309016 0.000000 0.951057
v -0.144822 0.030000 0.914374
v -0.156434 0.000000 0.987688
v 0.000001 0.030000 0.925771
v 0.000001 0.000000 1.000000
v 0.144823 0.030000 0.914373
v 0.156435 0.000000 0.987688
v 0.281441 0.030000 0.881574
v 0.309018 0.000000 0.951056
v 0.286077 0.030000 -0.880461
v 0.309015 0.000000 -0.951057
v 0.453989 0.000000 -0.891007
v 0.420923 0.030000 -0.824606
v 0.144821 0.030000 -0.914374
v 0.156432 0.000000 -0.987689
v 1.970000 0.000000 -0.000001
v 1.822535 0.030000 -0.000837
v 0.000000 0.050000 -0.949845
v -0.148589 0.050000 -0.938151
v -0.293518 0.050000 -0.903357
v -0.431221 0.050000 -0.846318
v -0.558305 0.050000 -0.768441
v -0.671642 0.050000 -0.671642
v -0.768441 0.050000 -0.558305
v -0.846318 0.050000 -0.431221
v -0.903357 0.050000 -0.293518
v -0.938151 0.050000 -0.148589
v -0.949845 0.050000 0.000000
v -0.938151 0.050000 0.148589
v -0.903357 0.050000 0.293519
v -0.846318 0.050000 0.431221
v -0.768441 0.050000 0.558306
v -0.671642 0.050000 0.671642
v -0.558305 0.050000 0.768441
v -0.431220 0.050000 0.846319
v -0.293518 0.050000 0.903357
v -0.148588 0.050000 0.938151
v 0.000001 0.050000 0.949845
v 0.148589 0.050000 0.938151
v 0.290385 0.050000 0.904109
v 0.431647 0.050000 -0.846142
v 0.293516 0.050000 -0.903357
v 0.148587 0.050000 -0.938152
v 1.870361 0.050000 -0.000566
vt 0.048446 0.447760
vt 0.081085 0.399904
vt 0.120808 0.357743
vt 0.166639 0.322314
vt 0.730170 0.000085
vt 0.730170 0.706654
vt 0.713917 0.762255
vt 0.689165 0.814628
vt 0.656525 0.862486
vt 0.616802 0.904647
vt 0.570971 0.940076
vt 0.520162 0.967899
vt 0.465627 0.987431
vt 0.408707 0.998191
vt 0.350805 0.999915
vt 0.293346 0.992559
vt 0.237745 0.976306
vt 0.185371 0.951554
vt 0.137514 0.918915
vt 0.095353 0.879191
vt 0.059924 0.833360
vt 0.032101 0.782551
vt 0.012569 0.728016
vt 0.001809 0.671096
vt 0.000085 0.613194
vt 0.007441 0.555735
vt 0.023694 0.500134
vt 0.007441 0.555735
vt 0.023694 0.500134
vt 0.520162 0.967899
vt 0.465627 0.987431
vt 0.137514 0.918915
vt 0.095353 0.879191
vt 0.081085 0.399904
vt 0.120808 0.357743
vt 0.072226 0.461377
vt 0.049312 0.509863
vt 0.034265 0.561336
vt 0.027455 0.614530
vt 0.029051 0.668134
vt 0.039012 0.720829
vt 0.057094 0.771316
vt 0.082852 0.818354
vt 0.115651 0.860782
vt 0.154683 0.897558
vt 0.198988 0.927775
vt 0.247474 0.950688
vt 0.298947 0.965736
vt 0.352141 0.972545
vt 0.405745 0.970949
vt 0.458440 0.960988
vt 0.508928 0.942905
vt 0.555965 0.917148
vt 0.598393 0.884349
vt 0.635168 0.845317
vt 0.665385 0.801012
vt 0.688300 0.752526
vt 0.702852 0.702743
vt 0.702852 0.047174
vt 0.181846 0.345087
vt 0.139217 0.378041
vt 0.102442 0.417073
vt 0.570971 0.940076
vt 0.185371 0.951554
vt 0.166639 0.322314
vt 0.730170 0.000085
vt 0.048446 0.447760
vt 0.616802 0.904647
vt 0.237745 0.976306
vt 0.000085 0.613194
vt 0.001809 0.671096
vt 0.656525 0.862486
vt 0.293346 0.992559
vt 0.012569 0.728016
vt 0.689165 0.814628
vt 0.350805 0.999915
vt 0.032101 0.782551
vt 0.713917 0.762255
vt 0.408707 0.998191
vt 0.059924 0.833360
vt 0.730170 0.706654
vt 0.041003 0.506707
vt 0.064513 0.456961
vt 0.025565 0.559520
vt 0.018578 0.614097
vt 0.020216 0.669095
vt 0.030436 0.723160
vt 0.048989 0.774960
vt 0.075416 0.823221
vt 0.109068 0.866752
vt 0.149115 0.904484
vt 0.194572 0.935487
vt 0.244319 0.958997
vt 0.297131 0.974435
vt 0.351708 0.981422
vt 0.406706 0.979784
vt 0.460771 0.969564
vt 0.512571 0.951011
vt 0.560832 0.924584
vt 0.604363 0.890932
vt 0.642095 0.850885
vt 0.673098 0.805428
vt 0.696608 0.755681
vt 0.711712 0.704011
vt 0.133247 0.371458
vt 0.176914 0.337701
vt 0.095515 0.411504
vt 0.711712 0.031902
vn 0.0000 -1.0000 0.0000
vn -0.2334 0.0000 -0.9724
vn -0.6494 0.0000 0.7604
vn -0.9724 0.0000 -0.2334
vn 0.2334 0.0000 -0.9724
vn 0.0000 1.0000 -0.0000
vn -0.5225 0.0000 0.8526
vn -0.9969 0.0000 -0.0785
vn 0.5067 0.0000 -0.8621
vn 0.0785 0.0000 -0.9969
vn -0.3827 0.0000 0.9239
vn -0.9969 0.0000 0.0785
vn -0.3827 0.0000 -0.9239
vn -0.5225 0.0000 -0.8526
vn -0.2334 0.0000 0.9724
vn -0.9724 0.0000 0.2334
vn -0.6494 0.0000 -0.7604
vn -0.0785 0.0000 0.9969
vn -0.9239 0.0000 0.3827
vn 0.3827 0.0000 -0.9239
vn -0.7604 0.0000 -0.6494
vn 0.0785 0.0000 0.9969
vn -0.8526 0.0000 0.5225
vn -0.8526 0.0000 -0.5225
vn 0.2334 0.0000 0.9724
vn -0.7604 0.0000 0.6494
vn -0.9239 0.0000 -0.3827
vn 0.4969 0.0000 0.8678
vn -0.0555 0.7071 -0.7049
vn -0.1651 0.7071 -0.6876
vn -0.2706 0.7071 -0.6533
vn -0.3695 0.7071 -0.6029
vn -0.4592 0.7071 -0.5377
vn -0.5377 0.7071 -0.4592
vn -0.6029 0.7071 -0.3695
vn -0.6533 0.7071 -0.2706
vn -0.6876 0.7071 -0.1651
vn -0.7049 0.7071 -0.0555
vn -0.7049 0.7071 0.0555
vn -0.6876 0.7071 0.1651
vn -0.6533 0.7071 0.2706
vn -0.6029 0.7071 0.3695
vn -0.5377 0.7071 0.4592
vn -0.4592 0.7071 0.5377
vn -0.3695 0.7071 0.6029
vn -0.2706 0.7071 0.6533
vn -0.1651 0.7071 0.6876
vn -0.0555 0.7071 0.7049
vn 0.0555 0.7071 0.7049
vn 0.1651 0.7071 0.6876
vn 0.2706 0.7071 -0.6533
vn 0.1651 0.7071 -0.6876
vn 0.0555 0.7071 -0.7049
vn 0.3583 0.7071 -0.6096
vn 0.3514 0.7071 0.6136
vn -0.0785 0.0000 -0.9969
vn 0.0502 0.7682 0.6382
vn 0.1494 0.7682 0.6225
vn 0.2450 0.7682 0.5915
vn 0.3345 0.7682 0.5458
vn 0.4158 0.7682 0.4868
vn 0.4868 0.7682 0.4158
vn 0.5458 0.7682 0.3345
vn 0.5915 0.7682 0.2450
vn 0.6225 0.7682 0.1494
vn 0.6382 0.7682 0.0502
vn 0.6382 0.7682 -0.0502
vn 0.6225 0.7682 -0.1494
vn 0.5915 0.7682 -0.2450
vn 0.5458 0.7682 -0.3345
vn 0.4868 0.7682 -0.4158
vn 0.4158 0.7682 -0.4868
vn 0.3345 0.7682 -0.5458
vn 0.2450 0.7682 -0.5915
vn 0.1494 0.7682 -0.6225
vn 0.0502 0.7682 -0.6382
vn -0.0502 0.7682 -0.6382
vn -0.1494 0.7682 -0.6225
vn -0.2450 0.7682 0.5915
vn -0.1494 0.7682 0.6225
vn -0.0502 0.7682 0.6382
vn -0.3244 0.7682 0.5519
vn -0.3181 0.7682 -0.5556
usemtl Material
s off
f 1/1/1 27/2/1 26/3/1 25/4/1 24/5/1 23/6/1 22/7/1 21/8/1 20/9/1 19/10/1 18/11/1 17/12/1 16/13/1 15/14/1 14/15/1 13/16/1 12/17/1 11/18/1 10/19/1 9/20/1 8/21/1 7/22/1 6/23/1 5/24/1 4/25/1 3/26/1 2/27/1
f 3/26/2 33/28/2 29/29/2 2/27/2
f 17/12/3 61/30/3 59/31/3 16/13/3
f 10/19/4 47/32/4 45/33/4 9/20/4
f 27/2/5 79/34/5 75/35/5 26/3/5
f 31/36/6 28/37/6 32/38/6 34/39/6 36/40/6 38/41/6 40/42/6 42/43/6 44/44/6 46/45/6 48/46/6 50/47/6 52/48/6 54/49/6 56/50/6 58/51/6 60/52/6 62/53/6 64/54/6 66/55/6 68/56/6 70/57/6 72/58/6 81/59/6 77/60/6 74/61/6 78/62/6
f 18/11/7 63/63/7 61/30/7 17/12/7
f 11/18/8 49/64/8 47/32/8 10/19/8
f 25/4/9 76/65/9 80/66/9 24/5/9
f 1/1/10 30/67/10 79/34/10 27/2/10
f 19/10/11 65/68/11 63/63/11 18/11/11
f 12/17/12 51/69/12 49/64/12 11/18/12
f 4/25/13 35/70/13 33/28/13 3/26/13
f 5/24/14 37/71/14 35/70/14 4/25/14
f 20/9/15 67/72/15 65/68/15 19/10/15
f 13/16/16 53/73/16 51/69/16 12/17/16
f 6/23/17 39/74/17 37/71/17 5/24/17
f 21/8/18 69/75/18 67/72/18 20/9/18
f 14/15/19 55/76/19 53/73/19 13/16/19
f 26/3/20 75/35/20 76/65/20 25/4/20
f 7/22/21 41/77/21 39/74/21 6/23/21
f 22/7/22 71/78/22 69/75/22 21/8/22
f 15/14/23 57/79/23 55/76/23 14/15/23
f 8/21/24 43/80/24 41/77/24 7/22/24
f 23/6/25 73/81/25 71/78/25 22/7/25
f 16/13/26 59/31/26 57/79/26 15/14/26
f 9/20/27 45/33/27 43/80/27 8/21/27
f 24/5/28 80/66/28 73/81/28 23/6/28
f 29/29/29 83/82/29 82/83/29 30/67/29
f 33/28/30 84/84/30 83/82/30 29/29/30
f 35/70/31 85/85/31 84/84/31 33/28/31
f 37/71/32 86/86/32 85/85/32 35/70/32
f 39/74/33 87/87/33 86/86/33 37/71/33
f 41/77/34 88/88/34 87/87/34 39/74/34
f 43/80/35 89/89/35 88/88/35 41/77/35
f 45/33/36 90/90/36 89/89/36 43/80/36
f 47/32/37 91/91/37 90/90/37 45/33/37
f 49/64/38 92/92/38 91/91/38 47/32/38
f 51/69/39 93/93/39 92/92/39 49/64/39
f 53/73/40 94/94/40 93/93/40 51/69/40
f 55/76/41 95/95/41 94/94/41 53/73/41
f 57/79/42 96/96/42 95/95/42 55/76/42
f 59/31/43 97/97/43 96/96/43 57/79/43
f 61/30/44 98/98/44 97/97/44 59/31/44
f 63/63/45 99/99/45 98/98/45 61/30/45
f 65/68/46 100/100/46 99/99/46 63/63/46
f 67/72/47 101/101/47 100/100/47 65/68/47
f 69/75/48 102/102/48 101/101/48 67/72/48
f 71/78/49 103/103/49 102/102/49 69/75/49
f 73/81/50 104/104/50 103/103/50 71/78/50
f 75/35/51 106/105/51 105/106/51 76/65/51
f 79/34/52 107/107/52 106/105/52 75/35/52
f 30/67/53 82/83/53 107/107/53 79/34/53
f 108/108/54 80/66/54 76/65/54 105/106/54
f 104/104/55 73/81/55 80/66/55 108/108/55
f 2/27/56 29/29/56 30/67/56 1/1/56
f 31/36/57 82/83/57 83/82/57 28/37/57
f 28/37/58 83/82/58 84/84/58 32/38/58
f 32/38/59 84/84/59 85/85/59 34/39/59
f 34/39/60 85/85/60 86/86/60 36/40/60
f 36/40/61 86/86/61 87/87/61 38/41/61
f 38/41/62 87/87/62 88/88/62 40/42/62
f 40/42/63 88/88/63 89/89/63 42/43/63
f 42/43/64 89/89/64 90/90/64 44/44/64
f 44/44/65 90/90/65 91/91/65 46/45/65
f 46/45/66 91/91/66 92/92/66 48/46/66
f 48/46/67 92/92/67 93/93/67 50/47/67
f 50/47/68 93/93/68 94/94/68 52/48/68
f 52/48/69 94/94/69 95/95/69 54/49/69
f 54/49/70 95/95/70 96/96/70 56/50/70
f 56/50/71 96/96/71 97/97/71 58/51/71
f 58/51/72 97/97/72 98/98/72 60/52/72
f 60/52/73 98/98/73 99/99/73 62/53/73
f 62/53/74 99/99/74 100/100/74 64/54/74
f 64/54/75 100/100/75 101/101/75 66/55/75
f 66/55/76 101/101/76 102/102/76 68/56/76
f 68/56/77 102/102/77 103/103/77 70/57/77
f 70/57/78 103/103/78 104/104/78 72/58/78
f 77/60/79 105/106/79 106/105/79 74/61/79
f 74/61/80 106/105/80 107/107/80 78/62/80
f 78/62/81 107/107/81 82/83/81 31/36/81
f 81/59/82 108/108/82 105/106/82 77/60/82
f 72/58/83 104/104/83 108/108/83 81/59/83
