# Blender v2.80 (sub 75) OBJ File: 'Dial.blend'
# www.blender.org
mtllib Dial.mtl.mtl
o Cube
v 0.000000 0.000000 -1.000000
v -0.156434 0.000000 -0.987688
v -0.309017 0.000000 -0.951057
v -0.453991 0.000000 -0.891007
v -0.587785 0.000000 -0.809017
v -0.707107 0.000000 -0.707107
v -0.809017 0.000000 -0.587785
v -0.891007 0.000000 -0.453991
v -0.951057 0.000000 -0.309017
v -0.987688 0.000000 -0.156434
v -1.000000 0.000000 0.000000
v -0.987688 0.000000 0.156435
v -0.951056 0.000000 0.309017
v -0.891006 0.000000 0.453991
v -0.809017 0.000000 0.587786
v -0.707106 0.000000 0.707107
v -0.587785 0.000000 0.809017
v -0.453990 0.000000 0.891007
v -0.309016 0.000000 0.951057
v -0.156434 0.000000 0.987688
v 0.000001 0.000000 1.000000
v 0.156435 0.000000 0.987688
v 0.309018 0.000000 0.951056
v 1.970000 0.000000 -0.000001
v 0.453989 0.000000 -0.891007
v 0.309015 0.000000 -0.951057
v 0.156432 0.000000 -0.987689
v -0.148589 0.050000 -0.938151
v -0.156434 0.000000 -0.987688
v 0.000000 0.000000 -1.000000
v 0.000000 0.050000 -0.949845
v -0.293518 0.050000 -0.903357
v -0.309017 0.000000 -0.951057
v -0.431221 0.050000 -0.846318
v -0.453991 0.000000 -0.891007
v -0.558305 0.050000 -0.768441
v -0.587785 0.000000 -0.809017
v -0.671642 0.050000 -0.671642
v -0.707107 0.000000 -0.707107
v -0.768441 0.050000 -0.558305
v -0.809017 0.000000 -0.587785
v -0.846318 0.050000 -0.431221
v -0.891007 0.000000 -0.453991
v -0.903357 0.050000 -0.293518
v -0.951057 0.000000 -0.309017
v -0.938151 0.050000 -0.148589
v -0.987688 0.000000 -0.156434
v -0.949845 0.050000 0.000000
v -1.000000 0.000000 0.000000
v -0.938151 0.050000 0.148589
v -0.987688 0.000000 0.156435
v -0.903357 0.050000 0.293519
v -0.951056 0.000000 0.309017
v -0.846318 0.050000 0.431221
v -0.891006 0.000000 0.453991
v -0.768441 0.050000 0.558306
v -0.809017 0.000000 0.587786
v -0.671642 0.050000 0.671642
v -0.707106 0.000000 0.707107
v -0.558305 0.050000 0.768441
v -0.587785 0.000000 0.809017
v -0.431220 0.050000 0.846319
v -0.453990 0.000000 0.891007
v -0.293518 0.050000 0.903357
v -0.309016 0.000000 0.951057
v -0.148588 0.050000 0.938151
v -0.156434 0.000000 0.987688
v 0.000001 0.050000 0.949845
v 0.000001 0.000000 1.000000
v 0.148589 0.050000 0.938151
v 0.156435 0.000000 0.987688
v 0.290385 0.050000 0.904109
v 0.309018 0.000000 0.951056
v 0.293516 0.050000 -0.903357
v 0.309015 0.000000 -0.951057
v 0.453989 0.000000 -0.891007
v 0.431647 0.050000 -0.846142
v 0.148587 0.050000 -0.938152
v 0.156432 0.000000 -0.987689
v 1.970000 0.000000 -0.000001
v 1.870361 0.050000 -0.000566
vt 0.048446 0.447760
vt 0.023694 0.500134
vt 0.007441 0.555735
vt 0.000085 0.613194
vt 0.001809 0.671096
vt 0.012569 0.728016
vt 0.032101 0.782551
vt 0.059924 0.833360
vt 0.095353 0.879191
vt 0.137514 0.918915
vt 0.185371 0.951554
vt 0.237745 0.976306
vt 0.293346 0.992559
vt 0.350805 0.999915
vt 0.408707 0.998191
vt 0.465627 0.987431
vt 0.520162 0.967899
vt 0.570971 0.940076
vt 0.616802 0.904647
vt 0.656525 0.862486
vt 0.689165 0.814628
vt 0.713917 0.762255
vt 0.730170 0.706654
vt 0.730170 0.000085
vt 0.166639 0.322314
vt 0.120808 0.357743
vt 0.081085 0.399904
vt 0.023694 0.500134
vt 0.007441 0.555735
vt 0.465627 0.987431
vt 0.520162 0.967899
vt 0.095353 0.879191
vt 0.137514 0.918915
vt 0.120808 0.357743
vt 0.081085 0.399904
vt 0.064513 0.456961
vt 0.095515 0.411504
vt 0.133247 0.371458
vt 0.176914 0.337701
vt 0.711712 0.031902
vt 0.711712 0.704011
vt 0.696608 0.755681
vt 0.673098 0.805428
vt 0.642095 0.850885
vt 0.604363 0.890932
vt 0.560832 0.924584
vt 0.512571 0.951011
vt 0.460771 0.969564
vt 0.406706 0.979784
vt 0.351708 0.981422
vt 0.297131 0.974435
vt 0.244319 0.958997
vt 0.194572 0.935487
vt 0.149115 0.904484
vt 0.109068 0.866752
vt 0.075416 0.823221
vt 0.048989 0.774960
vt 0.030436 0.723160
vt 0.020216 0.669095
vt 0.018578 0.614097
vt 0.025565 0.559520
vt 0.041003 0.506707
vt 0.570971 0.940076
vt 0.185371 0.951554
vt 0.730170 0.000085
vt 0.166639 0.322314
vt 0.048446 0.447760
vt 0.616802 0.904647
vt 0.237745 0.976306
vt 0.000085 0.613194
vt 0.001809 0.671096
vt 0.656525 0.862486
vt 0.293346 0.992559
vt 0.012569 0.728016
vt 0.689165 0.814628
vt 0.350805 0.999915
vt 0.032101 0.782551
vt 0.713917 0.762255
vt 0.408707 0.998191
vt 0.059924 0.833360
vt 0.730170 0.706654
vn 0.0000 1.0000 0.0000
vn 0.2334 0.0000 0.9724
vn 0.6494 0.0000 -0.7604
vn 0.9724 0.0000 0.2334
vn -0.2334 0.0000 0.9724
vn 0.0000 -1.0000 -0.0000
vn 0.5225 0.0000 -0.8526
vn 0.9969 0.0000 0.0785
vn -0.5067 0.0000 0.8621
vn -0.0785 0.0000 0.9969
vn 0.3827 0.0000 -0.9239
vn 0.9969 0.0000 -0.0785
vn 0.3827 0.0000 0.9239
vn 0.5225 0.0000 0.8526
vn 0.2334 0.0000 -0.9724
vn 0.9724 0.0000 -0.2334
vn 0.6494 0.0000 0.7604
vn 0.0785 0.0000 -0.9969
vn 0.9239 0.0000 -0.3827
vn -0.3827 0.0000 0.9239
vn 0.7604 0.0000 0.6494
vn -0.0785 0.0000 -0.9969
vn 0.8526 0.0000 -0.5225
vn 0.8526 0.0000 0.5225
vn -0.2334 0.0000 -0.9724
vn 0.7604 0.0000 -0.6494
vn 0.9239 0.0000 0.3827
vn -0.4969 0.0000 -0.8678
vn 0.0555 -0.7071 0.7049
vn 0.1651 -0.7071 0.6876
vn 0.2706 -0.7071 0.6533
vn 0.3695 -0.7071 0.6029
vn 0.4592 -0.7071 0.5377
vn 0.5377 -0.7071 0.4592
vn 0.6029 -0.7071 0.3695
vn 0.6533 -0.7071 0.2706
vn 0.6876 -0.7071 0.1651
vn 0.7049 -0.7071 0.0555
vn 0.7049 -0.7071 -0.0555
vn 0.6876 -0.7071 -0.1651
vn 0.6533 -0.7071 -0.2706
vn 0.6029 -0.7071 -0.3695
vn 0.5377 -0.7071 -0.4592
vn 0.4592 -0.7071 -0.5377
vn 0.3695 -0.7071 -0.6029
vn 0.2706 -0.7071 -0.6533
vn 0.1651 -0.7071 -0.6876
vn 0.0555 -0.7071 -0.7049
vn -0.0555 -0.7071 -0.7049
vn -0.1651 -0.7071 -0.6876
vn -0.2706 -0.7071 0.6533
vn -0.1651 -0.7071 0.6876
vn -0.0555 -0.7071 0.7049
vn -0.3583 -0.7071 0.6096
vn -0.3514 -0.7071 -0.6136
vn 0.0785 0.0000 0.9969
usemtl Material
s off
f 1/1/1 2/2/1 3/3/1 4/4/1 5/5/1 6/6/1 7/7/1 8/8/1 9/9/1 10/10/1 11/11/1 12/12/1 13/13/1 14/14/1 15/15/1 16/16/1 17/17/1 18/18/1 19/19/1 20/20/1 21/21/1 22/22/1 23/23/1 24/24/1 25/25/1 26/26/1 27/27/1
f 3/3/2 2/2/2 29/28/2 33/29/2
f 17/17/3 16/16/3 59/30/3 61/31/3
f 10/10/4 9/9/4 45/32/4 47/33/4
f 27/27/5 26/26/5 75/34/5 79/35/5
f 31/36/6 78/37/6 74/38/6 77/39/6 81/40/6 72/41/6 70/42/6 68/43/6 66/44/6 64/45/6 62/46/6 60/47/6 58/48/6 56/49/6 54/50/6 52/51/6 50/52/6 48/53/6 46/54/6 44/55/6 42/56/6 40/57/6 38/58/6 36/59/6 34/60/6 32/61/6 28/62/6
f 18/18/7 17/17/7 61/31/7 63/63/7
f 11/11/8 10/10/8 47/33/8 49/64/8
f 25/25/9 24/24/9 80/65/9 76/66/9
f 1/1/10 27/27/10 79/35/10 30/67/10
f 19/19/11 18/18/11 63/63/11 65/68/11
f 12/12/12 11/11/12 49/64/12 51/69/12
f 4/4/13 3/3/13 33/29/13 35/70/13
f 5/5/14 4/4/14 35/70/14 37/71/14
f 20/20/15 19/19/15 65/68/15 67/72/15
f 13/13/16 12/12/16 51/69/16 53/73/16
f 6/6/17 5/5/17 37/71/17 39/74/17
f 21/21/18 20/20/18 67/72/18 69/75/18
f 14/14/19 13/13/19 53/73/19 55/76/19
f 26/26/20 25/25/20 76/66/20 75/34/20
f 7/7/21 6/6/21 39/74/21 41/77/21
f 22/22/22 21/21/22 69/75/22 71/78/22
f 15/15/23 14/14/23 55/76/23 57/79/23
f 8/8/24 7/7/24 41/77/24 43/80/24
f 23/23/25 22/22/25 71/78/25 73/81/25
f 16/16/26 15/15/26 57/79/26 59/30/26
f 9/9/27 8/8/27 43/80/27 45/32/27
f 24/24/28 23/23/28 73/81/28 80/65/28
f 29/28/29 30/67/29 31/36/29 28/62/29
f 33/29/30 29/28/30 28/62/30 32/61/30
f 35/70/31 33/29/31 32/61/31 34/60/31
f 37/71/32 35/70/32 34/60/32 36/59/32
f 39/74/33 37/71/33 36/59/33 38/58/33
f 41/77/34 39/74/34 38/58/34 40/57/34
f 43/80/35 41/77/35 40/57/35 42/56/35
f 45/32/36 43/80/36 42/56/36 44/55/36
f 47/33/37 45/32/37 44/55/37 46/54/37
f 49/64/38 47/33/38 46/54/38 48/53/38
f 51/69/39 49/64/39 48/53/39 50/52/39
f 53/73/40 51/69/40 50/52/40 52/51/40
f 55/76/41 53/73/41 52/51/41 54/50/41
f 57/79/42 55/76/42 54/50/42 56/49/42
f 59/30/43 57/79/43 56/49/43 58/48/43
f 61/31/44 59/30/44 58/48/44 60/47/44
f 63/63/45 61/31/45 60/47/45 62/46/45
f 65/68/46 63/63/46 62/46/46 64/45/46
f 67/72/47 65/68/47 64/45/47 66/44/47
f 69/75/48 67/72/48 66/44/48 68/43/48
f 71/78/49 69/75/49 68/43/49 70/42/49
f 73/81/50 71/78/50 70/42/50 72/41/50
f 75/34/51 76/66/51 77/39/51 74/38/51
f 79/35/52 75/34/52 74/38/52 78/37/52
f 30/67/53 79/35/53 78/37/53 31/36/53
f 81/40/54 77/39/54 76/66/54 80/65/54
f 72/41/55 81/40/55 80/65/55 73/81/55
f 2/2/56 1/1/56 30/67/56 29/28/56
