# Blender v2.80 (sub 75) OBJ File: 'SegmentPart.blend'
# www.blender.org
mtllib SegmentPart.mtl
o Plane
v -0.500000 0.000000 1.500000
v 0.500000 0.000000 1.500000
v -0.500000 0.000000 -1.500000
v 0.500000 0.000000 -1.500000
v 0.000000 0.000000 -2.000000
v 0.010938 0.000000 1.990344
v -0.500000 0.050000 1.500000
v 0.500000 0.050000 1.500000
v -0.500000 0.050000 -1.500000
v 0.500000 0.050000 -1.500000
v 0.000000 0.050000 -2.000000
v 0.010938 0.050000 1.990344
vt 0.000000 0.000000
vt 0.000000 0.000000
vt 0.000000 0.000000
vt 0.000000 0.000000
vt 0.000000 0.000000
vt 0.000000 0.000000
vt 0.000000 0.000000
vt 0.000000 0.000000
vt 0.000000 0.000000
vt 0.000000 0.000000
vt 0.000000 0.000000
vt 0.000000 0.000000
vn 0.0000 1.0000 0.0000
vn 0.0000 -1.0000 -0.0000
vn 0.6924 0.0000 -0.7215
vn 0.7071 0.0000 0.7071
vn -0.7080 0.0000 -0.7062
vn -0.7071 0.0000 0.7071
vn -1.0000 0.0000 0.0000
vn 1.0000 0.0000 0.0000
usemtl None
s off
f 3/1/1 1/2/1 6/3/1 2/4/1 4/5/1 5/6/1
f 9/7/2 11/8/2 10/9/2 8/10/2 12/11/2 7/12/2
f 6/3/3 1/2/3 7/12/3 12/11/3
f 3/1/4 5/6/4 11/8/4 9/7/4
f 2/4/5 6/3/5 12/11/5 8/10/5
f 5/6/6 4/5/6 10/9/6 11/8/6
f 4/5/7 2/4/7 8/10/7 10/9/7
f 1/2/8 3/1/8 9/7/8 7/12/8
